ISO-10303-21;
HEADER;
FILE_DESCRIPTION(('Open CASCADE Model'),'2;1');
FILE_NAME('Open CASCADE Shape Model','2026-09-28T15:31:19',('Author'),(
    'Open CASCADE'),'Open CASCADE STEP processor 7.8','Open CASCADE 7.8'
  ,'Unknown');
FILE_SCHEMA(('AUTOMOTIVE_DESIGN { 1 0 10303 214 1 1 1 1 }'));
ENDSEC;
DATA;
#1 = APPLICATION_PROTOCOL_DEFINITION('international standard',
  'automotive_design',2000,#2);
#2 = APPLICATION_CONTEXT(
  'core data for automotive mechanical design processes');
#3 = SHAPE_DEFINITION_REPRESENTATION(#4,#10);
#4 = PRODUCT_DEFINITION_SHAPE('','',#5);
#5 = PRODUCT_DEFINITION('design','',#6,#9);
#6 = PRODUCT_DEFINITION_FORMATION('','',#7);
#7 = PRODUCT('Open CASCADE STEP translator 7.8 2',
  'Open CASCADE STEP translator 7.8 2','',(#8));
#8 = PRODUCT_CONTEXT('',#2,'mechanical');
#9 = PRODUCT_DEFINITION_CONTEXT('part definition',#2,'design');
#10 = ADVANCED_BREP_SHAPE_REPRESENTATION('',(#11,#15),#480);
#11 = AXIS2_PLACEMENT_3D('',#12,#13,#14);
#12 = CARTESIAN_POINT('',(0.,0.,0.));
#13 = DIRECTION('',(0.,0.,1.));
#14 = DIRECTION('',(1.,0.,-0.));
#15 = MANIFOLD_SOLID_BREP('',#16);
#16 = CLOSED_SHELL('',(#17,#300,#335,#339,#394,#448,#452));
#17 = ADVANCED_FACE('',(#18,#105),#32,.T.);
#18 = FACE_BOUND('',#19,.T.);
#19 = EDGE_LOOP('',(#20,#50,#77,#78));
#20 = ORIENTED_EDGE('',*,*,#21,.T.);
#21 = EDGE_CURVE('',#22,#24,#26,.T.);
#22 = VERTEX_POINT('',#23);
#23 = CARTESIAN_POINT('',(12.,-2.939152317954E-15,5.));
#24 = VERTEX_POINT('',#25);
#25 = CARTESIAN_POINT('',(12.,-2.939152317954E-15,55.));
#26 = SEAM_CURVE('',#27,(#31,#43),.PCURVE_S1.);
#27 = LINE('',#28,#29);
#28 = CARTESIAN_POINT('',(12.,-2.939152317954E-15,5.));
#29 = VECTOR('',#30,1.);
#30 = DIRECTION('',(0.,0.,1.));
#31 = PCURVE('',#32,#37);
#32 = CYLINDRICAL_SURFACE('',#33,12.);
#33 = AXIS2_PLACEMENT_3D('',#34,#35,#36);
#34 = CARTESIAN_POINT('',(0.,0.,5.));
#35 = DIRECTION('',(0.,0.,1.));
#36 = DIRECTION('',(1.,0.,-0.));
#37 = DEFINITIONAL_REPRESENTATION('',(#38),#42);
#38 = LINE('',#39,#40);
#39 = CARTESIAN_POINT('',(6.28318530718,-0.));
#40 = VECTOR('',#41,1.);
#41 = DIRECTION('',(0.,1.));
#42 = ( GEOMETRIC_REPRESENTATION_CONTEXT(2) 
PARAMETRIC_REPRESENTATION_CONTEXT() REPRESENTATION_CONTEXT('2D SPACE',''
  ) );
#43 = PCURVE('',#32,#44);
#44 = DEFINITIONAL_REPRESENTATION('',(#45),#49);
#45 = LINE('',#46,#47);
#46 = CARTESIAN_POINT('',(0.,-0.));
#47 = VECTOR('',#48,1.);
#48 = DIRECTION('',(0.,1.));
#49 = ( GEOMETRIC_REPRESENTATION_CONTEXT(2) 
PARAMETRIC_REPRESENTATION_CONTEXT() REPRESENTATION_CONTEXT('2D SPACE',''
  ) );
#50 = ORIENTED_EDGE('',*,*,#51,.F.);
#51 = EDGE_CURVE('',#24,#24,#52,.T.);
#52 = SURFACE_CURVE('',#53,(#58,#65),.PCURVE_S1.);
#53 = CIRCLE('',#54,12.);
#54 = AXIS2_PLACEMENT_3D('',#55,#56,#57);
#55 = CARTESIAN_POINT('',(0.,0.,55.));
#56 = DIRECTION('',(0.,0.,1.));
#57 = DIRECTION('',(1.,0.,-0.));
#58 = PCURVE('',#32,#59);
#59 = DEFINITIONAL_REPRESENTATION('',(#60),#64);
#60 = LINE('',#61,#62);
#61 = CARTESIAN_POINT('',(0.,50.));
#62 = VECTOR('',#63,1.);
#63 = DIRECTION('',(1.,0.));
#64 = ( GEOMETRIC_REPRESENTATION_CONTEXT(2) 
PARAMETRIC_REPRESENTATION_CONTEXT() REPRESENTATION_CONTEXT('2D SPACE',''
  ) );
#65 = PCURVE('',#66,#71);
#66 = PLANE('',#67);
#67 = AXIS2_PLACEMENT_3D('',#68,#69,#70);
#68 = CARTESIAN_POINT('',(0.,0.,55.));
#69 = DIRECTION('',(0.,0.,1.));
#70 = DIRECTION('',(1.,0.,-0.));
#71 = DEFINITIONAL_REPRESENTATION('',(#72),#76);
#72 = CIRCLE('',#73,12.);
#73 = AXIS2_PLACEMENT_2D('',#74,#75);
#74 = CARTESIAN_POINT('',(0.,0.));
#75 = DIRECTION('',(1.,0.));
#76 = ( GEOMETRIC_REPRESENTATION_CONTEXT(2) 
PARAMETRIC_REPRESENTATION_CONTEXT() REPRESENTATION_CONTEXT('2D SPACE',''
  ) );
#77 = ORIENTED_EDGE('',*,*,#21,.F.);
#78 = ORIENTED_EDGE('',*,*,#79,.T.);
#79 = EDGE_CURVE('',#22,#22,#80,.T.);
#80 = SURFACE_CURVE('',#81,(#86,#93),.PCURVE_S1.);
#81 = CIRCLE('',#82,12.);
#82 = AXIS2_PLACEMENT_3D('',#83,#84,#85);
#83 = CARTESIAN_POINT('',(0.,0.,5.));
#84 = DIRECTION('',(0.,0.,1.));
#85 = DIRECTION('',(1.,0.,-0.));
#86 = PCURVE('',#32,#87);
#87 = DEFINITIONAL_REPRESENTATION('',(#88),#92);
#88 = LINE('',#89,#90);
#89 = CARTESIAN_POINT('',(0.,0.));
#90 = VECTOR('',#91,1.);
#91 = DIRECTION('',(1.,0.));
#92 = ( GEOMETRIC_REPRESENTATION_CONTEXT(2) 
PARAMETRIC_REPRESENTATION_CONTEXT() REPRESENTATION_CONTEXT('2D SPACE',''
  ) );
#93 = PCURVE('',#94,#99);
#94 = PLANE('',#95);
#95 = AXIS2_PLACEMENT_3D('',#96,#97,#98);
#96 = CARTESIAN_POINT('',(0.,0.,5.));
#97 = DIRECTION('',(0.,0.,1.));
#98 = DIRECTION('',(1.,0.,-0.));
#99 = DEFINITIONAL_REPRESENTATION('',(#100),#104);
#100 = CIRCLE('',#101,12.);
#101 = AXIS2_PLACEMENT_2D('',#102,#103);
#102 = CARTESIAN_POINT('',(0.,0.));
#103 = DIRECTION('',(1.,0.));
#104 = ( GEOMETRIC_REPRESENTATION_CONTEXT(2) 
PARAMETRIC_REPRESENTATION_CONTEXT() REPRESENTATION_CONTEXT('2D SPACE',''
  ) );
#105 = FACE_BOUND('',#106,.T.);
#106 = EDGE_LOOP('',(#107));
#107 = ORIENTED_EDGE('',*,*,#108,.F.);
#108 = EDGE_CURVE('',#109,#109,#111,.T.);
#109 = VERTEX_POINT('',#110);
#110 = CARTESIAN_POINT('',(-4.898587196589E-16,12.,42.));
#111 = SURFACE_CURVE('',#112,(#171,#233),.PCURVE_S1.);
#112 = B_SPLINE_CURVE_WITH_KNOTS('',8,(#113,#114,#115,#116,#117,#118,
    #119,#120,#121,#122,#123,#124,#125,#126,#127,#128,#129,#130,#131,
    #132,#133,#134,#135,#136,#137,#138,#139,#140,#141,#142,#143,#144,
    #145,#146,#147,#148,#149,#150,#151,#152,#153,#154,#155,#156,#157,
    #158,#159,#160,#161,#162,#163,#164,#165,#166,#167,#168,#169,#170),
  .UNSPECIFIED.,.T.,.F.,(9,7,7,7,7,7,7,7,9),(0.,0.137118178814,
    0.278854740786,0.448780275839,0.594995830122,0.68950800093,
    0.793466095162,0.898464098108,1.),.UNSPECIFIED.);
#113 = CARTESIAN_POINT('',(2.22044604925E-16,12.,42.));
#114 = CARTESIAN_POINT('',(0.232378774723,12.,42.));
#115 = CARTESIAN_POINT('',(0.45935025379,11.994857007614,41.969143251645
    ));
#116 = CARTESIAN_POINT('',(0.676331217561,11.9849907715,41.909940824187)
  );
#117 = CARTESIAN_POINT('',(0.879364806489,11.971359701061,
    41.825571271738));
#118 = CARTESIAN_POINT('',(1.065187346054,11.955296410646,
    41.719871166799));
#119 = CARTESIAN_POINT('',(1.231361462413,11.938237304236,41.59731978071
    ));
#120 = CARTESIAN_POINT('',(1.376452110866,11.921448814579,
    41.463013270373));
#121 = CARTESIAN_POINT('',(1.628160961463,11.889731709292,
    41.177505622534));
#122 = CARTESIAN_POINT('',(1.736249063961,11.874515646268,
    41.022563780153));
#123 = CARTESIAN_POINT('',(1.825137417376,11.860981032286,
    40.860425164708));
#124 = CARTESIAN_POINT('',(1.895476161052,11.849679812601,
    40.693097884221));
#125 = CARTESIAN_POINT('',(1.947825755029,11.840978676273,
    40.522164853183));
#126 = CARTESIAN_POINT('',(1.982596362236,11.835101301025,
    40.348927729915));
#127 = CARTESIAN_POINT('',(2.,11.832159566199,40.174518990732));
#128 = CARTESIAN_POINT('',(2.,11.832159566199,39.790772172936));
#129 = CARTESIAN_POINT('',(1.974984757949,11.83638770354,39.581834909171
    ));
#130 = CARTESIAN_POINT('',(1.925077323477,11.844824399351,
    39.374881721087));
#131 = CARTESIAN_POINT('',(1.849776490011,11.857246818758,
    39.171783386935));
#132 = CARTESIAN_POINT('',(1.748195082322,11.873206242515,
    38.974931450896));
#133 = CARTESIAN_POINT('',(1.619210123301,11.891915679475,
    38.787456164135));
#134 = CARTESIAN_POINT('',(1.461675528823,11.912128593333,
    38.613530704741));
#135 = CARTESIAN_POINT('',(1.114088775935,11.949265447299,
    38.325981935284));
#136 = CARTESIAN_POINT('',(0.925710560835,11.966888622493,
    38.202423936482));
#137 = CARTESIAN_POINT('',(0.712532630062,11.98316665573,38.098908169789
    ));
#138 = CARTESIAN_POINT('',(0.479745870288,11.995956856868,
    38.023316091228));
#139 = CARTESIAN_POINT('',(0.234389959139,12.00332252947,37.980840815502
    ));
#140 = CARTESIAN_POINT('',(-1.557656599869E-02,12.004384426686,
    37.973971048612));
#141 = CARTESIAN_POINT('',(-0.261992593285,11.999452585733,
    38.00239652186));
#142 = CARTESIAN_POINT('',(-0.649531531165,11.983375934464,
    38.101899609051));
#143 = CARTESIAN_POINT('',(-0.798171746105,11.974999339247,
    38.154622615457));
#144 = CARTESIAN_POINT('',(-0.941863742524,11.964791255207,
    38.220629586608));
#145 = CARTESIAN_POINT('',(-1.079236187833,11.953092516753,
    38.299375963213));
#146 = CARTESIAN_POINT('',(-1.208989520385,11.940332049457,
    38.390148879017));
#147 = CARTESIAN_POINT('',(-1.329912223933,11.926998757452,
    38.492074318654));
#148 = CARTESIAN_POINT('',(-1.440906949625,11.913604793028,
    38.604128291348));
#149 = CARTESIAN_POINT('',(-1.651152367344,11.886379891552,
    38.858271343996));
#150 = CARTESIAN_POINT('',(-1.748163346934,11.872633987355,
    39.002295600678));
#151 = CARTESIAN_POINT('',(-1.830764402998,11.86005650966,
    39.155682256122));
#152 = CARTESIAN_POINT('',(-1.897912513231,11.849273863003,
    39.316725925351));
#153 = CARTESIAN_POINT('',(-1.948815914729,11.840811727984,
    39.483603203973));
#154 = CARTESIAN_POINT('',(-1.982937164486,11.835043397831,
    39.654411291636));
#155 = CARTESIAN_POINT('',(-2.,11.832159566199,39.827200407829));
#156 = CARTESIAN_POINT('',(-2.,11.832159566199,40.174528132916));
#157 = CARTESIAN_POINT('',(-1.982594568535,11.835101601962,
    40.348936845405));
#158 = CARTESIAN_POINT('',(-1.94782344602,11.840979070599,40.52216982876
    ));
#159 = CARTESIAN_POINT('',(-1.895475054232,11.849679967778,
    40.693098481157));
#160 = CARTESIAN_POINT('',(-1.825138025755,11.860980906038,
    40.86042343836));
#161 = CARTESIAN_POINT('',(-1.736250309385,11.874515482716,
    41.022562185359));
#162 = CARTESIAN_POINT('',(-1.62816126223,11.889731671393,41.17750528138
    ));
#163 = CARTESIAN_POINT('',(-1.376501555313,11.921442584227,
    41.462957186656));
#164 = CARTESIAN_POINT('',(-1.231414913209,11.938231760346,
    41.597283368067));
#165 = CARTESIAN_POINT('',(-1.065203244973,11.95529642405,41.71987853775
    ));
#166 = CARTESIAN_POINT('',(-0.879318550135,11.97136576028,
    41.825612526823));
#167 = CARTESIAN_POINT('',(-0.67622387439,11.984998840307,
    41.909989174141));
#168 = CARTESIAN_POINT('',(-0.459212809538,11.994861787778,
    41.969171944465));
#169 = CARTESIAN_POINT('',(-0.23227071985,12.,42.));
#170 = CARTESIAN_POINT('',(2.22044604925E-16,12.,42.));
#171 = PCURVE('',#32,#172);
#172 = DEFINITIONAL_REPRESENTATION('',(#173),#232);
#173 = B_SPLINE_CURVE_WITH_KNOTS('',8,(#174,#175,#176,#177,#178,#179,
    #180,#181,#182,#183,#184,#185,#186,#187,#188,#189,#190,#191,#192,
    #193,#194,#195,#196,#197,#198,#199,#200,#201,#202,#203,#204,#205,
    #206,#207,#208,#209,#210,#211,#212,#213,#214,#215,#216,#217,#218,
    #219,#220,#221,#222,#223,#224,#225,#226,#227,#228,#229,#230,#231),
  .UNSPECIFIED.,.T.,.F.,(9,7,7,7,7,7,7,7,9),(0.,0.137118178814,
    0.278854740786,0.448780275839,0.594995830122,0.68950800093,
    0.793466095162,0.898464098108,1.),.UNSPECIFIED.);
#174 = CARTESIAN_POINT('',(1.570796326795,37.));
#175 = CARTESIAN_POINT('',(1.551431428901,37.));
#176 = CARTESIAN_POINT('',(1.532517124961,36.969143251645));
#177 = CARTESIAN_POINT('',(1.514424372623,36.909940824187));
#178 = CARTESIAN_POINT('',(1.497473758344,36.825571271738));
#179 = CARTESIAN_POINT('',(1.481935171419,36.719871166799));
#180 = CARTESIAN_POINT('',(1.468016488886,36.59731978071));
#181 = CARTESIAN_POINT('',(1.455845567334,36.463013270373));
#182 = CARTESIAN_POINT('',(1.434703961396,36.177505622534));
#183 = CARTESIAN_POINT('',(1.425608762946,36.022563780153));
#184 = CARTESIAN_POINT('',(1.418116619268,35.860425164708));
#185 = CARTESIAN_POINT('',(1.412180072384,35.693097884221));
#186 = CARTESIAN_POINT('',(1.407757778572,35.522164853183));
#187 = CARTESIAN_POINT('',(1.404819122722,35.348927729915));
#188 = CARTESIAN_POINT('',(1.403348247575,35.174518990732));
#189 = CARTESIAN_POINT('',(1.403348247575,34.790772172936));
#190 = CARTESIAN_POINT('',(1.40546242005,34.581834909171));
#191 = CARTESIAN_POINT('',(1.409680374702,34.374881721087));
#192 = CARTESIAN_POINT('',(1.416040210254,34.171783386935));
#193 = CARTESIAN_POINT('',(1.424608610704,33.974931450896));
#194 = CARTESIAN_POINT('',(1.435468028682,33.787456164135));
#195 = CARTESIAN_POINT('',(1.448700562608,33.613530704741));
#196 = CARTESIAN_POINT('',(1.477830980167,33.325981935284));
#197 = CARTESIAN_POINT('',(1.493596339001,33.202423936482));
#198 = CARTESIAN_POINT('',(1.511408505961,33.098908169789));
#199 = CARTESIAN_POINT('',(1.530827263375,33.023316091228));
#200 = CARTESIAN_POINT('',(1.551269440226,32.980840815502));
#201 = CARTESIAN_POINT('',(1.572090000197,32.973971048612));
#202 = CARTESIAN_POINT('',(1.592624048688,33.00239652186));
#203 = CARTESIAN_POINT('',(1.6249467367,33.101899609051));
#204 = CARTESIAN_POINT('',(1.637351711235,33.154622615457));
#205 = CARTESIAN_POINT('',(1.649354122326,33.220629586608));
#206 = CARTESIAN_POINT('',(1.660841156916,33.299375963213));
#207 = CARTESIAN_POINT('',(1.671704499489,33.390148879017));
#208 = CARTESIAN_POINT('',(1.68184154879,33.492074318654));
#209 = CARTESIAN_POINT('',(1.691157860236,33.604128291348));
#210 = CARTESIAN_POINT('',(1.708824591944,33.858271343996));
#211 = CARTESIAN_POINT('',(1.71698898941,34.002295600678));
#212 = CARTESIAN_POINT('',(1.723951265358,34.155682256122));
#213 = CARTESIAN_POINT('',(1.729618400498,34.316725925351));
#214 = CARTESIAN_POINT('',(1.733918534748,34.483603203973));
#215 = CARTESIAN_POINT('',(1.736802351116,34.654411291636));
#216 = CARTESIAN_POINT('',(1.738244406015,34.827200407829));
#217 = CARTESIAN_POINT('',(1.738244406015,35.174528132916));
#218 = CARTESIAN_POINT('',(1.736773379326,35.348936845405));
#219 = CARTESIAN_POINT('',(1.733834679796,35.52216982876));
#220 = CARTESIAN_POINT('',(1.729412488078,35.693098481157));
#221 = CARTESIAN_POINT('',(1.723476086068,35.86042343836));
#222 = CARTESIAN_POINT('',(1.715983995273,36.022562185359));
#223 = CARTESIAN_POINT('',(1.706888717456,36.17750528138));
#224 = CARTESIAN_POINT('',(1.685751239208,36.462957186656));
#225 = CARTESIAN_POINT('',(1.673580642134,36.597283368067));
#226 = CARTESIAN_POINT('',(1.659658797433,36.71987853775));
#227 = CARTESIAN_POINT('',(1.644115013954,36.825612526823));
#228 = CARTESIAN_POINT('',(1.627159319175,36.909989174141));
#229 = CARTESIAN_POINT('',(1.609064075194,36.969171944465));
#230 = CARTESIAN_POINT('',(1.590152220116,37.));
#231 = CARTESIAN_POINT('',(1.570796326795,37.));
#232 = ( GEOMETRIC_REPRESENTATION_CONTEXT(2) 
PARAMETRIC_REPRESENTATION_CONTEXT() REPRESENTATION_CONTEXT('2D SPACE',''
  ) );
#233 = PCURVE('',#234,#239);
#234 = CYLINDRICAL_SURFACE('',#235,2.);
#235 = AXIS2_PLACEMENT_3D('',#236,#237,#238);
#236 = CARTESIAN_POINT('',(0.,8.,40.));
#237 = DIRECTION('',(0.,1.,0.));
#238 = DIRECTION('',(0.,-0.,1.));
#239 = DEFINITIONAL_REPRESENTATION('',(#240),#299);
#240 = B_SPLINE_CURVE_WITH_KNOTS('',8,(#241,#242,#243,#244,#245,#246,
    #247,#248,#249,#250,#251,#252,#253,#254,#255,#256,#257,#258,#259,
    #260,#261,#262,#263,#264,#265,#266,#267,#268,#269,#270,#271,#272,
    #273,#274,#275,#276,#277,#278,#279,#280,#281,#282,#283,#284,#285,
    #286,#287,#288,#289,#290,#291,#292,#293,#294,#295,#296,#297,#298),
  .UNSPECIFIED.,.F.,.F.,(9,7,7,7,7,7,7,7,9),(0.,0.137118178814,
    0.278854740786,0.448780275839,0.594995830122,0.68950800093,
    0.793466095162,0.898464098108,1.),.UNSPECIFIED.);
#241 = CARTESIAN_POINT('',(0.,4.));
#242 = CARTESIAN_POINT('',(0.116189387361,4.));
#243 = CARTESIAN_POINT('',(0.229675062921,3.994857007614));
#244 = CARTESIAN_POINT('',(0.340555863799,3.9849907715));
#245 = CARTESIAN_POINT('',(0.448776266838,3.971359701061));
#246 = CARTESIAN_POINT('',(0.55414487859,3.955296410646));
#247 = CARTESIAN_POINT('',(0.65630332153,3.938237304236));
#248 = CARTESIAN_POINT('',(0.75465084839,3.921448814579));
#249 = CARTESIAN_POINT('',(0.944961096698,3.889731709292));
#250 = CARTESIAN_POINT('',(1.038812954523,3.874515646268));
#251 = CARTESIAN_POINT('',(1.130394134431,3.860981032286));
#252 = CARTESIAN_POINT('',(1.220203142224,3.849679812601));
#253 = CARTESIAN_POINT('',(1.308701178282,3.840978676273));
#254 = CARTESIAN_POINT('',(1.396332568262,3.835101301025));
#255 = CARTESIAN_POINT('',(1.483536831429,3.832159566199));
#256 = CARTESIAN_POINT('',(1.675410240327,3.832159566199));
#257 = CARTESIAN_POINT('',(1.77987854472,3.83638770354));
#258 = CARTESIAN_POINT('',(1.885100920226,3.844824399351));
#259 = CARTESIAN_POINT('',(1.99186222205,3.857246818758));
#260 = CARTESIAN_POINT('',(2.100927108766,3.873206242515));
#261 = CARTESIAN_POINT('',(2.213082502333,3.891915679475));
#262 = CARTESIAN_POINT('',(2.329206488924,3.912128593333));
#263 = CARTESIAN_POINT('',(2.554761828918,3.949265447299));
#264 = CARTESIAN_POINT('',(2.66671541262,3.966888622493));
#265 = CARTESIAN_POINT('',(2.783563825404,3.98316665573));
#266 = CARTESIAN_POINT('',(2.903597199177,3.995956856868));
#267 = CARTESIAN_POINT('',(3.025602080711,4.00332252947));
#268 = CARTESIAN_POINT('',(3.148536940304,4.004384426686));
#269 = CARTESIAN_POINT('',(3.271408981186,3.999452585733));
#270 = CARTESIAN_POINT('',(3.471463531705,3.983375934464));
#271 = CARTESIAN_POINT('',(3.550004533604,3.974999339247));
#272 = CARTESIAN_POINT('',(3.62853949793,3.964791255207));
#273 = CARTESIAN_POINT('',(3.707074113887,3.953092516753));
#274 = CARTESIAN_POINT('',(3.785613979323,3.940332049457));
#275 = CARTESIAN_POINT('',(3.864159366318,3.926998757452));
#276 = CARTESIAN_POINT('',(3.942704106572,3.913604793028));
#277 = CARTESIAN_POINT('',(4.107622136879,3.886379891552));
#278 = CARTESIAN_POINT('',(4.194026767478,3.872633987355));
#279 = CARTESIAN_POINT('',(4.280428793158,3.86005650966));
#280 = CARTESIAN_POINT('',(4.36682124432,3.849273863003));
#281 = CARTESIAN_POINT('',(4.453207438031,3.840811727984));
#282 = CARTESIAN_POINT('',(4.539594833831,3.835043397831));
#283 = CARTESIAN_POINT('',(4.625989184299,3.832159566199));
#284 = CARTESIAN_POINT('',(4.799653046843,3.832159566199));
#285 = CARTESIAN_POINT('',(4.886857285917,3.835101601962));
#286 = CARTESIAN_POINT('',(4.974486783554,3.840979070599));
#287 = CARTESIAN_POINT('',(5.062982669646,3.849679967778));
#288 = CARTESIAN_POINT('',(5.152790299515,3.860980906038));
#289 = CARTESIAN_POINT('',(5.244371347829,3.874515482716));
#290 = CARTESIAN_POINT('',(5.33822398308,3.889731671393));
#291 = CARTESIAN_POINT('',(5.528497075181,3.921442584227));
#292 = CARTESIAN_POINT('',(5.626850665927,3.938231760346));
#293 = CARTESIAN_POINT('',(5.729036402516,3.95529642405));
#294 = CARTESIAN_POINT('',(5.834438329427,3.97136576028));
#295 = CARTESIAN_POINT('',(5.94268640949,3.984998840307));
#296 = CARTESIAN_POINT('',(6.053578976716,3.994861787778));
#297 = CARTESIAN_POINT('',(6.167049947254,4.));
#298 = CARTESIAN_POINT('',(6.28318530718,4.));
#299 = ( GEOMETRIC_REPRESENTATION_CONTEXT(2) 
PARAMETRIC_REPRESENTATION_CONTEXT() REPRESENTATION_CONTEXT('2D SPACE',''
  ) );
#300 = ADVANCED_FACE('',(#301,#304),#94,.F.);
#301 = FACE_BOUND('',#302,.F.);
#302 = EDGE_LOOP('',(#303));
#303 = ORIENTED_EDGE('',*,*,#79,.T.);
#304 = FACE_BOUND('',#305,.F.);
#305 = EDGE_LOOP('',(#306));
#306 = ORIENTED_EDGE('',*,*,#307,.F.);
#307 = EDGE_CURVE('',#308,#308,#310,.T.);
#308 = VERTEX_POINT('',#309);
#309 = CARTESIAN_POINT('',(4.,-9.797174393179E-16,5.));
#310 = SURFACE_CURVE('',#311,(#316,#323),.PCURVE_S1.);
#311 = CIRCLE('',#312,4.);
#312 = AXIS2_PLACEMENT_3D('',#313,#314,#315);
#313 = CARTESIAN_POINT('',(0.,0.,5.));
#314 = DIRECTION('',(0.,0.,1.));
#315 = DIRECTION('',(1.,0.,-0.));
#316 = PCURVE('',#94,#317);
#317 = DEFINITIONAL_REPRESENTATION('',(#318),#322);
#318 = CIRCLE('',#319,4.);
#319 = AXIS2_PLACEMENT_2D('',#320,#321);
#320 = CARTESIAN_POINT('',(0.,0.));
#321 = DIRECTION('',(1.,0.));
#322 = ( GEOMETRIC_REPRESENTATION_CONTEXT(2) 
PARAMETRIC_REPRESENTATION_CONTEXT() REPRESENTATION_CONTEXT('2D SPACE',''
  ) );
#323 = PCURVE('',#324,#329);
#324 = CYLINDRICAL_SURFACE('',#325,4.);
#325 = AXIS2_PLACEMENT_3D('',#326,#327,#328);
#326 = CARTESIAN_POINT('',(0.,0.,5.));
#327 = DIRECTION('',(0.,0.,1.));
#328 = DIRECTION('',(1.,0.,-0.));
#329 = DEFINITIONAL_REPRESENTATION('',(#330),#334);
#330 = LINE('',#331,#332);
#331 = CARTESIAN_POINT('',(0.,0.));
#332 = VECTOR('',#333,1.);
#333 = DIRECTION('',(1.,0.));
#334 = ( GEOMETRIC_REPRESENTATION_CONTEXT(2) 
PARAMETRIC_REPRESENTATION_CONTEXT() REPRESENTATION_CONTEXT('2D SPACE',''
  ) );
#335 = ADVANCED_FACE('',(#336),#66,.T.);
#336 = FACE_BOUND('',#337,.T.);
#337 = EDGE_LOOP('',(#338));
#338 = ORIENTED_EDGE('',*,*,#51,.T.);
#339 = ADVANCED_FACE('',(#340),#234,.F.);
#340 = FACE_BOUND('',#341,.F.);
#341 = EDGE_LOOP('',(#342,#343,#366,#393));
#342 = ORIENTED_EDGE('',*,*,#108,.F.);
#343 = ORIENTED_EDGE('',*,*,#344,.F.);
#344 = EDGE_CURVE('',#345,#109,#347,.T.);
#345 = VERTEX_POINT('',#346);
#346 = CARTESIAN_POINT('',(-4.898587196589E-16,8.,42.));
#347 = SEAM_CURVE('',#348,(#352,#359),.PCURVE_S1.);
#348 = LINE('',#349,#350);
#349 = CARTESIAN_POINT('',(-4.898587196589E-16,8.,42.));
#350 = VECTOR('',#351,1.);
#351 = DIRECTION('',(0.,1.,0.));
#352 = PCURVE('',#234,#353);
#353 = DEFINITIONAL_REPRESENTATION('',(#354),#358);
#354 = LINE('',#355,#356);
#355 = CARTESIAN_POINT('',(6.28318530718,-0.));
#356 = VECTOR('',#357,1.);
#357 = DIRECTION('',(0.,1.));
#358 = ( GEOMETRIC_REPRESENTATION_CONTEXT(2) 
PARAMETRIC_REPRESENTATION_CONTEXT() REPRESENTATION_CONTEXT('2D SPACE',''
  ) );
#359 = PCURVE('',#234,#360);
#360 = DEFINITIONAL_REPRESENTATION('',(#361),#365);
#361 = LINE('',#362,#363);
#362 = CARTESIAN_POINT('',(0.,-0.));
#363 = VECTOR('',#364,1.);
#364 = DIRECTION('',(0.,1.));
#365 = ( GEOMETRIC_REPRESENTATION_CONTEXT(2) 
PARAMETRIC_REPRESENTATION_CONTEXT() REPRESENTATION_CONTEXT('2D SPACE',''
  ) );
#366 = ORIENTED_EDGE('',*,*,#367,.T.);
#367 = EDGE_CURVE('',#345,#345,#368,.T.);
#368 = SURFACE_CURVE('',#369,(#374,#381),.PCURVE_S1.);
#369 = CIRCLE('',#370,2.);
#370 = AXIS2_PLACEMENT_3D('',#371,#372,#373);
#371 = CARTESIAN_POINT('',(0.,8.,40.));
#372 = DIRECTION('',(0.,1.,0.));
#373 = DIRECTION('',(0.,-0.,1.));
#374 = PCURVE('',#234,#375);
#375 = DEFINITIONAL_REPRESENTATION('',(#376),#380);
#376 = LINE('',#377,#378);
#377 = CARTESIAN_POINT('',(0.,0.));
#378 = VECTOR('',#379,1.);
#379 = DIRECTION('',(1.,0.));
#380 = ( GEOMETRIC_REPRESENTATION_CONTEXT(2) 
PARAMETRIC_REPRESENTATION_CONTEXT() REPRESENTATION_CONTEXT('2D SPACE',''
  ) );
#381 = PCURVE('',#382,#387);
#382 = PLANE('',#383);
#383 = AXIS2_PLACEMENT_3D('',#384,#385,#386);
#384 = CARTESIAN_POINT('',(0.,8.,40.));
#385 = DIRECTION('',(0.,1.,0.));
#386 = DIRECTION('',(0.,-0.,1.));
#387 = DEFINITIONAL_REPRESENTATION('',(#388),#392);
#388 = CIRCLE('',#389,2.);
#389 = AXIS2_PLACEMENT_2D('',#390,#391);
#390 = CARTESIAN_POINT('',(0.,0.));
#391 = DIRECTION('',(1.,0.));
#392 = ( GEOMETRIC_REPRESENTATION_CONTEXT(2) 
PARAMETRIC_REPRESENTATION_CONTEXT() REPRESENTATION_CONTEXT('2D SPACE',''
  ) );
#393 = ORIENTED_EDGE('',*,*,#344,.T.);
#394 = ADVANCED_FACE('',(#395),#324,.F.);
#395 = FACE_BOUND('',#396,.F.);
#396 = EDGE_LOOP('',(#397,#425,#446,#447));
#397 = ORIENTED_EDGE('',*,*,#398,.F.);
#398 = EDGE_CURVE('',#399,#399,#401,.T.);
#399 = VERTEX_POINT('',#400);
#400 = CARTESIAN_POINT('',(4.,-9.797174393179E-16,25.));
#401 = SURFACE_CURVE('',#402,(#407,#414),.PCURVE_S1.);
#402 = CIRCLE('',#403,4.);
#403 = AXIS2_PLACEMENT_3D('',#404,#405,#406);
#404 = CARTESIAN_POINT('',(0.,0.,25.));
#405 = DIRECTION('',(0.,0.,1.));
#406 = DIRECTION('',(1.,0.,-0.));
#407 = PCURVE('',#324,#408);
#408 = DEFINITIONAL_REPRESENTATION('',(#409),#413);
#409 = LINE('',#410,#411);
#410 = CARTESIAN_POINT('',(0.,20.));
#411 = VECTOR('',#412,1.);
#412 = DIRECTION('',(1.,0.));
#413 = ( GEOMETRIC_REPRESENTATION_CONTEXT(2) 
PARAMETRIC_REPRESENTATION_CONTEXT() REPRESENTATION_CONTEXT('2D SPACE',''
  ) );
#414 = PCURVE('',#415,#420);
#415 = CONICAL_SURFACE('',#416,4.,1.030376826524);
#416 = AXIS2_PLACEMENT_3D('',#417,#418,#419);
#417 = CARTESIAN_POINT('',(0.,0.,25.));
#418 = DIRECTION('',(-0.,-0.,-1.));
#419 = DIRECTION('',(1.,0.,-0.));
#420 = DEFINITIONAL_REPRESENTATION('',(#421),#424);
#421 = B_SPLINE_CURVE_WITH_KNOTS('',1,(#422,#423),.UNSPECIFIED.,.F.,.F.,
  (2,2),(0.,6.28318530718),.PIECEWISE_BEZIER_KNOTS.);
#422 = CARTESIAN_POINT('',(0.,0.));
#423 = CARTESIAN_POINT('',(-6.28318530718,0.));
#424 = ( GEOMETRIC_REPRESENTATION_CONTEXT(2) 
PARAMETRIC_REPRESENTATION_CONTEXT() REPRESENTATION_CONTEXT('2D SPACE',''
  ) );
#425 = ORIENTED_EDGE('',*,*,#426,.F.);
#426 = EDGE_CURVE('',#308,#399,#427,.T.);
#427 = SEAM_CURVE('',#428,(#432,#439),.PCURVE_S1.);
#428 = LINE('',#429,#430);
#429 = CARTESIAN_POINT('',(4.,-9.797174393179E-16,5.));
#430 = VECTOR('',#431,1.);
#431 = DIRECTION('',(0.,0.,1.));
#432 = PCURVE('',#324,#433);
#433 = DEFINITIONAL_REPRESENTATION('',(#434),#438);
#434 = LINE('',#435,#436);
#435 = CARTESIAN_POINT('',(6.28318530718,-0.));
#436 = VECTOR('',#437,1.);
#437 = DIRECTION('',(0.,1.));
#438 = ( GEOMETRIC_REPRESENTATION_CONTEXT(2) 
PARAMETRIC_REPRESENTATION_CONTEXT() REPRESENTATION_CONTEXT('2D SPACE',''
  ) );
#439 = PCURVE('',#324,#440);
#440 = DEFINITIONAL_REPRESENTATION('',(#441),#445);
#441 = LINE('',#442,#443);
#442 = CARTESIAN_POINT('',(0.,-0.));
#443 = VECTOR('',#444,1.);
#444 = DIRECTION('',(0.,1.));
#445 = ( GEOMETRIC_REPRESENTATION_CONTEXT(2) 
PARAMETRIC_REPRESENTATION_CONTEXT() REPRESENTATION_CONTEXT('2D SPACE',''
  ) );
#446 = ORIENTED_EDGE('',*,*,#307,.T.);
#447 = ORIENTED_EDGE('',*,*,#426,.T.);
#448 = ADVANCED_FACE('',(#449),#382,.T.);
#449 = FACE_BOUND('',#450,.F.);
#450 = EDGE_LOOP('',(#451));
#451 = ORIENTED_EDGE('',*,*,#367,.F.);
#452 = ADVANCED_FACE('',(#453),#415,.F.);
#453 = FACE_BOUND('',#454,.F.);
#454 = EDGE_LOOP('',(#455,#478,#479));
#455 = ORIENTED_EDGE('',*,*,#456,.F.);
#456 = EDGE_CURVE('',#399,#457,#459,.T.);
#457 = VERTEX_POINT('',#458);
#458 = CARTESIAN_POINT('',(4.440892098501E-16,-1.087704858758E-31,27.4)
  );
#459 = SEAM_CURVE('',#460,(#464,#471),.PCURVE_S1.);
#460 = LINE('',#461,#462);
#461 = CARTESIAN_POINT('',(4.,-9.797174393179E-16,25.));
#462 = VECTOR('',#463,1.);
#463 = DIRECTION('',(-0.857492925713,2.100251933531E-16,0.514495755428)
  );
#464 = PCURVE('',#415,#465);
#465 = DEFINITIONAL_REPRESENTATION('',(#466),#470);
#466 = LINE('',#467,#468);
#467 = CARTESIAN_POINT('',(-6.28318530718,0.));
#468 = VECTOR('',#469,1.);
#469 = DIRECTION('',(-0.,-1.));
#470 = ( GEOMETRIC_REPRESENTATION_CONTEXT(2) 
PARAMETRIC_REPRESENTATION_CONTEXT() REPRESENTATION_CONTEXT('2D SPACE',''
  ) );
#471 = PCURVE('',#415,#472);
#472 = DEFINITIONAL_REPRESENTATION('',(#473),#477);
#473 = LINE('',#474,#475);
#474 = CARTESIAN_POINT('',(0.,-0.));
#475 = VECTOR('',#476,1.);
#476 = DIRECTION('',(-0.,-1.));
#477 = ( GEOMETRIC_REPRESENTATION_CONTEXT(2) 
PARAMETRIC_REPRESENTATION_CONTEXT() REPRESENTATION_CONTEXT('2D SPACE',''
  ) );
#478 = ORIENTED_EDGE('',*,*,#398,.T.);
#479 = ORIENTED_EDGE('',*,*,#456,.T.);
#480 = ( GEOMETRIC_REPRESENTATION_CONTEXT(3) 
GLOBAL_UNCERTAINTY_ASSIGNED_CONTEXT((#484)) GLOBAL_UNIT_ASSIGNED_CONTEXT
((#481,#482,#483)) REPRESENTATION_CONTEXT('Context #1',
  '3D Context with UNIT and UNCERTAINTY') );
#481 = ( LENGTH_UNIT() NAMED_UNIT(*) SI_UNIT(.MILLI.,.METRE.) );
#482 = ( NAMED_UNIT(*) PLANE_ANGLE_UNIT() SI_UNIT($,.RADIAN.) );
#483 = ( NAMED_UNIT(*) SI_UNIT($,.STERADIAN.) SOLID_ANGLE_UNIT() );
#484 = UNCERTAINTY_MEASURE_WITH_UNIT(LENGTH_MEASURE(1.E-07),#481,
  'distance_accuracy_value','confusion accuracy');
#485 = PRODUCT_RELATED_PRODUCT_CATEGORY('part',$,(#7));
ENDSEC;
END-ISO-10303-21;
