ISO-10303-21;
HEADER;
FILE_DESCRIPTION(('Open CASCADE Model'),'2;1');
FILE_NAME('Open CASCADE Shape Model','2026-09-28T15:31:21',('Author'),(
    'Open CASCADE'),'Open CASCADE STEP processor 7.8','Open CASCADE 7.8'
  ,'Unknown');
FILE_SCHEMA(('AUTOMOTIVE_DESIGN { 1 0 10303 214 1 1 1 1 }'));
ENDSEC;
DATA;
#1 = APPLICATION_PROTOCOL_DEFINITION('international standard',
  'automotive_design',2000,#2);
#2 = APPLICATION_CONTEXT(
  'core data for automotive mechanical design processes');
#3 = SHAPE_DEFINITION_REPRESENTATION(#4,#10);
#4 = PRODUCT_DEFINITION_SHAPE('','',#5);
#5 = PRODUCT_DEFINITION('design','',#6,#9);
#6 = PRODUCT_DEFINITION_FORMATION('','',#7);
#7 = PRODUCT('Open CASCADE STEP translator 7.8 11',
  'Open CASCADE STEP translator 7.8 11','',(#8));
#8 = PRODUCT_CONTEXT('',#2,'mechanical');
#9 = PRODUCT_DEFINITION_CONTEXT('part definition',#2,'design');
#10 = ADVANCED_BREP_SHAPE_REPRESENTATION('',(#11,#15),#1045);
#11 = AXIS2_PLACEMENT_3D('',#12,#13,#14);
#12 = CARTESIAN_POINT('',(0.,0.,0.));
#13 = DIRECTION('',(0.,0.,1.));
#14 = DIRECTION('',(1.,0.,-0.));
#15 = MANIFOLD_SOLID_BREP('',#16);
#16 = CLOSED_SHELL('',(#17,#442,#477,#574,#622,#676,#724,#778,#825,#984,
    #1010));
#17 = ADVANCED_FACE('',(#18),#31,.T.);
#18 = FACE_BOUND('',#19,.T.);
#19 = EDGE_LOOP('',(#20,#54,#77,#106,#133,#166,#193,#226,#253,#392,#419,
    #441));
#20 = ORIENTED_EDGE('',*,*,#21,.F.);
#21 = EDGE_CURVE('',#22,#22,#24,.T.);
#22 = VERTEX_POINT('',#23);
#23 = CARTESIAN_POINT('',(13.5,0.,202.));
#24 = SURFACE_CURVE('',#25,(#30,#42),.PCURVE_S1.);
#25 = CIRCLE('',#26,13.5);
#26 = AXIS2_PLACEMENT_3D('',#27,#28,#29);
#27 = CARTESIAN_POINT('',(0.,0.,202.));
#28 = DIRECTION('',(0.,0.,1.));
#29 = DIRECTION('',(1.,0.,-0.));
#30 = PCURVE('',#31,#36);
#31 = CYLINDRICAL_SURFACE('',#32,13.5);
#32 = AXIS2_PLACEMENT_3D('',#33,#34,#35);
#33 = CARTESIAN_POINT('',(0.,0.,22.));
#34 = DIRECTION('',(-0.,-0.,-1.));
#35 = DIRECTION('',(1.,0.,0.));
#36 = DEFINITIONAL_REPRESENTATION('',(#37),#41);
#37 = LINE('',#38,#39);
#38 = CARTESIAN_POINT('',(6.28318530718,-180.));
#39 = VECTOR('',#40,1.);
#40 = DIRECTION('',(-1.,0.));
#41 = ( GEOMETRIC_REPRESENTATION_CONTEXT(2) 
PARAMETRIC_REPRESENTATION_CONTEXT() REPRESENTATION_CONTEXT('2D SPACE',''
  ) );
#42 = PCURVE('',#43,#48);
#43 = PLANE('',#44);
#44 = AXIS2_PLACEMENT_3D('',#45,#46,#47);
#45 = CARTESIAN_POINT('',(-1.215502340035E-15,-5.510910596163E-16,202.)
  );
#46 = DIRECTION('',(0.,0.,1.));
#47 = DIRECTION('',(1.,0.,-0.));
#48 = DEFINITIONAL_REPRESENTATION('',(#49),#53);
#49 = CIRCLE('',#50,13.5);
#50 = AXIS2_PLACEMENT_2D('',#51,#52);
#51 = CARTESIAN_POINT('',(1.215502340035E-15,5.510910596163E-16));
#52 = DIRECTION('',(1.,0.));
#53 = ( GEOMETRIC_REPRESENTATION_CONTEXT(2) 
PARAMETRIC_REPRESENTATION_CONTEXT() REPRESENTATION_CONTEXT('2D SPACE',''
  ) );
#54 = ORIENTED_EDGE('',*,*,#55,.F.);
#55 = EDGE_CURVE('',#56,#22,#58,.T.);
#56 = VERTEX_POINT('',#57);
#57 = CARTESIAN_POINT('',(13.5,0.,22.));
#58 = SEAM_CURVE('',#59,(#63,#70),.PCURVE_S1.);
#59 = LINE('',#60,#61);
#60 = CARTESIAN_POINT('',(13.5,0.,22.));
#61 = VECTOR('',#62,1.);
#62 = DIRECTION('',(0.,0.,1.));
#63 = PCURVE('',#31,#64);
#64 = DEFINITIONAL_REPRESENTATION('',(#65),#69);
#65 = LINE('',#66,#67);
#66 = CARTESIAN_POINT('',(6.283185307179,0.));
#67 = VECTOR('',#68,1.);
#68 = DIRECTION('',(-0.,-1.));
#69 = ( GEOMETRIC_REPRESENTATION_CONTEXT(2) 
PARAMETRIC_REPRESENTATION_CONTEXT() REPRESENTATION_CONTEXT('2D SPACE',''
  ) );
#70 = PCURVE('',#31,#71);
#71 = DEFINITIONAL_REPRESENTATION('',(#72),#76);
#72 = LINE('',#73,#74);
#73 = CARTESIAN_POINT('',(-0.,0.));
#74 = VECTOR('',#75,1.);
#75 = DIRECTION('',(-0.,-1.));
#76 = ( GEOMETRIC_REPRESENTATION_CONTEXT(2) 
PARAMETRIC_REPRESENTATION_CONTEXT() REPRESENTATION_CONTEXT('2D SPACE',''
  ) );
#77 = ORIENTED_EDGE('',*,*,#78,.T.);
#78 = EDGE_CURVE('',#56,#79,#81,.T.);
#79 = VERTEX_POINT('',#80);
#80 = CARTESIAN_POINT('',(2.5,13.266499161422,22.));
#81 = SURFACE_CURVE('',#82,(#87,#94),.PCURVE_S1.);
#82 = CIRCLE('',#83,13.5);
#83 = AXIS2_PLACEMENT_3D('',#84,#85,#86);
#84 = CARTESIAN_POINT('',(0.,0.,22.));
#85 = DIRECTION('',(0.,0.,1.));
#86 = DIRECTION('',(1.,0.,-0.));
#87 = PCURVE('',#31,#88);
#88 = DEFINITIONAL_REPRESENTATION('',(#89),#93);
#89 = LINE('',#90,#91);
#90 = CARTESIAN_POINT('',(6.28318530718,0.));
#91 = VECTOR('',#92,1.);
#92 = DIRECTION('',(-1.,0.));
#93 = ( GEOMETRIC_REPRESENTATION_CONTEXT(2) 
PARAMETRIC_REPRESENTATION_CONTEXT() REPRESENTATION_CONTEXT('2D SPACE',''
  ) );
#94 = PCURVE('',#95,#100);
#95 = PLANE('',#96);
#96 = AXIS2_PLACEMENT_3D('',#97,#98,#99);
#97 = CARTESIAN_POINT('',(-1.215502340035E-15,-5.510910596163E-16,22.));
#98 = DIRECTION('',(0.,0.,1.));
#99 = DIRECTION('',(1.,0.,-0.));
#100 = DEFINITIONAL_REPRESENTATION('',(#101),#105);
#101 = CIRCLE('',#102,13.5);
#102 = AXIS2_PLACEMENT_2D('',#103,#104);
#103 = CARTESIAN_POINT('',(1.215502340035E-15,5.510910596163E-16));
#104 = DIRECTION('',(1.,0.));
#105 = ( GEOMETRIC_REPRESENTATION_CONTEXT(2) 
PARAMETRIC_REPRESENTATION_CONTEXT() REPRESENTATION_CONTEXT('2D SPACE',''
  ) );
#106 = ORIENTED_EDGE('',*,*,#107,.F.);
#107 = EDGE_CURVE('',#108,#79,#110,.T.);
#108 = VERTEX_POINT('',#109);
#109 = CARTESIAN_POINT('',(2.5,13.266499161422,40.));
#110 = SURFACE_CURVE('',#111,(#115,#121),.PCURVE_S1.);
#111 = LINE('',#112,#113);
#112 = CARTESIAN_POINT('',(2.5,13.266499161422,22.));
#113 = VECTOR('',#114,1.);
#114 = DIRECTION('',(-0.,-0.,-1.));
#115 = PCURVE('',#31,#116);
#116 = DEFINITIONAL_REPRESENTATION('',(#117),#120);
#117 = B_SPLINE_CURVE_WITH_KNOTS('',1,(#118,#119),.UNSPECIFIED.,.F.,.F.,
  (2,2),(-39.15,6.E-07),.PIECEWISE_BEZIER_KNOTS.);
#118 = CARTESIAN_POINT('',(4.898649283962,-39.15));
#119 = CARTESIAN_POINT('',(4.898649283962,6.E-07));
#120 = ( GEOMETRIC_REPRESENTATION_CONTEXT(2) 
PARAMETRIC_REPRESENTATION_CONTEXT() REPRESENTATION_CONTEXT('2D SPACE',''
  ) );
#121 = PCURVE('',#122,#127);
#122 = PLANE('',#123);
#123 = AXIS2_PLACEMENT_3D('',#124,#125,#126);
#124 = CARTESIAN_POINT('',(2.5,0.,21.));
#125 = DIRECTION('',(1.,0.,-0.));
#126 = DIRECTION('',(0.,0.,1.));
#127 = DEFINITIONAL_REPRESENTATION('',(#128),#132);
#128 = LINE('',#129,#130);
#129 = CARTESIAN_POINT('',(1.,-13.26649916142));
#130 = VECTOR('',#131,1.);
#131 = DIRECTION('',(-1.,0.));
#132 = ( GEOMETRIC_REPRESENTATION_CONTEXT(2) 
PARAMETRIC_REPRESENTATION_CONTEXT() REPRESENTATION_CONTEXT('2D SPACE',''
  ) );
#133 = ORIENTED_EDGE('',*,*,#134,.T.);
#134 = EDGE_CURVE('',#108,#135,#137,.T.);
#135 = VERTEX_POINT('',#136);
#136 = CARTESIAN_POINT('',(12.235155124995,5.705346533499,40.));
#137 = SURFACE_CURVE('',#138,(#143,#150),.PCURVE_S1.);
#138 = CIRCLE('',#139,13.5);
#139 = AXIS2_PLACEMENT_3D('',#140,#141,#142);
#140 = CARTESIAN_POINT('',(0.,0.,40.));
#141 = DIRECTION('',(0.,0.,-1.));
#142 = DIRECTION('',(1.,0.,0.));
#143 = PCURVE('',#31,#144);
#144 = DEFINITIONAL_REPRESENTATION('',(#145),#149);
#145 = LINE('',#146,#147);
#146 = CARTESIAN_POINT('',(-4.138911435803E-13,-18.));
#147 = VECTOR('',#148,1.);
#148 = DIRECTION('',(1.,-0.));
#149 = ( GEOMETRIC_REPRESENTATION_CONTEXT(2) 
PARAMETRIC_REPRESENTATION_CONTEXT() REPRESENTATION_CONTEXT('2D SPACE',''
  ) );
#150 = PCURVE('',#151,#156);
#151 = PLANE('',#152);
#152 = AXIS2_PLACEMENT_3D('',#153,#154,#155);
#153 = CARTESIAN_POINT('',(0.,0.,40.));
#154 = DIRECTION('',(0.,0.,1.));
#155 = DIRECTION('',(0.906307787037,0.422618261741,-0.));
#156 = DEFINITIONAL_REPRESENTATION('',(#157),#165);
#157 = ( BOUNDED_CURVE() B_SPLINE_CURVE(2,(#158,#159,#160,#161,#162,#163
,#164),.UNSPECIFIED.,.T.,.F.) B_SPLINE_CURVE_WITH_KNOTS((1,2,2,2,2,1),(
    -2.094395102393,0.,2.094395102393,4.188790204786,6.28318530718,
8.377580409573),.UNSPECIFIED.) CURVE() GEOMETRIC_REPRESENTATION_ITEM() 
RATIONAL_B_SPLINE_CURVE((1.,0.5,1.,0.5,1.,0.5,1.)) REPRESENTATION_ITEM(
  '') );
#158 = CARTESIAN_POINT('',(12.235155124994,-5.705346533501));
#159 = CARTESIAN_POINT('',(2.353205054183,-26.89725684847));
#160 = CARTESIAN_POINT('',(-11.0585525979,-7.743281890738));
#161 = CARTESIAN_POINT('',(-24.47031024998,11.410693067002));
#162 = CARTESIAN_POINT('',(-1.176602527092,13.448628424239));
#163 = CARTESIAN_POINT('',(22.117105195805,15.486563781476));
#164 = CARTESIAN_POINT('',(12.235155124994,-5.705346533501));
#165 = ( GEOMETRIC_REPRESENTATION_CONTEXT(2) 
PARAMETRIC_REPRESENTATION_CONTEXT() REPRESENTATION_CONTEXT('2D SPACE',''
  ) );
#166 = ORIENTED_EDGE('',*,*,#167,.F.);
#167 = EDGE_CURVE('',#168,#135,#170,.T.);
#168 = VERTEX_POINT('',#169);
#169 = CARTESIAN_POINT('',(12.235155124995,5.705346533499,46.));
#170 = SURFACE_CURVE('',#171,(#175,#181),.PCURVE_S1.);
#171 = LINE('',#172,#173);
#172 = CARTESIAN_POINT('',(12.235155124995,5.705346533499,22.));
#173 = VECTOR('',#174,1.);
#174 = DIRECTION('',(-0.,-0.,-1.));
#175 = PCURVE('',#31,#176);
#176 = DEFINITIONAL_REPRESENTATION('',(#177),#180);
#177 = B_SPLINE_CURVE_WITH_KNOTS('',1,(#178,#179),.UNSPECIFIED.,.F.,.F.,
  (2,2),(-24.6,-17.4),.PIECEWISE_BEZIER_KNOTS.);
#178 = CARTESIAN_POINT('',(5.846852994181,-24.6));
#179 = CARTESIAN_POINT('',(5.846852994181,-17.4));
#180 = ( GEOMETRIC_REPRESENTATION_CONTEXT(2) 
PARAMETRIC_REPRESENTATION_CONTEXT() REPRESENTATION_CONTEXT('2D SPACE',''
  ) );
#181 = PCURVE('',#182,#187);
#182 = PLANE('',#183);
#183 = AXIS2_PLACEMENT_3D('',#184,#185,#186);
#184 = CARTESIAN_POINT('',(0.,0.,40.));
#185 = DIRECTION('',(0.422618261741,-0.906307787037,0.));
#186 = DIRECTION('',(0.906307787037,0.422618261741,0.));
#187 = DEFINITIONAL_REPRESENTATION('',(#188),#192);
#188 = LINE('',#189,#190);
#189 = CARTESIAN_POINT('',(13.5,-18.));
#190 = VECTOR('',#191,1.);
#191 = DIRECTION('',(0.,-1.));
#192 = ( GEOMETRIC_REPRESENTATION_CONTEXT(2) 
PARAMETRIC_REPRESENTATION_CONTEXT() REPRESENTATION_CONTEXT('2D SPACE',''
  ) );
#193 = ORIENTED_EDGE('',*,*,#194,.F.);
#194 = EDGE_CURVE('',#195,#168,#197,.T.);
#195 = VERTEX_POINT('',#196);
#196 = CARTESIAN_POINT('',(2.5,13.266499161422,46.));
#197 = SURFACE_CURVE('',#198,(#203,#210),.PCURVE_S1.);
#198 = CIRCLE('',#199,13.5);
#199 = AXIS2_PLACEMENT_3D('',#200,#201,#202);
#200 = CARTESIAN_POINT('',(0.,0.,46.));
#201 = DIRECTION('',(0.,0.,-1.));
#202 = DIRECTION('',(1.,0.,0.));
#203 = PCURVE('',#31,#204);
#204 = DEFINITIONAL_REPRESENTATION('',(#205),#209);
#205 = LINE('',#206,#207);
#206 = CARTESIAN_POINT('',(-4.138911435803E-13,-24.));
#207 = VECTOR('',#208,1.);
#208 = DIRECTION('',(1.,-0.));
#209 = ( GEOMETRIC_REPRESENTATION_CONTEXT(2) 
PARAMETRIC_REPRESENTATION_CONTEXT() REPRESENTATION_CONTEXT('2D SPACE',''
  ) );
#210 = PCURVE('',#211,#216);
#211 = PLANE('',#212);
#212 = AXIS2_PLACEMENT_3D('',#213,#214,#215);
#213 = CARTESIAN_POINT('',(0.,0.,46.));
#214 = DIRECTION('',(0.,0.,1.));
#215 = DIRECTION('',(0.906307787037,0.422618261741,-0.));
#216 = DEFINITIONAL_REPRESENTATION('',(#217),#225);
#217 = ( BOUNDED_CURVE() B_SPLINE_CURVE(2,(#218,#219,#220,#221,#222,#223
,#224),.UNSPECIFIED.,.T.,.F.) B_SPLINE_CURVE_WITH_KNOTS((1,2,2,2,2,1),(
    -2.094395102393,0.,2.094395102393,4.188790204786,6.28318530718,
8.377580409573),.UNSPECIFIED.) CURVE() GEOMETRIC_REPRESENTATION_ITEM() 
RATIONAL_B_SPLINE_CURVE((1.,0.5,1.,0.5,1.,0.5,1.)) REPRESENTATION_ITEM(
  '') );
#218 = CARTESIAN_POINT('',(12.235155124994,-5.705346533501));
#219 = CARTESIAN_POINT('',(2.353205054183,-26.89725684847));
#220 = CARTESIAN_POINT('',(-11.0585525979,-7.743281890738));
#221 = CARTESIAN_POINT('',(-24.47031024998,11.410693067002));
#222 = CARTESIAN_POINT('',(-1.176602527092,13.448628424239));
#223 = CARTESIAN_POINT('',(22.117105195805,15.486563781476));
#224 = CARTESIAN_POINT('',(12.235155124994,-5.705346533501));
#225 = ( GEOMETRIC_REPRESENTATION_CONTEXT(2) 
PARAMETRIC_REPRESENTATION_CONTEXT() REPRESENTATION_CONTEXT('2D SPACE',''
  ) );
#226 = ORIENTED_EDGE('',*,*,#227,.F.);
#227 = EDGE_CURVE('',#228,#195,#230,.T.);
#228 = VERTEX_POINT('',#229);
#229 = CARTESIAN_POINT('',(2.5,13.266499161422,57.5));
#230 = SURFACE_CURVE('',#231,(#235,#241),.PCURVE_S1.);
#231 = LINE('',#232,#233);
#232 = CARTESIAN_POINT('',(2.5,13.266499161422,22.));
#233 = VECTOR('',#234,1.);
#234 = DIRECTION('',(-0.,-0.,-1.));
#235 = PCURVE('',#31,#236);
#236 = DEFINITIONAL_REPRESENTATION('',(#237),#240);
#237 = B_SPLINE_CURVE_WITH_KNOTS('',1,(#238,#239),.UNSPECIFIED.,.F.,.F.,
  (2,2),(-39.15,6.E-07),.PIECEWISE_BEZIER_KNOTS.);
#238 = CARTESIAN_POINT('',(4.898649283962,-39.15));
#239 = CARTESIAN_POINT('',(4.898649283962,6.E-07));
#240 = ( GEOMETRIC_REPRESENTATION_CONTEXT(2) 
PARAMETRIC_REPRESENTATION_CONTEXT() REPRESENTATION_CONTEXT('2D SPACE',''
  ) );
#241 = PCURVE('',#242,#247);
#242 = PLANE('',#243);
#243 = AXIS2_PLACEMENT_3D('',#244,#245,#246);
#244 = CARTESIAN_POINT('',(2.5,0.,21.));
#245 = DIRECTION('',(1.,0.,-0.));
#246 = DIRECTION('',(0.,0.,1.));
#247 = DEFINITIONAL_REPRESENTATION('',(#248),#252);
#248 = LINE('',#249,#250);
#249 = CARTESIAN_POINT('',(1.,-13.26649916142));
#250 = VECTOR('',#251,1.);
#251 = DIRECTION('',(-1.,0.));
#252 = ( GEOMETRIC_REPRESENTATION_CONTEXT(2) 
PARAMETRIC_REPRESENTATION_CONTEXT() REPRESENTATION_CONTEXT('2D SPACE',''
  ) );
#253 = ORIENTED_EDGE('',*,*,#254,.T.);
#254 = EDGE_CURVE('',#228,#255,#257,.T.);
#255 = VERTEX_POINT('',#256);
#256 = CARTESIAN_POINT('',(-2.5,13.266499161422,57.5));
#257 = SURFACE_CURVE('',#258,(#285,#336),.PCURVE_S1.);
#258 = B_SPLINE_CURVE_WITH_KNOTS('',7,(#259,#260,#261,#262,#263,#264,
    #265,#266,#267,#268,#269,#270,#271,#272,#273,#274,#275,#276,#277,
    #278,#279,#280,#281,#282,#283,#284),.UNSPECIFIED.,.F.,.F.,(8,6,6,6,8
    ),(0.,0.551167728342,1.,1.469645230679,2.00176083611),
  .UNSPECIFIED.);
#259 = CARTESIAN_POINT('',(2.5,13.266499161422,57.5));
#260 = CARTESIAN_POINT('',(2.5,13.266499161422,57.769090754433));
#261 = CARTESIAN_POINT('',(2.46620992867,13.272866631709,58.037803055167
    ));
#262 = CARTESIAN_POINT('',(2.39879235004,13.285571557623,58.303672388584
    ));
#263 = CARTESIAN_POINT('',(2.296927421219,13.304204844128,58.5639516699)
  );
#264 = CARTESIAN_POINT('',(2.159091659923,13.327950396373,
    58.815114801926));
#265 = CARTESIAN_POINT('',(1.983322331606,13.355287614254,
    59.052211574327));
#266 = CARTESIAN_POINT('',(1.592233798016,13.40694375921,59.443300107917
    ));
#267 = CARTESIAN_POINT('',(1.386092099385,13.431438660087,
    59.608773142418));
#268 = CARTESIAN_POINT('',(1.150297266559,13.455422967346,
    59.754653584399));
#269 = CARTESIAN_POINT('',(0.888086319461,13.47643728115,59.872755066067
    ));
#270 = CARTESIAN_POINT('',(0.604508395277,13.491909015508,
    59.956310125469));
#271 = CARTESIAN_POINT('',(0.305977145783,13.5,60.));
#272 = CARTESIAN_POINT('',(-0.320165719552,13.5,60.));
#273 = CARTESIAN_POINT('',(-0.631617721904,13.491141212081,
    59.952164370799));
#274 = CARTESIAN_POINT('',(-0.926055881673,13.474293345725,
    59.861176104393));
#275 = CARTESIAN_POINT('',(-1.196571459451,13.451623765004,
    59.733218733878));
#276 = CARTESIAN_POINT('',(-1.437855269238,13.426076068684,
    59.575958654626));
#277 = CARTESIAN_POINT('',(-1.64667826411,13.400369759618,
    59.398515375715));
#278 = CARTESIAN_POINT('',(-2.021541561126,13.349297900498,
    58.999326509485));
#279 = CARTESIAN_POINT('',(-2.184069582513,13.323632515744,
    58.768573140796));
#280 = CARTESIAN_POINT('',(-2.311698891142,13.301500228395,
    58.525436422301));
#281 = CARTESIAN_POINT('',(-2.406130912045,13.284188504167,
    58.274189066579));
#282 = CARTESIAN_POINT('',(-2.468666757062,13.272403689153,
    58.017930618625));
#283 = CARTESIAN_POINT('',(-2.5,13.266499161422,57.759122656446));
#284 = CARTESIAN_POINT('',(-2.5,13.266499161422,57.5));
#285 = PCURVE('',#31,#286);
#286 = DEFINITIONAL_REPRESENTATION('',(#287),#335);
#287 = B_SPLINE_CURVE_WITH_KNOTS('',3,(#288,#289,#290,#291,#292,#293,
    #294,#295,#296,#297,#298,#299,#300,#301,#302,#303,#304,#305,#306,
    #307,#308,#309,#310,#311,#312,#313,#314,#315,#316,#317,#318,#319,
    #320,#321,#322,#323,#324,#325,#326,#327,#328,#329,#330,#331,#332,
    #333,#334),.UNSPECIFIED.,.F.,.F.,(4,1,1,1,1,1,1,1,1,1,1,1,1,1,1,1,1,
    1,1,1,1,1,1,1,1,1,1,1,1,1,1,1,1,1,1,1,1,1,1,1,1,1,1,1,4),(0.,
    4.549456445705E-02,9.098912891411E-02,0.136483693371,0.181978257828,
    0.227472822285,0.272967386742,0.318461951199,0.363956515656,
    0.409451080113,0.454945644571,0.500440209028,0.545934773485,
    0.591429337942,0.636923902399,0.682418466856,0.727913031313,
    0.77340759577,0.818902160227,0.864396724684,0.909891289141,
    0.955385853598,1.000880418055,1.046374982512,1.091869546969,
    1.137364111426,1.182858675883,1.22835324034,1.273847804797,
    1.319342369255,1.364836933712,1.410331498169,1.455826062626,
    1.501320627083,1.54681519154,1.592309755997,1.637804320454,
    1.683298884911,1.728793449368,1.774288013825,1.819782578282,
    1.865277142739,1.910771707196,1.956266271653,2.00176083611),
  .UNSPECIFIED.);
#288 = CARTESIAN_POINT('',(4.898649283962,-35.5));
#289 = CARTESIAN_POINT('',(4.898649088421,-35.55182501435));
#290 = CARTESIAN_POINT('',(4.898406497956,-35.65544418409));
#291 = CARTESIAN_POINT('',(4.897313612323,-35.81046462831));
#292 = CARTESIAN_POINT('',(4.895490199217,-35.96476889044));
#293 = CARTESIAN_POINT('',(4.892931671235,-36.11802158253));
#294 = CARTESIAN_POINT('',(4.889631688919,-36.26986240516));
#295 = CARTESIAN_POINT('',(4.885582079725,-36.41989798351));
#296 = CARTESIAN_POINT('',(4.880773096181,-36.56769664694));
#297 = CARTESIAN_POINT('',(4.875193741227,-36.71277981202));
#298 = CARTESIAN_POINT('',(4.868831529287,-36.85462137498));
#299 = CARTESIAN_POINT('',(4.861674488852,-36.99261558746));
#300 = CARTESIAN_POINT('',(4.853704822597,-37.12615987152));
#301 = CARTESIAN_POINT('',(4.844923762643,-37.25430603407));
#302 = CARTESIAN_POINT('',(4.83526006208,-37.3770193418));
#303 = CARTESIAN_POINT('',(4.824617464508,-37.49391789634));
#304 = CARTESIAN_POINT('',(4.813064720573,-37.60265992405));
#305 = CARTESIAN_POINT('',(4.800644211412,-37.70156401777));
#306 = CARTESIAN_POINT('',(4.787420544413,-37.78892888251));
#307 = CARTESIAN_POINT('',(4.773465528377,-37.86321731681));
#308 = CARTESIAN_POINT('',(4.758863554436,-37.9230087013));
#309 = CARTESIAN_POINT('',(4.743699528402,-37.96701256894));
#310 = CARTESIAN_POINT('',(4.728096841237,-37.99406888231));
#311 = CARTESIAN_POINT('',(4.712073358046,-38.00314013666));
#312 = CARTESIAN_POINT('',(4.69607661582,-37.99334939585));
#313 = CARTESIAN_POINT('',(4.680508246864,-37.96566988167));
#314 = CARTESIAN_POINT('',(4.665392050472,-37.92115791429));
#315 = CARTESIAN_POINT('',(4.650843471062,-37.86098727397));
#316 = CARTESIAN_POINT('',(4.636943314701,-37.78643926056));
#317 = CARTESIAN_POINT('',(4.623770953121,-37.69890462863));
#318 = CARTESIAN_POINT('',(4.611394525754,-37.59988164136));
#319 = CARTESIAN_POINT('',(4.599872902099,-37.49097696665));
#320 = CARTESIAN_POINT('',(4.589252921776,-37.37389815307));
#321 = CARTESIAN_POINT('',(4.579573177197,-37.25047588597));
#322 = CARTESIAN_POINT('',(4.570845873562,-37.12257435912));
#323 = CARTESIAN_POINT('',(4.562915546484,-36.98921959617));
#324 = CARTESIAN_POINT('',(4.55579611906,-36.8514833882));
#325 = CARTESIAN_POINT('',(4.549466423224,-36.70992423507));
#326 = CARTESIAN_POINT('',(4.543915499716,-36.56515056579));
#327 = CARTESIAN_POINT('',(4.539130752131,-36.41768033733));
#328 = CARTESIAN_POINT('',(4.535101399154,-36.26798847913));
#329 = CARTESIAN_POINT('',(4.531817823158,-36.11650330447));
#330 = CARTESIAN_POINT('',(4.529271984441,-35.96361616332));
#331 = CARTESIAN_POINT('',(4.527457632147,-35.80968634212));
#332 = CARTESIAN_POINT('',(4.526370225166,-35.65504914067));
#333 = CARTESIAN_POINT('',(4.526128865833,-35.55169213047));
#334 = CARTESIAN_POINT('',(4.526128676809,-35.5));
#335 = ( GEOMETRIC_REPRESENTATION_CONTEXT(2) 
PARAMETRIC_REPRESENTATION_CONTEXT() REPRESENTATION_CONTEXT('2D SPACE',''
  ) );
#336 = PCURVE('',#337,#342);
#337 = CYLINDRICAL_SURFACE('',#338,2.5);
#338 = AXIS2_PLACEMENT_3D('',#339,#340,#341);
#339 = CARTESIAN_POINT('',(0.,0.,57.5));
#340 = DIRECTION('',(0.,1.,0.));
#341 = DIRECTION('',(0.,-0.,1.));
#342 = DEFINITIONAL_REPRESENTATION('',(#343),#391);
#343 = B_SPLINE_CURVE_WITH_KNOTS('',3,(#344,#345,#346,#347,#348,#349,
    #350,#351,#352,#353,#354,#355,#356,#357,#358,#359,#360,#361,#362,
    #363,#364,#365,#366,#367,#368,#369,#370,#371,#372,#373,#374,#375,
    #376,#377,#378,#379,#380,#381,#382,#383,#384,#385,#386,#387,#388,
    #389,#390),.UNSPECIFIED.,.F.,.F.,(4,1,1,1,1,1,1,1,1,1,1,1,1,1,1,1,1,
    1,1,1,1,1,1,1,1,1,1,1,1,1,1,1,1,1,1,1,1,1,1,1,1,1,1,1,4),(0.,
    4.549456445705E-02,9.098912891411E-02,0.136483693371,0.181978257828,
    0.227472822285,0.272967386742,0.318461951199,0.363956515656,
    0.409451080113,0.454945644571,0.500440209028,0.545934773485,
    0.591429337942,0.636923902399,0.682418466856,0.727913031313,
    0.77340759577,0.818902160227,0.864396724684,0.909891289141,
    0.955385853598,1.000880418055,1.046374982512,1.091869546969,
    1.137364111426,1.182858675883,1.22835324034,1.273847804797,
    1.319342369255,1.364836933712,1.410331498169,1.455826062626,
    1.501320627083,1.54681519154,1.592309755997,1.637804320454,
    1.683298884911,1.728793449368,1.774288013825,1.819782578282,
    1.865277142739,1.910771707196,1.956266271653,2.00176083611),
  .UNSPECIFIED.);
#344 = CARTESIAN_POINT('',(7.853981633974,13.266499161422));
#345 = CARTESIAN_POINT('',(7.833251342307,13.266497874417));
#346 = CARTESIAN_POINT('',(7.791804091619,13.26710753102));
#347 = CARTESIAN_POINT('',(7.72955527459,13.269830784281));
#348 = CARTESIAN_POINT('',(7.667109598034,13.274341135594));
#349 = CARTESIAN_POINT('',(7.604351572015,13.280595028529));
#350 = CARTESIAN_POINT('',(7.541166252422,13.288533128855));
#351 = CARTESIAN_POINT('',(7.477438572765,13.298076847577));
#352 = CARTESIAN_POINT('',(7.413051890401,13.309127171403));
#353 = CARTESIAN_POINT('',(7.34788791943,13.321562326766));
#354 = CARTESIAN_POINT('',(7.281821952521,13.335236544298));
#355 = CARTESIAN_POINT('',(7.214735090524,13.349974594041));
#356 = CARTESIAN_POINT('',(7.146462107873,13.365581407504));
#357 = CARTESIAN_POINT('',(7.076978034374,13.381795115873));
#358 = CARTESIAN_POINT('',(7.005691727988,13.398451135148));
#359 = CARTESIAN_POINT('',(6.931960422353,13.415347009598));
#360 = CARTESIAN_POINT('',(6.856253507646,13.431964209897));
#361 = CARTESIAN_POINT('',(6.778700399163,13.44782736332));
#362 = CARTESIAN_POINT('',(6.69947592939,13.462432070969));
#363 = CARTESIAN_POINT('',(6.618699082795,13.475286479025));
#364 = CARTESIAN_POINT('',(6.536478753538,13.485922642767));
#365 = CARTESIAN_POINT('',(6.45285402441,13.49391550172));
#366 = CARTESIAN_POINT('',(6.368005140426,13.498899573971));
#367 = CARTESIAN_POINT('',(6.281483009183,13.500582539343));
#368 = CARTESIAN_POINT('',(6.19509289877,13.498766347185));
#369 = CARTESIAN_POINT('',(6.110396170556,13.493669592943));
#370 = CARTESIAN_POINT('',(6.026981920213,13.485589672608));
#371 = CARTESIAN_POINT('',(5.944994063676,13.474895051257));
#372 = CARTESIAN_POINT('',(5.864455230585,13.462008569926));
#373 = CARTESIAN_POINT('',(5.78544993839,13.447391962475));
#374 = CARTESIAN_POINT('',(5.708077845913,13.431529143509));
#375 = CARTESIAN_POINT('',(5.632471420508,13.414910042589));
#376 = CARTESIAN_POINT('',(5.558789807166,13.398012514011));
#377 = CARTESIAN_POINT('',(5.487247237229,13.381292620947));
#378 = CARTESIAN_POINT('',(5.418030558753,13.365146760727));
#379 = CARTESIAN_POINT('',(5.349947894508,13.349595903436));
#380 = CARTESIAN_POINT('',(5.283060425661,13.334919121033));
#381 = CARTESIAN_POINT('',(5.217180303841,13.321303689716));
#382 = CARTESIAN_POINT('',(5.152195462755,13.308924326805));
#383 = CARTESIAN_POINT('',(5.087980396622,13.297924871196));
#384 = CARTESIAN_POINT('',(5.024418296836,13.288426010543));
#385 = CARTESIAN_POINT('',(4.961393610338,13.280525830365));
#386 = CARTESIAN_POINT('',(4.898792694242,13.274302247873));
#387 = CARTESIAN_POINT('',(4.83650221028,13.269814070991));
#388 = CARTESIAN_POINT('',(4.774408503677,13.267104424591));
#389 = CARTESIAN_POINT('',(4.733066117737,13.266497876354));
#390 = CARTESIAN_POINT('',(4.712388980385,13.266499161422));
#391 = ( GEOMETRIC_REPRESENTATION_CONTEXT(2) 
PARAMETRIC_REPRESENTATION_CONTEXT() REPRESENTATION_CONTEXT('2D SPACE',''
  ) );
#392 = ORIENTED_EDGE('',*,*,#393,.T.);
#393 = EDGE_CURVE('',#255,#394,#396,.T.);
#394 = VERTEX_POINT('',#395);
#395 = CARTESIAN_POINT('',(-2.5,13.266499161422,22.));
#396 = SURFACE_CURVE('',#397,(#401,#407),.PCURVE_S1.);
#397 = LINE('',#398,#399);
#398 = CARTESIAN_POINT('',(-2.5,13.266499161422,22.));
#399 = VECTOR('',#400,1.);
#400 = DIRECTION('',(-0.,-0.,-1.));
#401 = PCURVE('',#31,#402);
#402 = DEFINITIONAL_REPRESENTATION('',(#403),#406);
#403 = B_SPLINE_CURVE_WITH_KNOTS('',1,(#404,#405),.UNSPECIFIED.,.F.,.F.,
  (2,2),(-39.15,6.E-07),.PIECEWISE_BEZIER_KNOTS.);
#404 = CARTESIAN_POINT('',(4.526128676809,-39.15));
#405 = CARTESIAN_POINT('',(4.526128676809,6.E-07));
#406 = ( GEOMETRIC_REPRESENTATION_CONTEXT(2) 
PARAMETRIC_REPRESENTATION_CONTEXT() REPRESENTATION_CONTEXT('2D SPACE',''
  ) );
#407 = PCURVE('',#408,#413);
#408 = PLANE('',#409);
#409 = AXIS2_PLACEMENT_3D('',#410,#411,#412);
#410 = CARTESIAN_POINT('',(-2.5,0.,21.));
#411 = DIRECTION('',(1.,0.,-0.));
#412 = DIRECTION('',(0.,0.,1.));
#413 = DEFINITIONAL_REPRESENTATION('',(#414),#418);
#414 = LINE('',#415,#416);
#415 = CARTESIAN_POINT('',(1.,-13.26649916142));
#416 = VECTOR('',#417,1.);
#417 = DIRECTION('',(-1.,0.));
#418 = ( GEOMETRIC_REPRESENTATION_CONTEXT(2) 
PARAMETRIC_REPRESENTATION_CONTEXT() REPRESENTATION_CONTEXT('2D SPACE',''
  ) );
#419 = ORIENTED_EDGE('',*,*,#420,.T.);
#420 = EDGE_CURVE('',#394,#56,#421,.T.);
#421 = SURFACE_CURVE('',#422,(#427,#434),.PCURVE_S1.);
#422 = CIRCLE('',#423,13.5);
#423 = AXIS2_PLACEMENT_3D('',#424,#425,#426);
#424 = CARTESIAN_POINT('',(0.,0.,22.));
#425 = DIRECTION('',(0.,0.,1.));
#426 = DIRECTION('',(1.,0.,-0.));
#427 = PCURVE('',#31,#428);
#428 = DEFINITIONAL_REPRESENTATION('',(#429),#433);
#429 = LINE('',#430,#431);
#430 = CARTESIAN_POINT('',(6.28318530718,0.));
#431 = VECTOR('',#432,1.);
#432 = DIRECTION('',(-1.,0.));
#433 = ( GEOMETRIC_REPRESENTATION_CONTEXT(2) 
PARAMETRIC_REPRESENTATION_CONTEXT() REPRESENTATION_CONTEXT('2D SPACE',''
  ) );
#434 = PCURVE('',#95,#435);
#435 = DEFINITIONAL_REPRESENTATION('',(#436),#440);
#436 = CIRCLE('',#437,13.5);
#437 = AXIS2_PLACEMENT_2D('',#438,#439);
#438 = CARTESIAN_POINT('',(1.215502340035E-15,5.510910596163E-16));
#439 = DIRECTION('',(1.,0.));
#440 = ( GEOMETRIC_REPRESENTATION_CONTEXT(2) 
PARAMETRIC_REPRESENTATION_CONTEXT() REPRESENTATION_CONTEXT('2D SPACE',''
  ) );
#441 = ORIENTED_EDGE('',*,*,#55,.T.);
#442 = ADVANCED_FACE('',(#443,#446),#43,.T.);
#443 = FACE_BOUND('',#444,.T.);
#444 = EDGE_LOOP('',(#445));
#445 = ORIENTED_EDGE('',*,*,#21,.T.);
#446 = FACE_BOUND('',#447,.T.);
#447 = EDGE_LOOP('',(#448));
#448 = ORIENTED_EDGE('',*,*,#449,.F.);
#449 = EDGE_CURVE('',#450,#450,#452,.T.);
#450 = VERTEX_POINT('',#451);
#451 = CARTESIAN_POINT('',(12.5,3.947459643112E-16,202.));
#452 = SURFACE_CURVE('',#453,(#458,#465),.PCURVE_S1.);
#453 = CIRCLE('',#454,12.5);
#454 = AXIS2_PLACEMENT_3D('',#455,#456,#457);
#455 = CARTESIAN_POINT('',(6.421201019462E-14,3.947459643112E-16,202.));
#456 = DIRECTION('',(0.,0.,1.));
#457 = DIRECTION('',(1.,0.,-0.));
#458 = PCURVE('',#43,#459);
#459 = DEFINITIONAL_REPRESENTATION('',(#460),#464);
#460 = CIRCLE('',#461,12.5);
#461 = AXIS2_PLACEMENT_2D('',#462,#463);
#462 = CARTESIAN_POINT('',(6.542751253466E-14,9.458370239275E-16));
#463 = DIRECTION('',(1.,0.));
#464 = ( GEOMETRIC_REPRESENTATION_CONTEXT(2) 
PARAMETRIC_REPRESENTATION_CONTEXT() REPRESENTATION_CONTEXT('2D SPACE',''
  ) );
#465 = PCURVE('',#466,#471);
#466 = CYLINDRICAL_SURFACE('',#467,12.5);
#467 = AXIS2_PLACEMENT_3D('',#468,#469,#470);
#468 = CARTESIAN_POINT('',(6.421201019462E-14,3.947459643112E-16,22.));
#469 = DIRECTION('',(-0.,-0.,-1.));
#470 = DIRECTION('',(1.,0.,0.));
#471 = DEFINITIONAL_REPRESENTATION('',(#472),#476);
#472 = LINE('',#473,#474);
#473 = CARTESIAN_POINT('',(6.28318530718,-180.));
#474 = VECTOR('',#475,1.);
#475 = DIRECTION('',(-1.,0.));
#476 = ( GEOMETRIC_REPRESENTATION_CONTEXT(2) 
PARAMETRIC_REPRESENTATION_CONTEXT() REPRESENTATION_CONTEXT('2D SPACE',''
  ) );
#477 = ADVANCED_FACE('',(#478),#95,.F.);
#478 = FACE_BOUND('',#479,.F.);
#479 = EDGE_LOOP('',(#480,#481,#482,#505,#529,#553));
#480 = ORIENTED_EDGE('',*,*,#420,.T.);
#481 = ORIENTED_EDGE('',*,*,#78,.T.);
#482 = ORIENTED_EDGE('',*,*,#483,.F.);
#483 = EDGE_CURVE('',#484,#79,#486,.T.);
#484 = VERTEX_POINT('',#485);
#485 = CARTESIAN_POINT('',(2.5,12.247448713916,22.));
#486 = SURFACE_CURVE('',#487,(#491,#498),.PCURVE_S1.);
#487 = LINE('',#488,#489);
#488 = CARTESIAN_POINT('',(2.5,-2.755455298082E-16,22.));
#489 = VECTOR('',#490,1.);
#490 = DIRECTION('',(-0.,1.,0.));
#491 = PCURVE('',#95,#492);
#492 = DEFINITIONAL_REPRESENTATION('',(#493),#497);
#493 = LINE('',#494,#495);
#494 = CARTESIAN_POINT('',(2.5,2.755455298081E-16));
#495 = VECTOR('',#496,1.);
#496 = DIRECTION('',(0.,1.));
#497 = ( GEOMETRIC_REPRESENTATION_CONTEXT(2) 
PARAMETRIC_REPRESENTATION_CONTEXT() REPRESENTATION_CONTEXT('2D SPACE',''
  ) );
#498 = PCURVE('',#122,#499);
#499 = DEFINITIONAL_REPRESENTATION('',(#500),#504);
#500 = LINE('',#501,#502);
#501 = CARTESIAN_POINT('',(1.,2.755455298082E-16));
#502 = VECTOR('',#503,1.);
#503 = DIRECTION('',(0.,-1.));
#504 = ( GEOMETRIC_REPRESENTATION_CONTEXT(2) 
PARAMETRIC_REPRESENTATION_CONTEXT() REPRESENTATION_CONTEXT('2D SPACE',''
  ) );
#505 = ORIENTED_EDGE('',*,*,#506,.F.);
#506 = EDGE_CURVE('',#507,#484,#509,.T.);
#507 = VERTEX_POINT('',#508);
#508 = CARTESIAN_POINT('',(12.5,3.947459643112E-16,22.));
#509 = SURFACE_CURVE('',#510,(#515,#522),.PCURVE_S1.);
#510 = CIRCLE('',#511,12.5);
#511 = AXIS2_PLACEMENT_3D('',#512,#513,#514);
#512 = CARTESIAN_POINT('',(6.421201019462E-14,3.947459643112E-16,22.));
#513 = DIRECTION('',(0.,0.,1.));
#514 = DIRECTION('',(1.,0.,-0.));
#515 = PCURVE('',#95,#516);
#516 = DEFINITIONAL_REPRESENTATION('',(#517),#521);
#517 = CIRCLE('',#518,12.5);
#518 = AXIS2_PLACEMENT_2D('',#519,#520);
#519 = CARTESIAN_POINT('',(6.542751253466E-14,9.458370239275E-16));
#520 = DIRECTION('',(1.,0.));
#521 = ( GEOMETRIC_REPRESENTATION_CONTEXT(2) 
PARAMETRIC_REPRESENTATION_CONTEXT() REPRESENTATION_CONTEXT('2D SPACE',''
  ) );
#522 = PCURVE('',#466,#523);
#523 = DEFINITIONAL_REPRESENTATION('',(#524),#528);
#524 = LINE('',#525,#526);
#525 = CARTESIAN_POINT('',(6.28318530718,0.));
#526 = VECTOR('',#527,1.);
#527 = DIRECTION('',(-1.,0.));
#528 = ( GEOMETRIC_REPRESENTATION_CONTEXT(2) 
PARAMETRIC_REPRESENTATION_CONTEXT() REPRESENTATION_CONTEXT('2D SPACE',''
  ) );
#529 = ORIENTED_EDGE('',*,*,#530,.F.);
#530 = EDGE_CURVE('',#531,#507,#533,.T.);
#531 = VERTEX_POINT('',#532);
#532 = CARTESIAN_POINT('',(-2.5,12.247448713916,22.));
#533 = SURFACE_CURVE('',#534,(#539,#546),.PCURVE_S1.);
#534 = CIRCLE('',#535,12.5);
#535 = AXIS2_PLACEMENT_3D('',#536,#537,#538);
#536 = CARTESIAN_POINT('',(6.421201019462E-14,3.947459643112E-16,22.));
#537 = DIRECTION('',(0.,0.,1.));
#538 = DIRECTION('',(1.,0.,-0.));
#539 = PCURVE('',#95,#540);
#540 = DEFINITIONAL_REPRESENTATION('',(#541),#545);
#541 = CIRCLE('',#542,12.5);
#542 = AXIS2_PLACEMENT_2D('',#543,#544);
#543 = CARTESIAN_POINT('',(6.542751253466E-14,9.458370239275E-16));
#544 = DIRECTION('',(1.,0.));
#545 = ( GEOMETRIC_REPRESENTATION_CONTEXT(2) 
PARAMETRIC_REPRESENTATION_CONTEXT() REPRESENTATION_CONTEXT('2D SPACE',''
  ) );
#546 = PCURVE('',#466,#547);
#547 = DEFINITIONAL_REPRESENTATION('',(#548),#552);
#548 = LINE('',#549,#550);
#549 = CARTESIAN_POINT('',(6.28318530718,0.));
#550 = VECTOR('',#551,1.);
#551 = DIRECTION('',(-1.,0.));
#552 = ( GEOMETRIC_REPRESENTATION_CONTEXT(2) 
PARAMETRIC_REPRESENTATION_CONTEXT() REPRESENTATION_CONTEXT('2D SPACE',''
  ) );
#553 = ORIENTED_EDGE('',*,*,#554,.T.);
#554 = EDGE_CURVE('',#531,#394,#555,.T.);
#555 = SURFACE_CURVE('',#556,(#560,#567),.PCURVE_S1.);
#556 = LINE('',#557,#558);
#557 = CARTESIAN_POINT('',(-2.5,-2.755455298082E-16,22.));
#558 = VECTOR('',#559,1.);
#559 = DIRECTION('',(-0.,1.,0.));
#560 = PCURVE('',#95,#561);
#561 = DEFINITIONAL_REPRESENTATION('',(#562),#566);
#562 = LINE('',#563,#564);
#563 = CARTESIAN_POINT('',(-2.5,2.755455298081E-16));
#564 = VECTOR('',#565,1.);
#565 = DIRECTION('',(0.,1.));
#566 = ( GEOMETRIC_REPRESENTATION_CONTEXT(2) 
PARAMETRIC_REPRESENTATION_CONTEXT() REPRESENTATION_CONTEXT('2D SPACE',''
  ) );
#567 = PCURVE('',#408,#568);
#568 = DEFINITIONAL_REPRESENTATION('',(#569),#573);
#569 = LINE('',#570,#571);
#570 = CARTESIAN_POINT('',(1.,2.755455298082E-16));
#571 = VECTOR('',#572,1.);
#572 = DIRECTION('',(0.,-1.));
#573 = ( GEOMETRIC_REPRESENTATION_CONTEXT(2) 
PARAMETRIC_REPRESENTATION_CONTEXT() REPRESENTATION_CONTEXT('2D SPACE',''
  ) );
#574 = ADVANCED_FACE('',(#575),#122,.F.);
#575 = FACE_BOUND('',#576,.F.);
#576 = EDGE_LOOP('',(#577,#600,#620,#621));
#577 = ORIENTED_EDGE('',*,*,#578,.T.);
#578 = EDGE_CURVE('',#108,#579,#581,.T.);
#579 = VERTEX_POINT('',#580);
#580 = CARTESIAN_POINT('',(2.5,12.247448713916,40.));
#581 = SURFACE_CURVE('',#582,(#586,#593),.PCURVE_S1.);
#582 = LINE('',#583,#584);
#583 = CARTESIAN_POINT('',(2.5,0.,40.));
#584 = VECTOR('',#585,1.);
#585 = DIRECTION('',(0.,-1.,0.));
#586 = PCURVE('',#122,#587);
#587 = DEFINITIONAL_REPRESENTATION('',(#588),#592);
#588 = LINE('',#589,#590);
#589 = CARTESIAN_POINT('',(19.,0.));
#590 = VECTOR('',#591,1.);
#591 = DIRECTION('',(0.,1.));
#592 = ( GEOMETRIC_REPRESENTATION_CONTEXT(2) 
PARAMETRIC_REPRESENTATION_CONTEXT() REPRESENTATION_CONTEXT('2D SPACE',''
  ) );
#593 = PCURVE('',#151,#594);
#594 = DEFINITIONAL_REPRESENTATION('',(#595),#599);
#595 = LINE('',#596,#597);
#596 = CARTESIAN_POINT('',(2.265769467591,-1.056545654352));
#597 = VECTOR('',#598,1.);
#598 = DIRECTION('',(-0.422618261741,-0.906307787037));
#599 = ( GEOMETRIC_REPRESENTATION_CONTEXT(2) 
PARAMETRIC_REPRESENTATION_CONTEXT() REPRESENTATION_CONTEXT('2D SPACE',''
  ) );
#600 = ORIENTED_EDGE('',*,*,#601,.T.);
#601 = EDGE_CURVE('',#579,#484,#602,.T.);
#602 = SURFACE_CURVE('',#603,(#607,#614),.PCURVE_S1.);
#603 = LINE('',#604,#605);
#604 = CARTESIAN_POINT('',(2.5,12.247448713916,22.));
#605 = VECTOR('',#606,1.);
#606 = DIRECTION('',(-0.,-0.,-1.));
#607 = PCURVE('',#122,#608);
#608 = DEFINITIONAL_REPRESENTATION('',(#609),#613);
#609 = LINE('',#610,#611);
#610 = CARTESIAN_POINT('',(1.,-12.24744871391));
#611 = VECTOR('',#612,1.);
#612 = DIRECTION('',(-1.,0.));
#613 = ( GEOMETRIC_REPRESENTATION_CONTEXT(2) 
PARAMETRIC_REPRESENTATION_CONTEXT() REPRESENTATION_CONTEXT('2D SPACE',''
  ) );
#614 = PCURVE('',#466,#615);
#615 = DEFINITIONAL_REPRESENTATION('',(#616),#619);
#616 = B_SPLINE_CURVE_WITH_KNOTS('',1,(#617,#618),.UNSPECIFIED.,.F.,.F.,
  (2,2),(-39.15,6.E-07),.PIECEWISE_BEZIER_KNOTS.);
#617 = CARTESIAN_POINT('',(4.913746901175,-39.15));
#618 = CARTESIAN_POINT('',(4.913746901175,6.E-07));
#619 = ( GEOMETRIC_REPRESENTATION_CONTEXT(2) 
PARAMETRIC_REPRESENTATION_CONTEXT() REPRESENTATION_CONTEXT('2D SPACE',''
  ) );
#620 = ORIENTED_EDGE('',*,*,#483,.T.);
#621 = ORIENTED_EDGE('',*,*,#107,.F.);
#622 = ADVANCED_FACE('',(#623),#151,.T.);
#623 = FACE_BOUND('',#624,.T.);
#624 = EDGE_LOOP('',(#625,#648,#649,#650));
#625 = ORIENTED_EDGE('',*,*,#626,.T.);
#626 = EDGE_CURVE('',#627,#135,#629,.T.);
#627 = VERTEX_POINT('',#628);
#628 = CARTESIAN_POINT('',(11.328847337958,5.282728271759,40.));
#629 = SURFACE_CURVE('',#630,(#634,#641),.PCURVE_S1.);
#630 = LINE('',#631,#632);
#631 = CARTESIAN_POINT('',(0.,0.,40.));
#632 = VECTOR('',#633,1.);
#633 = DIRECTION('',(0.906307787037,0.422618261741,0.));
#634 = PCURVE('',#151,#635);
#635 = DEFINITIONAL_REPRESENTATION('',(#636),#640);
#636 = LINE('',#637,#638);
#637 = CARTESIAN_POINT('',(0.,0.));
#638 = VECTOR('',#639,1.);
#639 = DIRECTION('',(1.,0.));
#640 = ( GEOMETRIC_REPRESENTATION_CONTEXT(2) 
PARAMETRIC_REPRESENTATION_CONTEXT() REPRESENTATION_CONTEXT('2D SPACE',''
  ) );
#641 = PCURVE('',#182,#642);
#642 = DEFINITIONAL_REPRESENTATION('',(#643),#647);
#643 = LINE('',#644,#645);
#644 = CARTESIAN_POINT('',(0.,0.));
#645 = VECTOR('',#646,1.);
#646 = DIRECTION('',(1.,0.));
#647 = ( GEOMETRIC_REPRESENTATION_CONTEXT(2) 
PARAMETRIC_REPRESENTATION_CONTEXT() REPRESENTATION_CONTEXT('2D SPACE',''
  ) );
#648 = ORIENTED_EDGE('',*,*,#134,.F.);
#649 = ORIENTED_EDGE('',*,*,#578,.T.);
#650 = ORIENTED_EDGE('',*,*,#651,.T.);
#651 = EDGE_CURVE('',#579,#627,#652,.T.);
#652 = SURFACE_CURVE('',#653,(#658,#669),.PCURVE_S1.);
#653 = CIRCLE('',#654,12.5);
#654 = AXIS2_PLACEMENT_3D('',#655,#656,#657);
#655 = CARTESIAN_POINT('',(6.421201019462E-14,3.947459643112E-16,40.));
#656 = DIRECTION('',(0.,0.,-1.));
#657 = DIRECTION('',(1.,0.,0.));
#658 = PCURVE('',#151,#659);
#659 = DEFINITIONAL_REPRESENTATION('',(#660),#668);
#660 = ( BOUNDED_CURVE() B_SPLINE_CURVE(2,(#661,#662,#663,#664,#665,#666
,#667),.UNSPECIFIED.,.T.,.F.) B_SPLINE_CURVE_WITH_KNOTS((1,2,2,2,2,1),(
    -2.094395102393,0.,2.094395102393,4.188790204786,6.28318530718,
8.377580409573),.UNSPECIFIED.) CURVE() GEOMETRIC_REPRESENTATION_ITEM() 
RATIONAL_B_SPLINE_CURVE((1.,0.5,1.,0.5,1.,0.5,1.)) REPRESENTATION_ITEM(
  '') );
#661 = CARTESIAN_POINT('',(11.328847337958,-5.28272827176));
#662 = CARTESIAN_POINT('',(2.178893568688,-24.90486745229));
#663 = CARTESIAN_POINT('',(-10.23940055361,-7.169705454387));
#664 = CARTESIAN_POINT('',(-22.65769467591,10.56545654352));
#665 = CARTESIAN_POINT('',(-1.089446784344,12.452433726147));
#666 = CARTESIAN_POINT('',(20.478801107227,14.339410908774));
#667 = CARTESIAN_POINT('',(11.328847337958,-5.28272827176));
#668 = ( GEOMETRIC_REPRESENTATION_CONTEXT(2) 
PARAMETRIC_REPRESENTATION_CONTEXT() REPRESENTATION_CONTEXT('2D SPACE',''
  ) );
#669 = PCURVE('',#466,#670);
#670 = DEFINITIONAL_REPRESENTATION('',(#671),#675);
#671 = LINE('',#672,#673);
#672 = CARTESIAN_POINT('',(-4.138911435803E-13,-18.));
#673 = VECTOR('',#674,1.);
#674 = DIRECTION('',(1.,-0.));
#675 = ( GEOMETRIC_REPRESENTATION_CONTEXT(2) 
PARAMETRIC_REPRESENTATION_CONTEXT() REPRESENTATION_CONTEXT('2D SPACE',''
  ) );
#676 = ADVANCED_FACE('',(#677),#182,.F.);
#677 = FACE_BOUND('',#678,.F.);
#678 = EDGE_LOOP('',(#679,#701,#702,#703));
#679 = ORIENTED_EDGE('',*,*,#680,.T.);
#680 = EDGE_CURVE('',#681,#627,#683,.T.);
#681 = VERTEX_POINT('',#682);
#682 = CARTESIAN_POINT('',(11.328847337958,5.282728271759,46.));
#683 = SURFACE_CURVE('',#684,(#688,#695),.PCURVE_S1.);
#684 = LINE('',#685,#686);
#685 = CARTESIAN_POINT('',(11.328847337958,5.282728271759,22.));
#686 = VECTOR('',#687,1.);
#687 = DIRECTION('',(-0.,-0.,-1.));
#688 = PCURVE('',#182,#689);
#689 = DEFINITIONAL_REPRESENTATION('',(#690),#694);
#690 = LINE('',#691,#692);
#691 = CARTESIAN_POINT('',(12.5,-18.));
#692 = VECTOR('',#693,1.);
#693 = DIRECTION('',(0.,-1.));
#694 = ( GEOMETRIC_REPRESENTATION_CONTEXT(2) 
PARAMETRIC_REPRESENTATION_CONTEXT() REPRESENTATION_CONTEXT('2D SPACE',''
  ) );
#695 = PCURVE('',#466,#696);
#696 = DEFINITIONAL_REPRESENTATION('',(#697),#700);
#697 = B_SPLINE_CURVE_WITH_KNOTS('',1,(#698,#699),.UNSPECIFIED.,.F.,.F.,
  (2,2),(-24.6,-17.4),.PIECEWISE_BEZIER_KNOTS.);
#698 = CARTESIAN_POINT('',(5.846852994181,-24.6));
#699 = CARTESIAN_POINT('',(5.846852994181,-17.4));
#700 = ( GEOMETRIC_REPRESENTATION_CONTEXT(2) 
PARAMETRIC_REPRESENTATION_CONTEXT() REPRESENTATION_CONTEXT('2D SPACE',''
  ) );
#701 = ORIENTED_EDGE('',*,*,#626,.T.);
#702 = ORIENTED_EDGE('',*,*,#167,.F.);
#703 = ORIENTED_EDGE('',*,*,#704,.F.);
#704 = EDGE_CURVE('',#681,#168,#705,.T.);
#705 = SURFACE_CURVE('',#706,(#710,#717),.PCURVE_S1.);
#706 = LINE('',#707,#708);
#707 = CARTESIAN_POINT('',(0.,0.,46.));
#708 = VECTOR('',#709,1.);
#709 = DIRECTION('',(0.906307787037,0.422618261741,0.));
#710 = PCURVE('',#182,#711);
#711 = DEFINITIONAL_REPRESENTATION('',(#712),#716);
#712 = LINE('',#713,#714);
#713 = CARTESIAN_POINT('',(0.,6.));
#714 = VECTOR('',#715,1.);
#715 = DIRECTION('',(1.,0.));
#716 = ( GEOMETRIC_REPRESENTATION_CONTEXT(2) 
PARAMETRIC_REPRESENTATION_CONTEXT() REPRESENTATION_CONTEXT('2D SPACE',''
  ) );
#717 = PCURVE('',#211,#718);
#718 = DEFINITIONAL_REPRESENTATION('',(#719),#723);
#719 = LINE('',#720,#721);
#720 = CARTESIAN_POINT('',(0.,0.));
#721 = VECTOR('',#722,1.);
#722 = DIRECTION('',(1.,0.));
#723 = ( GEOMETRIC_REPRESENTATION_CONTEXT(2) 
PARAMETRIC_REPRESENTATION_CONTEXT() REPRESENTATION_CONTEXT('2D SPACE',''
  ) );
#724 = ADVANCED_FACE('',(#725),#211,.F.);
#725 = FACE_BOUND('',#726,.F.);
#726 = EDGE_LOOP('',(#727,#728,#729,#752));
#727 = ORIENTED_EDGE('',*,*,#704,.T.);
#728 = ORIENTED_EDGE('',*,*,#194,.F.);
#729 = ORIENTED_EDGE('',*,*,#730,.T.);
#730 = EDGE_CURVE('',#195,#731,#733,.T.);
#731 = VERTEX_POINT('',#732);
#732 = CARTESIAN_POINT('',(2.5,12.247448713916,46.));
#733 = SURFACE_CURVE('',#734,(#738,#745),.PCURVE_S1.);
#734 = LINE('',#735,#736);
#735 = CARTESIAN_POINT('',(2.5,0.,46.));
#736 = VECTOR('',#737,1.);
#737 = DIRECTION('',(0.,-1.,0.));
#738 = PCURVE('',#211,#739);
#739 = DEFINITIONAL_REPRESENTATION('',(#740),#744);
#740 = LINE('',#741,#742);
#741 = CARTESIAN_POINT('',(2.265769467591,-1.056545654352));
#742 = VECTOR('',#743,1.);
#743 = DIRECTION('',(-0.422618261741,-0.906307787037));
#744 = ( GEOMETRIC_REPRESENTATION_CONTEXT(2) 
PARAMETRIC_REPRESENTATION_CONTEXT() REPRESENTATION_CONTEXT('2D SPACE',''
  ) );
#745 = PCURVE('',#242,#746);
#746 = DEFINITIONAL_REPRESENTATION('',(#747),#751);
#747 = LINE('',#748,#749);
#748 = CARTESIAN_POINT('',(25.,0.));
#749 = VECTOR('',#750,1.);
#750 = DIRECTION('',(0.,1.));
#751 = ( GEOMETRIC_REPRESENTATION_CONTEXT(2) 
PARAMETRIC_REPRESENTATION_CONTEXT() REPRESENTATION_CONTEXT('2D SPACE',''
  ) );
#752 = ORIENTED_EDGE('',*,*,#753,.T.);
#753 = EDGE_CURVE('',#731,#681,#754,.T.);
#754 = SURFACE_CURVE('',#755,(#760,#771),.PCURVE_S1.);
#755 = CIRCLE('',#756,12.5);
#756 = AXIS2_PLACEMENT_3D('',#757,#758,#759);
#757 = CARTESIAN_POINT('',(6.421201019462E-14,3.947459643112E-16,46.));
#758 = DIRECTION('',(0.,0.,-1.));
#759 = DIRECTION('',(1.,0.,0.));
#760 = PCURVE('',#211,#761);
#761 = DEFINITIONAL_REPRESENTATION('',(#762),#770);
#762 = ( BOUNDED_CURVE() B_SPLINE_CURVE(2,(#763,#764,#765,#766,#767,#768
,#769),.UNSPECIFIED.,.T.,.F.) B_SPLINE_CURVE_WITH_KNOTS((1,2,2,2,2,1),(
    -2.094395102393,0.,2.094395102393,4.188790204786,6.28318530718,
8.377580409573),.UNSPECIFIED.) CURVE() GEOMETRIC_REPRESENTATION_ITEM() 
RATIONAL_B_SPLINE_CURVE((1.,0.5,1.,0.5,1.,0.5,1.)) REPRESENTATION_ITEM(
  '') );
#763 = CARTESIAN_POINT('',(11.328847337958,-5.28272827176));
#764 = CARTESIAN_POINT('',(2.178893568688,-24.90486745229));
#765 = CARTESIAN_POINT('',(-10.23940055361,-7.169705454387));
#766 = CARTESIAN_POINT('',(-22.65769467591,10.56545654352));
#767 = CARTESIAN_POINT('',(-1.089446784344,12.452433726147));
#768 = CARTESIAN_POINT('',(20.478801107227,14.339410908774));
#769 = CARTESIAN_POINT('',(11.328847337958,-5.28272827176));
#770 = ( GEOMETRIC_REPRESENTATION_CONTEXT(2) 
PARAMETRIC_REPRESENTATION_CONTEXT() REPRESENTATION_CONTEXT('2D SPACE',''
  ) );
#771 = PCURVE('',#466,#772);
#772 = DEFINITIONAL_REPRESENTATION('',(#773),#777);
#773 = LINE('',#774,#775);
#774 = CARTESIAN_POINT('',(-4.138911435803E-13,-24.));
#775 = VECTOR('',#776,1.);
#776 = DIRECTION('',(1.,-0.));
#777 = ( GEOMETRIC_REPRESENTATION_CONTEXT(2) 
PARAMETRIC_REPRESENTATION_CONTEXT() REPRESENTATION_CONTEXT('2D SPACE',''
  ) );
#778 = ADVANCED_FACE('',(#779),#242,.F.);
#779 = FACE_BOUND('',#780,.F.);
#780 = EDGE_LOOP('',(#781,#803,#823,#824));
#781 = ORIENTED_EDGE('',*,*,#782,.F.);
#782 = EDGE_CURVE('',#783,#228,#785,.T.);
#783 = VERTEX_POINT('',#784);
#784 = CARTESIAN_POINT('',(2.5,12.247448713916,57.5));
#785 = SURFACE_CURVE('',#786,(#790,#797),.PCURVE_S1.);
#786 = LINE('',#787,#788);
#787 = CARTESIAN_POINT('',(2.5,0.,57.5));
#788 = VECTOR('',#789,1.);
#789 = DIRECTION('',(-0.,1.,0.));
#790 = PCURVE('',#242,#791);
#791 = DEFINITIONAL_REPRESENTATION('',(#792),#796);
#792 = LINE('',#793,#794);
#793 = CARTESIAN_POINT('',(36.5,0.));
#794 = VECTOR('',#795,1.);
#795 = DIRECTION('',(0.,-1.));
#796 = ( GEOMETRIC_REPRESENTATION_CONTEXT(2) 
PARAMETRIC_REPRESENTATION_CONTEXT() REPRESENTATION_CONTEXT('2D SPACE',''
  ) );
#797 = PCURVE('',#337,#798);
#798 = DEFINITIONAL_REPRESENTATION('',(#799),#802);
#799 = B_SPLINE_CURVE_WITH_KNOTS('',1,(#800,#801),.UNSPECIFIED.,.F.,.F.,
  (2,2),(12.247448713916,13.266499161422),.PIECEWISE_BEZIER_KNOTS.);
#800 = CARTESIAN_POINT('',(7.853981633974,12.247448713916));
#801 = CARTESIAN_POINT('',(7.853981633974,13.266499161422));
#802 = ( GEOMETRIC_REPRESENTATION_CONTEXT(2) 
PARAMETRIC_REPRESENTATION_CONTEXT() REPRESENTATION_CONTEXT('2D SPACE',''
  ) );
#803 = ORIENTED_EDGE('',*,*,#804,.T.);
#804 = EDGE_CURVE('',#783,#731,#805,.T.);
#805 = SURFACE_CURVE('',#806,(#810,#817),.PCURVE_S1.);
#806 = LINE('',#807,#808);
#807 = CARTESIAN_POINT('',(2.5,12.247448713916,22.));
#808 = VECTOR('',#809,1.);
#809 = DIRECTION('',(-0.,-0.,-1.));
#810 = PCURVE('',#242,#811);
#811 = DEFINITIONAL_REPRESENTATION('',(#812),#816);
#812 = LINE('',#813,#814);
#813 = CARTESIAN_POINT('',(1.,-12.24744871391));
#814 = VECTOR('',#815,1.);
#815 = DIRECTION('',(-1.,0.));
#816 = ( GEOMETRIC_REPRESENTATION_CONTEXT(2) 
PARAMETRIC_REPRESENTATION_CONTEXT() REPRESENTATION_CONTEXT('2D SPACE',''
  ) );
#817 = PCURVE('',#466,#818);
#818 = DEFINITIONAL_REPRESENTATION('',(#819),#822);
#819 = B_SPLINE_CURVE_WITH_KNOTS('',1,(#820,#821),.UNSPECIFIED.,.F.,.F.,
  (2,2),(-39.15,6.E-07),.PIECEWISE_BEZIER_KNOTS.);
#820 = CARTESIAN_POINT('',(4.913746901175,-39.15));
#821 = CARTESIAN_POINT('',(4.913746901175,6.E-07));
#822 = ( GEOMETRIC_REPRESENTATION_CONTEXT(2) 
PARAMETRIC_REPRESENTATION_CONTEXT() REPRESENTATION_CONTEXT('2D SPACE',''
  ) );
#823 = ORIENTED_EDGE('',*,*,#730,.F.);
#824 = ORIENTED_EDGE('',*,*,#227,.F.);
#825 = ADVANCED_FACE('',(#826),#337,.F.);
#826 = FACE_BOUND('',#827,.F.);
#827 = EDGE_LOOP('',(#828,#829,#851,#983));
#828 = ORIENTED_EDGE('',*,*,#254,.T.);
#829 = ORIENTED_EDGE('',*,*,#830,.F.);
#830 = EDGE_CURVE('',#831,#255,#833,.T.);
#831 = VERTEX_POINT('',#832);
#832 = CARTESIAN_POINT('',(-2.5,12.247448713916,57.5));
#833 = SURFACE_CURVE('',#834,(#838,#844),.PCURVE_S1.);
#834 = LINE('',#835,#836);
#835 = CARTESIAN_POINT('',(-2.5,0.,57.5));
#836 = VECTOR('',#837,1.);
#837 = DIRECTION('',(-0.,1.,0.));
#838 = PCURVE('',#337,#839);
#839 = DEFINITIONAL_REPRESENTATION('',(#840),#843);
#840 = B_SPLINE_CURVE_WITH_KNOTS('',1,(#841,#842),.UNSPECIFIED.,.F.,.F.,
  (2,2),(12.247448713916,13.266499161422),.PIECEWISE_BEZIER_KNOTS.);
#841 = CARTESIAN_POINT('',(4.712388980385,12.247448713916));
#842 = CARTESIAN_POINT('',(4.712388980385,13.266499161422));
#843 = ( GEOMETRIC_REPRESENTATION_CONTEXT(2) 
PARAMETRIC_REPRESENTATION_CONTEXT() REPRESENTATION_CONTEXT('2D SPACE',''
  ) );
#844 = PCURVE('',#408,#845);
#845 = DEFINITIONAL_REPRESENTATION('',(#846),#850);
#846 = LINE('',#847,#848);
#847 = CARTESIAN_POINT('',(36.5,0.));
#848 = VECTOR('',#849,1.);
#849 = DIRECTION('',(0.,-1.));
#850 = ( GEOMETRIC_REPRESENTATION_CONTEXT(2) 
PARAMETRIC_REPRESENTATION_CONTEXT() REPRESENTATION_CONTEXT('2D SPACE',''
  ) );
#851 = ORIENTED_EDGE('',*,*,#852,.F.);
#852 = EDGE_CURVE('',#783,#831,#853,.T.);
#853 = SURFACE_CURVE('',#854,(#881,#932),.PCURVE_S1.);
#854 = B_SPLINE_CURVE_WITH_KNOTS('',7,(#855,#856,#857,#858,#859,#860,
    #861,#862,#863,#864,#865,#866,#867,#868,#869,#870,#871,#872,#873,
    #874,#875,#876,#877,#878,#879,#880),.UNSPECIFIED.,.F.,.F.,(8,6,6,6,8
    ),(0.,0.551087171116,1.,1.469738411111,2.001769749154),
  .UNSPECIFIED.);
#855 = CARTESIAN_POINT('',(2.5,12.247448713916,57.5));
#856 = CARTESIAN_POINT('',(2.5,12.247448713916,57.769215995677));
#857 = CARTESIAN_POINT('',(2.466178454001,12.254352423269,
    58.038040593395));
#858 = CARTESIAN_POINT('',(2.398703949301,12.268126041707,
    58.303980916918));
#859 = CARTESIAN_POINT('',(2.296779141498,12.288317290353,
    58.564268152925));
#860 = CARTESIAN_POINT('',(2.158914956278,12.314025886148,
    58.815369788279));
#861 = CARTESIAN_POINT('',(1.983184673906,12.34359471063,59.052349232027
    ));
#862 = CARTESIAN_POINT('',(1.592288764456,12.399436983409,
    59.443245141477));
#863 = CARTESIAN_POINT('',(1.386210022928,12.425914186146,
    59.608680704816));
#864 = CARTESIAN_POINT('',(1.150480629754,12.45183160498,59.754545258504
    ));
#865 = CARTESIAN_POINT('',(0.888323326425,12.474533353107,
    59.872659985656));
#866 = CARTESIAN_POINT('',(0.604757794468,12.491251395696,
    59.956258546976));
#867 = CARTESIAN_POINT('',(0.306157758585,12.5,60.));
#868 = CARTESIAN_POINT('',(-0.320360768981,12.5,60.));
#869 = CARTESIAN_POINT('',(-0.631881841711,12.490420816558,
    59.952106091448));
#870 = CARTESIAN_POINT('',(-0.926299042473,12.472216096296,
    59.86107174255));
#871 = CARTESIAN_POINT('',(-1.196751195745,12.447726594666,
    59.733104525186));
#872 = CARTESIAN_POINT('',(-1.437964082467,12.420118739314,
    59.575866838563));
#873 = CARTESIAN_POINT('',(-1.646725271354,12.392329703048,
    59.398465318085));
#874 = CARTESIAN_POINT('',(-2.021417294424,12.337111956037,
    58.999458840082));
#875 = CARTESIAN_POINT('',(-2.183911496001,12.309348389813,
    58.768813439754));
#876 = CARTESIAN_POINT('',(-2.311567378045,12.285384915142,
    58.525730547959));
#877 = CARTESIAN_POINT('',(-2.40605309278,12.266625761316,
    58.274472868324));
#878 = CARTESIAN_POINT('',(-2.468639264043,12.253850146339,
    58.018147434662));
#879 = CARTESIAN_POINT('',(-2.5,12.247448713916,57.75923627343));
#880 = CARTESIAN_POINT('',(-2.5,12.247448713916,57.5));
#881 = PCURVE('',#337,#882);
#882 = DEFINITIONAL_REPRESENTATION('',(#883),#931);
#883 = B_SPLINE_CURVE_WITH_KNOTS('',3,(#884,#885,#886,#887,#888,#889,
    #890,#891,#892,#893,#894,#895,#896,#897,#898,#899,#900,#901,#902,
    #903,#904,#905,#906,#907,#908,#909,#910,#911,#912,#913,#914,#915,
    #916,#917,#918,#919,#920,#921,#922,#923,#924,#925,#926,#927,#928,
    #929,#930),.UNSPECIFIED.,.F.,.F.,(4,1,1,1,1,1,1,1,1,1,1,1,1,1,1,1,1,
    1,1,1,1,1,1,1,1,1,1,1,1,1,1,1,1,1,1,1,1,1,1,1,1,1,1,1,4),(0.,
    4.549476702622E-02,9.098953405244E-02,0.136484301079,0.181979068105,
    0.227473835131,0.272968602157,0.318463369184,0.36395813621,
    0.409452903236,0.454947670262,0.500442437288,0.545937204315,
    0.591431971341,0.636926738367,0.682421505393,0.727916272419,
    0.773411039446,0.818905806472,0.864400573498,0.909895340524,
    0.955390107551,1.000884874577,1.046379641603,1.091874408629,
    1.137369175655,1.182863942682,1.228358709708,1.273853476734,
    1.31934824376,1.364843010787,1.410337777813,1.455832544839,
    1.501327311865,1.546822078891,1.592316845918,1.637811612944,
    1.68330637997,1.728801146996,1.774295914022,1.819790681049,
    1.865285448075,1.910780215101,1.956274982127,2.001769749154),
  .UNSPECIFIED.);
#884 = CARTESIAN_POINT('',(7.853981633974,12.247448713916));
#885 = CARTESIAN_POINT('',(7.833238564374,12.247447295456));
#886 = CARTESIAN_POINT('',(7.791766276299,12.248108535052));
#887 = CARTESIAN_POINT('',(7.72948230484,12.251061744709));
#888 = CARTESIAN_POINT('',(7.667004746403,12.255952305889));
#889 = CARTESIAN_POINT('',(7.604218895544,12.262732137946));
#890 = CARTESIAN_POINT('',(7.541010537322,12.271335883334));
#891 = CARTESIAN_POINT('',(7.477265273859,12.281677168104));
#892 = CARTESIAN_POINT('',(7.412867070799,12.29364742197));
#893 = CARTESIAN_POINT('',(7.347698208105,12.30711342778));
#894 = CARTESIAN_POINT('',(7.281634448924,12.321916091234));
#895 = CARTESIAN_POINT('',(7.214557490603,12.337864571842));
#896 = CARTESIAN_POINT('',(7.146302038204,12.354746994541));
#897 = CARTESIAN_POINT('',(7.076845392272,12.372278997479));
#898 = CARTESIAN_POINT('',(7.005589875286,12.390284148793));
#899 = CARTESIAN_POINT('',(6.93188802212,12.408544884071));
#900 = CARTESIAN_POINT('',(6.856209710435,12.426500881616));
#901 = CARTESIAN_POINT('',(6.778682866354,12.443639396631));
#902 = CARTESIAN_POINT('',(6.699481037219,12.459416499974));
#903 = CARTESIAN_POINT('',(6.61872147385,12.473301974586));
#904 = CARTESIAN_POINT('',(6.536511243935,12.484791301941));
#905 = CARTESIAN_POINT('',(6.452886632642,12.493425904965));
#906 = CARTESIAN_POINT('',(6.368027113744,12.498810927618));
#907 = CARTESIAN_POINT('',(6.281473503386,12.50062964235));
#908 = CARTESIAN_POINT('',(6.195053783794,12.498666221301));
#909 = CARTESIAN_POINT('',(6.110347657956,12.49315888747));
#910 = CARTESIAN_POINT('',(6.026935205238,12.484429817326));
#911 = CARTESIAN_POINT('',(5.944959188209,12.47287709737));
#912 = CARTESIAN_POINT('',(5.864439422678,12.458956884872));
#913 = CARTESIAN_POINT('',(5.785458436773,12.443166947359));
#914 = CARTESIAN_POINT('',(5.70811402769,12.426028871151));
#915 = CARTESIAN_POINT('',(5.632537025575,12.408070823841));
#916 = CARTESIAN_POINT('',(5.558885315332,12.389808261334));
#917 = CARTESIAN_POINT('',(5.487371409754,12.371733352744));
#918 = CARTESIAN_POINT('',(5.418183058593,12.354274859844));
#919 = CARTESIAN_POINT('',(5.350119155384,12.337453230035));
#920 = CARTESIAN_POINT('',(5.283242429214,12.321571231006));
#921 = CARTESIAN_POINT('',(5.217365221393,12.306832370461));
#922 = CARTESIAN_POINT('',(5.152376055574,12.293426923832));
#923 = CARTESIAN_POINT('',(5.088149958815,12.281511902901));
#924 = CARTESIAN_POINT('',(5.024570730174,12.271219347324));
#925 = CARTESIAN_POINT('',(4.961523470167,12.262656818587));
#926 = CARTESIAN_POINT('',(4.898895246806,12.255909954706));
#927 = CARTESIAN_POINT('',(4.836573491783,12.251043531267));
#928 = CARTESIAN_POINT('',(4.774445373747,12.248105146609));
#929 = CARTESIAN_POINT('',(4.733078557821,12.247447297328));
#930 = CARTESIAN_POINT('',(4.712388980385,12.247448713916));
#931 = ( GEOMETRIC_REPRESENTATION_CONTEXT(2) 
PARAMETRIC_REPRESENTATION_CONTEXT() REPRESENTATION_CONTEXT('2D SPACE',''
  ) );
#932 = PCURVE('',#466,#933);
#933 = DEFINITIONAL_REPRESENTATION('',(#934),#982);
#934 = B_SPLINE_CURVE_WITH_KNOTS('',3,(#935,#936,#937,#938,#939,#940,
    #941,#942,#943,#944,#945,#946,#947,#948,#949,#950,#951,#952,#953,
    #954,#955,#956,#957,#958,#959,#960,#961,#962,#963,#964,#965,#966,
    #967,#968,#969,#970,#971,#972,#973,#974,#975,#976,#977,#978,#979,
    #980,#981),.UNSPECIFIED.,.F.,.F.,(4,1,1,1,1,1,1,1,1,1,1,1,1,1,1,1,1,
    1,1,1,1,1,1,1,1,1,1,1,1,1,1,1,1,1,1,1,1,1,1,1,1,1,1,1,4),(0.,
    4.549476702622E-02,9.098953405244E-02,0.136484301079,0.181979068105,
    0.227473835131,0.272968602157,0.318463369184,0.36395813621,
    0.409452903236,0.454947670262,0.500442437288,0.545937204315,
    0.591431971341,0.636926738367,0.682421505393,0.727916272419,
    0.773411039446,0.818905806472,0.864400573498,0.909895340524,
    0.955390107551,1.000884874577,1.046379641603,1.091874408629,
    1.137369175655,1.182863942682,1.228358709708,1.273853476734,
    1.31934824376,1.364843010787,1.410337777813,1.455832544839,
    1.501327311865,1.546822078891,1.592316845918,1.637811612944,
    1.68330637997,1.728801146996,1.774295914022,1.819790681049,
    1.865285448075,1.910780215101,1.956274982127,2.001769749154),
  .UNSPECIFIED.);
#935 = CARTESIAN_POINT('',(4.913746901175,-35.5));
#936 = CARTESIAN_POINT('',(4.913746697893,-35.55185697455));
#937 = CARTESIAN_POINT('',(4.913483582714,-35.65553871218));
#938 = CARTESIAN_POINT('',(4.912298407185,-35.81064597955));
#939 = CARTESIAN_POINT('',(4.910321260096,-35.96502691401));
#940 = CARTESIAN_POINT('',(4.907547494227,-36.11834353381));
#941 = CARTESIAN_POINT('',(4.903970645444,-36.2702333757));
#942 = CARTESIAN_POINT('',(4.899582350152,-36.42030143076));
#943 = CARTESIAN_POINT('',(4.894372611802,-36.56811497148));
#944 = CARTESIAN_POINT('',(4.888330145803,-36.71319495661));
#945 = CARTESIAN_POINT('',(4.881442101021,-36.85501556409));
#946 = CARTESIAN_POINT('',(4.873696243779,-36.99297172288));
#947 = CARTESIAN_POINT('',(4.865073970198,-37.12646336793));
#948 = CARTESIAN_POINT('',(4.855577605054,-37.25454140924));
#949 = CARTESIAN_POINT('',(4.845129796202,-37.37718648498));
#950 = CARTESIAN_POINT('',(4.83362619212,-37.49402591217));
#951 = CARTESIAN_POINT('',(4.821141563037,-37.60271785899));
#952 = CARTESIAN_POINT('',(4.807721692435,-37.70158345702));
#953 = CARTESIAN_POINT('',(4.793436231049,-37.78892247807));
#954 = CARTESIAN_POINT('',(4.778362329715,-37.86319794691));
#955 = CARTESIAN_POINT('',(4.762590517895,-37.92298798276));
#956 = CARTESIAN_POINT('',(4.746211512278,-37.96699903281));
#957 = CARTESIAN_POINT('',(4.729357863002,-37.99406577907));
#958 = CARTESIAN_POINT('',(4.712046206984,-38.00314265616));
#959 = CARTESIAN_POINT('',(4.694763805899,-37.99334218871));
#960 = CARTESIAN_POINT('',(4.677947465555,-37.96564916429));
#961 = CARTESIAN_POINT('',(4.661620445628,-37.92112782238));
#962 = CARTESIAN_POINT('',(4.645906637862,-37.86095728676));
#963 = CARTESIAN_POINT('',(4.630892328438,-37.78642183808));
#964 = CARTESIAN_POINT('',(4.616662594155,-37.69891327278));
#965 = CARTESIAN_POINT('',(4.603290597737,-37.59992934769));
#966 = CARTESIAN_POINT('',(4.590839732017,-37.49107491914));
#967 = CARTESIAN_POINT('',(4.579360637985,-37.37405519333));
#968 = CARTESIAN_POINT('',(4.568895160045,-37.25069666528));
#969 = CARTESIAN_POINT('',(4.55945709124,-37.1228638717));
#970 = CARTESIAN_POINT('',(4.550877561869,-36.98956340512));
#971 = CARTESIAN_POINT('',(4.543172534887,-36.85186635295));
#972 = CARTESIAN_POINT('',(4.5363197939,-36.71032916439));
#973 = CARTESIAN_POINT('',(4.530308198233,-36.56555953033));
#974 = CARTESIAN_POINT('',(4.52512478203,-36.41807522827));
#975 = CARTESIAN_POINT('',(4.520758495022,-36.26835172044));
#976 = CARTESIAN_POINT('',(4.517199480982,-36.11681846922));
#977 = CARTESIAN_POINT('',(4.514439518061,-35.96386855032));
#978 = CARTESIAN_POINT('',(4.512472234449,-35.80986350352));
#979 = CARTESIAN_POINT('',(4.511293028098,-35.6551413063));
#980 = CARTESIAN_POINT('',(4.511031255716,-35.55172324533));
#981 = CARTESIAN_POINT('',(4.511031059595,-35.5));
#982 = ( GEOMETRIC_REPRESENTATION_CONTEXT(2) 
PARAMETRIC_REPRESENTATION_CONTEXT() REPRESENTATION_CONTEXT('2D SPACE',''
  ) );
#983 = ORIENTED_EDGE('',*,*,#782,.T.);
#984 = ADVANCED_FACE('',(#985),#408,.T.);
#985 = FACE_BOUND('',#986,.T.);
#986 = EDGE_LOOP('',(#987,#988,#1008,#1009));
#987 = ORIENTED_EDGE('',*,*,#830,.F.);
#988 = ORIENTED_EDGE('',*,*,#989,.T.);
#989 = EDGE_CURVE('',#831,#531,#990,.T.);
#990 = SURFACE_CURVE('',#991,(#995,#1002),.PCURVE_S1.);
#991 = LINE('',#992,#993);
#992 = CARTESIAN_POINT('',(-2.5,12.247448713916,22.));
#993 = VECTOR('',#994,1.);
#994 = DIRECTION('',(-0.,-0.,-1.));
#995 = PCURVE('',#408,#996);
#996 = DEFINITIONAL_REPRESENTATION('',(#997),#1001);
#997 = LINE('',#998,#999);
#998 = CARTESIAN_POINT('',(1.,-12.24744871391));
#999 = VECTOR('',#1000,1.);
#1000 = DIRECTION('',(-1.,0.));
#1001 = ( GEOMETRIC_REPRESENTATION_CONTEXT(2) 
PARAMETRIC_REPRESENTATION_CONTEXT() REPRESENTATION_CONTEXT('2D SPACE',''
  ) );
#1002 = PCURVE('',#466,#1003);
#1003 = DEFINITIONAL_REPRESENTATION('',(#1004),#1007);
#1004 = B_SPLINE_CURVE_WITH_KNOTS('',1,(#1005,#1006),.UNSPECIFIED.,.F.,
  .F.,(2,2),(-39.15,6.E-07),.PIECEWISE_BEZIER_KNOTS.);
#1005 = CARTESIAN_POINT('',(4.511031059595,-39.15));
#1006 = CARTESIAN_POINT('',(4.511031059595,6.E-07));
#1007 = ( GEOMETRIC_REPRESENTATION_CONTEXT(2) 
PARAMETRIC_REPRESENTATION_CONTEXT() REPRESENTATION_CONTEXT('2D SPACE',''
  ) );
#1008 = ORIENTED_EDGE('',*,*,#554,.T.);
#1009 = ORIENTED_EDGE('',*,*,#393,.F.);
#1010 = ADVANCED_FACE('',(#1011),#466,.F.);
#1011 = FACE_BOUND('',#1012,.F.);
#1012 = EDGE_LOOP('',(#1013,#1014,#1035,#1036,#1037,#1038,#1039,#1040,
    #1041,#1042,#1043,#1044));
#1013 = ORIENTED_EDGE('',*,*,#449,.F.);
#1014 = ORIENTED_EDGE('',*,*,#1015,.F.);
#1015 = EDGE_CURVE('',#507,#450,#1016,.T.);
#1016 = SEAM_CURVE('',#1017,(#1021,#1028),.PCURVE_S1.);
#1017 = LINE('',#1018,#1019);
#1018 = CARTESIAN_POINT('',(12.5,3.947459643112E-16,22.));
#1019 = VECTOR('',#1020,1.);
#1020 = DIRECTION('',(0.,0.,1.));
#1021 = PCURVE('',#466,#1022);
#1022 = DEFINITIONAL_REPRESENTATION('',(#1023),#1027);
#1023 = LINE('',#1024,#1025);
#1024 = CARTESIAN_POINT('',(6.283185307179,0.));
#1025 = VECTOR('',#1026,1.);
#1026 = DIRECTION('',(-0.,-1.));
#1027 = ( GEOMETRIC_REPRESENTATION_CONTEXT(2) 
PARAMETRIC_REPRESENTATION_CONTEXT() REPRESENTATION_CONTEXT('2D SPACE',''
  ) );
#1028 = PCURVE('',#466,#1029);
#1029 = DEFINITIONAL_REPRESENTATION('',(#1030),#1034);
#1030 = LINE('',#1031,#1032);
#1031 = CARTESIAN_POINT('',(-0.,0.));
#1032 = VECTOR('',#1033,1.);
#1033 = DIRECTION('',(-0.,-1.));
#1034 = ( GEOMETRIC_REPRESENTATION_CONTEXT(2) 
PARAMETRIC_REPRESENTATION_CONTEXT() REPRESENTATION_CONTEXT('2D SPACE',''
  ) );
#1035 = ORIENTED_EDGE('',*,*,#506,.T.);
#1036 = ORIENTED_EDGE('',*,*,#601,.F.);
#1037 = ORIENTED_EDGE('',*,*,#651,.T.);
#1038 = ORIENTED_EDGE('',*,*,#680,.F.);
#1039 = ORIENTED_EDGE('',*,*,#753,.F.);
#1040 = ORIENTED_EDGE('',*,*,#804,.F.);
#1041 = ORIENTED_EDGE('',*,*,#852,.T.);
#1042 = ORIENTED_EDGE('',*,*,#989,.T.);
#1043 = ORIENTED_EDGE('',*,*,#530,.T.);
#1044 = ORIENTED_EDGE('',*,*,#1015,.T.);
#1045 = ( GEOMETRIC_REPRESENTATION_CONTEXT(3) 
GLOBAL_UNCERTAINTY_ASSIGNED_CONTEXT((#1049)) 
GLOBAL_UNIT_ASSIGNED_CONTEXT((#1046,#1047,#1048)) REPRESENTATION_CONTEXT
('Context #1','3D Context with UNIT and UNCERTAINTY') );
#1046 = ( LENGTH_UNIT() NAMED_UNIT(*) SI_UNIT(.MILLI.,.METRE.) );
#1047 = ( NAMED_UNIT(*) PLANE_ANGLE_UNIT() SI_UNIT($,.RADIAN.) );
#1048 = ( NAMED_UNIT(*) SI_UNIT($,.STERADIAN.) SOLID_ANGLE_UNIT() );
#1049 = UNCERTAINTY_MEASURE_WITH_UNIT(LENGTH_MEASURE(1.E-07),#1046,
  'distance_accuracy_value','confusion accuracy');
#1050 = PRODUCT_RELATED_PRODUCT_CATEGORY('part',$,(#7));
ENDSEC;
END-ISO-10303-21;
