solid XR_DEMO_NONFUNCTIONAL
facet normal 3.024275067796323e-17 -0.9914448617992168 -0.1305261889887701
outer loop
vertex -20.00000 -25.00000 -5.00000
vertex -112.00000 -25.00000 -5.00000
vertex -20.00000 -24.14815 -11.47048
endloop
endfacet
facet normal 2.958521370556873e-17 -0.9914448617992168 -0.1305261889887701
outer loop
vertex -112.00000 -25.00000 -5.00000
vertex -112.00000 -24.14815 -11.47048
vertex -20.00000 -24.14815 -11.47048
endloop
endfacet
facet normal 8.866727156463333e-17 -0.9238795131754166 -0.3826834790460062
outer loop
vertex -20.00000 -24.14815 -11.47048
vertex -112.00000 -24.14815 -11.47048
vertex -20.00000 -21.65063 -17.50000
endloop
endfacet
facet normal 8.875563987368115e-17 -0.9238795131754166 -0.3826834790460062
outer loop
vertex -112.00000 -24.14815 -11.47048
vertex -112.00000 -21.65063 -17.50000
vertex -20.00000 -21.65063 -17.50000
endloop
endfacet
facet normal 1.4104923560740326e-16 -0.793353364046214 -0.6087613980506282
outer loop
vertex -20.00000 -21.65063 -17.50000
vertex -112.00000 -21.65063 -17.50000
vertex -20.00000 -17.67767 -22.67767
endloop
endfacet
facet normal 1.4200903060547783e-16 -0.793353364046214 -0.6087613980506282
outer loop
vertex -112.00000 -21.65063 -17.50000
vertex -112.00000 -17.67767 -22.67767
vertex -20.00000 -17.67767 -22.67767
endloop
endfacet
facet normal 1.8381895751539424e-16 -0.6087613980506282 -0.793353364046214
outer loop
vertex -20.00000 -17.67767 -22.67767
vertex -112.00000 -17.67767 -22.67767
vertex -20.00000 -12.50000 -26.65063
endloop
endfacet
facet normal 1.834283311987422e-16 -0.6087613980506282 -0.793353364046214
outer loop
vertex -112.00000 -17.67767 -22.67767
vertex -112.00000 -12.50000 -26.65063
vertex -20.00000 -12.50000 -26.65063
endloop
endfacet
facet normal 2.1406169895794675e-16 -0.3826834790460062 -0.9238795131754166
outer loop
vertex -20.00000 -12.50000 -26.65063
vertex -112.00000 -12.50000 -26.65063
vertex -20.00000 -6.47048 -29.14815
endloop
endfacet
facet normal 2.1301353569683475e-16 -0.3826834790460062 -0.9238795131754166
outer loop
vertex -112.00000 -12.50000 -26.65063
vertex -112.00000 -6.47048 -29.14815
vertex -20.00000 -6.47048 -29.14815
endloop
endfacet
facet normal 2.297165036276445e-16 -0.13052618898877008 -0.9914448617992168
outer loop
vertex -20.00000 -6.47048 -29.14815
vertex -112.00000 -6.47048 -29.14815
vertex -20.00000 0.00000 -30.00000
endloop
endfacet
facet normal 2.381609703298284e-16 -0.13052618898877016 -0.9914448617992165
outer loop
vertex -112.00000 -6.47048 -29.14815
vertex -112.00000 -0.00000 -30.00000
vertex -20.00000 0.00000 -30.00000
endloop
endfacet
facet normal 2.2172407952671884e-16 0.1305261889887701 -0.9914448617992165
outer loop
vertex -20.00000 0.00000 -30.00000
vertex -112.00000 -0.00000 -30.00000
vertex -20.00000 6.47048 -29.14815
endloop
endfacet
facet normal 2.307646669034359e-16 0.13052618898877 -0.9914448617992168
outer loop
vertex -112.00000 -0.00000 -30.00000
vertex -112.00000 6.47048 -29.14815
vertex -20.00000 6.47048 -29.14815
endloop
endfacet
facet normal 2.1406169895794675e-16 0.3826834790460062 -0.9238795131754166
outer loop
vertex -20.00000 6.47048 -29.14815
vertex -112.00000 6.47048 -29.14815
vertex -20.00000 12.50000 -26.65063
endloop
endfacet
facet normal 2.1301353569683475e-16 0.3826834790460062 -0.9238795131754166
outer loop
vertex -112.00000 6.47048 -29.14815
vertex -112.00000 12.50000 -26.65063
vertex -20.00000 12.50000 -26.65063
endloop
endfacet
facet normal 1.8381895751539424e-16 0.6087613980506282 -0.793353364046214
outer loop
vertex -20.00000 12.50000 -26.65063
vertex -112.00000 12.50000 -26.65063
vertex -20.00000 17.67767 -22.67767
endloop
endfacet
facet normal 1.834283311987422e-16 0.6087613980506282 -0.793353364046214
outer loop
vertex -112.00000 12.50000 -26.65063
vertex -112.00000 17.67767 -22.67767
vertex -20.00000 17.67767 -22.67767
endloop
endfacet
facet normal 1.4104923560740326e-16 0.793353364046214 -0.6087613980506282
outer loop
vertex -20.00000 17.67767 -22.67767
vertex -112.00000 17.67767 -22.67767
vertex -20.00000 21.65063 -17.50000
endloop
endfacet
facet normal 1.4200903060547783e-16 0.793353364046214 -0.6087613980506282
outer loop
vertex -112.00000 17.67767 -22.67767
vertex -112.00000 21.65063 -17.50000
vertex -20.00000 21.65063 -17.50000
endloop
endfacet
facet normal 8.866727156463333e-17 0.9238795131754166 -0.3826834790460062
outer loop
vertex -20.00000 21.65063 -17.50000
vertex -112.00000 21.65063 -17.50000
vertex -20.00000 24.14815 -11.47048
endloop
endfacet
facet normal 8.875563987368115e-17 0.9238795131754166 -0.3826834790460062
outer loop
vertex -112.00000 21.65063 -17.50000
vertex -112.00000 24.14815 -11.47048
vertex -20.00000 24.14815 -11.47048
endloop
endfacet
facet normal 3.024275067796325e-17 0.9914448617992168 -0.13052618898877016
outer loop
vertex -20.00000 24.14815 -11.47048
vertex -112.00000 24.14815 -11.47048
vertex -20.00000 25.00000 -5.00000
endloop
endfacet
facet normal 2.9585213705568743e-17 0.9914448617992168 -0.13052618898877016
outer loop
vertex -112.00000 24.14815 -11.47048
vertex -112.00000 25.00000 -5.00000
vertex -20.00000 25.00000 -5.00000
endloop
endfacet
facet normal -2.898263606638141e-17 0.9914448617992166 0.13052618898877003
outer loop
vertex -20.00000 25.00000 -5.00000
vertex -112.00000 25.00000 -5.00000
vertex -20.00000 24.14815 1.47048
endloop
endfacet
facet normal -2.958521370556872e-17 0.9914448617992168 0.13052618898877005
outer loop
vertex -112.00000 25.00000 -5.00000
vertex -112.00000 24.14815 1.47048
vertex -20.00000 24.14815 1.47048
endloop
endfacet
facet normal -8.866727156463333e-17 0.9238795131754166 0.3826834790460062
outer loop
vertex -20.00000 24.14815 1.47048
vertex -112.00000 24.14815 1.47048
vertex -20.00000 21.65063 7.50000
endloop
endfacet
facet normal -8.875563987368115e-17 0.9238795131754166 0.3826834790460062
outer loop
vertex -112.00000 24.14815 1.47048
vertex -112.00000 21.65063 7.50000
vertex -20.00000 21.65063 7.50000
endloop
endfacet
facet normal -1.4104923560740326e-16 0.793353364046214 0.6087613980506282
outer loop
vertex -20.00000 21.65063 7.50000
vertex -112.00000 21.65063 7.50000
vertex -20.00000 17.67767 12.67767
endloop
endfacet
facet normal -1.4200903060547783e-16 0.793353364046214 0.6087613980506282
outer loop
vertex -112.00000 21.65063 7.50000
vertex -112.00000 17.67767 12.67767
vertex -20.00000 17.67767 12.67767
endloop
endfacet
facet normal -1.8381895751539424e-16 0.6087613980506282 0.793353364046214
outer loop
vertex -20.00000 17.67767 12.67767
vertex -112.00000 17.67767 12.67767
vertex -20.00000 12.50000 16.65063
endloop
endfacet
facet normal -1.834283311987422e-16 0.6087613980506282 0.793353364046214
outer loop
vertex -112.00000 17.67767 12.67767
vertex -112.00000 12.50000 16.65063
vertex -20.00000 12.50000 16.65063
endloop
endfacet
facet normal -2.1406169895794675e-16 0.3826834790460062 0.9238795131754166
outer loop
vertex -20.00000 12.50000 16.65063
vertex -112.00000 12.50000 16.65063
vertex -20.00000 6.47048 19.14815
endloop
endfacet
facet normal -2.1301353569683475e-16 0.3826834790460062 0.9238795131754166
outer loop
vertex -112.00000 12.50000 16.65063
vertex -112.00000 6.47048 19.14815
vertex -20.00000 6.47048 19.14815
endloop
endfacet
facet normal -2.2971650362764457e-16 0.13052618898877028 0.9914448617992168
outer loop
vertex -20.00000 6.47048 19.14815
vertex -112.00000 6.47048 19.14815
vertex -20.00000 0.00000 20.00000
endloop
endfacet
facet normal -2.3816097032982825e-16 0.1305261889887701 0.9914448617992165
outer loop
vertex -112.00000 6.47048 19.14815
vertex -112.00000 0.00000 20.00000
vertex -20.00000 0.00000 20.00000
endloop
endfacet
facet normal -2.217240793765015e-16 -0.13052618898876997 0.9914448617992168
outer loop
vertex -20.00000 0.00000 20.00000
vertex -112.00000 0.00000 20.00000
vertex -20.00000 -6.47048 19.14815
endloop
endfacet
facet normal -2.3076466690343604e-16 -0.13052618898877008 0.9914448617992168
outer loop
vertex -112.00000 0.00000 20.00000
vertex -112.00000 -6.47048 19.14815
vertex -20.00000 -6.47048 19.14815
endloop
endfacet
facet normal -2.1406169895794675e-16 -0.3826834790460062 0.9238795131754166
outer loop
vertex -20.00000 -6.47048 19.14815
vertex -112.00000 -6.47048 19.14815
vertex -20.00000 -12.50000 16.65063
endloop
endfacet
facet normal -2.1301353569683475e-16 -0.3826834790460062 0.9238795131754166
outer loop
vertex -112.00000 -6.47048 19.14815
vertex -112.00000 -12.50000 16.65063
vertex -20.00000 -12.50000 16.65063
endloop
endfacet
facet normal -1.8381895751539424e-16 -0.6087613980506282 0.793353364046214
outer loop
vertex -20.00000 -12.50000 16.65063
vertex -112.00000 -12.50000 16.65063
vertex -20.00000 -17.67767 12.67767
endloop
endfacet
facet normal -1.834283311987422e-16 -0.6087613980506282 0.793353364046214
outer loop
vertex -112.00000 -12.50000 16.65063
vertex -112.00000 -17.67767 12.67767
vertex -20.00000 -17.67767 12.67767
endloop
endfacet
facet normal -1.4104923560740326e-16 -0.793353364046214 0.6087613980506282
outer loop
vertex -20.00000 -17.67767 12.67767
vertex -112.00000 -17.67767 12.67767
vertex -20.00000 -21.65063 7.50000
endloop
endfacet
facet normal -1.4200903060547783e-16 -0.793353364046214 0.6087613980506282
outer loop
vertex -112.00000 -17.67767 12.67767
vertex -112.00000 -21.65063 7.50000
vertex -20.00000 -21.65063 7.50000
endloop
endfacet
facet normal -8.866727156463333e-17 -0.9238795131754166 0.3826834790460062
outer loop
vertex -20.00000 -21.65063 7.50000
vertex -112.00000 -21.65063 7.50000
vertex -20.00000 -24.14815 1.47048
endloop
endfacet
facet normal -8.875563987368115e-17 -0.9238795131754166 0.3826834790460062
outer loop
vertex -112.00000 -21.65063 7.50000
vertex -112.00000 -24.14815 1.47048
vertex -20.00000 -24.14815 1.47048
endloop
endfacet
facet normal -3.024275067796325e-17 -0.9914448617992165 0.13052618898877016
outer loop
vertex -20.00000 -24.14815 1.47048
vertex -112.00000 -24.14815 1.47048
vertex -20.00000 -25.00000 -5.00000
endloop
endfacet
facet normal -2.9585213705568756e-17 -0.9914448617992168 0.13052618898877022
outer loop
vertex -112.00000 -24.14815 1.47048
vertex -112.00000 -25.00000 -5.00000
vertex -20.00000 -25.00000 -5.00000
endloop
endfacet
facet normal 1 0 0
outer loop
vertex -20.00000 -25.00000 -5.00000
vertex -20.00000 -24.14815 -11.47048
vertex -20.00000 0.00000 -5.00000
endloop
endfacet
facet normal 1 0 0
outer loop
vertex -20.00000 -24.14815 -11.47048
vertex -20.00000 -21.65063 -17.50000
vertex -20.00000 0.00000 -5.00000
endloop
endfacet
facet normal 1 -5.490652832026545e-16 9.510089527284104e-16
outer loop
vertex -20.00000 -21.65063 -17.50000
vertex -20.00000 -17.67767 -22.67767
vertex -20.00000 0.00000 -5.00000
endloop
endfacet
facet normal 1 1.7451338279341108e-16 2.2743028673234464e-16
outer loop
vertex -20.00000 -17.67767 -22.67767
vertex -20.00000 -12.50000 -26.65063
vertex -20.00000 0.00000 -5.00000
endloop
endfacet
facet normal 1 1.0970371757451667e-16 2.6484816496113543e-16
outer loop
vertex -20.00000 -12.50000 -26.65063
vertex -20.00000 -6.47048 -29.14815
vertex -20.00000 0.00000 -5.00000
endloop
endfacet
facet normal 1 3.741788937979398e-17 2.8421709430404003e-16
outer loop
vertex -20.00000 -6.47048 -29.14815
vertex -20.00000 0.00000 -30.00000
vertex -20.00000 0.00000 -5.00000
endloop
endfacet
facet normal 1 -3.7417889379794e-17 2.842170943040401e-16
outer loop
vertex -20.00000 0.00000 -30.00000
vertex -20.00000 6.47048 -29.14815
vertex -20.00000 0.00000 -5.00000
endloop
endfacet
facet normal 1 -1.0970371757451667e-16 2.6484816496113543e-16
outer loop
vertex -20.00000 6.47048 -29.14815
vertex -20.00000 12.50000 -26.65063
vertex -20.00000 0.00000 -5.00000
endloop
endfacet
facet normal 1 -1.7451338279341108e-16 2.2743028673234464e-16
outer loop
vertex -20.00000 12.50000 -26.65063
vertex -20.00000 17.67767 -22.67767
vertex -20.00000 0.00000 -5.00000
endloop
endfacet
facet normal 1 5.490652832026545e-16 9.5100895272841e-16
outer loop
vertex -20.00000 17.67767 -22.67767
vertex -20.00000 21.65063 -17.50000
vertex -20.00000 0.00000 -5.00000
endloop
endfacet
facet normal 0.9999999999999999 0 0
outer loop
vertex -20.00000 21.65063 -17.50000
vertex -20.00000 24.14815 -11.47048
vertex -20.00000 0.00000 -5.00000
endloop
endfacet
facet normal 0.9999999999999999 0 0
outer loop
vertex -20.00000 24.14815 -11.47048
vertex -20.00000 25.00000 -5.00000
vertex -20.00000 0.00000 -5.00000
endloop
endfacet
facet normal 1 0 0
outer loop
vertex -20.00000 25.00000 -5.00000
vertex -20.00000 24.14815 1.47048
vertex -20.00000 0.00000 -5.00000
endloop
endfacet
facet normal 0.9999999999999999 0 0
outer loop
vertex -20.00000 24.14815 1.47048
vertex -20.00000 21.65063 7.50000
vertex -20.00000 0.00000 -5.00000
endloop
endfacet
facet normal 1 -5.490652832026545e-16 9.5100895272841e-16
outer loop
vertex -20.00000 21.65063 7.50000
vertex -20.00000 17.67767 12.67767
vertex -20.00000 0.00000 -5.00000
endloop
endfacet
facet normal 1 1.7451338279341108e-16 2.2743028673234464e-16
outer loop
vertex -20.00000 17.67767 12.67767
vertex -20.00000 12.50000 16.65063
vertex -20.00000 0.00000 -5.00000
endloop
endfacet
facet normal 1 1.0970371757451667e-16 2.6484816496113543e-16
outer loop
vertex -20.00000 12.50000 16.65063
vertex -20.00000 6.47048 19.14815
vertex -20.00000 0.00000 -5.00000
endloop
endfacet
facet normal 1 3.741788937979403e-17 2.842170943040401e-16
outer loop
vertex -20.00000 6.47048 19.14815
vertex -20.00000 0.00000 20.00000
vertex -20.00000 0.00000 -5.00000
endloop
endfacet
facet normal 1 -3.741788937979395e-17 2.842170943040401e-16
outer loop
vertex -20.00000 0.00000 20.00000
vertex -20.00000 -6.47048 19.14815
vertex -20.00000 0.00000 -5.00000
endloop
endfacet
facet normal 1 -1.0970371757451667e-16 2.6484816496113543e-16
outer loop
vertex -20.00000 -6.47048 19.14815
vertex -20.00000 -12.50000 16.65063
vertex -20.00000 0.00000 -5.00000
endloop
endfacet
facet normal 1 -1.7451338279341108e-16 2.2743028673234464e-16
outer loop
vertex -20.00000 -12.50000 16.65063
vertex -20.00000 -17.67767 12.67767
vertex -20.00000 0.00000 -5.00000
endloop
endfacet
facet normal 1 5.490652832026545e-16 9.510089527284104e-16
outer loop
vertex -20.00000 -17.67767 12.67767
vertex -20.00000 -21.65063 7.50000
vertex -20.00000 0.00000 -5.00000
endloop
endfacet
facet normal 1 0 0
outer loop
vertex -20.00000 -21.65063 7.50000
vertex -20.00000 -24.14815 1.47048
vertex -20.00000 0.00000 -5.00000
endloop
endfacet
facet normal 0.9999999999999999 0 0
outer loop
vertex -20.00000 -24.14815 1.47048
vertex -20.00000 -25.00000 -5.00000
vertex -20.00000 0.00000 -5.00000
endloop
endfacet
facet normal -1 0 0
outer loop
vertex -112.00000 -24.14815 -11.47048
vertex -112.00000 -25.00000 -5.00000
vertex -112.00000 -0.00000 -5.00000
endloop
endfacet
facet normal -0.9999999999999999 0 0
outer loop
vertex -112.00000 -21.65063 -17.50000
vertex -112.00000 -24.14815 -11.47048
vertex -112.00000 -0.00000 -5.00000
endloop
endfacet
facet normal -1 0 0
outer loop
vertex -112.00000 -17.67767 -22.67767
vertex -112.00000 -21.65063 -17.50000
vertex -112.00000 -0.00000 -5.00000
endloop
endfacet
facet normal -1 0 0
outer loop
vertex -112.00000 -12.50000 -26.65063
vertex -112.00000 -17.67767 -22.67767
vertex -112.00000 -0.00000 -5.00000
endloop
endfacet
facet normal -1 0 0
outer loop
vertex -112.00000 -6.47048 -29.14815
vertex -112.00000 -12.50000 -26.65063
vertex -112.00000 -0.00000 -5.00000
endloop
endfacet
facet normal -0.9999999999999999 0 0
outer loop
vertex -112.00000 -0.00000 -30.00000
vertex -112.00000 -6.47048 -29.14815
vertex -112.00000 -0.00000 -5.00000
endloop
endfacet
facet normal -0.9999999999999999 0 0
outer loop
vertex -112.00000 6.47048 -29.14815
vertex -112.00000 -0.00000 -30.00000
vertex -112.00000 -0.00000 -5.00000
endloop
endfacet
facet normal -1 0 0
outer loop
vertex -112.00000 12.50000 -26.65063
vertex -112.00000 6.47048 -29.14815
vertex -112.00000 -0.00000 -5.00000
endloop
endfacet
facet normal -1 0 0
outer loop
vertex -112.00000 17.67767 -22.67767
vertex -112.00000 12.50000 -26.65063
vertex -112.00000 -0.00000 -5.00000
endloop
endfacet
facet normal -1 0 0
outer loop
vertex -112.00000 21.65063 -17.50000
vertex -112.00000 17.67767 -22.67767
vertex -112.00000 -0.00000 -5.00000
endloop
endfacet
facet normal -1 0 0
outer loop
vertex -112.00000 24.14815 -11.47048
vertex -112.00000 21.65063 -17.50000
vertex -112.00000 -0.00000 -5.00000
endloop
endfacet
facet normal -1 0 0
outer loop
vertex -112.00000 25.00000 -5.00000
vertex -112.00000 24.14815 -11.47048
vertex -112.00000 -0.00000 -5.00000
endloop
endfacet
facet normal -1 0 0
outer loop
vertex -112.00000 24.14815 1.47048
vertex -112.00000 25.00000 -5.00000
vertex -112.00000 -0.00000 -5.00000
endloop
endfacet
facet normal -1 0 0
outer loop
vertex -112.00000 21.65063 7.50000
vertex -112.00000 24.14815 1.47048
vertex -112.00000 -0.00000 -5.00000
endloop
endfacet
facet normal -1 0 0
outer loop
vertex -112.00000 17.67767 12.67767
vertex -112.00000 21.65063 7.50000
vertex -112.00000 -0.00000 -5.00000
endloop
endfacet
facet normal -1 0 0
outer loop
vertex -112.00000 12.50000 16.65063
vertex -112.00000 17.67767 12.67767
vertex -112.00000 -0.00000 -5.00000
endloop
endfacet
facet normal -1 0 0
outer loop
vertex -112.00000 6.47048 19.14815
vertex -112.00000 12.50000 16.65063
vertex -112.00000 -0.00000 -5.00000
endloop
endfacet
facet normal -1 0 0
outer loop
vertex -112.00000 0.00000 20.00000
vertex -112.00000 6.47048 19.14815
vertex -112.00000 -0.00000 -5.00000
endloop
endfacet
facet normal -1 0 0
outer loop
vertex -112.00000 -6.47048 19.14815
vertex -112.00000 0.00000 20.00000
vertex -112.00000 -0.00000 -5.00000
endloop
endfacet
facet normal -1 0 0
outer loop
vertex -112.00000 -12.50000 16.65063
vertex -112.00000 -6.47048 19.14815
vertex -112.00000 -0.00000 -5.00000
endloop
endfacet
facet normal -1 0 0
outer loop
vertex -112.00000 -17.67767 12.67767
vertex -112.00000 -12.50000 16.65063
vertex -112.00000 -0.00000 -5.00000
endloop
endfacet
facet normal -1 0 0
outer loop
vertex -112.00000 -21.65063 7.50000
vertex -112.00000 -17.67767 12.67767
vertex -112.00000 -0.00000 -5.00000
endloop
endfacet
facet normal -0.9999999999999999 0 0
outer loop
vertex -112.00000 -24.14815 1.47048
vertex -112.00000 -21.65063 7.50000
vertex -112.00000 -0.00000 -5.00000
endloop
endfacet
facet normal -1 0 0
outer loop
vertex -112.00000 -25.00000 -5.00000
vertex -112.00000 -24.14815 1.47048
vertex -112.00000 -0.00000 -5.00000
endloop
endfacet
facet normal 2.318612192372226e-17 -0.9914448521120874 -0.1305262625698031
outer loop
vertex -8.00000 -58.00000 -5.00000
vertex -18.00000 -58.00000 -5.00000
vertex -8.00000 -56.02370 -20.01150
endloop
endfacet
facet normal 0 -0.9914448521120874 -0.1305262625698031
outer loop
vertex -18.00000 -58.00000 -5.00000
vertex -18.00000 -56.02370 -20.01150
vertex -8.00000 -56.02370 -20.01150
endloop
endfacet
facet normal 0 -0.9238795536022402 -0.38268338144702013
outer loop
vertex -8.00000 -56.02370 -20.01150
vertex -18.00000 -56.02370 -20.01150
vertex -8.00000 -50.22947 -34.00000
endloop
endfacet
facet normal 0 -0.9238795536022402 -0.38268338144702013
outer loop
vertex -18.00000 -56.02370 -20.01150
vertex -18.00000 -50.22947 -34.00000
vertex -8.00000 -50.22947 -34.00000
endloop
endfacet
facet normal 0 -0.7933532634254974 -0.6087615291820874
outer loop
vertex -8.00000 -50.22947 -34.00000
vertex -18.00000 -50.22947 -34.00000
vertex -8.00000 -41.01219 -46.01219
endloop
endfacet
facet normal 0 -0.7933532634254975 -0.6087615291820874
outer loop
vertex -18.00000 -50.22947 -34.00000
vertex -18.00000 -41.01219 -46.01219
vertex -8.00000 -41.01219 -46.01219
endloop
endfacet
facet normal 0 -0.6087615291820874 -0.7933532634254975
outer loop
vertex -8.00000 -41.01219 -46.01219
vertex -18.00000 -41.01219 -46.01219
vertex -8.00000 -29.00000 -55.22947
endloop
endfacet
facet normal 0 -0.6087615291820874 -0.7933532634254974
outer loop
vertex -18.00000 -41.01219 -46.01219
vertex -18.00000 -29.00000 -55.22947
vertex -8.00000 -29.00000 -55.22947
endloop
endfacet
facet normal 0 -0.38268338144702013 -0.9238795536022402
outer loop
vertex -8.00000 -29.00000 -55.22947
vertex -18.00000 -29.00000 -55.22947
vertex -8.00000 -15.01150 -61.02370
endloop
endfacet
facet normal 0 -0.38268338144702013 -0.9238795536022402
outer loop
vertex -18.00000 -29.00000 -55.22947
vertex -18.00000 -15.01150 -61.02370
vertex -8.00000 -15.01150 -61.02370
endloop
endfacet
facet normal 0 -0.13052626256980313 -0.9914448521120874
outer loop
vertex -8.00000 -15.01150 -61.02370
vertex -18.00000 -15.01150 -61.02370
vertex -8.00000 -0.00000 -63.00000
endloop
endfacet
facet normal 0 -0.13052626256980313 -0.9914448521120874
outer loop
vertex -18.00000 -15.01150 -61.02370
vertex -18.00000 -0.00000 -63.00000
vertex -8.00000 -0.00000 -63.00000
endloop
endfacet
facet normal -7.992429868291148e-18 0.13052626256980307 -0.9914448521120874
outer loop
vertex -8.00000 -0.00000 -63.00000
vertex -18.00000 -0.00000 -63.00000
vertex -8.00000 15.01150 -61.02370
endloop
endfacet
facet normal 0 0.13052626256980307 -0.9914448521120874
outer loop
vertex -18.00000 -0.00000 -63.00000
vertex -18.00000 15.01150 -61.02370
vertex -8.00000 15.01150 -61.02370
endloop
endfacet
facet normal 0 0.3826833814470201 -0.92387955360224
outer loop
vertex -8.00000 15.01150 -61.02370
vertex -18.00000 15.01150 -61.02370
vertex -8.00000 29.00000 -55.22947
endloop
endfacet
facet normal 0 0.38268338144702013 -0.9238795536022402
outer loop
vertex -18.00000 15.01150 -61.02370
vertex -18.00000 29.00000 -55.22947
vertex -8.00000 29.00000 -55.22947
endloop
endfacet
facet normal 0 0.6087615291820874 -0.7933532634254974
outer loop
vertex -8.00000 29.00000 -55.22947
vertex -18.00000 29.00000 -55.22947
vertex -8.00000 41.01219 -46.01219
endloop
endfacet
facet normal 0 0.6087615291820874 -0.7933532634254974
outer loop
vertex -18.00000 29.00000 -55.22947
vertex -18.00000 41.01219 -46.01219
vertex -8.00000 41.01219 -46.01219
endloop
endfacet
facet normal 0 0.7933532634254975 -0.6087615291820874
outer loop
vertex -8.00000 41.01219 -46.01219
vertex -18.00000 41.01219 -46.01219
vertex -8.00000 50.22947 -34.00000
endloop
endfacet
facet normal 0 0.7933532634254974 -0.6087615291820874
outer loop
vertex -18.00000 41.01219 -46.01219
vertex -18.00000 50.22947 -34.00000
vertex -8.00000 50.22947 -34.00000
endloop
endfacet
facet normal 0 0.9238795536022402 -0.38268338144702013
outer loop
vertex -8.00000 50.22947 -34.00000
vertex -18.00000 50.22947 -34.00000
vertex -8.00000 56.02370 -20.01150
endloop
endfacet
facet normal 0 0.9238795536022402 -0.38268338144702013
outer loop
vertex -18.00000 50.22947 -34.00000
vertex -18.00000 56.02370 -20.01150
vertex -8.00000 56.02370 -20.01150
endloop
endfacet
facet normal 0 0.9914448521120874 -0.13052626256980315
outer loop
vertex -8.00000 56.02370 -20.01150
vertex -18.00000 56.02370 -20.01150
vertex -8.00000 58.00000 -5.00000
endloop
endfacet
facet normal 0 0.9914448521120874 -0.13052626256980315
outer loop
vertex -18.00000 56.02370 -20.01150
vertex -18.00000 58.00000 -5.00000
vertex -8.00000 58.00000 -5.00000
endloop
endfacet
facet normal -2.3186121923722255e-17 0.9914448521120875 0.13052626256980304
outer loop
vertex -8.00000 58.00000 -5.00000
vertex -18.00000 58.00000 -5.00000
vertex -8.00000 56.02370 10.01150
endloop
endfacet
facet normal -4.692827110749964e-17 0.9914448521120874 0.13052626256980301
outer loop
vertex -18.00000 58.00000 -5.00000
vertex -18.00000 56.02370 10.01150
vertex -8.00000 56.02370 10.01150
endloop
endfacet
facet normal -1.3595644839164583e-16 0.92387955360224 0.38268338144702013
outer loop
vertex -8.00000 56.02370 10.01150
vertex -18.00000 56.02370 10.01150
vertex -8.00000 50.22947 24.00000
endloop
endfacet
facet normal 0 0.9238795536022402 0.3826833814470201
outer loop
vertex -18.00000 56.02370 10.01150
vertex -18.00000 50.22947 24.00000
vertex -8.00000 50.22947 24.00000
endloop
endfacet
facet normal 0 0.7933532634254974 0.6087615291820874
outer loop
vertex -8.00000 50.22947 24.00000
vertex -18.00000 50.22947 24.00000
vertex -8.00000 41.01219 36.01219
endloop
endfacet
facet normal 0 0.7933532634254973 0.6087615291820873
outer loop
vertex -18.00000 50.22947 24.00000
vertex -18.00000 41.01219 36.01219
vertex -8.00000 41.01219 36.01219
endloop
endfacet
facet normal 0 0.6087615291820873 0.7933532634254973
outer loop
vertex -8.00000 41.01219 36.01219
vertex -18.00000 41.01219 36.01219
vertex -8.00000 29.00000 45.22947
endloop
endfacet
facet normal 0 0.6087615291820874 0.7933532634254974
outer loop
vertex -18.00000 41.01219 36.01219
vertex -18.00000 29.00000 45.22947
vertex -8.00000 29.00000 45.22947
endloop
endfacet
facet normal 0 0.38268338144702013 0.9238795536022402
outer loop
vertex -8.00000 29.00000 45.22947
vertex -18.00000 29.00000 45.22947
vertex -8.00000 15.01150 51.02370
endloop
endfacet
facet normal 0 0.38268338144702013 0.9238795536022401
outer loop
vertex -18.00000 29.00000 45.22947
vertex -18.00000 15.01150 51.02370
vertex -8.00000 15.01150 51.02370
endloop
endfacet
facet normal 0 0.1305262625698032 0.9914448521120874
outer loop
vertex -8.00000 15.01150 51.02370
vertex -18.00000 15.01150 51.02370
vertex -8.00000 0.00000 53.00000
endloop
endfacet
facet normal 0 0.1305262625698032 0.9914448521120874
outer loop
vertex -18.00000 15.01150 51.02370
vertex -18.00000 0.00000 53.00000
vertex -8.00000 0.00000 53.00000
endloop
endfacet
facet normal 7.99242986829114e-18 -0.130526262569803 0.9914448521120874
outer loop
vertex -8.00000 0.00000 53.00000
vertex -18.00000 0.00000 53.00000
vertex -8.00000 -15.01150 51.02370
endloop
endfacet
facet normal 0 -0.130526262569803 0.9914448521120874
outer loop
vertex -18.00000 0.00000 53.00000
vertex -18.00000 -15.01150 51.02370
vertex -8.00000 -15.01150 51.02370
endloop
endfacet
facet normal 0 -0.38268338144702013 0.9238795536022402
outer loop
vertex -8.00000 -15.01150 51.02370
vertex -18.00000 -15.01150 51.02370
vertex -8.00000 -29.00000 45.22947
endloop
endfacet
facet normal 0 -0.38268338144702013 0.9238795536022402
outer loop
vertex -18.00000 -15.01150 51.02370
vertex -18.00000 -29.00000 45.22947
vertex -8.00000 -29.00000 45.22947
endloop
endfacet
facet normal 0 -0.6087615291820874 0.7933532634254974
outer loop
vertex -8.00000 -29.00000 45.22947
vertex -18.00000 -29.00000 45.22947
vertex -8.00000 -41.01219 36.01219
endloop
endfacet
facet normal 0 -0.6087615291820873 0.7933532634254973
outer loop
vertex -18.00000 -29.00000 45.22947
vertex -18.00000 -41.01219 36.01219
vertex -8.00000 -41.01219 36.01219
endloop
endfacet
facet normal 0 -0.7933532634254973 0.6087615291820873
outer loop
vertex -8.00000 -41.01219 36.01219
vertex -18.00000 -41.01219 36.01219
vertex -8.00000 -50.22947 24.00000
endloop
endfacet
facet normal 0 -0.7933532634254974 0.6087615291820874
outer loop
vertex -18.00000 -41.01219 36.01219
vertex -18.00000 -50.22947 24.00000
vertex -8.00000 -50.22947 24.00000
endloop
endfacet
facet normal 0 -0.92387955360224 0.38268338144702013
outer loop
vertex -8.00000 -50.22947 24.00000
vertex -18.00000 -50.22947 24.00000
vertex -8.00000 -56.02370 10.01150
endloop
endfacet
facet normal -1.8771307899320427e-16 -0.9238795536022402 0.38268338144702013
outer loop
vertex -18.00000 -50.22947 24.00000
vertex -18.00000 -56.02370 10.01150
vertex -8.00000 -56.02370 10.01150
endloop
endfacet
facet normal -4.637224384744457e-17 -0.9914448521120875 0.13052626256980324
outer loop
vertex -8.00000 -56.02370 10.01150
vertex -18.00000 -56.02370 10.01150
vertex -8.00000 -58.00000 -5.00000
endloop
endfacet
facet normal -4.692827110749971e-17 -0.9914448521120875 0.13052626256980324
outer loop
vertex -18.00000 -56.02370 10.01150
vertex -18.00000 -58.00000 -5.00000
vertex -8.00000 -58.00000 -5.00000
endloop
endfacet
facet normal 1 0 2.3666606875575467e-16
outer loop
vertex -8.00000 -58.00000 -5.00000
vertex -8.00000 -56.02370 -20.01150
vertex -8.00000 0.00000 -5.00000
endloop
endfacet
facet normal 0.9999999999999999 1.1139086881501504e-17 1.9509443009902876e-16
outer loop
vertex -8.00000 -56.02370 -20.01150
vertex -8.00000 -50.22947 -34.00000
vertex -8.00000 0.00000 -5.00000
endloop
endfacet
facet normal 1 -2.9732783175697534e-18 2.1953776349012848e-16
outer loop
vertex -8.00000 -50.22947 -34.00000
vertex -8.00000 -41.01219 -46.01219
vertex -8.00000 0.00000 -5.00000
endloop
endfacet
facet normal 1 -3.1484505860635924e-17 2.4804899103319464e-16
outer loop
vertex -8.00000 -41.01219 -46.01219
vertex -8.00000 -29.00000 -55.22947
vertex -8.00000 0.00000 -5.00000
endloop
endfacet
facet normal 0.9999999999999999 2.5600164005769368e-17 2.150911413187828e-16
outer loop
vertex -8.00000 -29.00000 -55.22947
vertex -8.00000 -15.01150 -61.02370
vertex -8.00000 0.00000 -5.00000
endloop
endfacet
facet normal 0.9999999999999999 2.8224717227572236e-17 2.1438789441037504e-16
outer loop
vertex -8.00000 -15.01150 -61.02370
vertex -8.00000 -0.00000 -63.00000
vertex -8.00000 0.00000 -5.00000
endloop
endfacet
facet normal 1 -2.8224717227572224e-17 2.1438789441037507e-16
outer loop
vertex -8.00000 -0.00000 -63.00000
vertex -8.00000 15.01150 -61.02370
vertex -8.00000 0.00000 -5.00000
endloop
endfacet
facet normal 0.9999999999999999 -2.5600164005769368e-17 2.150911413187828e-16
outer loop
vertex -8.00000 15.01150 -61.02370
vertex -8.00000 29.00000 -55.22947
vertex -8.00000 0.00000 -5.00000
endloop
endfacet
facet normal 1 3.1484505860635924e-17 2.4804899103319464e-16
outer loop
vertex -8.00000 29.00000 -55.22947
vertex -8.00000 41.01219 -46.01219
vertex -8.00000 0.00000 -5.00000
endloop
endfacet
facet normal 1 2.9732783175697534e-18 2.1953776349012848e-16
outer loop
vertex -8.00000 41.01219 -46.01219
vertex -8.00000 50.22947 -34.00000
vertex -8.00000 0.00000 -5.00000
endloop
endfacet
facet normal 0.9999999999999999 -1.1139086881501504e-17 1.9509443009902876e-16
outer loop
vertex -8.00000 50.22947 -34.00000
vertex -8.00000 56.02370 -20.01150
vertex -8.00000 0.00000 -5.00000
endloop
endfacet
facet normal 1 2.899333723367276e-32 2.366660687557548e-16
outer loop
vertex -8.00000 56.02370 -20.01150
vertex -8.00000 58.00000 -5.00000
vertex -8.00000 0.00000 -5.00000
endloop
endfacet
facet normal 1 2.8993337233672726e-32 2.3666606875575457e-16
outer loop
vertex -8.00000 58.00000 -5.00000
vertex -8.00000 56.02370 10.01150
vertex -8.00000 0.00000 -5.00000
endloop
endfacet
facet normal 1 -4.174333747500898e-18 2.522448945634489e-16
outer loop
vertex -8.00000 56.02370 10.01150
vertex -8.00000 50.22947 24.00000
vertex -8.00000 0.00000 -5.00000
endloop
endfacet
facet normal 1 3.8863766574224314e-17 1.7770071859833442e-16
outer loop
vertex -8.00000 50.22947 24.00000
vertex -8.00000 41.01219 36.01219
vertex -8.00000 0.00000 -5.00000
endloop
endfacet
facet normal 1 1.0352539031158146e-17 2.062119461414006e-16
outer loop
vertex -8.00000 41.01219 36.01219
vertex -8.00000 29.00000 45.22947
vertex -8.00000 0.00000 -5.00000
endloop
endfacet
facet normal 0.9999999999999999 -3.155030045865075e-17 2.304045619477852e-16
outer loop
vertex -8.00000 29.00000 45.22947
vertex -8.00000 15.01150 51.02370
vertex -8.00000 0.00000 -5.00000
endloop
endfacet
facet normal 0.9999999999999999 2.822471722757224e-17 2.1438789441037504e-16
outer loop
vertex -8.00000 15.01150 51.02370
vertex -8.00000 0.00000 53.00000
vertex -8.00000 0.00000 -5.00000
endloop
endfacet
facet normal 1 -2.822471722757221e-17 2.143878944103751e-16
outer loop
vertex -8.00000 0.00000 53.00000
vertex -8.00000 -15.01150 51.02370
vertex -8.00000 0.00000 -5.00000
endloop
endfacet
facet normal 0.9999999999999999 3.155030045865075e-17 2.304045619477852e-16
outer loop
vertex -8.00000 -15.01150 51.02370
vertex -8.00000 -29.00000 45.22947
vertex -8.00000 0.00000 -5.00000
endloop
endfacet
facet normal 1 -1.0352539031158146e-17 2.062119461414006e-16
outer loop
vertex -8.00000 -29.00000 45.22947
vertex -8.00000 -41.01219 36.01219
vertex -8.00000 0.00000 -5.00000
endloop
endfacet
facet normal 1 -3.8863766574224314e-17 1.7770071859833442e-16
outer loop
vertex -8.00000 -41.01219 36.01219
vertex -8.00000 -50.22947 24.00000
vertex -8.00000 0.00000 -5.00000
endloop
endfacet
facet normal 1 4.174333747500905e-18 2.522448945634489e-16
outer loop
vertex -8.00000 -50.22947 24.00000
vertex -8.00000 -56.02370 10.01150
vertex -8.00000 0.00000 -5.00000
endloop
endfacet
facet normal 1 5.798667446734554e-32 2.366660687557549e-16
outer loop
vertex -8.00000 -56.02370 10.01150
vertex -8.00000 -58.00000 -5.00000
vertex -8.00000 0.00000 -5.00000
endloop
endfacet
facet normal -1 0 -2.3666606875575467e-16
outer loop
vertex -18.00000 -56.02370 -20.01150
vertex -18.00000 -58.00000 -5.00000
vertex -18.00000 -0.00000 -5.00000
endloop
endfacet
facet normal -0.9999999999999999 4.1743337475008905e-18 -2.5224489456344885e-16
outer loop
vertex -18.00000 -50.22947 -34.00000
vertex -18.00000 -56.02370 -20.01150
vertex -18.00000 -0.00000 -5.00000
endloop
endfacet
facet normal -1 -9.803028508624996e-17 -7.522130305179703e-17
outer loop
vertex -18.00000 -41.01219 -46.01219
vertex -18.00000 -50.22947 -34.00000
vertex -18.00000 -0.00000 -5.00000
endloop
endfacet
facet normal -1 9.212687651537924e-17 -2.6537846465342625e-16
outer loop
vertex -18.00000 -29.00000 -55.22947
vertex -18.00000 -41.01219 -46.01219
vertex -18.00000 -0.00000 -5.00000
endloop
endfacet
facet normal -0.9999999999999999 1.3402971103460676e-16 -2.895710775900443e-16
outer loop
vertex -18.00000 -15.01150 -61.02370
vertex -18.00000 -29.00000 -55.22947
vertex -18.00000 -0.00000 -5.00000
endloop
endfacet
facet normal -0.9999999999999999 -3.2256819688653985e-17 -2.4501473646900006e-16
outer loop
vertex -18.00000 -0.00000 -63.00000
vertex -18.00000 -15.01150 -61.02370
vertex -18.00000 -0.00000 -5.00000
endloop
endfacet
facet normal -1 3.225681968865397e-17 -2.4501473646900006e-16
outer loop
vertex -18.00000 15.01150 -61.02370
vertex -18.00000 -0.00000 -63.00000
vertex -18.00000 -0.00000 -5.00000
endloop
endfacet
facet normal -0.9999999999999999 -1.3402971103460676e-16 -2.895710775900443e-16
outer loop
vertex -18.00000 29.00000 -55.22947
vertex -18.00000 15.01150 -61.02370
vertex -18.00000 -0.00000 -5.00000
endloop
endfacet
facet normal -1 -9.212687651537924e-17 -2.6537846465342625e-16
outer loop
vertex -18.00000 41.01219 -46.01219
vertex -18.00000 29.00000 -55.22947
vertex -18.00000 -0.00000 -5.00000
endloop
endfacet
facet normal -1 9.803028508624996e-17 -7.522130305179703e-17
outer loop
vertex -18.00000 50.22947 -34.00000
vertex -18.00000 41.01219 -46.01219
vertex -18.00000 -0.00000 -5.00000
endloop
endfacet
facet normal -0.9999999999999999 -4.1743337475008905e-18 -2.5224489456344885e-16
outer loop
vertex -18.00000 56.02370 -20.01150
vertex -18.00000 50.22947 -34.00000
vertex -18.00000 -0.00000 -5.00000
endloop
endfacet
facet normal -1 -2.899333723367276e-32 -2.366660687557548e-16
outer loop
vertex -18.00000 58.00000 -5.00000
vertex -18.00000 56.02370 -20.01150
vertex -18.00000 -0.00000 -5.00000
endloop
endfacet
facet normal -1 -2.8993337233672726e-32 -2.3666606875575457e-16
outer loop
vertex -18.00000 56.02370 10.01150
vertex -18.00000 58.00000 -5.00000
vertex -18.00000 -0.00000 -5.00000
endloop
endfacet
facet normal -1 4.174333747500876e-18 -2.5224489456344885e-16
outer loop
vertex -18.00000 50.22947 24.00000
vertex -18.00000 56.02370 10.01150
vertex -18.00000 -0.00000 -5.00000
endloop
endfacet
facet normal -1 -9.803028508624996e-17 -7.522130305179703e-17
outer loop
vertex -18.00000 41.01219 36.01219
vertex -18.00000 50.22947 24.00000
vertex -18.00000 -0.00000 -5.00000
endloop
endfacet
facet normal -1 9.212687651537924e-17 -2.6537846465342625e-16
outer loop
vertex -18.00000 29.00000 45.22947
vertex -18.00000 41.01219 36.01219
vertex -18.00000 -0.00000 -5.00000
endloop
endfacet
facet normal -0.9999999999999999 1.3402971103460676e-16 -2.895710775900443e-16
outer loop
vertex -18.00000 15.01150 51.02370
vertex -18.00000 29.00000 45.22947
vertex -18.00000 -0.00000 -5.00000
endloop
endfacet
facet normal -0.9999999999999999 -3.225681968865399e-17 -2.45014736469e-16
outer loop
vertex -18.00000 0.00000 53.00000
vertex -18.00000 15.01150 51.02370
vertex -18.00000 -0.00000 -5.00000
endloop
endfacet
facet normal -1 3.225681968865396e-17 -2.450147364690001e-16
outer loop
vertex -18.00000 -15.01150 51.02370
vertex -18.00000 0.00000 53.00000
vertex -18.00000 -0.00000 -5.00000
endloop
endfacet
facet normal -0.9999999999999999 -1.3402971103460676e-16 -2.895710775900443e-16
outer loop
vertex -18.00000 -29.00000 45.22947
vertex -18.00000 -15.01150 51.02370
vertex -18.00000 -0.00000 -5.00000
endloop
endfacet
facet normal -1 -9.212687651537924e-17 -2.6537846465342625e-16
outer loop
vertex -18.00000 -41.01219 36.01219
vertex -18.00000 -29.00000 45.22947
vertex -18.00000 -0.00000 -5.00000
endloop
endfacet
facet normal -1 9.803028508624996e-17 -7.522130305179703e-17
outer loop
vertex -18.00000 -50.22947 24.00000
vertex -18.00000 -41.01219 36.01219
vertex -18.00000 -0.00000 -5.00000
endloop
endfacet
facet normal -1 -4.174333747500883e-18 -2.5224489456344885e-16
outer loop
vertex -18.00000 -56.02370 10.01150
vertex -18.00000 -50.22947 24.00000
vertex -18.00000 -0.00000 -5.00000
endloop
endfacet
facet normal -1 -5.798667446734554e-32 -2.366660687557549e-16
outer loop
vertex -18.00000 -58.00000 -5.00000
vertex -18.00000 -56.02370 10.01150
vertex -18.00000 -0.00000 -5.00000
endloop
endfacet
facet normal 0 -0.9914448746827059 -0.1305260911289145
outer loop
vertex -3.50000 -45.00000 -5.00000
vertex -6.50000 -45.00000 -5.00000
vertex -3.50000 -43.46666 -16.64686
endloop
endfacet
facet normal 0 -0.9914448746827059 -0.1305260911289145
outer loop
vertex -6.50000 -45.00000 -5.00000
vertex -6.50000 -43.46666 -16.64686
vertex -3.50000 -43.46666 -16.64686
endloop
endfacet
facet normal 0 -0.9238794533932722 -0.38268362337281797
outer loop
vertex -3.50000 -43.46666 -16.64686
vertex -6.50000 -43.46666 -16.64686
vertex -3.50000 -38.97114 -27.50000
endloop
endfacet
facet normal 0 -0.9238794533932722 -0.38268362337281797
outer loop
vertex -6.50000 -43.46666 -16.64686
vertex -6.50000 -38.97114 -27.50000
vertex -3.50000 -38.97114 -27.50000
endloop
endfacet
facet normal 0 -0.7933533954125424 -0.6087613571732277
outer loop
vertex -3.50000 -38.97114 -27.50000
vertex -6.50000 -38.97114 -27.50000
vertex -3.50000 -31.81981 -36.81981
endloop
endfacet
facet normal 0 -0.7933533954125424 -0.6087613571732277
outer loop
vertex -6.50000 -38.97114 -27.50000
vertex -6.50000 -31.81981 -36.81981
vertex -3.50000 -31.81981 -36.81981
endloop
endfacet
facet normal 0 -0.6087613571732277 -0.7933533954125424
outer loop
vertex -3.50000 -31.81981 -36.81981
vertex -6.50000 -31.81981 -36.81981
vertex -3.50000 -22.50000 -43.97114
endloop
endfacet
facet normal 0 -0.6087613571732277 -0.7933533954125424
outer loop
vertex -6.50000 -31.81981 -36.81981
vertex -6.50000 -22.50000 -43.97114
vertex -3.50000 -22.50000 -43.97114
endloop
endfacet
facet normal 0 -0.38268362337281797 -0.9238794533932722
outer loop
vertex -3.50000 -22.50000 -43.97114
vertex -6.50000 -22.50000 -43.97114
vertex -3.50000 -11.64686 -48.46666
endloop
endfacet
facet normal 0 -0.38268362337281797 -0.9238794533932722
outer loop
vertex -6.50000 -22.50000 -43.97114
vertex -6.50000 -11.64686 -48.46666
vertex -3.50000 -11.64686 -48.46666
endloop
endfacet
facet normal 0 -0.13052609112891453 -0.9914448746827058
outer loop
vertex -3.50000 -11.64686 -48.46666
vertex -6.50000 -11.64686 -48.46666
vertex -3.50000 -0.00000 -50.00000
endloop
endfacet
facet normal 1.0080887598916568e-16 -0.13052609112891456 -0.9914448746827058
outer loop
vertex -6.50000 -11.64686 -48.46666
vertex -6.50000 -0.00000 -50.00000
vertex -3.50000 -0.00000 -50.00000
endloop
endfacet
facet normal -7.992411999902577e-18 0.13052609112891447 -0.9914448746827058
outer loop
vertex -3.50000 -0.00000 -50.00000
vertex -6.50000 -0.00000 -50.00000
vertex -3.50000 11.64686 -48.46666
endloop
endfacet
facet normal 0 0.13052609112891445 -0.9914448746827058
outer loop
vertex -6.50000 -0.00000 -50.00000
vertex -6.50000 11.64686 -48.46666
vertex -3.50000 11.64686 -48.46666
endloop
endfacet
facet normal 0 0.38268362337281797 -0.9238794533932722
outer loop
vertex -3.50000 11.64686 -48.46666
vertex -6.50000 11.64686 -48.46666
vertex -3.50000 22.50000 -43.97114
endloop
endfacet
facet normal 0 0.38268362337281797 -0.9238794533932722
outer loop
vertex -6.50000 11.64686 -48.46666
vertex -6.50000 22.50000 -43.97114
vertex -3.50000 22.50000 -43.97114
endloop
endfacet
facet normal 0 0.6087613571732277 -0.7933533954125424
outer loop
vertex -3.50000 22.50000 -43.97114
vertex -6.50000 22.50000 -43.97114
vertex -3.50000 31.81981 -36.81981
endloop
endfacet
facet normal 0 0.6087613571732277 -0.7933533954125424
outer loop
vertex -6.50000 22.50000 -43.97114
vertex -6.50000 31.81981 -36.81981
vertex -3.50000 31.81981 -36.81981
endloop
endfacet
facet normal 0 0.7933533954125424 -0.6087613571732277
outer loop
vertex -3.50000 31.81981 -36.81981
vertex -6.50000 31.81981 -36.81981
vertex -3.50000 38.97114 -27.50000
endloop
endfacet
facet normal 0 0.7933533954125424 -0.6087613571732278
outer loop
vertex -6.50000 31.81981 -36.81981
vertex -6.50000 38.97114 -27.50000
vertex -3.50000 38.97114 -27.50000
endloop
endfacet
facet normal 0 0.9238794533932722 -0.38268362337281797
outer loop
vertex -3.50000 38.97114 -27.50000
vertex -6.50000 38.97114 -27.50000
vertex -3.50000 43.46666 -16.64686
endloop
endfacet
facet normal 0 0.9238794533932722 -0.38268362337281797
outer loop
vertex -6.50000 38.97114 -27.50000
vertex -6.50000 43.46666 -16.64686
vertex -3.50000 43.46666 -16.64686
endloop
endfacet
facet normal 0 0.9914448746827058 -0.13052609112891456
outer loop
vertex -3.50000 43.46666 -16.64686
vertex -6.50000 43.46666 -16.64686
vertex -3.50000 45.00000 -5.00000
endloop
endfacet
facet normal 1.008088759891657e-16 0.9914448746827059 -0.13052609112891458
outer loop
vertex -6.50000 43.46666 -16.64686
vertex -6.50000 45.00000 -5.00000
vertex -3.50000 45.00000 -5.00000
endloop
endfacet
facet normal -3.864348578283792e-17 0.9914448746827058 0.13052609112891445
outer loop
vertex -3.50000 45.00000 -5.00000
vertex -6.50000 45.00000 -5.00000
vertex -3.50000 43.46666 6.64686
endloop
endfacet
facet normal 0 0.9914448746827059 0.13052609112891442
outer loop
vertex -6.50000 45.00000 -5.00000
vertex -6.50000 43.46666 6.64686
vertex -3.50000 43.46666 6.64686
endloop
endfacet
facet normal 0 0.9238794533932722 0.38268362337281797
outer loop
vertex -3.50000 43.46666 6.64686
vertex -6.50000 43.46666 6.64686
vertex -3.50000 38.97114 17.50000
endloop
endfacet
facet normal 0 0.923879453393272 0.3826836233728179
outer loop
vertex -6.50000 43.46666 6.64686
vertex -6.50000 38.97114 17.50000
vertex -3.50000 38.97114 17.50000
endloop
endfacet
facet normal 0 0.7933533954125422 0.6087613571732277
outer loop
vertex -3.50000 38.97114 17.50000
vertex -6.50000 38.97114 17.50000
vertex -3.50000 31.81981 26.81981
endloop
endfacet
facet normal 0 0.7933533954125424 0.6087613571732277
outer loop
vertex -6.50000 38.97114 17.50000
vertex -6.50000 31.81981 26.81981
vertex -3.50000 31.81981 26.81981
endloop
endfacet
facet normal 0 0.6087613571732277 0.7933533954125424
outer loop
vertex -3.50000 31.81981 26.81981
vertex -6.50000 31.81981 26.81981
vertex -3.50000 22.50000 33.97114
endloop
endfacet
facet normal 0 0.6087613571732277 0.7933533954125424
outer loop
vertex -6.50000 31.81981 26.81981
vertex -6.50000 22.50000 33.97114
vertex -3.50000 22.50000 33.97114
endloop
endfacet
facet normal 0 0.38268362337281797 0.9238794533932722
outer loop
vertex -3.50000 22.50000 33.97114
vertex -6.50000 22.50000 33.97114
vertex -3.50000 11.64686 38.46666
endloop
endfacet
facet normal 0 0.38268362337281797 0.9238794533932722
outer loop
vertex -6.50000 22.50000 33.97114
vertex -6.50000 11.64686 38.46666
vertex -3.50000 11.64686 38.46666
endloop
endfacet
facet normal 0 0.1305260911289146 0.9914448746827058
outer loop
vertex -3.50000 11.64686 38.46666
vertex -6.50000 11.64686 38.46666
vertex -3.50000 0.00000 40.00000
endloop
endfacet
facet normal 0 0.1305260911289146 0.9914448746827058
outer loop
vertex -6.50000 11.64686 38.46666
vertex -6.50000 0.00000 40.00000
vertex -3.50000 0.00000 40.00000
endloop
endfacet
facet normal 7.99244885320246e-18 -0.1305260911289144 0.9914448746827058
outer loop
vertex -3.50000 0.00000 40.00000
vertex -6.50000 0.00000 40.00000
vertex -3.50000 -11.64686 38.46666
endloop
endfacet
facet normal 0 -0.1305260911289144 0.9914448746827058
outer loop
vertex -6.50000 0.00000 40.00000
vertex -6.50000 -11.64686 38.46666
vertex -3.50000 -11.64686 38.46666
endloop
endfacet
facet normal 0 -0.38268362337281797 0.9238794533932722
outer loop
vertex -3.50000 -11.64686 38.46666
vertex -6.50000 -11.64686 38.46666
vertex -3.50000 -22.50000 33.97114
endloop
endfacet
facet normal 0 -0.38268362337281797 0.9238794533932722
outer loop
vertex -6.50000 -11.64686 38.46666
vertex -6.50000 -22.50000 33.97114
vertex -3.50000 -22.50000 33.97114
endloop
endfacet
facet normal 0 -0.6087613571732277 0.7933533954125424
outer loop
vertex -3.50000 -22.50000 33.97114
vertex -6.50000 -22.50000 33.97114
vertex -3.50000 -31.81981 26.81981
endloop
endfacet
facet normal 0 -0.6087613571732277 0.7933533954125424
outer loop
vertex -6.50000 -22.50000 33.97114
vertex -6.50000 -31.81981 26.81981
vertex -3.50000 -31.81981 26.81981
endloop
endfacet
facet normal 0 -0.7933533954125424 0.6087613571732277
outer loop
vertex -3.50000 -31.81981 26.81981
vertex -6.50000 -31.81981 26.81981
vertex -3.50000 -38.97114 17.50000
endloop
endfacet
facet normal 0 -0.7933533954125425 0.6087613571732277
outer loop
vertex -6.50000 -31.81981 26.81981
vertex -6.50000 -38.97114 17.50000
vertex -3.50000 -38.97114 17.50000
endloop
endfacet
facet normal 0 -0.923879453393272 0.3826836233728179
outer loop
vertex -3.50000 -38.97114 17.50000
vertex -6.50000 -38.97114 17.50000
vertex -3.50000 -43.46666 6.64686
endloop
endfacet
facet normal 0 -0.9238794533932722 0.38268362337281797
outer loop
vertex -6.50000 -38.97114 17.50000
vertex -6.50000 -43.46666 6.64686
vertex -3.50000 -43.46666 6.64686
endloop
endfacet
facet normal 0 -0.9914448746827058 0.1305260911289146
outer loop
vertex -3.50000 -43.46666 6.64686
vertex -6.50000 -43.46666 6.64686
vertex -3.50000 -45.00000 -5.00000
endloop
endfacet
facet normal 0 -0.9914448746827058 0.1305260911289146
outer loop
vertex -6.50000 -43.46666 6.64686
vertex -6.50000 -45.00000 -5.00000
vertex -3.50000 -45.00000 -5.00000
endloop
endfacet
facet normal 1 0 2.2877718849291783e-16
outer loop
vertex -3.50000 -45.00000 -5.00000
vertex -3.50000 -43.46666 -16.64686
vertex -3.50000 0.00000 -5.00000
endloop
endfacet
facet normal 1 5.833453807190721e-18 2.0700644234481445e-16
outer loop
vertex -3.50000 -43.46666 -16.64686
vertex -3.50000 -38.97114 -27.50000
vertex -3.50000 0.00000 -5.00000
endloop
endfacet
facet normal 1 -8.458099765300853e-18 2.317601383907207e-16
outer loop
vertex -3.50000 -38.97114 -27.50000
vertex -3.50000 -31.81981 -36.81981
vertex -3.50000 0.00000 -5.00000
endloop
endfacet
facet normal 1 -1.0894738453683399e-17 2.3419677707910324e-16
outer loop
vertex -3.50000 -31.81981 -36.81981
vertex -3.50000 -22.50000 -43.97114
vertex -3.50000 0.00000 -5.00000
endloop
endfacet
facet normal 1 1.0140885061533586e-17 2.2205185375771485e-16
outer loop
vertex -3.50000 -22.50000 -43.97114
vertex -3.50000 -11.64686 -48.46666
vertex -3.50000 0.00000 -5.00000
endloop
endfacet
facet normal 1 2.8583088141755805e-17 2.1711028037114167e-16
outer loop
vertex -3.50000 -11.64686 -48.46666
vertex -3.50000 -0.00000 -50.00000
vertex -3.50000 0.00000 -5.00000
endloop
endfacet
facet normal 1 -2.85830881417558e-17 2.1711028037114172e-16
outer loop
vertex -3.50000 -0.00000 -50.00000
vertex -3.50000 11.64686 -48.46666
vertex -3.50000 0.00000 -5.00000
endloop
endfacet
facet normal 1 -1.0140885061533586e-17 2.2205185375771485e-16
outer loop
vertex -3.50000 11.64686 -48.46666
vertex -3.50000 22.50000 -43.97114
vertex -3.50000 0.00000 -5.00000
endloop
endfacet
facet normal 1 1.0894738453683399e-17 2.3419677707910324e-16
outer loop
vertex -3.50000 22.50000 -43.97114
vertex -3.50000 31.81981 -36.81981
vertex -3.50000 0.00000 -5.00000
endloop
endfacet
facet normal 1 8.458099765300853e-18 2.317601383907207e-16
outer loop
vertex -3.50000 31.81981 -36.81981
vertex -3.50000 38.97114 -27.50000
vertex -3.50000 0.00000 -5.00000
endloop
endfacet
facet normal 1 -5.833453807190721e-18 2.0700644234481445e-16
outer loop
vertex -3.50000 38.97114 -27.50000
vertex -3.50000 43.46666 -16.64686
vertex -3.50000 0.00000 -5.00000
endloop
endfacet
facet normal 1 2.408236583574252e-32 2.2877718849291793e-16
outer loop
vertex -3.50000 43.46666 -16.64686
vertex -3.50000 45.00000 -5.00000
vertex -3.50000 0.00000 -5.00000
endloop
endfacet
facet normal 1 2.7092661565210313e-32 2.2877718849291773e-16
outer loop
vertex -3.50000 45.00000 -5.00000
vertex -3.50000 43.46666 6.64686
vertex -3.50000 0.00000 -5.00000
endloop
endfacet
facet normal 1 5.833453807190721e-18 2.0700644234481445e-16
outer loop
vertex -3.50000 43.46666 6.64686
vertex -3.50000 38.97114 17.50000
vertex -3.50000 0.00000 -5.00000
endloop
endfacet
facet normal 1 -8.458099765300853e-18 2.317601383907207e-16
outer loop
vertex -3.50000 38.97114 17.50000
vertex -3.50000 31.81981 26.81981
vertex -3.50000 0.00000 -5.00000
endloop
endfacet
facet normal 1 -1.0894738453683399e-17 2.3419677707910324e-16
outer loop
vertex -3.50000 31.81981 26.81981
vertex -3.50000 22.50000 33.97114
vertex -3.50000 0.00000 -5.00000
endloop
endfacet
facet normal 1 1.0140885061533586e-17 2.2205185375771485e-16
outer loop
vertex -3.50000 22.50000 33.97114
vertex -3.50000 11.64686 38.46666
vertex -3.50000 0.00000 -5.00000
endloop
endfacet
facet normal 1 2.858308814175583e-17 2.1711028037114177e-16
outer loop
vertex -3.50000 11.64686 38.46666
vertex -3.50000 0.00000 40.00000
vertex -3.50000 0.00000 -5.00000
endloop
endfacet
facet normal 1 -2.858308814175578e-17 2.1711028037114167e-16
outer loop
vertex -3.50000 0.00000 40.00000
vertex -3.50000 -11.64686 38.46666
vertex -3.50000 0.00000 -5.00000
endloop
endfacet
facet normal 1 -1.0140885061533586e-17 2.2205185375771485e-16
outer loop
vertex -3.50000 -11.64686 38.46666
vertex -3.50000 -22.50000 33.97114
vertex -3.50000 0.00000 -5.00000
endloop
endfacet
facet normal 1 1.0894738453683399e-17 2.3419677707910324e-16
outer loop
vertex -3.50000 -22.50000 33.97114
vertex -3.50000 -31.81981 26.81981
vertex -3.50000 0.00000 -5.00000
endloop
endfacet
facet normal 1 8.458099765300853e-18 2.317601383907207e-16
outer loop
vertex -3.50000 -31.81981 26.81981
vertex -3.50000 -38.97114 17.50000
vertex -3.50000 0.00000 -5.00000
endloop
endfacet
facet normal 1 -5.833453807190721e-18 2.0700644234481445e-16
outer loop
vertex -3.50000 -38.97114 17.50000
vertex -3.50000 -43.46666 6.64686
vertex -3.50000 0.00000 -5.00000
endloop
endfacet
facet normal 1 4.8164731671485063e-32 2.2877718849291803e-16
outer loop
vertex -3.50000 -43.46666 6.64686
vertex -3.50000 -45.00000 -5.00000
vertex -3.50000 0.00000 -5.00000
endloop
endfacet
facet normal -1 0 -2.2877718849291783e-16
outer loop
vertex -6.50000 -43.46666 -16.64686
vertex -6.50000 -45.00000 -5.00000
vertex -6.50000 -0.00000 -5.00000
endloop
endfacet
facet normal -1 4.035194871400206e-18 -2.438367408793777e-16
outer loop
vertex -6.50000 -38.97114 -27.50000
vertex -6.50000 -43.46666 -16.64686
vertex -6.50000 -0.00000 -5.00000
endloop
endfacet
facet normal -1 -1.8503553217410716e-17 -2.0479848540800914e-16
outer loop
vertex -6.50000 -31.81981 -36.81981
vertex -6.50000 -38.97114 -27.50000
vertex -6.50000 -0.00000 -5.00000
endloop
endfacet
facet normal -1 1.0894738453683399e-17 -2.3419677707910324e-16
outer loop
vertex -6.50000 -22.50000 -43.97114
vertex -6.50000 -31.81981 -36.81981
vertex -6.50000 -0.00000 -5.00000
endloop
endfacet
facet normal -1 -1.0140885061533586e-17 -2.2205185375771485e-16
outer loop
vertex -6.50000 -11.64686 -48.46666
vertex -6.50000 -22.50000 -43.97114
vertex -6.50000 -0.00000 -5.00000
endloop
endfacet
facet normal -1 -2.858308814175581e-17 -2.1711028037114172e-16
outer loop
vertex -6.50000 -0.00000 -50.00000
vertex -6.50000 -11.64686 -48.46666
vertex -6.50000 -0.00000 -5.00000
endloop
endfacet
facet normal -1 2.858308814175579e-17 -2.1711028037114167e-16
outer loop
vertex -6.50000 11.64686 -48.46666
vertex -6.50000 -0.00000 -50.00000
vertex -6.50000 -0.00000 -5.00000
endloop
endfacet
facet normal -1 1.0140885061533586e-17 -2.2205185375771485e-16
outer loop
vertex -6.50000 22.50000 -43.97114
vertex -6.50000 11.64686 -48.46666
vertex -6.50000 -0.00000 -5.00000
endloop
endfacet
facet normal -1 -1.0894738453683399e-17 -2.3419677707910324e-16
outer loop
vertex -6.50000 31.81981 -36.81981
vertex -6.50000 22.50000 -43.97114
vertex -6.50000 -0.00000 -5.00000
endloop
endfacet
facet normal -1 1.8503553217410716e-17 -2.0479848540800914e-16
outer loop
vertex -6.50000 38.97114 -27.50000
vertex -6.50000 31.81981 -36.81981
vertex -6.50000 -0.00000 -5.00000
endloop
endfacet
facet normal -1 -4.035194871400206e-18 -2.438367408793777e-16
outer loop
vertex -6.50000 43.46666 -16.64686
vertex -6.50000 38.97114 -27.50000
vertex -6.50000 -0.00000 -5.00000
endloop
endfacet
facet normal -1 -3.1608105159412067e-32 -2.28777188492918e-16
outer loop
vertex -6.50000 45.00000 -5.00000
vertex -6.50000 43.46666 -16.64686
vertex -6.50000 -0.00000 -5.00000
endloop
endfacet
facet normal -1 -3.612354875361375e-32 -2.2877718849291773e-16
outer loop
vertex -6.50000 43.46666 6.64686
vertex -6.50000 45.00000 -5.00000
vertex -6.50000 -0.00000 -5.00000
endloop
endfacet
facet normal -1 4.035194871400206e-18 -2.438367408793777e-16
outer loop
vertex -6.50000 38.97114 17.50000
vertex -6.50000 43.46666 6.64686
vertex -6.50000 -0.00000 -5.00000
endloop
endfacet
facet normal -1 -1.8503553217410716e-17 -2.0479848540800914e-16
outer loop
vertex -6.50000 31.81981 26.81981
vertex -6.50000 38.97114 17.50000
vertex -6.50000 -0.00000 -5.00000
endloop
endfacet
facet normal -1 1.0894738453683399e-17 -2.3419677707910324e-16
outer loop
vertex -6.50000 22.50000 33.97114
vertex -6.50000 31.81981 26.81981
vertex -6.50000 -0.00000 -5.00000
endloop
endfacet
facet normal -1 -1.0140885061533586e-17 -2.2205185375771485e-16
outer loop
vertex -6.50000 11.64686 38.46666
vertex -6.50000 22.50000 33.97114
vertex -6.50000 -0.00000 -5.00000
endloop
endfacet
facet normal -1 -2.858308814175583e-17 -2.1711028037114177e-16
outer loop
vertex -6.50000 0.00000 40.00000
vertex -6.50000 11.64686 38.46666
vertex -6.50000 -0.00000 -5.00000
endloop
endfacet
facet normal -1 2.858308814175578e-17 -2.1711028037114167e-16
outer loop
vertex -6.50000 -11.64686 38.46666
vertex -6.50000 0.00000 40.00000
vertex -6.50000 -0.00000 -5.00000
endloop
endfacet
facet normal -1 1.0140885061533586e-17 -2.2205185375771485e-16
outer loop
vertex -6.50000 -22.50000 33.97114
vertex -6.50000 -11.64686 38.46666
vertex -6.50000 -0.00000 -5.00000
endloop
endfacet
facet normal -1 -1.0894738453683399e-17 -2.3419677707910324e-16
outer loop
vertex -6.50000 -31.81981 26.81981
vertex -6.50000 -22.50000 33.97114
vertex -6.50000 -0.00000 -5.00000
endloop
endfacet
facet normal -1 1.8503553217410716e-17 -2.0479848540800914e-16
outer loop
vertex -6.50000 -38.97114 17.50000
vertex -6.50000 -31.81981 26.81981
vertex -6.50000 -0.00000 -5.00000
endloop
endfacet
facet normal -1 -4.035194871400206e-18 -2.438367408793777e-16
outer loop
vertex -6.50000 -43.46666 6.64686
vertex -6.50000 -38.97114 17.50000
vertex -6.50000 -0.00000 -5.00000
endloop
endfacet
facet normal -1 -5.418532313042069e-32 -2.2877718849291803e-16
outer loop
vertex -6.50000 -45.00000 -5.00000
vertex -6.50000 -43.46666 6.64686
vertex -6.50000 -0.00000 -5.00000
endloop
endfacet
facet normal 2.3186141774035322e-17 -0.9914448374002582 -0.1305263743171312
outer loop
vertex 17.00000 -17.00000 -5.00000
vertex -3.00000 -17.00000 -5.00000
vertex 17.00000 -16.42074 -9.39992
endloop
endfacet
facet normal 2.5016907923990436e-17 -0.9914448374002582 -0.1305263743171312
outer loop
vertex -3.00000 -17.00000 -5.00000
vertex -3.00000 -16.42074 -9.39992
vertex 17.00000 -16.42074 -9.39992
endloop
endfacet
facet normal 6.79781961873024e-17 -0.9238796189129039 -0.38268322377306696
outer loop
vertex 17.00000 -16.42074 -9.39992
vertex -3.00000 -16.42074 -9.39992
vertex 17.00000 -14.72243 -13.50000
endloop
endfacet
facet normal 7.004735157637841e-17 -0.9238796189129039 -0.38268322377306696
outer loop
vertex -3.00000 -16.42074 -9.39992
vertex -3.00000 -14.72243 -13.50000
vertex 17.00000 -14.72243 -13.50000
endloop
endfacet
facet normal 1.081377767776233e-16 -0.7933532367084023 -0.6087615640004728
outer loop
vertex 17.00000 -14.72243 -13.50000
vertex -3.00000 -14.72243 -13.50000
vertex 17.00000 -12.02081 -17.02081
endloop
endfacet
facet normal 0 -0.7933532367084022 -0.608761564000473
outer loop
vertex -3.00000 -14.72243 -13.50000
vertex -3.00000 -12.02081 -17.02081
vertex 17.00000 -12.02081 -17.02081
endloop
endfacet
facet normal 0 -0.6087615640004729 -0.7933532367084022
outer loop
vertex 17.00000 -12.02081 -17.02081
vertex -3.00000 -12.02081 -17.02081
vertex 17.00000 -8.50000 -19.72243
endloop
endfacet
facet normal 0 -0.6087615640004729 -0.7933532367084022
outer loop
vertex -3.00000 -12.02081 -17.02081
vertex -3.00000 -8.50000 -19.72243
vertex 17.00000 -8.50000 -19.72243
endloop
endfacet
facet normal 0 -0.38268322377306624 -0.9238796189129042
outer loop
vertex 17.00000 -8.50000 -19.72243
vertex -3.00000 -8.50000 -19.72243
vertex 17.00000 -4.39992 -21.42074
endloop
endfacet
facet normal 3.202164643491584e-16 -0.3826832237730677 -0.9238796189129037
outer loop
vertex -3.00000 -8.50000 -19.72243
vertex -3.00000 -4.39992 -21.42074
vertex 17.00000 -4.39992 -21.42074
endloop
endfacet
facet normal 3.522319635608036e-16 -0.1305263743171312 -0.9914448374002582
outer loop
vertex 17.00000 -4.39992 -21.42074
vertex -3.00000 -4.39992 -21.42074
vertex 17.00000 -0.00000 -22.00000
endloop
endfacet
facet normal 3.652468556902604e-16 -0.13052637431713124 -0.991444837400258
outer loop
vertex -3.00000 -4.39992 -21.42074
vertex -3.00000 -0.00000 -22.00000
vertex 17.00000 -0.00000 -22.00000
endloop
endfacet
facet normal 3.442395282319626e-16 0.1305263743171312 -0.9914448374002582
outer loop
vertex 17.00000 -0.00000 -22.00000
vertex -3.00000 -0.00000 -22.00000
vertex 17.00000 4.39992 -21.42074
endloop
endfacet
facet normal 3.55240092520664e-16 0.13052637431713116 -0.9914448374002581
outer loop
vertex -3.00000 -0.00000 -22.00000
vertex -3.00000 4.39992 -21.42074
vertex 17.00000 4.39992 -21.42074
endloop
endfacet
facet normal 3.282279759676869e-16 0.38268322377306624 -0.9238796189129042
outer loop
vertex 17.00000 4.39992 -21.42074
vertex -3.00000 4.39992 -21.42074
vertex 17.00000 8.50000 -19.72243
endloop
endfacet
facet normal 0 0.3826832237730677 -0.9238796189129037
outer loop
vertex -3.00000 4.39992 -21.42074
vertex -3.00000 8.50000 -19.72243
vertex 17.00000 8.50000 -19.72243
endloop
endfacet
facet normal 0 0.6087615640004729 -0.7933532367084022
outer loop
vertex 17.00000 8.50000 -19.72243
vertex -3.00000 8.50000 -19.72243
vertex 17.00000 12.02081 -17.02081
endloop
endfacet
facet normal 0 0.6087615640004729 -0.7933532367084022
outer loop
vertex -3.00000 8.50000 -19.72243
vertex -3.00000 12.02081 -17.02081
vertex 17.00000 12.02081 -17.02081
endloop
endfacet
facet normal 0 0.7933532367084023 -0.6087615640004728
outer loop
vertex 17.00000 12.02081 -17.02081
vertex -3.00000 12.02081 -17.02081
vertex 17.00000 14.72243 -13.50000
endloop
endfacet
facet normal 1.200811593222233e-16 0.793353236708402 -0.6087615640004731
outer loop
vertex -3.00000 12.02081 -17.02081
vertex -3.00000 14.72243 -13.50000
vertex 17.00000 14.72243 -13.50000
endloop
endfacet
facet normal 6.79781961873024e-17 0.9238796189129039 -0.38268322377306696
outer loop
vertex 17.00000 14.72243 -13.50000
vertex -3.00000 14.72243 -13.50000
vertex 17.00000 16.42074 -9.39992
endloop
endfacet
facet normal 7.004735157637841e-17 0.9238796189129039 -0.38268322377306696
outer loop
vertex -3.00000 14.72243 -13.50000
vertex -3.00000 16.42074 -9.39992
vertex 17.00000 16.42074 -9.39992
endloop
endfacet
facet normal 2.3186141774035325e-17 0.991444837400258 -0.13052637431713124
outer loop
vertex 17.00000 16.42074 -9.39992
vertex -3.00000 16.42074 -9.39992
vertex 17.00000 17.00000 -5.00000
endloop
endfacet
facet normal 2.501690792399044e-17 0.991444837400258 -0.13052637431713127
outer loop
vertex -3.00000 16.42074 -9.39992
vertex -3.00000 17.00000 -5.00000
vertex 17.00000 17.00000 -5.00000
endloop
endfacet
facet normal -2.898267721754414e-17 0.9914448374002581 0.13052637431713116
outer loop
vertex 17.00000 17.00000 -5.00000
vertex -3.00000 17.00000 -5.00000
vertex 17.00000 16.42074 -0.60008
endloop
endfacet
facet normal -2.5016907923990405e-17 0.9914448374002579 0.1305263743171311
outer loop
vertex -3.00000 17.00000 -5.00000
vertex -3.00000 16.42074 -0.60008
vertex 17.00000 16.42074 -0.60008
endloop
endfacet
facet normal -6.79781961873024e-17 0.9238796189129039 0.38268322377306696
outer loop
vertex 17.00000 16.42074 -0.60008
vertex -3.00000 16.42074 -0.60008
vertex 17.00000 14.72243 3.50000
endloop
endfacet
facet normal -7.004735157637841e-17 0.9238796189129039 0.38268322377306696
outer loop
vertex -3.00000 16.42074 -0.60008
vertex -3.00000 14.72243 3.50000
vertex 17.00000 14.72243 3.50000
endloop
endfacet
facet normal -1.0813777677762334e-16 0.7933532367084022 0.6087615640004729
outer loop
vertex 17.00000 14.72243 3.50000
vertex -3.00000 14.72243 3.50000
vertex 17.00000 12.02081 7.02081
endloop
endfacet
facet normal -1.0006763276851938e-16 0.7933532367084021 0.6087615640004729
outer loop
vertex -3.00000 14.72243 3.50000
vertex -3.00000 12.02081 7.02081
vertex 17.00000 12.02081 7.02081
endloop
endfacet
facet normal -1.409278448087296e-16 0.6087615640004729 0.7933532367084022
outer loop
vertex 17.00000 12.02081 7.02081
vertex -3.00000 12.02081 7.02081
vertex 17.00000 8.50000 9.72243
endloop
endfacet
facet normal -1.4009468587592716e-16 0.6087615640004729 0.7933532367084022
outer loop
vertex -3.00000 12.02081 7.02081
vertex -3.00000 8.50000 9.72243
vertex 17.00000 8.50000 9.72243
endloop
endfacet
facet normal -1.6411398798384336e-16 0.3826832237730673 0.9238796189129037
outer loop
vertex 17.00000 8.50000 9.72243
vertex -3.00000 8.50000 9.72243
vertex 17.00000 4.39992 11.42074
endloop
endfacet
facet normal -3.302232288600697e-16 0.3826832237730666 0.923879618912904
outer loop
vertex -3.00000 8.50000 9.72243
vertex -3.00000 4.39992 11.42074
vertex 17.00000 4.39992 11.42074
endloop
endfacet
facet normal -3.522319635608036e-16 0.13052637431713132 0.9914448374002581
outer loop
vertex 17.00000 4.39992 11.42074
vertex -3.00000 4.39992 11.42074
vertex 17.00000 0.00000 12.00000
endloop
endfacet
facet normal -3.602434741054625e-16 0.1305263743171313 0.9914448374002581
outer loop
vertex -3.00000 4.39992 11.42074
vertex -3.00000 0.00000 12.00000
vertex 17.00000 0.00000 12.00000
endloop
endfacet
facet normal -3.4423952961396424e-16 -0.13052637431713107 0.9914448374002579
outer loop
vertex 17.00000 0.00000 12.00000
vertex -3.00000 0.00000 12.00000
vertex 17.00000 -4.39992 11.42074
endloop
endfacet
facet normal -3.5023671093586577e-16 -0.1305263743171311 0.9914448374002581
outer loop
vertex -3.00000 0.00000 12.00000
vertex -3.00000 -4.39992 11.42074
vertex 17.00000 -4.39992 11.42074
endloop
endfacet
facet normal -3.2822797596768673e-16 -0.3826832237730673 0.9238796189129037
outer loop
vertex 17.00000 -4.39992 11.42074
vertex -3.00000 -4.39992 11.42074
vertex 17.00000 -8.50000 9.72243
endloop
endfacet
facet normal -1.7011499668549045e-16 -0.3826832237730666 0.923879618912904
outer loop
vertex -3.00000 -4.39992 11.42074
vertex -3.00000 -8.50000 9.72243
vertex 17.00000 -8.50000 9.72243
endloop
endfacet
facet normal -1.409278448087296e-16 -0.6087615640004729 0.7933532367084022
outer loop
vertex 17.00000 -8.50000 9.72243
vertex -3.00000 -8.50000 9.72243
vertex 17.00000 -12.02081 7.02081
endloop
endfacet
facet normal -1.4009468587592716e-16 -0.6087615640004729 0.7933532367084022
outer loop
vertex -3.00000 -8.50000 9.72243
vertex -3.00000 -12.02081 7.02081
vertex 17.00000 -12.02081 7.02081
endloop
endfacet
facet normal -1.0813777677762334e-16 -0.7933532367084022 0.6087615640004729
outer loop
vertex 17.00000 -12.02081 7.02081
vertex -3.00000 -12.02081 7.02081
vertex 17.00000 -14.72243 3.50000
endloop
endfacet
facet normal -1.0006763276851938e-16 -0.7933532367084023 0.6087615640004729
outer loop
vertex -3.00000 -12.02081 7.02081
vertex -3.00000 -14.72243 3.50000
vertex 17.00000 -14.72243 3.50000
endloop
endfacet
facet normal -6.79781961873024e-17 -0.9238796189129039 0.38268322377306696
outer loop
vertex 17.00000 -14.72243 3.50000
vertex -3.00000 -14.72243 3.50000
vertex 17.00000 -16.42074 -0.60008
endloop
endfacet
facet normal -7.004735157637841e-17 -0.9238796189129039 0.38268322377306696
outer loop
vertex -3.00000 -14.72243 3.50000
vertex -3.00000 -16.42074 -0.60008
vertex 17.00000 -16.42074 -0.60008
endloop
endfacet
facet normal -2.318614177403534e-17 -0.991444837400258 0.13052637431713132
outer loop
vertex 17.00000 -16.42074 -0.60008
vertex -3.00000 -16.42074 -0.60008
vertex 17.00000 -17.00000 -5.00000
endloop
endfacet
facet normal -2.501690792399045e-17 -0.991444837400258 0.1305263743171313
outer loop
vertex -3.00000 -16.42074 -0.60008
vertex -3.00000 -17.00000 -5.00000
vertex 17.00000 -17.00000 -5.00000
endloop
endfacet
facet normal 1 0 0
outer loop
vertex 17.00000 -17.00000 -5.00000
vertex 17.00000 -16.42074 -9.39992
vertex 17.00000 0.00000 -5.00000
endloop
endfacet
facet normal 1 0 0
outer loop
vertex 17.00000 -16.42074 -9.39992
vertex 17.00000 -14.72243 -13.50000
vertex 17.00000 0.00000 -5.00000
endloop
endfacet
facet normal 1 -4.037244535792347e-16 6.9927127878590795e-16
outer loop
vertex 17.00000 -14.72243 -13.50000
vertex 17.00000 -12.02081 -17.02081
vertex 17.00000 0.00000 -5.00000
endloop
endfacet
facet normal 1 1.2831869933704925e-16 1.6722812586962414e-16
outer loop
vertex 17.00000 -12.02081 -17.02081
vertex 17.00000 -8.50000 -19.72243
vertex 17.00000 0.00000 -5.00000
endloop
endfacet
facet normal 1 8.066444515003004e-17 1.947413218438444e-16
outer loop
vertex 17.00000 -8.50000 -19.72243
vertex 17.00000 -4.39992 -21.42074
vertex 17.00000 0.00000 -5.00000
endloop
endfacet
facet normal 1 2.7513193697526794e-17 2.0898315757650005e-16
outer loop
vertex 17.00000 -4.39992 -21.42074
vertex 17.00000 -0.00000 -22.00000
vertex 17.00000 0.00000 -5.00000
endloop
endfacet
facet normal 1 -2.7513193697526794e-17 2.0898315757650005e-16
outer loop
vertex 17.00000 -0.00000 -22.00000
vertex 17.00000 4.39992 -21.42074
vertex 17.00000 0.00000 -5.00000
endloop
endfacet
facet normal 1 -8.066444515003003e-17 1.9474132184384435e-16
outer loop
vertex 17.00000 4.39992 -21.42074
vertex 17.00000 8.50000 -19.72243
vertex 17.00000 0.00000 -5.00000
endloop
endfacet
facet normal 1 -1.2831869933704925e-16 1.6722812586962414e-16
outer loop
vertex 17.00000 8.50000 -19.72243
vertex 17.00000 12.02081 -17.02081
vertex 17.00000 0.00000 -5.00000
endloop
endfacet
facet normal 1 4.037244535792347e-16 6.9927127878590795e-16
outer loop
vertex 17.00000 12.02081 -17.02081
vertex 17.00000 14.72243 -13.50000
vertex 17.00000 0.00000 -5.00000
endloop
endfacet
facet normal 1 0 0
outer loop
vertex 17.00000 14.72243 -13.50000
vertex 17.00000 16.42074 -9.39992
vertex 17.00000 0.00000 -5.00000
endloop
endfacet
facet normal 1 0 0
outer loop
vertex 17.00000 16.42074 -9.39992
vertex 17.00000 17.00000 -5.00000
vertex 17.00000 0.00000 -5.00000
endloop
endfacet
facet normal 1 0 0
outer loop
vertex 17.00000 17.00000 -5.00000
vertex 17.00000 16.42074 -0.60008
vertex 17.00000 0.00000 -5.00000
endloop
endfacet
facet normal 1 0 0
outer loop
vertex 17.00000 16.42074 -0.60008
vertex 17.00000 14.72243 3.50000
vertex 17.00000 0.00000 -5.00000
endloop
endfacet
facet normal 1 -4.0372445357923485e-16 6.992712787859082e-16
outer loop
vertex 17.00000 14.72243 3.50000
vertex 17.00000 12.02081 7.02081
vertex 17.00000 0.00000 -5.00000
endloop
endfacet
facet normal 1 1.2831869933704925e-16 1.6722812586962414e-16
outer loop
vertex 17.00000 12.02081 7.02081
vertex 17.00000 8.50000 9.72243
vertex 17.00000 0.00000 -5.00000
endloop
endfacet
facet normal 1 8.066444515003025e-17 1.9474132184384428e-16
outer loop
vertex 17.00000 8.50000 9.72243
vertex 17.00000 4.39992 11.42074
vertex 17.00000 0.00000 -5.00000
endloop
endfacet
facet normal 1 2.7513193697526816e-17 2.0898315757650005e-16
outer loop
vertex 17.00000 4.39992 11.42074
vertex 17.00000 0.00000 12.00000
vertex 17.00000 0.00000 -5.00000
endloop
endfacet
facet normal 1 -2.7513193697526773e-17 2.0898315757650008e-16
outer loop
vertex 17.00000 0.00000 12.00000
vertex 17.00000 -4.39992 11.42074
vertex 17.00000 0.00000 -5.00000
endloop
endfacet
facet normal 1 -8.066444515003025e-17 1.9474132184384428e-16
outer loop
vertex 17.00000 -4.39992 11.42074
vertex 17.00000 -8.50000 9.72243
vertex 17.00000 0.00000 -5.00000
endloop
endfacet
facet normal 1 -1.2831869933704925e-16 1.6722812586962414e-16
outer loop
vertex 17.00000 -8.50000 9.72243
vertex 17.00000 -12.02081 7.02081
vertex 17.00000 0.00000 -5.00000
endloop
endfacet
facet normal 1 4.0372445357923485e-16 6.992712787859082e-16
outer loop
vertex 17.00000 -12.02081 7.02081
vertex 17.00000 -14.72243 3.50000
vertex 17.00000 0.00000 -5.00000
endloop
endfacet
facet normal 1 0 0
outer loop
vertex 17.00000 -14.72243 3.50000
vertex 17.00000 -16.42074 -0.60008
vertex 17.00000 0.00000 -5.00000
endloop
endfacet
facet normal 1 0 0
outer loop
vertex 17.00000 -16.42074 -0.60008
vertex 17.00000 -17.00000 -5.00000
vertex 17.00000 0.00000 -5.00000
endloop
endfacet
facet normal -1 0 -4.037244551430882e-16
outer loop
vertex -3.00000 -16.42074 -9.39992
vertex -3.00000 -17.00000 -5.00000
vertex -3.00000 -0.00000 -5.00000
endloop
endfacet
facet normal -1 -9.737066092192216e-17 -4.0332222575015095e-17
outer loop
vertex -3.00000 -14.72243 -13.50000
vertex -3.00000 -16.42074 -9.39992
vertex -3.00000 -0.00000 -5.00000
endloop
endfacet
facet normal -1 1.1824816385480543e-16 -4.137949890614789e-16
outer loop
vertex -3.00000 -12.02081 -17.02081
vertex -3.00000 -14.72243 -13.50000
vertex -3.00000 -0.00000 -5.00000
endloop
endfacet
facet normal -1 -1.2831869933704925e-16 -1.6722812586962414e-16
outer loop
vertex -3.00000 -8.50000 -19.72243
vertex -3.00000 -12.02081 -17.02081
vertex -3.00000 -0.00000 -5.00000
endloop
endfacet
facet normal -1 -8.066444515003034e-17 -1.9474132184384428e-16
outer loop
vertex -3.00000 -4.39992 -21.42074
vertex -3.00000 -8.50000 -19.72243
vertex -3.00000 -0.00000 -5.00000
endloop
endfacet
facet normal -1 -2.7513193697526807e-17 -2.0898315757650005e-16
outer loop
vertex -3.00000 -0.00000 -22.00000
vertex -3.00000 -4.39992 -21.42074
vertex -3.00000 -0.00000 -5.00000
endloop
endfacet
facet normal -1 2.7513193697526785e-17 -2.0898315757650008e-16
outer loop
vertex -3.00000 4.39992 -21.42074
vertex -3.00000 -0.00000 -22.00000
vertex -3.00000 -0.00000 -5.00000
endloop
endfacet
facet normal -1 8.066444515003033e-17 -1.9474132184384425e-16
outer loop
vertex -3.00000 8.50000 -19.72243
vertex -3.00000 4.39992 -21.42074
vertex -3.00000 -0.00000 -5.00000
endloop
endfacet
facet normal -1 1.2831869933704925e-16 -1.6722812586962414e-16
outer loop
vertex -3.00000 12.02081 -17.02081
vertex -3.00000 8.50000 -19.72243
vertex -3.00000 -0.00000 -5.00000
endloop
endfacet
facet normal -1 -1.1824816385480543e-16 -4.137949890614789e-16
outer loop
vertex -3.00000 14.72243 -13.50000
vertex -3.00000 12.02081 -17.02081
vertex -3.00000 -0.00000 -5.00000
endloop
endfacet
facet normal -1 9.737066092192216e-17 -4.0332222575015095e-17
outer loop
vertex -3.00000 16.42074 -9.39992
vertex -3.00000 14.72243 -13.50000
vertex -3.00000 -0.00000 -5.00000
endloop
endfacet
facet normal -1 -6.327870856999101e-32 -4.0372445514308844e-16
outer loop
vertex -3.00000 17.00000 -5.00000
vertex -3.00000 16.42074 -9.39992
vertex -3.00000 -0.00000 -5.00000
endloop
endfacet
facet normal -1 -6.327870856999093e-32 -4.0372445514308795e-16
outer loop
vertex -3.00000 16.42074 -0.60008
vertex -3.00000 17.00000 -5.00000
vertex -3.00000 -0.00000 -5.00000
endloop
endfacet
facet normal -1 -9.737066092192216e-17 -4.0332222575015095e-17
outer loop
vertex -3.00000 14.72243 3.50000
vertex -3.00000 16.42074 -0.60008
vertex -3.00000 -0.00000 -5.00000
endloop
endfacet
facet normal -1 1.1824816385480536e-16 -4.1379498906147877e-16
outer loop
vertex -3.00000 12.02081 7.02081
vertex -3.00000 14.72243 3.50000
vertex -3.00000 -0.00000 -5.00000
endloop
endfacet
facet normal -1 -1.2831869933704925e-16 -1.6722812586962414e-16
outer loop
vertex -3.00000 8.50000 9.72243
vertex -3.00000 12.02081 7.02081
vertex -3.00000 -0.00000 -5.00000
endloop
endfacet
facet normal -1 -8.06644451500301e-17 -1.9474132184384433e-16
outer loop
vertex -3.00000 4.39992 11.42074
vertex -3.00000 8.50000 9.72243
vertex -3.00000 -0.00000 -5.00000
endloop
endfacet
facet normal -1 -2.751319369752681e-17 -2.0898315757650005e-16
outer loop
vertex -3.00000 0.00000 12.00000
vertex -3.00000 4.39992 11.42074
vertex -3.00000 -0.00000 -5.00000
endloop
endfacet
facet normal -1 2.751319369752678e-17 -2.0898315757650005e-16
outer loop
vertex -3.00000 -4.39992 11.42074
vertex -3.00000 0.00000 12.00000
vertex -3.00000 -0.00000 -5.00000
endloop
endfacet
facet normal -1 8.066444515003012e-17 -1.9474132184384435e-16
outer loop
vertex -3.00000 -8.50000 9.72243
vertex -3.00000 -4.39992 11.42074
vertex -3.00000 -0.00000 -5.00000
endloop
endfacet
facet normal -1 1.2831869933704925e-16 -1.6722812586962414e-16
outer loop
vertex -3.00000 -12.02081 7.02081
vertex -3.00000 -8.50000 9.72243
vertex -3.00000 -0.00000 -5.00000
endloop
endfacet
facet normal -1 -1.1824816385480536e-16 -4.1379498906147877e-16
outer loop
vertex -3.00000 -14.72243 3.50000
vertex -3.00000 -12.02081 7.02081
vertex -3.00000 -0.00000 -5.00000
endloop
endfacet
facet normal -1 9.737066092192216e-17 -4.0332222575015095e-17
outer loop
vertex -3.00000 -16.42074 -0.60008
vertex -3.00000 -14.72243 3.50000
vertex -3.00000 -0.00000 -5.00000
endloop
endfacet
facet normal -1 -8.43716114266547e-32 -4.0372445514308854e-16
outer loop
vertex -3.00000 -17.00000 -5.00000
vertex -3.00000 -16.42074 -0.60008
vertex -3.00000 -0.00000 -5.00000
endloop
endfacet
endsolid XR_DEMO_NONFUNCTIONAL
