solid XR_DEMO_NONFUNCTIONAL
facet normal 0 0 -1
outer loop
vertex -161.00000 -143.00000 -106.50000
vertex -161.00000 135.00000 -106.50000
vertex -125.00000 135.00000 -106.50000
endloop
endfacet
facet normal 0 0 -1
outer loop
vertex -99.00000 -117.00000 -106.50000
vertex -117.00000 -143.00000 -106.50000
vertex -161.00000 -143.00000 -106.50000
endloop
endfacet
facet normal 0 0 -0.9999999999999999
outer loop
vertex -125.00000 135.00000 -106.50000
vertex -100.00000 108.00000 -106.50000
vertex -99.00000 -117.00000 -106.50000
endloop
endfacet
facet normal 0 0 -1
outer loop
vertex -99.00000 -117.00000 -106.50000
vertex -161.00000 -143.00000 -106.50000
vertex -125.00000 135.00000 -106.50000
endloop
endfacet
facet normal 0 0 1
outer loop
vertex -125.00000 135.00000 -83.50000
vertex -161.00000 135.00000 -83.50000
vertex -161.00000 -143.00000 -83.50000
endloop
endfacet
facet normal 0 0 1
outer loop
vertex -161.00000 -143.00000 -83.50000
vertex -117.00000 -143.00000 -83.50000
vertex -99.00000 -117.00000 -83.50000
endloop
endfacet
facet normal 0 0 0.9999999999999999
outer loop
vertex -99.00000 -117.00000 -83.50000
vertex -100.00000 108.00000 -83.50000
vertex -125.00000 135.00000 -83.50000
endloop
endfacet
facet normal 0 0 1
outer loop
vertex -125.00000 135.00000 -83.50000
vertex -161.00000 -143.00000 -83.50000
vertex -99.00000 -117.00000 -83.50000
endloop
endfacet
facet normal 0 -0.38268302704042506 -0.9238797004021558
outer loop
vertex -161.00000 -143.00000 -106.50000
vertex -117.00000 -143.00000 -106.50000
vertex -163.82843 -145.82843 -105.32843
endloop
endfacet
facet normal 0 -0.38268302704042506 -0.923879700402156
outer loop
vertex -117.00000 -143.00000 -106.50000
vertex -115.51804 -145.82843 -105.32843
vertex -163.82843 -145.82843 -105.32843
endloop
endfacet
facet normal 0 -0.9238798939489083 -0.38268255977631654
outer loop
vertex -163.82843 -145.82843 -105.32843
vertex -115.51804 -145.82843 -105.32843
vertex -165.00000 -147.00000 -102.50000
endloop
endfacet
facet normal 0 -0.9238798939489083 -0.38268255977631654
outer loop
vertex -115.51804 -145.82843 -105.32843
vertex -114.90419 -147.00000 -102.50000
vertex -165.00000 -147.00000 -102.50000
endloop
endfacet
facet normal 0 -0.9999999999999999 0
outer loop
vertex -165.00000 -147.00000 -102.50000
vertex -114.90419 -147.00000 -102.50000
vertex -165.00000 -147.00000 -87.50000
endloop
endfacet
facet normal 0 -0.9999999999999999 0
outer loop
vertex -114.90419 -147.00000 -102.50000
vertex -114.90419 -147.00000 -87.50000
vertex -165.00000 -147.00000 -87.50000
endloop
endfacet
facet normal 0 -0.9238798483296617 0.3826826699111958
outer loop
vertex -165.00000 -147.00000 -87.50000
vertex -114.90419 -147.00000 -87.50000
vertex -163.82843 -145.82843 -84.67157
endloop
endfacet
facet normal 0 -0.9238798483296617 0.38268266991119587
outer loop
vertex -114.90419 -147.00000 -87.50000
vertex -115.51804 -145.82843 -84.67157
vertex -163.82843 -145.82843 -84.67157
endloop
endfacet
facet normal 0 -0.3826832929297012 0.9238795902673036
outer loop
vertex -163.82843 -145.82843 -84.67157
vertex -115.51804 -145.82843 -84.67157
vertex -161.00000 -143.00000 -83.50000
endloop
endfacet
facet normal 0 -0.38268329292970116 0.9238795902673035
outer loop
vertex -115.51804 -145.82843 -84.67157
vertex -117.00000 -143.00000 -83.50000
vertex -161.00000 -143.00000 -83.50000
endloop
endfacet
facet normal 0.3146390132924159 -0.21782700920244177 -0.9238796920466941
outer loop
vertex -117.00000 -143.00000 -106.50000
vertex -99.00000 -117.00000 -106.50000
vertex -115.51804 -145.82843 -105.32843
endloop
endfacet
facet normal 0.3146389178767362 -0.2178269563583435 -0.9238797370009891
outer loop
vertex -99.00000 -117.00000 -106.50000
vertex -96.16764 -117.87786 -105.32843
vertex -115.51804 -145.82843 -105.32843
endloop
endfacet
facet normal 0.7596069459495097 -0.5258817637100462 -0.38268218963321216
outer loop
vertex -115.51804 -145.82843 -105.32843
vertex -96.16764 -117.87786 -105.32843
vertex -114.90419 -147.00000 -102.50000
endloop
endfacet
facet normal 0.7596072119275055 -0.525881869445792 -0.38268151637611236
outer loop
vertex -96.16764 -117.87786 -105.32843
vertex -94.99445 -118.24148 -102.50000
vertex -114.90419 -147.00000 -102.50000
endloop
endfacet
facet normal 0.8221922152008129 -0.5692099448034795 0
outer loop
vertex -114.90419 -147.00000 -102.50000
vertex -94.99445 -118.24148 -102.50000
vertex -114.90419 -147.00000 -87.50000
endloop
endfacet
facet normal 0.8221922152008129 -0.5692099448034795 0
outer loop
vertex -94.99445 -118.24148 -102.50000
vertex -94.99445 -118.24148 -87.50000
vertex -114.90419 -147.00000 -87.50000
endloop
endfacet
facet normal 0.7596069492010833 -0.525881687558285 0.38268228782669483
outer loop
vertex -114.90419 -147.00000 -87.50000
vertex -94.99445 -118.24148 -87.50000
vertex -115.51804 -145.82843 -84.67157
endloop
endfacet
facet normal 0.7596071401708728 -0.5258818981709981 0.382681619335834
outer loop
vertex -94.99445 -118.24148 -87.50000
vertex -96.16764 -117.87786 -84.67157
vertex -115.51804 -145.82843 -84.67157
endloop
endfacet
facet normal 0.31463922172630415 -0.21782716671574945 0.9238795839242552
outer loop
vertex -115.51804 -145.82843 -84.67157
vertex -96.16764 -117.87786 -84.67157
vertex -117.00000 -143.00000 -83.50000
endloop
endfacet
facet normal 0.31463914027230755 -0.21782709711159753 0.9238796280753451
outer loop
vertex -96.16764 -117.87786 -84.67157
vertex -99.00000 -117.00000 -83.50000
vertex -117.00000 -143.00000 -83.50000
endloop
endfacet
facet normal 0.38267929385843913 0.0017007968615930628 -0.9238796812042367
outer loop
vertex -99.00000 -117.00000 -106.50000
vertex -100.00000 108.00000 -106.50000
vertex -96.16764 -117.87786 -105.32843
endloop
endfacet
facet normal 0.38268002641656795 0.0017008108645122056 -0.9238793777459361
outer loop
vertex -100.00000 108.00000 -106.50000
vertex -97.17650 109.11369 -105.32843
vertex -96.16764 -117.87786 -105.32843
endloop
endfacet
facet normal 0.9238710689786246 0.004106119585705454 -0.3826818361070215
outer loop
vertex -96.16764 -117.87786 -105.32843
vertex -97.17650 109.11369 -105.32843
vertex -94.99445 -118.24148 -102.50000
endloop
endfacet
facet normal 0.9238697026320494 0.004106065428201104 -0.3826851353074326
outer loop
vertex -97.17650 109.11369 -105.32843
vertex -96.00696 109.57500 -102.50000
vertex -94.99445 -118.24148 -102.50000
endloop
endfacet
facet normal 0.9999901237096074 0.004444376586664489 0
outer loop
vertex -94.99445 -118.24148 -102.50000
vertex -96.00696 109.57500 -102.50000
vertex -94.99445 -118.24148 -87.50000
endloop
endfacet
facet normal 0.9999901237096074 0.004444376586664489 0
outer loop
vertex -96.00696 109.57500 -102.50000
vertex -96.00696 109.57500 -87.50000
vertex -94.99445 -118.24148 -87.50000
endloop
endfacet
facet normal 0.9238710213568648 0.004106071289168682 0.3826819515937377
outer loop
vertex -94.99445 -118.24148 -87.50000
vertex -96.00696 109.57500 -87.50000
vertex -96.16764 -117.87786 -84.67157
endloop
endfacet
facet normal 0.9238696540575856 0.004106113297127766 0.3826852520611529
outer loop
vertex -96.00696 109.57500 -87.50000
vertex -97.17650 109.11369 -84.67157
vertex -96.16764 -117.87786 -84.67157
endloop
endfacet
facet normal 0.38267956258518304 0.0017008088030263575 0.9238795698731671
outer loop
vertex -96.16764 -117.87786 -84.67157
vertex -97.17650 109.11369 -84.67157
vertex -99.00000 -117.00000 -83.50000
endloop
endfacet
facet normal 0.38268029592249664 0.0017008013152110962 0.9238792661314337
outer loop
vertex -97.17650 109.11369 -84.67157
vertex -100.00000 108.00000 -83.50000
vertex -99.00000 -117.00000 -83.50000
endloop
endfacet
facet normal 0.2807980624585804 0.25999820598016704 -0.9238795273230173
outer loop
vertex -100.00000 108.00000 -106.50000
vertex -125.00000 135.00000 -106.50000
vertex -97.17650 109.11369 -105.32843
endloop
endfacet
facet normal 0.2807978279008005 0.2599979473487615 -0.9238796713969969
outer loop
vertex -125.00000 135.00000 -106.50000
vertex -123.76421 137.82843 -105.32843
vertex -97.17650 109.11369 -105.32843
endloop
endfacet
facet normal 0.677906240046497 0.6276908629409793 -0.38268434810745783
outer loop
vertex -97.17650 109.11369 -105.32843
vertex -123.76421 137.82843 -105.32843
vertex -96.00696 109.57500 -102.50000
endloop
endfacet
facet normal 0.6779066259755469 0.6276913984674917 -0.38268278606226175
outer loop
vertex -123.76421 137.82843 -105.32843
vertex -123.25233 139.00000 -102.50000
vertex -96.00696 109.57500 -102.50000
endloop
endfacet
facet normal 0.7337606318649673 0.6794080770237602 0
outer loop
vertex -96.00696 109.57500 -102.50000
vertex -123.25233 139.00000 -102.50000
vertex -96.00696 109.57500 -87.50000
endloop
endfacet
facet normal 0.7337606318649673 0.6794080770237602 0
outer loop
vertex -123.25233 139.00000 -102.50000
vertex -123.25233 139.00000 -87.50000
vertex -96.00696 109.57500 -87.50000
endloop
endfacet
facet normal 0.6779061232130692 0.6276909329466211 0.38268444024656584
outer loop
vertex -96.00696 109.57500 -87.50000
vertex -123.25233 139.00000 -87.50000
vertex -97.17650 109.11369 -84.67157
endloop
endfacet
facet normal 0.6779066874695341 0.6276912772215031 0.3826828760006405
outer loop
vertex -123.25233 139.00000 -87.50000
vertex -123.76421 137.82843 -84.67157
vertex -97.17650 109.11369 -84.67157
endloop
endfacet
facet normal 0.28079827080529557 0.25999835744545086 0.9238794213740359
outer loop
vertex -97.17650 109.11369 -84.67157
vertex -123.76421 137.82843 -84.67157
vertex -100.00000 108.00000 -83.50000
endloop
endfacet
facet normal 0.2807979940146763 0.2599981426061818 0.9238795659601251
outer loop
vertex -123.76421 137.82843 -84.67157
vertex -125.00000 135.00000 -83.50000
vertex -100.00000 108.00000 -83.50000
endloop
endfacet
facet normal 0 0.38268302704042506 -0.9238797004021558
outer loop
vertex -125.00000 135.00000 -106.50000
vertex -161.00000 135.00000 -106.50000
vertex -123.76421 137.82843 -105.32843
endloop
endfacet
facet normal 0 0.38268302704042506 -0.9238797004021558
outer loop
vertex -161.00000 135.00000 -106.50000
vertex -163.82843 137.82843 -105.32843
vertex -123.76421 137.82843 -105.32843
endloop
endfacet
facet normal 0 0.9238798939489082 -0.3826825597763165
outer loop
vertex -123.76421 137.82843 -105.32843
vertex -163.82843 137.82843 -105.32843
vertex -123.25233 139.00000 -102.50000
endloop
endfacet
facet normal 0 0.9238798939489081 -0.3826825597763165
outer loop
vertex -163.82843 137.82843 -105.32843
vertex -165.00000 139.00000 -102.50000
vertex -123.25233 139.00000 -102.50000
endloop
endfacet
facet normal 0 1 0
outer loop
vertex -123.25233 139.00000 -102.50000
vertex -165.00000 139.00000 -102.50000
vertex -123.25233 139.00000 -87.50000
endloop
endfacet
facet normal 0 1 0
outer loop
vertex -165.00000 139.00000 -102.50000
vertex -165.00000 139.00000 -87.50000
vertex -123.25233 139.00000 -87.50000
endloop
endfacet
facet normal 0 0.9238798483296617 0.3826826699111958
outer loop
vertex -123.25233 139.00000 -87.50000
vertex -165.00000 139.00000 -87.50000
vertex -123.76421 137.82843 -84.67157
endloop
endfacet
facet normal 0 0.9238798483296617 0.38268266991119587
outer loop
vertex -165.00000 139.00000 -87.50000
vertex -163.82843 137.82843 -84.67157
vertex -123.76421 137.82843 -84.67157
endloop
endfacet
facet normal 0 0.3826832929297012 0.9238795902673035
outer loop
vertex -123.76421 137.82843 -84.67157
vertex -163.82843 137.82843 -84.67157
vertex -125.00000 135.00000 -83.50000
endloop
endfacet
facet normal 0 0.38268329292970116 0.9238795902673035
outer loop
vertex -163.82843 137.82843 -84.67157
vertex -161.00000 135.00000 -83.50000
vertex -125.00000 135.00000 -83.50000
endloop
endfacet
facet normal -0.38268302704042506 0 -0.9238797004021558
outer loop
vertex -161.00000 135.00000 -106.50000
vertex -161.00000 -143.00000 -106.50000
vertex -163.82843 137.82843 -105.32843
endloop
endfacet
facet normal -0.38268302704042506 0 -0.9238797004021558
outer loop
vertex -161.00000 -143.00000 -106.50000
vertex -163.82843 -145.82843 -105.32843
vertex -163.82843 137.82843 -105.32843
endloop
endfacet
facet normal -0.9238798939489082 0 -0.3826825597763165
outer loop
vertex -163.82843 137.82843 -105.32843
vertex -163.82843 -145.82843 -105.32843
vertex -165.00000 139.00000 -102.50000
endloop
endfacet
facet normal -0.9238798939489082 0 -0.3826825597763165
outer loop
vertex -163.82843 -145.82843 -105.32843
vertex -165.00000 -147.00000 -102.50000
vertex -165.00000 139.00000 -102.50000
endloop
endfacet
facet normal -1 0 0
outer loop
vertex -165.00000 139.00000 -102.50000
vertex -165.00000 -147.00000 -102.50000
vertex -165.00000 139.00000 -87.50000
endloop
endfacet
facet normal -1 0 0
outer loop
vertex -165.00000 -147.00000 -102.50000
vertex -165.00000 -147.00000 -87.50000
vertex -165.00000 139.00000 -87.50000
endloop
endfacet
facet normal -0.9238798483296617 0 0.3826826699111958
outer loop
vertex -165.00000 139.00000 -87.50000
vertex -165.00000 -147.00000 -87.50000
vertex -163.82843 137.82843 -84.67157
endloop
endfacet
facet normal -0.9238798483296616 0 0.3826826699111958
outer loop
vertex -165.00000 -147.00000 -87.50000
vertex -163.82843 -145.82843 -84.67157
vertex -163.82843 137.82843 -84.67157
endloop
endfacet
facet normal -0.38268329292970116 0 0.9238795902673034
outer loop
vertex -163.82843 137.82843 -84.67157
vertex -163.82843 -145.82843 -84.67157
vertex -161.00000 135.00000 -83.50000
endloop
endfacet
facet normal -0.3826832929297012 0 0.9238795902673036
outer loop
vertex -163.82843 -145.82843 -84.67157
vertex -161.00000 -143.00000 -83.50000
vertex -161.00000 135.00000 -83.50000
endloop
endfacet
facet normal 1 0 0
outer loop
vertex 115.00000 -127.00000 81.50000
vertex 115.00000 -143.00000 81.50000
vertex 115.00000 -127.00000 -103.50000
endloop
endfacet
facet normal 1 0 0
outer loop
vertex 115.00000 -143.00000 81.50000
vertex 115.00000 -143.00000 -103.50000
vertex 115.00000 -127.00000 -103.50000
endloop
endfacet
facet normal -1 0 0
outer loop
vertex -155.00000 -127.00000 -103.50000
vertex -155.00000 -143.00000 -103.50000
vertex -155.00000 -127.00000 81.50000
endloop
endfacet
facet normal -1 0 0
outer loop
vertex -155.00000 -143.00000 -103.50000
vertex -155.00000 -143.00000 81.50000
vertex -155.00000 -127.00000 81.50000
endloop
endfacet
facet normal 0 1 0
outer loop
vertex -155.00000 -127.00000 -103.50000
vertex -155.00000 -127.00000 81.50000
vertex 115.00000 -127.00000 -103.50000
endloop
endfacet
facet normal 0 1 0
outer loop
vertex -155.00000 -127.00000 81.50000
vertex 115.00000 -127.00000 81.50000
vertex 115.00000 -127.00000 -103.50000
endloop
endfacet
facet normal 0 -1 0
outer loop
vertex -155.00000 -143.00000 81.50000
vertex -155.00000 -143.00000 -103.50000
vertex 115.00000 -143.00000 81.50000
endloop
endfacet
facet normal 0 -1 0
outer loop
vertex -155.00000 -143.00000 -103.50000
vertex 115.00000 -143.00000 -103.50000
vertex 115.00000 -143.00000 81.50000
endloop
endfacet
facet normal 0 0 1
outer loop
vertex -155.00000 -127.00000 81.50000
vertex -155.00000 -143.00000 81.50000
vertex 115.00000 -127.00000 81.50000
endloop
endfacet
facet normal 0 0 1
outer loop
vertex -155.00000 -143.00000 81.50000
vertex 115.00000 -143.00000 81.50000
vertex 115.00000 -127.00000 81.50000
endloop
endfacet
facet normal 0 0 -1
outer loop
vertex 115.00000 -127.00000 -103.50000
vertex 115.00000 -143.00000 -103.50000
vertex -155.00000 -127.00000 -103.50000
endloop
endfacet
facet normal 0 0 -1
outer loop
vertex 115.00000 -143.00000 -103.50000
vertex -155.00000 -143.00000 -103.50000
vertex -155.00000 -127.00000 -103.50000
endloop
endfacet
facet normal 1 0 0
outer loop
vertex 115.00000 137.00000 81.50000
vertex 115.00000 121.00000 81.50000
vertex 115.00000 137.00000 -103.50000
endloop
endfacet
facet normal 1 0 0
outer loop
vertex 115.00000 121.00000 81.50000
vertex 115.00000 121.00000 -103.50000
vertex 115.00000 137.00000 -103.50000
endloop
endfacet
facet normal -1 0 0
outer loop
vertex -155.00000 137.00000 -103.50000
vertex -155.00000 121.00000 -103.50000
vertex -155.00000 137.00000 81.50000
endloop
endfacet
facet normal -1 0 0
outer loop
vertex -155.00000 121.00000 -103.50000
vertex -155.00000 121.00000 81.50000
vertex -155.00000 137.00000 81.50000
endloop
endfacet
facet normal 0 1 0
outer loop
vertex -155.00000 137.00000 -103.50000
vertex -155.00000 137.00000 81.50000
vertex 115.00000 137.00000 -103.50000
endloop
endfacet
facet normal 0 1 0
outer loop
vertex -155.00000 137.00000 81.50000
vertex 115.00000 137.00000 81.50000
vertex 115.00000 137.00000 -103.50000
endloop
endfacet
facet normal 0 -1 0
outer loop
vertex -155.00000 121.00000 81.50000
vertex -155.00000 121.00000 -103.50000
vertex 115.00000 121.00000 81.50000
endloop
endfacet
facet normal 0 -1 0
outer loop
vertex -155.00000 121.00000 -103.50000
vertex 115.00000 121.00000 -103.50000
vertex 115.00000 121.00000 81.50000
endloop
endfacet
facet normal 0 0 1
outer loop
vertex -155.00000 137.00000 81.50000
vertex -155.00000 121.00000 81.50000
vertex 115.00000 137.00000 81.50000
endloop
endfacet
facet normal 0 0 1
outer loop
vertex -155.00000 121.00000 81.50000
vertex 115.00000 121.00000 81.50000
vertex 115.00000 137.00000 81.50000
endloop
endfacet
facet normal 0 0 -1
outer loop
vertex 115.00000 137.00000 -103.50000
vertex 115.00000 121.00000 -103.50000
vertex -155.00000 137.00000 -103.50000
endloop
endfacet
facet normal 0 0 -1
outer loop
vertex 115.00000 121.00000 -103.50000
vertex -155.00000 121.00000 -103.50000
vertex -155.00000 137.00000 -103.50000
endloop
endfacet
facet normal 1 0 0
outer loop
vertex -113.00000 -145.00000 83.00000
vertex -113.00000 -157.00000 83.00000
vertex -113.00000 -145.00000 -91.00000
endloop
endfacet
facet normal 1 0 0
outer loop
vertex -113.00000 -157.00000 83.00000
vertex -113.00000 -157.00000 -91.00000
vertex -113.00000 -145.00000 -91.00000
endloop
endfacet
facet normal -1 0 0
outer loop
vertex -157.00000 -145.00000 -91.00000
vertex -157.00000 -157.00000 -91.00000
vertex -157.00000 -145.00000 83.00000
endloop
endfacet
facet normal -1 0 0
outer loop
vertex -157.00000 -157.00000 -91.00000
vertex -157.00000 -157.00000 83.00000
vertex -157.00000 -145.00000 83.00000
endloop
endfacet
facet normal 0 1 0
outer loop
vertex -157.00000 -145.00000 -91.00000
vertex -157.00000 -145.00000 83.00000
vertex -113.00000 -145.00000 -91.00000
endloop
endfacet
facet normal 0 1 0
outer loop
vertex -157.00000 -145.00000 83.00000
vertex -113.00000 -145.00000 83.00000
vertex -113.00000 -145.00000 -91.00000
endloop
endfacet
facet normal 0 -1 0
outer loop
vertex -157.00000 -157.00000 83.00000
vertex -157.00000 -157.00000 -91.00000
vertex -113.00000 -157.00000 83.00000
endloop
endfacet
facet normal 0 -1 0
outer loop
vertex -157.00000 -157.00000 -91.00000
vertex -113.00000 -157.00000 -91.00000
vertex -113.00000 -157.00000 83.00000
endloop
endfacet
facet normal 0 0 1
outer loop
vertex -157.00000 -145.00000 83.00000
vertex -157.00000 -157.00000 83.00000
vertex -113.00000 -145.00000 83.00000
endloop
endfacet
facet normal 0 0 1
outer loop
vertex -157.00000 -157.00000 83.00000
vertex -113.00000 -157.00000 83.00000
vertex -113.00000 -145.00000 83.00000
endloop
endfacet
facet normal 0 0 -1
outer loop
vertex -113.00000 -145.00000 -91.00000
vertex -113.00000 -157.00000 -91.00000
vertex -157.00000 -145.00000 -91.00000
endloop
endfacet
facet normal 0 0 -1
outer loop
vertex -113.00000 -157.00000 -91.00000
vertex -157.00000 -157.00000 -91.00000
vertex -157.00000 -145.00000 -91.00000
endloop
endfacet
facet normal 1 0 0
outer loop
vertex 138.00000 -145.00000 83.00000
vertex 138.00000 -157.00000 83.00000
vertex 138.00000 -145.00000 -91.00000
endloop
endfacet
facet normal 1 0 0
outer loop
vertex 138.00000 -157.00000 83.00000
vertex 138.00000 -157.00000 -91.00000
vertex 138.00000 -145.00000 -91.00000
endloop
endfacet
facet normal -1 0 0
outer loop
vertex 94.00000 -145.00000 -91.00000
vertex 94.00000 -157.00000 -91.00000
vertex 94.00000 -145.00000 83.00000
endloop
endfacet
facet normal -1 0 0
outer loop
vertex 94.00000 -157.00000 -91.00000
vertex 94.00000 -157.00000 83.00000
vertex 94.00000 -145.00000 83.00000
endloop
endfacet
facet normal 0 1 0
outer loop
vertex 94.00000 -145.00000 -91.00000
vertex 94.00000 -145.00000 83.00000
vertex 138.00000 -145.00000 -91.00000
endloop
endfacet
facet normal 0 1 0
outer loop
vertex 94.00000 -145.00000 83.00000
vertex 138.00000 -145.00000 83.00000
vertex 138.00000 -145.00000 -91.00000
endloop
endfacet
facet normal 0 -1 0
outer loop
vertex 94.00000 -157.00000 83.00000
vertex 94.00000 -157.00000 -91.00000
vertex 138.00000 -157.00000 83.00000
endloop
endfacet
facet normal 0 -1 0
outer loop
vertex 94.00000 -157.00000 -91.00000
vertex 138.00000 -157.00000 -91.00000
vertex 138.00000 -157.00000 83.00000
endloop
endfacet
facet normal 0 0 1
outer loop
vertex 94.00000 -145.00000 83.00000
vertex 94.00000 -157.00000 83.00000
vertex 138.00000 -145.00000 83.00000
endloop
endfacet
facet normal 0 0 1
outer loop
vertex 94.00000 -157.00000 83.00000
vertex 138.00000 -157.00000 83.00000
vertex 138.00000 -145.00000 83.00000
endloop
endfacet
facet normal 0 0 -1
outer loop
vertex 138.00000 -145.00000 -91.00000
vertex 138.00000 -157.00000 -91.00000
vertex 94.00000 -145.00000 -91.00000
endloop
endfacet
facet normal 0 0 -1
outer loop
vertex 138.00000 -157.00000 -91.00000
vertex 94.00000 -157.00000 -91.00000
vertex 94.00000 -145.00000 -91.00000
endloop
endfacet
endsolid XR_DEMO_NONFUNCTIONAL
