solid XR_DEMO_NONFUNCTIONAL
facet normal 2.5762314219746794e-17 -0.9914448811097941 -0.13052604231028497
outer loop
vertex -125.00000 -97.00000 -5.00000
vertex -143.00000 -97.00000 -5.00000
vertex -125.00000 -93.69481 -30.10545
endloop
endfacet
facet normal 6.235600643390906e-17 -0.9914448811097941 -0.13052604231028497
outer loop
vertex -143.00000 -97.00000 -5.00000
vertex -143.00000 -93.69481 -30.10545
vertex -125.00000 -93.69481 -30.10545
endloop
endfacet
facet normal 1.5106280632663253e-16 -0.9238794634748632 -0.38268359903371707
outer loop
vertex -125.00000 -93.69481 -30.10545
vertex -143.00000 -93.69481 -30.10545
vertex -125.00000 -84.00446 -53.50000
endloop
endfacet
facet normal 0 -0.9238794634748632 -0.3826835990337171
outer loop
vertex -143.00000 -93.69481 -30.10545
vertex -143.00000 -84.00446 -53.50000
vertex -125.00000 -84.00446 -53.50000
endloop
endfacet
facet normal 0 -0.7933532810744633 -0.6087615061815123
outer loop
vertex -125.00000 -84.00446 -53.50000
vertex -143.00000 -84.00446 -53.50000
vertex -125.00000 -68.58936 -73.58936
endloop
endfacet
facet normal 0 -0.7933532810744635 -0.6087615061815124
outer loop
vertex -143.00000 -84.00446 -53.50000
vertex -143.00000 -68.58936 -73.58936
vertex -125.00000 -68.58936 -73.58936
endloop
endfacet
facet normal 0 -0.6087615061815124 -0.7933532810744635
outer loop
vertex -125.00000 -68.58936 -73.58936
vertex -143.00000 -68.58936 -73.58936
vertex -125.00000 -48.50000 -89.00446
endloop
endfacet
facet normal 0 -0.6087615061815124 -0.7933532810744635
outer loop
vertex -143.00000 -68.58936 -73.58936
vertex -143.00000 -48.50000 -89.00446
vertex -125.00000 -48.50000 -89.00446
endloop
endfacet
facet normal 0 -0.3826835990337171 -0.9238794634748633
outer loop
vertex -125.00000 -48.50000 -89.00446
vertex -143.00000 -48.50000 -89.00446
vertex -125.00000 -25.10545 -98.69481
endloop
endfacet
facet normal 0 -0.3826835990337171 -0.9238794634748633
outer loop
vertex -143.00000 -48.50000 -89.00446
vertex -143.00000 -25.10545 -98.69481
vertex -125.00000 -25.10545 -98.69481
endloop
endfacet
facet normal 0 -0.13052604231028497 -0.991444881109794
outer loop
vertex -125.00000 -25.10545 -98.69481
vertex -143.00000 -25.10545 -98.69481
vertex -125.00000 -0.00000 -102.00000
endloop
endfacet
facet normal 0 -0.13052604231028497 -0.991444881109794
outer loop
vertex -143.00000 -25.10545 -98.69481
vertex -143.00000 -0.00000 -102.00000
vertex -125.00000 -0.00000 -102.00000
endloop
endfacet
facet normal -7.992415152840245e-18 0.13052604231028492 -0.991444881109794
outer loop
vertex -125.00000 -0.00000 -102.00000
vertex -143.00000 -0.00000 -102.00000
vertex -125.00000 25.10545 -98.69481
endloop
endfacet
facet normal 0 0.13052604231028492 -0.991444881109794
outer loop
vertex -143.00000 -0.00000 -102.00000
vertex -143.00000 25.10545 -98.69481
vertex -125.00000 25.10545 -98.69481
endloop
endfacet
facet normal 0 0.3826835990337171 -0.9238794634748633
outer loop
vertex -125.00000 25.10545 -98.69481
vertex -143.00000 25.10545 -98.69481
vertex -125.00000 48.50000 -89.00446
endloop
endfacet
facet normal 0 0.3826835990337171 -0.9238794634748633
outer loop
vertex -143.00000 25.10545 -98.69481
vertex -143.00000 48.50000 -89.00446
vertex -125.00000 48.50000 -89.00446
endloop
endfacet
facet normal 0 0.6087615061815124 -0.7933532810744635
outer loop
vertex -125.00000 48.50000 -89.00446
vertex -143.00000 48.50000 -89.00446
vertex -125.00000 68.58936 -73.58936
endloop
endfacet
facet normal 0 0.6087615061815124 -0.7933532810744635
outer loop
vertex -143.00000 48.50000 -89.00446
vertex -143.00000 68.58936 -73.58936
vertex -125.00000 68.58936 -73.58936
endloop
endfacet
facet normal 0 0.7933532810744635 -0.6087615061815124
outer loop
vertex -125.00000 68.58936 -73.58936
vertex -143.00000 68.58936 -73.58936
vertex -125.00000 84.00446 -53.50000
endloop
endfacet
facet normal 0 0.7933532810744633 -0.6087615061815123
outer loop
vertex -143.00000 68.58936 -73.58936
vertex -143.00000 84.00446 -53.50000
vertex -125.00000 84.00446 -53.50000
endloop
endfacet
facet normal 0 0.9238794634748633 -0.38268359903371707
outer loop
vertex -125.00000 84.00446 -53.50000
vertex -143.00000 84.00446 -53.50000
vertex -125.00000 93.69481 -30.10545
endloop
endfacet
facet normal 1.24712005126042e-16 0.9238794634748634 -0.38268359903371724
outer loop
vertex -143.00000 84.00446 -53.50000
vertex -143.00000 93.69481 -30.10545
vertex -125.00000 93.69481 -30.10545
endloop
endfacet
facet normal 5.1524628439493614e-17 0.991444881109794 -0.130526042310285
outer loop
vertex -125.00000 93.69481 -30.10545
vertex -143.00000 93.69481 -30.10545
vertex -125.00000 97.00000 -5.00000
endloop
endfacet
facet normal 0 0.9914448811097941 -0.130526042310285
outer loop
vertex -143.00000 93.69481 -30.10545
vertex -143.00000 97.00000 -5.00000
vertex -125.00000 97.00000 -5.00000
endloop
endfacet
facet normal -3.2202892774683476e-17 0.991444881109794 0.1305260423102849
outer loop
vertex -125.00000 97.00000 -5.00000
vertex -143.00000 97.00000 -5.00000
vertex -125.00000 93.69481 20.10545
endloop
endfacet
facet normal -6.235600643390904e-17 0.9914448811097941 0.13052604231028492
outer loop
vertex -143.00000 97.00000 -5.00000
vertex -143.00000 93.69481 20.10545
vertex -125.00000 93.69481 20.10545
endloop
endfacet
facet normal -1.5106280632663258e-16 0.9238794634748634 0.38268359903371724
outer loop
vertex -125.00000 93.69481 20.10545
vertex -143.00000 93.69481 20.10545
vertex -125.00000 84.00446 43.50000
endloop
endfacet
facet normal 0 0.9238794634748634 0.3826835990337171
outer loop
vertex -143.00000 93.69481 20.10545
vertex -143.00000 84.00446 43.50000
vertex -125.00000 84.00446 43.50000
endloop
endfacet
facet normal 0 0.7933532810744635 0.6087615061815124
outer loop
vertex -125.00000 84.00446 43.50000
vertex -143.00000 84.00446 43.50000
vertex -125.00000 68.58936 63.58936
endloop
endfacet
facet normal 0 0.7933532810744633 0.6087615061815123
outer loop
vertex -143.00000 84.00446 43.50000
vertex -143.00000 68.58936 63.58936
vertex -125.00000 68.58936 63.58936
endloop
endfacet
facet normal 0 0.6087615061815123 0.7933532810744633
outer loop
vertex -125.00000 68.58936 63.58936
vertex -143.00000 68.58936 63.58936
vertex -125.00000 48.50000 79.00446
endloop
endfacet
facet normal 0 0.6087615061815123 0.7933532810744633
outer loop
vertex -143.00000 68.58936 63.58936
vertex -143.00000 48.50000 79.00446
vertex -125.00000 48.50000 79.00446
endloop
endfacet
facet normal 0 0.3826835990337171 0.9238794634748633
outer loop
vertex -125.00000 48.50000 79.00446
vertex -143.00000 48.50000 79.00446
vertex -125.00000 25.10545 88.69481
endloop
endfacet
facet normal 0 0.3826835990337171 0.9238794634748633
outer loop
vertex -143.00000 48.50000 79.00446
vertex -143.00000 25.10545 88.69481
vertex -125.00000 25.10545 88.69481
endloop
endfacet
facet normal 0 0.13052604231028506 0.9914448811097941
outer loop
vertex -125.00000 25.10545 88.69481
vertex -143.00000 25.10545 88.69481
vertex -125.00000 0.00000 92.00000
endloop
endfacet
facet normal 0 0.13052604231028506 0.9914448811097941
outer loop
vertex -143.00000 25.10545 88.69481
vertex -143.00000 0.00000 92.00000
vertex -125.00000 0.00000 92.00000
endloop
endfacet
facet normal 7.992421295054592e-18 -0.13052604231028486 0.9914448811097941
outer loop
vertex -125.00000 0.00000 92.00000
vertex -143.00000 0.00000 92.00000
vertex -125.00000 -25.10545 88.69481
endloop
endfacet
facet normal 0 -0.13052604231028486 0.9914448811097941
outer loop
vertex -143.00000 0.00000 92.00000
vertex -143.00000 -25.10545 88.69481
vertex -125.00000 -25.10545 88.69481
endloop
endfacet
facet normal 0 -0.3826835990337171 0.9238794634748633
outer loop
vertex -125.00000 -25.10545 88.69481
vertex -143.00000 -25.10545 88.69481
vertex -125.00000 -48.50000 79.00446
endloop
endfacet
facet normal 0 -0.3826835990337171 0.9238794634748633
outer loop
vertex -143.00000 -25.10545 88.69481
vertex -143.00000 -48.50000 79.00446
vertex -125.00000 -48.50000 79.00446
endloop
endfacet
facet normal 0 -0.6087615061815123 0.7933532810744633
outer loop
vertex -125.00000 -48.50000 79.00446
vertex -143.00000 -48.50000 79.00446
vertex -125.00000 -68.58936 63.58936
endloop
endfacet
facet normal 0 -0.6087615061815123 0.7933532810744633
outer loop
vertex -143.00000 -48.50000 79.00446
vertex -143.00000 -68.58936 63.58936
vertex -125.00000 -68.58936 63.58936
endloop
endfacet
facet normal 0 -0.7933532810744633 0.6087615061815123
outer loop
vertex -125.00000 -68.58936 63.58936
vertex -143.00000 -68.58936 63.58936
vertex -125.00000 -84.00446 43.50000
endloop
endfacet
facet normal 0 -0.7933532810744635 0.6087615061815124
outer loop
vertex -143.00000 -68.58936 63.58936
vertex -143.00000 -84.00446 43.50000
vertex -125.00000 -84.00446 43.50000
endloop
endfacet
facet normal 0 -0.9238794634748632 0.3826835990337171
outer loop
vertex -125.00000 -84.00446 43.50000
vertex -143.00000 -84.00446 43.50000
vertex -125.00000 -93.69481 20.10545
endloop
endfacet
facet normal -1.2471200512604195e-16 -0.9238794634748632 0.38268359903371707
outer loop
vertex -143.00000 -84.00446 43.50000
vertex -143.00000 -93.69481 20.10545
vertex -125.00000 -93.69481 20.10545
endloop
endfacet
facet normal -5.152462843949363e-17 -0.991444881109794 0.13052604231028506
outer loop
vertex -125.00000 -93.69481 20.10545
vertex -143.00000 -93.69481 20.10545
vertex -125.00000 -97.00000 -5.00000
endloop
endfacet
facet normal -3.117800321695456e-17 -0.9914448811097941 0.13052604231028508
outer loop
vertex -143.00000 -93.69481 20.10545
vertex -143.00000 -97.00000 -5.00000
vertex -125.00000 -97.00000 -5.00000
endloop
endfacet
facet normal 0.9999999999999999 0 0
outer loop
vertex -125.00000 -97.00000 -5.00000
vertex -125.00000 -93.69481 -30.10545
vertex -125.00000 0.00000 -5.00000
endloop
endfacet
facet normal 1 -1.4650364856707523e-16 5.467590735939258e-16
outer loop
vertex -125.00000 -93.69481 -30.10545
vertex -125.00000 -84.00446 -53.50000
vertex -125.00000 0.00000 -5.00000
endloop
endfacet
facet normal 1 1.17232096110951e-16 8.995536932129982e-17
outer loop
vertex -125.00000 -84.00446 -53.50000
vertex -125.00000 -68.58936 -73.58936
vertex -125.00000 0.00000 -5.00000
endloop
endfacet
facet normal 1 8.995536932129982e-17 1.17232096110951e-16
outer loop
vertex -125.00000 -68.58936 -73.58936
vertex -125.00000 -48.50000 -89.00446
vertex -125.00000 0.00000 -5.00000
endloop
endfacet
facet normal 1 -4.336624243423933e-16 4.1954297373058906e-16
outer loop
vertex -125.00000 -48.50000 -89.00446
vertex -125.00000 -25.10545 -98.69481
vertex -125.00000 0.00000 -5.00000
endloop
endfacet
facet normal 1 3.857509959045082e-17 2.9300731371550523e-16
outer loop
vertex -125.00000 -25.10545 -98.69481
vertex -125.00000 -0.00000 -102.00000
vertex -125.00000 0.00000 -5.00000
endloop
endfacet
facet normal 1 -3.8575099590450804e-17 2.9300731371550523e-16
outer loop
vertex -125.00000 -0.00000 -102.00000
vertex -125.00000 25.10545 -98.69481
vertex -125.00000 0.00000 -5.00000
endloop
endfacet
facet normal 1 4.336624243423933e-16 4.1954297373058906e-16
outer loop
vertex -125.00000 25.10545 -98.69481
vertex -125.00000 48.50000 -89.00446
vertex -125.00000 0.00000 -5.00000
endloop
endfacet
facet normal 1 -8.995536932129982e-17 1.17232096110951e-16
outer loop
vertex -125.00000 48.50000 -89.00446
vertex -125.00000 68.58936 -73.58936
vertex -125.00000 0.00000 -5.00000
endloop
endfacet
facet normal 1 -1.17232096110951e-16 8.995536932129982e-17
outer loop
vertex -125.00000 68.58936 -73.58936
vertex -125.00000 84.00446 -53.50000
vertex -125.00000 0.00000 -5.00000
endloop
endfacet
facet normal 1 1.4650364856707526e-16 5.46759073593926e-16
outer loop
vertex -125.00000 84.00446 -53.50000
vertex -125.00000 93.69481 -30.10545
vertex -125.00000 0.00000 -5.00000
endloop
endfacet
facet normal 1 0 0
outer loop
vertex -125.00000 93.69481 -30.10545
vertex -125.00000 97.00000 -5.00000
vertex -125.00000 0.00000 -5.00000
endloop
endfacet
facet normal 1 0 0
outer loop
vertex -125.00000 97.00000 -5.00000
vertex -125.00000 93.69481 20.10545
vertex -125.00000 0.00000 -5.00000
endloop
endfacet
facet normal 1 -1.465036485670753e-16 5.46759073593926e-16
outer loop
vertex -125.00000 93.69481 20.10545
vertex -125.00000 84.00446 43.50000
vertex -125.00000 0.00000 -5.00000
endloop
endfacet
facet normal 1 1.17232096110951e-16 8.995536932129982e-17
outer loop
vertex -125.00000 84.00446 43.50000
vertex -125.00000 68.58936 63.58936
vertex -125.00000 0.00000 -5.00000
endloop
endfacet
facet normal 1 8.995536932129982e-17 1.17232096110951e-16
outer loop
vertex -125.00000 68.58936 63.58936
vertex -125.00000 48.50000 79.00446
vertex -125.00000 0.00000 -5.00000
endloop
endfacet
facet normal 1 -4.336624243423933e-16 4.1954297373058906e-16
outer loop
vertex -125.00000 48.50000 79.00446
vertex -125.00000 25.10545 88.69481
vertex -125.00000 0.00000 -5.00000
endloop
endfacet
facet normal 1 3.857509959045084e-17 2.9300731371550523e-16
outer loop
vertex -125.00000 25.10545 88.69481
vertex -125.00000 0.00000 92.00000
vertex -125.00000 0.00000 -5.00000
endloop
endfacet
facet normal 1 -3.8575099590450785e-17 2.9300731371550523e-16
outer loop
vertex -125.00000 0.00000 92.00000
vertex -125.00000 -25.10545 88.69481
vertex -125.00000 0.00000 -5.00000
endloop
endfacet
facet normal 1 4.336624243423933e-16 4.1954297373058906e-16
outer loop
vertex -125.00000 -25.10545 88.69481
vertex -125.00000 -48.50000 79.00446
vertex -125.00000 0.00000 -5.00000
endloop
endfacet
facet normal 1 -8.995536932129982e-17 1.17232096110951e-16
outer loop
vertex -125.00000 -48.50000 79.00446
vertex -125.00000 -68.58936 63.58936
vertex -125.00000 0.00000 -5.00000
endloop
endfacet
facet normal 1 -1.17232096110951e-16 8.995536932129982e-17
outer loop
vertex -125.00000 -68.58936 63.58936
vertex -125.00000 -84.00446 43.50000
vertex -125.00000 0.00000 -5.00000
endloop
endfacet
facet normal 1 1.465036485670753e-16 5.46759073593926e-16
outer loop
vertex -125.00000 -84.00446 43.50000
vertex -125.00000 -93.69481 20.10545
vertex -125.00000 0.00000 -5.00000
endloop
endfacet
facet normal 1 0 0
outer loop
vertex -125.00000 -93.69481 20.10545
vertex -125.00000 -97.00000 -5.00000
vertex -125.00000 0.00000 -5.00000
endloop
endfacet
facet normal -0.9999999999999999 0 0
outer loop
vertex -143.00000 -93.69481 -30.10545
vertex -143.00000 -97.00000 -5.00000
vertex -143.00000 -0.00000 -5.00000
endloop
endfacet
facet normal -1 0 0
outer loop
vertex -143.00000 -84.00446 -53.50000
vertex -143.00000 -93.69481 -30.10545
vertex -143.00000 -0.00000 -5.00000
endloop
endfacet
facet normal -1 5.660466977375758e-16 -9.804216286020775e-16
outer loop
vertex -143.00000 -68.58936 -73.58936
vertex -143.00000 -84.00446 -53.50000
vertex -143.00000 -0.00000 -5.00000
endloop
endfacet
facet normal -1 -1.7991073864259963e-16 -2.34464192221902e-16
outer loop
vertex -143.00000 -48.50000 -89.00446
vertex -143.00000 -68.58936 -73.58936
vertex -143.00000 -0.00000 -5.00000
endloop
endfacet
facet normal -1 -1.1309664925153268e-16 -2.730393251635138e-16
outer loop
vertex -143.00000 -25.10545 -98.69481
vertex -143.00000 -48.50000 -89.00446
vertex -143.00000 -0.00000 -5.00000
endloop
endfacet
facet normal -1 -3.857509959045083e-17 -2.9300731371550523e-16
outer loop
vertex -143.00000 -0.00000 -102.00000
vertex -143.00000 -25.10545 -98.69481
vertex -143.00000 -0.00000 -5.00000
endloop
endfacet
facet normal -1 3.8575099590450804e-17 -2.9300731371550527e-16
outer loop
vertex -143.00000 25.10545 -98.69481
vertex -143.00000 -0.00000 -102.00000
vertex -143.00000 -0.00000 -5.00000
endloop
endfacet
facet normal -1 1.1309664925153268e-16 -2.730393251635138e-16
outer loop
vertex -143.00000 48.50000 -89.00446
vertex -143.00000 25.10545 -98.69481
vertex -143.00000 -0.00000 -5.00000
endloop
endfacet
facet normal -1 1.7991073864259963e-16 -2.34464192221902e-16
outer loop
vertex -143.00000 68.58936 -73.58936
vertex -143.00000 48.50000 -89.00446
vertex -143.00000 -0.00000 -5.00000
endloop
endfacet
facet normal -1 -5.660466977375758e-16 -9.804216286020775e-16
outer loop
vertex -143.00000 84.00446 -53.50000
vertex -143.00000 68.58936 -73.58936
vertex -143.00000 -0.00000 -5.00000
endloop
endfacet
facet normal -1 0 0
outer loop
vertex -143.00000 93.69481 -30.10545
vertex -143.00000 84.00446 -53.50000
vertex -143.00000 -0.00000 -5.00000
endloop
endfacet
facet normal -1 0 0
outer loop
vertex -143.00000 97.00000 -5.00000
vertex -143.00000 93.69481 -30.10545
vertex -143.00000 -0.00000 -5.00000
endloop
endfacet
facet normal -1 0 0
outer loop
vertex -143.00000 93.69481 20.10545
vertex -143.00000 97.00000 -5.00000
vertex -143.00000 -0.00000 -5.00000
endloop
endfacet
facet normal -1 0 0
outer loop
vertex -143.00000 84.00446 43.50000
vertex -143.00000 93.69481 20.10545
vertex -143.00000 -0.00000 -5.00000
endloop
endfacet
facet normal -1 5.660466977375758e-16 -9.804216286020775e-16
outer loop
vertex -143.00000 68.58936 63.58936
vertex -143.00000 84.00446 43.50000
vertex -143.00000 -0.00000 -5.00000
endloop
endfacet
facet normal -1 -1.7991073864259963e-16 -2.34464192221902e-16
outer loop
vertex -143.00000 48.50000 79.00446
vertex -143.00000 68.58936 63.58936
vertex -143.00000 -0.00000 -5.00000
endloop
endfacet
facet normal -1 -1.1309664925153268e-16 -2.730393251635138e-16
outer loop
vertex -143.00000 25.10545 88.69481
vertex -143.00000 48.50000 79.00446
vertex -143.00000 -0.00000 -5.00000
endloop
endfacet
facet normal -1 -3.857509959045084e-17 -2.9300731371550523e-16
outer loop
vertex -143.00000 0.00000 92.00000
vertex -143.00000 25.10545 88.69481
vertex -143.00000 -0.00000 -5.00000
endloop
endfacet
facet normal -1 3.8575099590450785e-17 -2.9300731371550523e-16
outer loop
vertex -143.00000 -25.10545 88.69481
vertex -143.00000 0.00000 92.00000
vertex -143.00000 -0.00000 -5.00000
endloop
endfacet
facet normal -1 1.1309664925153268e-16 -2.730393251635138e-16
outer loop
vertex -143.00000 -48.50000 79.00446
vertex -143.00000 -25.10545 88.69481
vertex -143.00000 -0.00000 -5.00000
endloop
endfacet
facet normal -1 1.7991073864259963e-16 -2.34464192221902e-16
outer loop
vertex -143.00000 -68.58936 63.58936
vertex -143.00000 -48.50000 79.00446
vertex -143.00000 -0.00000 -5.00000
endloop
endfacet
facet normal -1 -5.660466977375758e-16 -9.804216286020775e-16
outer loop
vertex -143.00000 -84.00446 43.50000
vertex -143.00000 -68.58936 63.58936
vertex -143.00000 -0.00000 -5.00000
endloop
endfacet
facet normal -1 0 0
outer loop
vertex -143.00000 -93.69481 20.10545
vertex -143.00000 -84.00446 43.50000
vertex -143.00000 -0.00000 -5.00000
endloop
endfacet
facet normal -1 0 0
outer loop
vertex -143.00000 -97.00000 -5.00000
vertex -143.00000 -93.69481 20.10545
vertex -143.00000 -0.00000 -5.00000
endloop
endfacet
facet normal 3.0242761438606426e-17 -0.9914448556849585 -0.13052623543116423
outer loop
vertex 144.50000 -70.00000 -5.00000
vertex 121.50000 -70.00000 -5.00000
vertex 144.50000 -67.61481 -23.11733
endloop
endfacet
facet normal 3.3811674021691284e-17 -0.9914448556849585 -0.13052623543116423
outer loop
vertex 121.50000 -70.00000 -5.00000
vertex 121.50000 -67.61481 -23.11733
vertex 144.50000 -67.61481 -23.11733
endloop
endfacet
facet normal 1.1822302419266676e-16 -0.9238795192896747 -0.38268346428488326
outer loop
vertex 144.50000 -67.61481 -23.11733
vertex 121.50000 -67.61481 -23.11733
vertex 144.50000 -60.62178 -40.00000
endloop
endfacet
facet normal 0 -0.9238795192896747 -0.38268346428488337
outer loop
vertex 121.50000 -67.61481 -23.11733
vertex 121.50000 -60.62178 -40.00000
vertex 144.50000 -60.62178 -40.00000
endloop
endfacet
facet normal 0 -0.7933533842102822 -0.6087613717722998
outer loop
vertex 144.50000 -60.62178 -40.00000
vertex 121.50000 -60.62178 -40.00000
vertex 144.50000 -49.49747 -54.49747
endloop
endfacet
facet normal 0 -0.7933533842102822 -0.6087613717722998
outer loop
vertex 121.50000 -60.62178 -40.00000
vertex 121.50000 -49.49747 -54.49747
vertex 144.50000 -49.49747 -54.49747
endloop
endfacet
facet normal 0 -0.6087613717722998 -0.7933533842102822
outer loop
vertex 144.50000 -49.49747 -54.49747
vertex 121.50000 -49.49747 -54.49747
vertex 144.50000 -35.00000 -65.62178
endloop
endfacet
facet normal 0 -0.6087613717722998 -0.7933533842102822
outer loop
vertex 121.50000 -49.49747 -54.49747
vertex 121.50000 -35.00000 -65.62178
vertex 144.50000 -35.00000 -65.62178
endloop
endfacet
facet normal 0 -0.3826834642848833 -0.9238795192896747
outer loop
vertex 144.50000 -35.00000 -65.62178
vertex 121.50000 -35.00000 -65.62178
vertex 144.50000 -18.11733 -72.61481
endloop
endfacet
facet normal 0 -0.3826834642848833 -0.9238795192896747
outer loop
vertex 121.50000 -35.00000 -65.62178
vertex 121.50000 -18.11733 -72.61481
vertex 144.50000 -18.11733 -72.61481
endloop
endfacet
facet normal 0 -0.13052623543116426 -0.9914448556849584
outer loop
vertex 144.50000 -18.11733 -72.61481
vertex 121.50000 -18.11733 -72.61481
vertex 144.50000 -0.00000 -75.00000
endloop
endfacet
facet normal 0 -0.1305262354311643 -0.9914448556849585
outer loop
vertex 121.50000 -18.11733 -72.61481
vertex 121.50000 -0.00000 -75.00000
vertex 144.50000 -0.00000 -75.00000
endloop
endfacet
facet normal -7.992427245137e-18 0.1305262354311642 -0.9914448556849584
outer loop
vertex 144.50000 -0.00000 -75.00000
vertex 121.50000 -0.00000 -75.00000
vertex 144.50000 18.11733 -72.61481
endloop
endfacet
facet normal 0 0.1305262354311642 -0.9914448556849585
outer loop
vertex 121.50000 -0.00000 -75.00000
vertex 121.50000 18.11733 -72.61481
vertex 144.50000 18.11733 -72.61481
endloop
endfacet
facet normal 0 0.3826834642848833 -0.9238795192896747
outer loop
vertex 144.50000 18.11733 -72.61481
vertex 121.50000 18.11733 -72.61481
vertex 144.50000 35.00000 -65.62178
endloop
endfacet
facet normal 0 0.3826834642848833 -0.9238795192896747
outer loop
vertex 121.50000 18.11733 -72.61481
vertex 121.50000 35.00000 -65.62178
vertex 144.50000 35.00000 -65.62178
endloop
endfacet
facet normal 0 0.6087613717722998 -0.7933533842102822
outer loop
vertex 144.50000 35.00000 -65.62178
vertex 121.50000 35.00000 -65.62178
vertex 144.50000 49.49747 -54.49747
endloop
endfacet
facet normal 0 0.6087613717722998 -0.7933533842102822
outer loop
vertex 121.50000 35.00000 -65.62178
vertex 121.50000 49.49747 -54.49747
vertex 144.50000 49.49747 -54.49747
endloop
endfacet
facet normal 0 0.7933533842102822 -0.6087613717722998
outer loop
vertex 144.50000 49.49747 -54.49747
vertex 121.50000 49.49747 -54.49747
vertex 144.50000 60.62178 -40.00000
endloop
endfacet
facet normal 0 0.7933533842102822 -0.6087613717722998
outer loop
vertex 121.50000 49.49747 -54.49747
vertex 121.50000 60.62178 -40.00000
vertex 144.50000 60.62178 -40.00000
endloop
endfacet
facet normal 0 0.9238795192896747 -0.38268346428488326
outer loop
vertex 144.50000 60.62178 -40.00000
vertex 121.50000 60.62178 -40.00000
vertex 144.50000 67.61481 -23.11733
endloop
endfacet
facet normal 1.35246684114498e-16 0.9238795192896747 -0.38268346428488337
outer loop
vertex 121.50000 60.62178 -40.00000
vertex 121.50000 67.61481 -23.11733
vertex 144.50000 67.61481 -23.11733
endloop
endfacet
facet normal 4.032368191814192e-17 0.9914448556849585 -0.13052623543116432
outer loop
vertex 144.50000 67.61481 -23.11733
vertex 121.50000 67.61481 -23.11733
vertex 144.50000 70.00000 -5.00000
endloop
endfacet
facet normal 1.6905837010845648e-17 0.9914448556849585 -0.1305262354311643
outer loop
vertex 121.50000 67.61481 -23.11733
vertex 121.50000 70.00000 -5.00000
vertex 144.50000 70.00000 -5.00000
endloop
endfacet
facet normal -3.024276143860641e-17 0.9914448556849585 0.13052623543116418
outer loop
vertex 144.50000 70.00000 -5.00000
vertex 121.50000 70.00000 -5.00000
vertex 144.50000 67.61481 13.11733
endloop
endfacet
facet normal -5.071751103253691e-17 0.9914448556849585 0.1305262354311642
outer loop
vertex 121.50000 70.00000 -5.00000
vertex 121.50000 67.61481 13.11733
vertex 144.50000 67.61481 13.11733
endloop
endfacet
facet normal -1.182230241926668e-16 0.9238795192896747 0.38268346428488337
outer loop
vertex 144.50000 67.61481 13.11733
vertex 121.50000 67.61481 13.11733
vertex 144.50000 60.62178 30.00000
endloop
endfacet
facet normal 0 0.9238795192896747 0.38268346428488326
outer loop
vertex 121.50000 67.61481 13.11733
vertex 121.50000 60.62178 30.00000
vertex 144.50000 60.62178 30.00000
endloop
endfacet
facet normal 0 0.7933533842102822 0.6087613717722998
outer loop
vertex 144.50000 60.62178 30.00000
vertex 121.50000 60.62178 30.00000
vertex 144.50000 49.49747 44.49747
endloop
endfacet
facet normal 0 0.7933533842102823 0.6087613717722999
outer loop
vertex 121.50000 60.62178 30.00000
vertex 121.50000 49.49747 44.49747
vertex 144.50000 49.49747 44.49747
endloop
endfacet
facet normal 0 0.6087613717722999 0.7933533842102823
outer loop
vertex 144.50000 49.49747 44.49747
vertex 121.50000 49.49747 44.49747
vertex 144.50000 35.00000 55.62178
endloop
endfacet
facet normal 0 0.6087613717722999 0.7933533842102823
outer loop
vertex 121.50000 49.49747 44.49747
vertex 121.50000 35.00000 55.62178
vertex 144.50000 35.00000 55.62178
endloop
endfacet
facet normal 0 0.3826834642848833 0.9238795192896747
outer loop
vertex 144.50000 35.00000 55.62178
vertex 121.50000 35.00000 55.62178
vertex 144.50000 18.11733 62.61481
endloop
endfacet
facet normal 0 0.3826834642848833 0.9238795192896747
outer loop
vertex 121.50000 35.00000 55.62178
vertex 121.50000 18.11733 62.61481
vertex 144.50000 18.11733 62.61481
endloop
endfacet
facet normal 0 0.13052623543116434 0.9914448556849585
outer loop
vertex 144.50000 18.11733 62.61481
vertex 121.50000 18.11733 62.61481
vertex 144.50000 0.00000 65.00000
endloop
endfacet
facet normal -1.6905837010845664e-17 0.13052623543116432 0.9914448556849585
outer loop
vertex 121.50000 18.11733 62.61481
vertex 121.50000 0.00000 65.00000
vertex 144.50000 0.00000 65.00000
endloop
endfacet
facet normal 7.992422438179531e-18 -0.13052623543116415 0.9914448556849585
outer loop
vertex 144.50000 0.00000 65.00000
vertex 121.50000 0.00000 65.00000
vertex 144.50000 -18.11733 62.61481
endloop
endfacet
facet normal 0 -0.13052623543116418 0.9914448556849584
outer loop
vertex 121.50000 0.00000 65.00000
vertex 121.50000 -18.11733 62.61481
vertex 144.50000 -18.11733 62.61481
endloop
endfacet
facet normal 0 -0.3826834642848833 0.9238795192896747
outer loop
vertex 144.50000 -18.11733 62.61481
vertex 121.50000 -18.11733 62.61481
vertex 144.50000 -35.00000 55.62178
endloop
endfacet
facet normal 0 -0.3826834642848833 0.9238795192896747
outer loop
vertex 121.50000 -18.11733 62.61481
vertex 121.50000 -35.00000 55.62178
vertex 144.50000 -35.00000 55.62178
endloop
endfacet
facet normal 0 -0.6087613717722999 0.7933533842102823
outer loop
vertex 144.50000 -35.00000 55.62178
vertex 121.50000 -35.00000 55.62178
vertex 144.50000 -49.49747 44.49747
endloop
endfacet
facet normal 0 -0.6087613717722999 0.7933533842102823
outer loop
vertex 121.50000 -35.00000 55.62178
vertex 121.50000 -49.49747 44.49747
vertex 144.50000 -49.49747 44.49747
endloop
endfacet
facet normal 0 -0.7933533842102823 0.6087613717722999
outer loop
vertex 144.50000 -49.49747 44.49747
vertex 121.50000 -49.49747 44.49747
vertex 144.50000 -60.62178 30.00000
endloop
endfacet
facet normal 0 -0.7933533842102822 0.6087613717722998
outer loop
vertex 121.50000 -49.49747 44.49747
vertex 121.50000 -60.62178 30.00000
vertex 144.50000 -60.62178 30.00000
endloop
endfacet
facet normal 0 -0.9238795192896747 0.38268346428488337
outer loop
vertex 144.50000 -60.62178 30.00000
vertex 121.50000 -60.62178 30.00000
vertex 144.50000 -67.61481 13.11733
endloop
endfacet
facet normal -1.3524668411449795e-16 -0.9238795192896747 0.38268346428488326
outer loop
vertex 121.50000 -60.62178 30.00000
vertex 121.50000 -67.61481 13.11733
vertex 144.50000 -67.61481 13.11733
endloop
endfacet
facet normal -4.0323681918141925e-17 -0.9914448556849584 0.13052623543116434
outer loop
vertex 144.50000 -67.61481 13.11733
vertex 121.50000 -67.61481 13.11733
vertex 144.50000 -70.00000 -5.00000
endloop
endfacet
facet normal -1.6905837010845657e-17 -0.9914448556849585 0.13052623543116437
outer loop
vertex 121.50000 -67.61481 13.11733
vertex 121.50000 -70.00000 -5.00000
vertex 144.50000 -70.00000 -5.00000
endloop
endfacet
facet normal 1 0 0
outer loop
vertex 144.50000 -70.00000 -5.00000
vertex 144.50000 -67.61481 -23.11733
vertex 144.50000 0.00000 -5.00000
endloop
endfacet
facet normal 1 0 0
outer loop
vertex 144.50000 -67.61481 -23.11733
vertex 144.50000 -60.62178 -40.00000
vertex 144.50000 0.00000 -5.00000
endloop
endfacet
facet normal 1 0 0
outer loop
vertex 144.50000 -60.62178 -40.00000
vertex 144.50000 -49.49747 -54.49747
vertex 144.50000 0.00000 -5.00000
endloop
endfacet
facet normal 1 0 0
outer loop
vertex 144.50000 -49.49747 -54.49747
vertex 144.50000 -35.00000 -65.62178
vertex 144.50000 0.00000 -5.00000
endloop
endfacet
facet normal 1 0 0
outer loop
vertex 144.50000 -35.00000 -65.62178
vertex 144.50000 -18.11733 -72.61481
vertex 144.50000 0.00000 -5.00000
endloop
endfacet
facet normal 1 -1.5153038086696854e-15 4.0602442043434305e-16
outer loop
vertex 144.50000 -18.11733 -72.61481
vertex 144.50000 -0.00000 -75.00000
vertex 144.50000 0.00000 -5.00000
endloop
endfacet
facet normal 1 1.515303808669685e-15 4.060244204343429e-16
outer loop
vertex 144.50000 -0.00000 -75.00000
vertex 144.50000 18.11733 -72.61481
vertex 144.50000 0.00000 -5.00000
endloop
endfacet
facet normal 1 0 0
outer loop
vertex 144.50000 18.11733 -72.61481
vertex 144.50000 35.00000 -65.62178
vertex 144.50000 0.00000 -5.00000
endloop
endfacet
facet normal 1 0 0
outer loop
vertex 144.50000 35.00000 -65.62178
vertex 144.50000 49.49747 -54.49747
vertex 144.50000 0.00000 -5.00000
endloop
endfacet
facet normal 1 0 0
outer loop
vertex 144.50000 49.49747 -54.49747
vertex 144.50000 60.62178 -40.00000
vertex 144.50000 0.00000 -5.00000
endloop
endfacet
facet normal 1 0 0
outer loop
vertex 144.50000 60.62178 -40.00000
vertex 144.50000 67.61481 -23.11733
vertex 144.50000 0.00000 -5.00000
endloop
endfacet
facet normal 1 0 0
outer loop
vertex 144.50000 67.61481 -23.11733
vertex 144.50000 70.00000 -5.00000
vertex 144.50000 0.00000 -5.00000
endloop
endfacet
facet normal 1 0 0
outer loop
vertex 144.50000 70.00000 -5.00000
vertex 144.50000 67.61481 13.11733
vertex 144.50000 0.00000 -5.00000
endloop
endfacet
facet normal 1 0 0
outer loop
vertex 144.50000 67.61481 13.11733
vertex 144.50000 60.62178 30.00000
vertex 144.50000 0.00000 -5.00000
endloop
endfacet
facet normal 1 0 0
outer loop
vertex 144.50000 60.62178 30.00000
vertex 144.50000 49.49747 44.49747
vertex 144.50000 0.00000 -5.00000
endloop
endfacet
facet normal 1 0 0
outer loop
vertex 144.50000 49.49747 44.49747
vertex 144.50000 35.00000 55.62178
vertex 144.50000 0.00000 -5.00000
endloop
endfacet
facet normal 1 0 0
outer loop
vertex 144.50000 35.00000 55.62178
vertex 144.50000 18.11733 62.61481
vertex 144.50000 0.00000 -5.00000
endloop
endfacet
facet normal 1 -1.5153038086696862e-15 4.0602442043434325e-16
outer loop
vertex 144.50000 18.11733 62.61481
vertex 144.50000 0.00000 65.00000
vertex 144.50000 0.00000 -5.00000
endloop
endfacet
facet normal 1 1.5153038086696842e-15 4.060244204343427e-16
outer loop
vertex 144.50000 0.00000 65.00000
vertex 144.50000 -18.11733 62.61481
vertex 144.50000 0.00000 -5.00000
endloop
endfacet
facet normal 1 0 0
outer loop
vertex 144.50000 -18.11733 62.61481
vertex 144.50000 -35.00000 55.62178
vertex 144.50000 0.00000 -5.00000
endloop
endfacet
facet normal 1 0 0
outer loop
vertex 144.50000 -35.00000 55.62178
vertex 144.50000 -49.49747 44.49747
vertex 144.50000 0.00000 -5.00000
endloop
endfacet
facet normal 1 0 0
outer loop
vertex 144.50000 -49.49747 44.49747
vertex 144.50000 -60.62178 30.00000
vertex 144.50000 0.00000 -5.00000
endloop
endfacet
facet normal 1 0 0
outer loop
vertex 144.50000 -60.62178 30.00000
vertex 144.50000 -67.61481 13.11733
vertex 144.50000 0.00000 -5.00000
endloop
endfacet
facet normal 1 0 0
outer loop
vertex 144.50000 -67.61481 13.11733
vertex 144.50000 -70.00000 -5.00000
vertex 144.50000 0.00000 -5.00000
endloop
endfacet
facet normal -1 0 0
outer loop
vertex 121.50000 -67.61481 -23.11733
vertex 121.50000 -70.00000 -5.00000
vertex 121.50000 -0.00000 -5.00000
endloop
endfacet
facet normal -1 0 0
outer loop
vertex 121.50000 -60.62178 -40.00000
vertex 121.50000 -67.61481 -23.11733
vertex 121.50000 -0.00000 -5.00000
endloop
endfacet
facet normal -1 3.921894996801196e-16 -6.792921207699452e-16
outer loop
vertex 121.50000 -49.49747 -54.49747
vertex 121.50000 -60.62178 -40.00000
vertex 121.50000 -0.00000 -5.00000
endloop
endfacet
facet normal -1 -1.2465241144372937e-16 -1.6245020964609616e-16
outer loop
vertex 121.50000 -35.00000 -65.62178
vertex 121.50000 -49.49747 -54.49747
vertex 121.50000 -0.00000 -5.00000
endloop
endfacet
facet normal -1 -7.835979620564327e-17 -1.891772642577865e-16
outer loop
vertex 121.50000 -18.11733 -72.61481
vertex 121.50000 -35.00000 -65.62178
vertex 121.50000 -0.00000 -5.00000
endloop
endfacet
facet normal -1 -2.6727073517266473e-17 -2.0301221021717148e-16
outer loop
vertex 121.50000 -0.00000 -75.00000
vertex 121.50000 -18.11733 -72.61481
vertex 121.50000 -0.00000 -5.00000
endloop
endfacet
facet normal -1 2.6727073517266467e-17 -2.030122102171715e-16
outer loop
vertex 121.50000 18.11733 -72.61481
vertex 121.50000 -0.00000 -75.00000
vertex 121.50000 -0.00000 -5.00000
endloop
endfacet
facet normal -1 7.835979620564327e-17 -1.891772642577865e-16
outer loop
vertex 121.50000 35.00000 -65.62178
vertex 121.50000 18.11733 -72.61481
vertex 121.50000 -0.00000 -5.00000
endloop
endfacet
facet normal -1 1.2465241144372937e-16 -1.6245020964609616e-16
outer loop
vertex 121.50000 49.49747 -54.49747
vertex 121.50000 35.00000 -65.62178
vertex 121.50000 -0.00000 -5.00000
endloop
endfacet
facet normal -1 -3.921894996801196e-16 -6.792921207699452e-16
outer loop
vertex 121.50000 60.62178 -40.00000
vertex 121.50000 49.49747 -54.49747
vertex 121.50000 -0.00000 -5.00000
endloop
endfacet
facet normal -1 0 0
outer loop
vertex 121.50000 67.61481 -23.11733
vertex 121.50000 60.62178 -40.00000
vertex 121.50000 -0.00000 -5.00000
endloop
endfacet
facet normal -0.9999999999999999 0 0
outer loop
vertex 121.50000 70.00000 -5.00000
vertex 121.50000 67.61481 -23.11733
vertex 121.50000 -0.00000 -5.00000
endloop
endfacet
facet normal -1 0 0
outer loop
vertex 121.50000 67.61481 13.11733
vertex 121.50000 70.00000 -5.00000
vertex 121.50000 -0.00000 -5.00000
endloop
endfacet
facet normal -1 0 0
outer loop
vertex 121.50000 60.62178 30.00000
vertex 121.50000 67.61481 13.11733
vertex 121.50000 -0.00000 -5.00000
endloop
endfacet
facet normal -1 3.921894996801196e-16 -6.792921207699452e-16
outer loop
vertex 121.50000 49.49747 44.49747
vertex 121.50000 60.62178 30.00000
vertex 121.50000 -0.00000 -5.00000
endloop
endfacet
facet normal -1 -1.2465241144372937e-16 -1.6245020964609616e-16
outer loop
vertex 121.50000 35.00000 55.62178
vertex 121.50000 49.49747 44.49747
vertex 121.50000 -0.00000 -5.00000
endloop
endfacet
facet normal -1 -7.835979620564327e-17 -1.891772642577865e-16
outer loop
vertex 121.50000 18.11733 62.61481
vertex 121.50000 35.00000 55.62178
vertex 121.50000 -0.00000 -5.00000
endloop
endfacet
facet normal -1 -2.6727073517266486e-17 -2.0301221021717148e-16
outer loop
vertex 121.50000 0.00000 65.00000
vertex 121.50000 18.11733 62.61481
vertex 121.50000 -0.00000 -5.00000
endloop
endfacet
facet normal -1 2.6727073517266455e-17 -2.030122102171715e-16
outer loop
vertex 121.50000 -18.11733 62.61481
vertex 121.50000 0.00000 65.00000
vertex 121.50000 -0.00000 -5.00000
endloop
endfacet
facet normal -1 7.835979620564327e-17 -1.891772642577865e-16
outer loop
vertex 121.50000 -35.00000 55.62178
vertex 121.50000 -18.11733 62.61481
vertex 121.50000 -0.00000 -5.00000
endloop
endfacet
facet normal -1 1.2465241144372937e-16 -1.6245020964609616e-16
outer loop
vertex 121.50000 -49.49747 44.49747
vertex 121.50000 -35.00000 55.62178
vertex 121.50000 -0.00000 -5.00000
endloop
endfacet
facet normal -1 -3.921894996801196e-16 -6.792921207699452e-16
outer loop
vertex 121.50000 -60.62178 30.00000
vertex 121.50000 -49.49747 44.49747
vertex 121.50000 -0.00000 -5.00000
endloop
endfacet
facet normal -1 0 0
outer loop
vertex 121.50000 -67.61481 13.11733
vertex 121.50000 -60.62178 30.00000
vertex 121.50000 -0.00000 -5.00000
endloop
endfacet
facet normal -0.9999999999999999 0 0
outer loop
vertex 121.50000 -70.00000 -5.00000
vertex 121.50000 -67.61481 13.11733
vertex 121.50000 -0.00000 -5.00000
endloop
endfacet
facet normal 1 0 0
outer loop
vertex -85.00000 -49.00000 18.00000
vertex -85.00000 -139.00000 18.00000
vertex -85.00000 -49.00000 -24.00000
endloop
endfacet
facet normal 1 0 0
outer loop
vertex -85.00000 -139.00000 18.00000
vertex -85.00000 -139.00000 -24.00000
vertex -85.00000 -49.00000 -24.00000
endloop
endfacet
facet normal -1 0 0
outer loop
vertex -105.00000 -49.00000 -24.00000
vertex -105.00000 -139.00000 -24.00000
vertex -105.00000 -49.00000 18.00000
endloop
endfacet
facet normal -1 0 0
outer loop
vertex -105.00000 -139.00000 -24.00000
vertex -105.00000 -139.00000 18.00000
vertex -105.00000 -49.00000 18.00000
endloop
endfacet
facet normal 0 1 0
outer loop
vertex -105.00000 -49.00000 -24.00000
vertex -105.00000 -49.00000 18.00000
vertex -85.00000 -49.00000 -24.00000
endloop
endfacet
facet normal 0 1 0
outer loop
vertex -105.00000 -49.00000 18.00000
vertex -85.00000 -49.00000 18.00000
vertex -85.00000 -49.00000 -24.00000
endloop
endfacet
facet normal 0 -1 0
outer loop
vertex -105.00000 -139.00000 18.00000
vertex -105.00000 -139.00000 -24.00000
vertex -85.00000 -139.00000 18.00000
endloop
endfacet
facet normal 0 -1 0
outer loop
vertex -105.00000 -139.00000 -24.00000
vertex -85.00000 -139.00000 -24.00000
vertex -85.00000 -139.00000 18.00000
endloop
endfacet
facet normal 0 0 1
outer loop
vertex -105.00000 -49.00000 18.00000
vertex -105.00000 -139.00000 18.00000
vertex -85.00000 -49.00000 18.00000
endloop
endfacet
facet normal 0 0 1
outer loop
vertex -105.00000 -139.00000 18.00000
vertex -85.00000 -139.00000 18.00000
vertex -85.00000 -49.00000 18.00000
endloop
endfacet
facet normal 0 0 -1
outer loop
vertex -85.00000 -49.00000 -24.00000
vertex -85.00000 -139.00000 -24.00000
vertex -105.00000 -49.00000 -24.00000
endloop
endfacet
facet normal 0 0 -1
outer loop
vertex -85.00000 -139.00000 -24.00000
vertex -105.00000 -139.00000 -24.00000
vertex -105.00000 -49.00000 -24.00000
endloop
endfacet
facet normal 1 0 0
outer loop
vertex 115.00000 -49.00000 18.00000
vertex 115.00000 -139.00000 18.00000
vertex 115.00000 -49.00000 -24.00000
endloop
endfacet
facet normal 1 0 0
outer loop
vertex 115.00000 -139.00000 18.00000
vertex 115.00000 -139.00000 -24.00000
vertex 115.00000 -49.00000 -24.00000
endloop
endfacet
facet normal -1 0 0
outer loop
vertex 95.00000 -49.00000 -24.00000
vertex 95.00000 -139.00000 -24.00000
vertex 95.00000 -49.00000 18.00000
endloop
endfacet
facet normal -1 0 0
outer loop
vertex 95.00000 -139.00000 -24.00000
vertex 95.00000 -139.00000 18.00000
vertex 95.00000 -49.00000 18.00000
endloop
endfacet
facet normal 0 1 0
outer loop
vertex 95.00000 -49.00000 -24.00000
vertex 95.00000 -49.00000 18.00000
vertex 115.00000 -49.00000 -24.00000
endloop
endfacet
facet normal 0 1 0
outer loop
vertex 95.00000 -49.00000 18.00000
vertex 115.00000 -49.00000 18.00000
vertex 115.00000 -49.00000 -24.00000
endloop
endfacet
facet normal 0 -1 0
outer loop
vertex 95.00000 -139.00000 18.00000
vertex 95.00000 -139.00000 -24.00000
vertex 115.00000 -139.00000 18.00000
endloop
endfacet
facet normal 0 -1 0
outer loop
vertex 95.00000 -139.00000 -24.00000
vertex 115.00000 -139.00000 -24.00000
vertex 115.00000 -139.00000 18.00000
endloop
endfacet
facet normal 0 0 1
outer loop
vertex 95.00000 -49.00000 18.00000
vertex 95.00000 -139.00000 18.00000
vertex 115.00000 -49.00000 18.00000
endloop
endfacet
facet normal 0 0 1
outer loop
vertex 95.00000 -139.00000 18.00000
vertex 115.00000 -139.00000 18.00000
vertex 115.00000 -49.00000 18.00000
endloop
endfacet
facet normal 0 0 -1
outer loop
vertex 115.00000 -49.00000 -24.00000
vertex 115.00000 -139.00000 -24.00000
vertex 95.00000 -49.00000 -24.00000
endloop
endfacet
facet normal 0 0 -1
outer loop
vertex 115.00000 -139.00000 -24.00000
vertex 95.00000 -139.00000 -24.00000
vertex 95.00000 -49.00000 -24.00000
endloop
endfacet
endsolid XR_DEMO_NONFUNCTIONAL
