solid XR_DEMO_NONFUNCTIONAL
facet normal 2.8982661574634745e-17 0.13052630386773023 0.9914448466751082
outer loop
vertex 57.50000 0.00000 23.00000
vertex 112.50000 -0.00000 23.00000
vertex 57.50000 5.95284 22.21629
endloop
endfacet
facet normal 2.958521382302156e-17 0.13052630386773023 0.9914448466751082
outer loop
vertex 112.50000 -0.00000 23.00000
vertex 112.50000 5.95284 22.21629
vertex 57.50000 5.95284 22.21629
endloop
endfacet
facet normal 8.651771138625754e-17 0.3826832553893815 0.9238796058170056
outer loop
vertex 57.50000 5.95284 22.21629
vertex 112.50000 5.95284 22.21629
vertex 57.50000 11.50000 19.91858
endloop
endfacet
facet normal 7.530782164821169e-17 0.38268325538938136 0.9238796058170056
outer loop
vertex 112.50000 5.95284 22.21629
vertex 112.50000 11.50000 19.91858
vertex 57.50000 11.50000 19.91858
endloop
endfacet
facet normal 1.1796845495178759e-16 0.6087614153526856 0.7933533507698793
outer loop
vertex 57.50000 11.50000 19.91858
vertex 112.50000 11.50000 19.91858
vertex 57.50000 16.26346 16.26346
endloop
endfacet
facet normal 1.6137388279157885e-16 0.6087614153526859 0.7933533507698791
outer loop
vertex 112.50000 11.50000 19.91858
vertex 112.50000 16.26346 16.26346
vertex 57.50000 16.26346 16.26346
endloop
endfacet
facet normal 2.049859855565354e-16 0.7933533507698791 0.6087614153526856
outer loop
vertex 57.50000 16.26346 16.26346
vertex 112.50000 16.26346 16.26346
vertex 57.50000 19.91858 11.50000
endloop
endfacet
facet normal 2.0440691820266648e-16 0.7933533507698791 0.6087614153526856
outer loop
vertex 112.50000 16.26346 16.26346
vertex 112.50000 19.91858 11.50000
vertex 57.50000 19.91858 11.50000
endloop
endfacet
facet normal 2.3871125186551933e-16 0.9238796058170056 0.38268325538938147
outer loop
vertex 57.50000 19.91858 11.50000
vertex 112.50000 19.91858 11.50000
vertex 57.50000 22.21629 5.95284
endloop
endfacet
facet normal 2.3668172518009395e-16 0.9238796058170056 0.38268325538938147
outer loop
vertex 112.50000 19.91858 11.50000
vertex 112.50000 22.21629 5.95284
vertex 57.50000 22.21629 5.95284
endloop
endfacet
facet normal 2.5616870316792164e-16 0.9914448466751082 0.1305263038677303
outer loop
vertex 57.50000 22.21629 5.95284
vertex 112.50000 22.21629 5.95284
vertex 57.50000 23.00000 0.00000
endloop
endfacet
facet normal 2.581982297281882e-16 0.9914448466751082 0.1305263038677303
outer loop
vertex 112.50000 22.21629 5.95284
vertex 112.50000 23.00000 0.00000
vertex 57.50000 23.00000 0.00000
endloop
endfacet
facet normal 2.561687031679216e-16 0.9914448466751082 -0.13052630386773018
outer loop
vertex 57.50000 23.00000 0.00000
vertex 112.50000 23.00000 0.00000
vertex 57.50000 22.21629 -5.95284
endloop
endfacet
facet normal 2.58198229728188e-16 0.9914448466751082 -0.13052630386773018
outer loop
vertex 112.50000 23.00000 0.00000
vertex 112.50000 22.21629 -5.95284
vertex 57.50000 22.21629 -5.95284
endloop
endfacet
facet normal 2.3871125186551933e-16 0.9238796058170056 -0.38268325538938147
outer loop
vertex 57.50000 22.21629 -5.95284
vertex 112.50000 22.21629 -5.95284
vertex 57.50000 19.91858 -11.50000
endloop
endfacet
facet normal 2.3668172518009395e-16 0.9238796058170056 -0.38268325538938147
outer loop
vertex 112.50000 22.21629 -5.95284
vertex 112.50000 19.91858 -11.50000
vertex 57.50000 19.91858 -11.50000
endloop
endfacet
facet normal 2.049859855565354e-16 0.7933533507698791 -0.6087614153526856
outer loop
vertex 57.50000 19.91858 -11.50000
vertex 112.50000 19.91858 -11.50000
vertex 57.50000 16.26346 -16.26346
endloop
endfacet
facet normal 2.0440691820266648e-16 0.7933533507698791 -0.6087614153526856
outer loop
vertex 112.50000 19.91858 -11.50000
vertex 112.50000 16.26346 -16.26346
vertex 57.50000 16.26346 -16.26346
endloop
endfacet
facet normal 1.5729127326905012e-16 0.6087614153526856 -0.7933533507698793
outer loop
vertex 57.50000 16.26346 -16.26346
vertex 112.50000 16.26346 -16.26346
vertex 57.50000 11.50000 -19.91858
endloop
endfacet
facet normal 1.1834084738049116e-16 0.6087614153526859 -0.7933533507698791
outer loop
vertex 112.50000 16.26346 -16.26346
vertex 112.50000 11.50000 -19.91858
vertex 57.50000 11.50000 -19.91858
endloop
endfacet
facet normal 7.41580383310779e-17 0.3826832553893815 -0.9238796058170056
outer loop
vertex 57.50000 11.50000 -19.91858
vertex 112.50000 11.50000 -19.91858
vertex 57.50000 5.95284 -22.21629
endloop
endfacet
facet normal 8.606608188367051e-17 0.38268325538938136 -0.9238796058170056
outer loop
vertex 112.50000 11.50000 -19.91858
vertex 112.50000 5.95284 -22.21629
vertex 57.50000 5.95284 -22.21629
endloop
endfacet
facet normal 2.950961905780994e-17 0.1305263038677303 -0.9914448466751082
outer loop
vertex 57.50000 5.95284 -22.21629
vertex 112.50000 5.95284 -22.21629
vertex 57.50000 0.00000 -23.00000
endloop
endfacet
facet normal 2.958521382302157e-17 0.1305263038677303 -0.9914448466751082
outer loop
vertex 112.50000 5.95284 -22.21629
vertex 112.50000 -0.00000 -23.00000
vertex 57.50000 0.00000 -23.00000
endloop
endfacet
facet normal -2.898266157463473e-17 -0.13052630386773018 -0.9914448466751082
outer loop
vertex 57.50000 0.00000 -23.00000
vertex 112.50000 -0.00000 -23.00000
vertex 57.50000 -5.95284 -22.21629
endloop
endfacet
facet normal -2.958521382302154e-17 -0.13052630386773018 -0.9914448466751082
outer loop
vertex 112.50000 -0.00000 -23.00000
vertex 112.50000 -5.95284 -22.21629
vertex 57.50000 -5.95284 -22.21629
endloop
endfacet
facet normal -8.651771138625751e-17 -0.38268325538938136 -0.9238796058170056
outer loop
vertex 57.50000 -5.95284 -22.21629
vertex 112.50000 -5.95284 -22.21629
vertex 57.50000 -11.50000 -19.91858
endloop
endfacet
facet normal -7.530782164821173e-17 -0.3826832553893815 -0.9238796058170056
outer loop
vertex 112.50000 -5.95284 -22.21629
vertex 112.50000 -11.50000 -19.91858
vertex 57.50000 -11.50000 -19.91858
endloop
endfacet
facet normal -1.1796845495178766e-16 -0.6087614153526859 -0.7933533507698791
outer loop
vertex 57.50000 -11.50000 -19.91858
vertex 112.50000 -11.50000 -19.91858
vertex 57.50000 -16.26346 -16.26346
endloop
endfacet
facet normal -1.6137388279157876e-16 -0.6087614153526856 -0.7933533507698793
outer loop
vertex 112.50000 -11.50000 -19.91858
vertex 112.50000 -16.26346 -16.26346
vertex 57.50000 -16.26346 -16.26346
endloop
endfacet
facet normal -2.049859855565354e-16 -0.7933533507698791 -0.6087614153526856
outer loop
vertex 57.50000 -16.26346 -16.26346
vertex 112.50000 -16.26346 -16.26346
vertex 57.50000 -19.91858 -11.50000
endloop
endfacet
facet normal -2.0440691820266648e-16 -0.7933533507698791 -0.6087614153526856
outer loop
vertex 112.50000 -16.26346 -16.26346
vertex 112.50000 -19.91858 -11.50000
vertex 57.50000 -19.91858 -11.50000
endloop
endfacet
facet normal -2.3871125186551933e-16 -0.9238796058170056 -0.38268325538938147
outer loop
vertex 57.50000 -19.91858 -11.50000
vertex 112.50000 -19.91858 -11.50000
vertex 57.50000 -22.21629 -5.95284
endloop
endfacet
facet normal -2.3668172518009395e-16 -0.9238796058170056 -0.38268325538938147
outer loop
vertex 112.50000 -19.91858 -11.50000
vertex 112.50000 -22.21629 -5.95284
vertex 57.50000 -22.21629 -5.95284
endloop
endfacet
facet normal -2.561687031679216e-16 -0.9914448466751081 -0.13052630386773031
outer loop
vertex 57.50000 -22.21629 -5.95284
vertex 112.50000 -22.21629 -5.95284
vertex 57.50000 -23.00000 -0.00000
endloop
endfacet
facet normal -2.5550866483518633e-16 -0.9914448466751081 -0.13052630386773031
outer loop
vertex 112.50000 -22.21629 -5.95284
vertex 112.50000 -23.00000 -0.00000
vertex 57.50000 -23.00000 -0.00000
endloop
endfacet
facet normal -2.5616870316792164e-16 -0.9914448466751082 0.13052630386773015
outer loop
vertex 57.50000 -23.00000 -0.00000
vertex 112.50000 -23.00000 -0.00000
vertex 57.50000 -22.21629 5.95284
endloop
endfacet
facet normal -2.55508664835186e-16 -0.9914448466751082 0.13052630386773015
outer loop
vertex 112.50000 -23.00000 -0.00000
vertex 112.50000 -22.21629 5.95284
vertex 57.50000 -22.21629 5.95284
endloop
endfacet
facet normal -2.3871125186551933e-16 -0.9238796058170056 0.38268325538938147
outer loop
vertex 57.50000 -22.21629 5.95284
vertex 112.50000 -22.21629 5.95284
vertex 57.50000 -19.91858 11.50000
endloop
endfacet
facet normal -2.3668172518009395e-16 -0.9238796058170056 0.38268325538938147
outer loop
vertex 112.50000 -22.21629 5.95284
vertex 112.50000 -19.91858 11.50000
vertex 57.50000 -19.91858 11.50000
endloop
endfacet
facet normal -2.049859855565354e-16 -0.7933533507698791 0.6087614153526856
outer loop
vertex 57.50000 -19.91858 11.50000
vertex 112.50000 -19.91858 11.50000
vertex 57.50000 -16.26346 16.26346
endloop
endfacet
facet normal -2.0440691820266648e-16 -0.7933533507698791 0.6087614153526856
outer loop
vertex 112.50000 -19.91858 11.50000
vertex 112.50000 -16.26346 16.26346
vertex 57.50000 -16.26346 16.26346
endloop
endfacet
facet normal -1.572912732690502e-16 -0.6087614153526859 0.7933533507698791
outer loop
vertex 57.50000 -16.26346 16.26346
vertex 112.50000 -16.26346 16.26346
vertex 57.50000 -11.50000 19.91858
endloop
endfacet
facet normal -1.1834084738049108e-16 -0.6087614153526856 0.7933533507698793
outer loop
vertex 112.50000 -16.26346 16.26346
vertex 112.50000 -11.50000 19.91858
vertex 57.50000 -11.50000 19.91858
endloop
endfacet
facet normal -7.415803833107786e-17 -0.38268325538938136 0.9238796058170056
outer loop
vertex 57.50000 -11.50000 19.91858
vertex 112.50000 -11.50000 19.91858
vertex 57.50000 -5.95284 22.21629
endloop
endfacet
facet normal -8.606608188367054e-17 -0.3826832553893815 0.9238796058170056
outer loop
vertex 112.50000 -11.50000 19.91858
vertex 112.50000 -5.95284 22.21629
vertex 57.50000 -5.95284 22.21629
endloop
endfacet
facet normal -2.950961905780995e-17 -0.13052630386773034 0.9914448466751082
outer loop
vertex 57.50000 -5.95284 22.21629
vertex 112.50000 -5.95284 22.21629
vertex 57.50000 0.00000 23.00000
endloop
endfacet
facet normal -2.9585213823021584e-17 -0.13052630386773034 0.9914448466751082
outer loop
vertex 112.50000 -5.95284 22.21629
vertex 112.50000 -0.00000 23.00000
vertex 57.50000 0.00000 23.00000
endloop
endfacet
facet normal -1 0 0
outer loop
vertex 57.50000 0.00000 23.00000
vertex 57.50000 5.95284 22.21629
vertex 57.50000 0.00000 0.00000
endloop
endfacet
facet normal -1 0 0
outer loop
vertex 57.50000 5.95284 22.21629
vertex 57.50000 11.50000 19.91858
vertex 57.50000 0.00000 0.00000
endloop
endfacet
facet normal -1 0 0
outer loop
vertex 57.50000 11.50000 19.91858
vertex 57.50000 16.26346 16.26346
vertex 57.50000 0.00000 0.00000
endloop
endfacet
facet normal -1 0 0
outer loop
vertex 57.50000 16.26346 16.26346
vertex 57.50000 19.91858 11.50000
vertex 57.50000 0.00000 0.00000
endloop
endfacet
facet normal -1 0 0
outer loop
vertex 57.50000 19.91858 11.50000
vertex 57.50000 22.21629 5.95284
vertex 57.50000 0.00000 0.00000
endloop
endfacet
facet normal -1 0 0
outer loop
vertex 57.50000 22.21629 5.95284
vertex 57.50000 23.00000 0.00000
vertex 57.50000 0.00000 0.00000
endloop
endfacet
facet normal -1 0 0
outer loop
vertex 57.50000 23.00000 0.00000
vertex 57.50000 22.21629 -5.95284
vertex 57.50000 0.00000 0.00000
endloop
endfacet
facet normal -1 0 0
outer loop
vertex 57.50000 22.21629 -5.95284
vertex 57.50000 19.91858 -11.50000
vertex 57.50000 0.00000 0.00000
endloop
endfacet
facet normal -1 0 0
outer loop
vertex 57.50000 19.91858 -11.50000
vertex 57.50000 16.26346 -16.26346
vertex 57.50000 0.00000 0.00000
endloop
endfacet
facet normal -1 0 0
outer loop
vertex 57.50000 16.26346 -16.26346
vertex 57.50000 11.50000 -19.91858
vertex 57.50000 0.00000 0.00000
endloop
endfacet
facet normal -1 0 0
outer loop
vertex 57.50000 11.50000 -19.91858
vertex 57.50000 5.95284 -22.21629
vertex 57.50000 0.00000 0.00000
endloop
endfacet
facet normal -1 0 0
outer loop
vertex 57.50000 5.95284 -22.21629
vertex 57.50000 0.00000 -23.00000
vertex 57.50000 0.00000 0.00000
endloop
endfacet
facet normal -1 0 0
outer loop
vertex 57.50000 0.00000 -23.00000
vertex 57.50000 -5.95284 -22.21629
vertex 57.50000 0.00000 0.00000
endloop
endfacet
facet normal -1 0 0
outer loop
vertex 57.50000 -5.95284 -22.21629
vertex 57.50000 -11.50000 -19.91858
vertex 57.50000 0.00000 0.00000
endloop
endfacet
facet normal -1 0 0
outer loop
vertex 57.50000 -11.50000 -19.91858
vertex 57.50000 -16.26346 -16.26346
vertex 57.50000 0.00000 0.00000
endloop
endfacet
facet normal -1 0 0
outer loop
vertex 57.50000 -16.26346 -16.26346
vertex 57.50000 -19.91858 -11.50000
vertex 57.50000 0.00000 0.00000
endloop
endfacet
facet normal -1 0 0
outer loop
vertex 57.50000 -19.91858 -11.50000
vertex 57.50000 -22.21629 -5.95284
vertex 57.50000 0.00000 0.00000
endloop
endfacet
facet normal -1 0 0
outer loop
vertex 57.50000 -22.21629 -5.95284
vertex 57.50000 -23.00000 -0.00000
vertex 57.50000 0.00000 0.00000
endloop
endfacet
facet normal -1 0 0
outer loop
vertex 57.50000 -23.00000 -0.00000
vertex 57.50000 -22.21629 5.95284
vertex 57.50000 0.00000 0.00000
endloop
endfacet
facet normal -1 0 0
outer loop
vertex 57.50000 -22.21629 5.95284
vertex 57.50000 -19.91858 11.50000
vertex 57.50000 0.00000 0.00000
endloop
endfacet
facet normal -1 0 0
outer loop
vertex 57.50000 -19.91858 11.50000
vertex 57.50000 -16.26346 16.26346
vertex 57.50000 0.00000 0.00000
endloop
endfacet
facet normal -1 0 0
outer loop
vertex 57.50000 -16.26346 16.26346
vertex 57.50000 -11.50000 19.91858
vertex 57.50000 0.00000 0.00000
endloop
endfacet
facet normal -1 0 0
outer loop
vertex 57.50000 -11.50000 19.91858
vertex 57.50000 -5.95284 22.21629
vertex 57.50000 0.00000 0.00000
endloop
endfacet
facet normal -1 0 0
outer loop
vertex 57.50000 -5.95284 22.21629
vertex 57.50000 0.00000 23.00000
vertex 57.50000 0.00000 0.00000
endloop
endfacet
facet normal 1 0 0
outer loop
vertex 112.50000 5.95284 22.21629
vertex 112.50000 -0.00000 23.00000
vertex 112.50000 -0.00000 0.00000
endloop
endfacet
facet normal 1 0 0
outer loop
vertex 112.50000 11.50000 19.91858
vertex 112.50000 5.95284 22.21629
vertex 112.50000 -0.00000 0.00000
endloop
endfacet
facet normal 1 0 0
outer loop
vertex 112.50000 16.26346 16.26346
vertex 112.50000 11.50000 19.91858
vertex 112.50000 -0.00000 0.00000
endloop
endfacet
facet normal 1 0 0
outer loop
vertex 112.50000 19.91858 11.50000
vertex 112.50000 16.26346 16.26346
vertex 112.50000 -0.00000 0.00000
endloop
endfacet
facet normal 1 0 0
outer loop
vertex 112.50000 22.21629 5.95284
vertex 112.50000 19.91858 11.50000
vertex 112.50000 -0.00000 0.00000
endloop
endfacet
facet normal 1 0 0
outer loop
vertex 112.50000 23.00000 0.00000
vertex 112.50000 22.21629 5.95284
vertex 112.50000 -0.00000 0.00000
endloop
endfacet
facet normal 1 0 0
outer loop
vertex 112.50000 22.21629 -5.95284
vertex 112.50000 23.00000 0.00000
vertex 112.50000 -0.00000 0.00000
endloop
endfacet
facet normal 1 0 0
outer loop
vertex 112.50000 19.91858 -11.50000
vertex 112.50000 22.21629 -5.95284
vertex 112.50000 -0.00000 0.00000
endloop
endfacet
facet normal 1 0 0
outer loop
vertex 112.50000 16.26346 -16.26346
vertex 112.50000 19.91858 -11.50000
vertex 112.50000 -0.00000 0.00000
endloop
endfacet
facet normal 1 0 0
outer loop
vertex 112.50000 11.50000 -19.91858
vertex 112.50000 16.26346 -16.26346
vertex 112.50000 -0.00000 0.00000
endloop
endfacet
facet normal 1 0 0
outer loop
vertex 112.50000 5.95284 -22.21629
vertex 112.50000 11.50000 -19.91858
vertex 112.50000 -0.00000 0.00000
endloop
endfacet
facet normal 1 0 0
outer loop
vertex 112.50000 -0.00000 -23.00000
vertex 112.50000 5.95284 -22.21629
vertex 112.50000 -0.00000 0.00000
endloop
endfacet
facet normal 1 0 0
outer loop
vertex 112.50000 -5.95284 -22.21629
vertex 112.50000 -0.00000 -23.00000
vertex 112.50000 -0.00000 0.00000
endloop
endfacet
facet normal 1 0 0
outer loop
vertex 112.50000 -11.50000 -19.91858
vertex 112.50000 -5.95284 -22.21629
vertex 112.50000 -0.00000 0.00000
endloop
endfacet
facet normal 1 0 0
outer loop
vertex 112.50000 -16.26346 -16.26346
vertex 112.50000 -11.50000 -19.91858
vertex 112.50000 -0.00000 0.00000
endloop
endfacet
facet normal 1 0 0
outer loop
vertex 112.50000 -19.91858 -11.50000
vertex 112.50000 -16.26346 -16.26346
vertex 112.50000 -0.00000 0.00000
endloop
endfacet
facet normal 1 0 0
outer loop
vertex 112.50000 -22.21629 -5.95284
vertex 112.50000 -19.91858 -11.50000
vertex 112.50000 -0.00000 0.00000
endloop
endfacet
facet normal 1 0 0
outer loop
vertex 112.50000 -23.00000 -0.00000
vertex 112.50000 -22.21629 -5.95284
vertex 112.50000 -0.00000 0.00000
endloop
endfacet
facet normal 1 0 0
outer loop
vertex 112.50000 -22.21629 5.95284
vertex 112.50000 -23.00000 -0.00000
vertex 112.50000 -0.00000 0.00000
endloop
endfacet
facet normal 1 0 0
outer loop
vertex 112.50000 -19.91858 11.50000
vertex 112.50000 -22.21629 5.95284
vertex 112.50000 -0.00000 0.00000
endloop
endfacet
facet normal 1 0 0
outer loop
vertex 112.50000 -16.26346 16.26346
vertex 112.50000 -19.91858 11.50000
vertex 112.50000 -0.00000 0.00000
endloop
endfacet
facet normal 1 0 0
outer loop
vertex 112.50000 -11.50000 19.91858
vertex 112.50000 -16.26346 16.26346
vertex 112.50000 -0.00000 0.00000
endloop
endfacet
facet normal 1 0 0
outer loop
vertex 112.50000 -5.95284 22.21629
vertex 112.50000 -11.50000 19.91858
vertex 112.50000 -0.00000 0.00000
endloop
endfacet
facet normal 1 0 0
outer loop
vertex 112.50000 -0.00000 23.00000
vertex 112.50000 -5.95284 22.21629
vertex 112.50000 -0.00000 0.00000
endloop
endfacet
facet normal 1 0 0
outer loop
vertex 67.00000 12.00000 12.00000
vertex 67.00000 -12.00000 12.00000
vertex 67.00000 12.00000 -12.00000
endloop
endfacet
facet normal 1 0 0
outer loop
vertex 67.00000 -12.00000 12.00000
vertex 67.00000 -12.00000 -12.00000
vertex 67.00000 12.00000 -12.00000
endloop
endfacet
facet normal -1 0 0
outer loop
vertex 35.00000 12.00000 -12.00000
vertex 35.00000 -12.00000 -12.00000
vertex 35.00000 12.00000 12.00000
endloop
endfacet
facet normal -1 0 0
outer loop
vertex 35.00000 -12.00000 -12.00000
vertex 35.00000 -12.00000 12.00000
vertex 35.00000 12.00000 12.00000
endloop
endfacet
facet normal 0 1 0
outer loop
vertex 35.00000 12.00000 -12.00000
vertex 35.00000 12.00000 12.00000
vertex 67.00000 12.00000 -12.00000
endloop
endfacet
facet normal 0 1 0
outer loop
vertex 35.00000 12.00000 12.00000
vertex 67.00000 12.00000 12.00000
vertex 67.00000 12.00000 -12.00000
endloop
endfacet
facet normal 0 -1 0
outer loop
vertex 35.00000 -12.00000 12.00000
vertex 35.00000 -12.00000 -12.00000
vertex 67.00000 -12.00000 12.00000
endloop
endfacet
facet normal 0 -1 0
outer loop
vertex 35.00000 -12.00000 -12.00000
vertex 67.00000 -12.00000 -12.00000
vertex 67.00000 -12.00000 12.00000
endloop
endfacet
facet normal 0 0 1
outer loop
vertex 35.00000 12.00000 12.00000
vertex 35.00000 -12.00000 12.00000
vertex 67.00000 12.00000 12.00000
endloop
endfacet
facet normal 0 0 1
outer loop
vertex 35.00000 -12.00000 12.00000
vertex 67.00000 -12.00000 12.00000
vertex 67.00000 12.00000 12.00000
endloop
endfacet
facet normal 0 0 -1
outer loop
vertex 67.00000 12.00000 -12.00000
vertex 67.00000 -12.00000 -12.00000
vertex 35.00000 12.00000 -12.00000
endloop
endfacet
facet normal 0 0 -1
outer loop
vertex 67.00000 -12.00000 -12.00000
vertex 35.00000 -12.00000 -12.00000
vertex 35.00000 12.00000 -12.00000
endloop
endfacet
endsolid XR_DEMO_NONFUNCTIONAL
