solid XR_DEMO_NONFUNCTIONAL
facet normal 1 0 0
outer loop
vertex 95.00000 66.00000 29.00000
vertex 95.00000 58.00000 29.00000
vertex 95.00000 66.00000 -53.00000
endloop
endfacet
facet normal 1 0 0
outer loop
vertex 95.00000 58.00000 29.00000
vertex 95.00000 58.00000 -53.00000
vertex 95.00000 66.00000 -53.00000
endloop
endfacet
facet normal -1 0 0
outer loop
vertex -95.00000 66.00000 -53.00000
vertex -95.00000 58.00000 -53.00000
vertex -95.00000 66.00000 29.00000
endloop
endfacet
facet normal -1 0 0
outer loop
vertex -95.00000 58.00000 -53.00000
vertex -95.00000 58.00000 29.00000
vertex -95.00000 66.00000 29.00000
endloop
endfacet
facet normal 0 1 0
outer loop
vertex -95.00000 66.00000 -53.00000
vertex -95.00000 66.00000 29.00000
vertex 95.00000 66.00000 -53.00000
endloop
endfacet
facet normal 0 1 0
outer loop
vertex -95.00000 66.00000 29.00000
vertex 95.00000 66.00000 29.00000
vertex 95.00000 66.00000 -53.00000
endloop
endfacet
facet normal 0 -1 0
outer loop
vertex -95.00000 58.00000 29.00000
vertex -95.00000 58.00000 -53.00000
vertex 95.00000 58.00000 29.00000
endloop
endfacet
facet normal 0 -1 0
outer loop
vertex -95.00000 58.00000 -53.00000
vertex 95.00000 58.00000 -53.00000
vertex 95.00000 58.00000 29.00000
endloop
endfacet
facet normal 0 0 1
outer loop
vertex -95.00000 66.00000 29.00000
vertex -95.00000 58.00000 29.00000
vertex 95.00000 66.00000 29.00000
endloop
endfacet
facet normal 0 0 1
outer loop
vertex -95.00000 58.00000 29.00000
vertex 95.00000 58.00000 29.00000
vertex 95.00000 66.00000 29.00000
endloop
endfacet
facet normal 0 0 -1
outer loop
vertex 95.00000 66.00000 -53.00000
vertex 95.00000 58.00000 -53.00000
vertex -95.00000 66.00000 -53.00000
endloop
endfacet
facet normal 0 0 -1
outer loop
vertex 95.00000 58.00000 -53.00000
vertex -95.00000 58.00000 -53.00000
vertex -95.00000 66.00000 -53.00000
endloop
endfacet
facet normal 1 0 0
outer loop
vertex -82.50000 92.00000 29.00000
vertex -82.50000 66.00000 29.00000
vertex -82.50000 92.00000 -53.00000
endloop
endfacet
facet normal 1 0 0
outer loop
vertex -82.50000 66.00000 29.00000
vertex -82.50000 66.00000 -53.00000
vertex -82.50000 92.00000 -53.00000
endloop
endfacet
facet normal -1 0 0
outer loop
vertex -87.50000 92.00000 -53.00000
vertex -87.50000 66.00000 -53.00000
vertex -87.50000 92.00000 29.00000
endloop
endfacet
facet normal -1 0 0
outer loop
vertex -87.50000 66.00000 -53.00000
vertex -87.50000 66.00000 29.00000
vertex -87.50000 92.00000 29.00000
endloop
endfacet
facet normal 0 1 0
outer loop
vertex -87.50000 92.00000 -53.00000
vertex -87.50000 92.00000 29.00000
vertex -82.50000 92.00000 -53.00000
endloop
endfacet
facet normal 0 1 0
outer loop
vertex -87.50000 92.00000 29.00000
vertex -82.50000 92.00000 29.00000
vertex -82.50000 92.00000 -53.00000
endloop
endfacet
facet normal 0 -1 0
outer loop
vertex -87.50000 66.00000 29.00000
vertex -87.50000 66.00000 -53.00000
vertex -82.50000 66.00000 29.00000
endloop
endfacet
facet normal 0 -1 0
outer loop
vertex -87.50000 66.00000 -53.00000
vertex -82.50000 66.00000 -53.00000
vertex -82.50000 66.00000 29.00000
endloop
endfacet
facet normal 0 0 1
outer loop
vertex -87.50000 92.00000 29.00000
vertex -87.50000 66.00000 29.00000
vertex -82.50000 92.00000 29.00000
endloop
endfacet
facet normal 0 0 1
outer loop
vertex -87.50000 66.00000 29.00000
vertex -82.50000 66.00000 29.00000
vertex -82.50000 92.00000 29.00000
endloop
endfacet
facet normal 0 0 -1
outer loop
vertex -82.50000 92.00000 -53.00000
vertex -82.50000 66.00000 -53.00000
vertex -87.50000 92.00000 -53.00000
endloop
endfacet
facet normal 0 0 -1
outer loop
vertex -82.50000 66.00000 -53.00000
vertex -87.50000 66.00000 -53.00000
vertex -87.50000 92.00000 -53.00000
endloop
endfacet
facet normal 1 0 0
outer loop
vertex -65.50000 92.00000 29.00000
vertex -65.50000 66.00000 29.00000
vertex -65.50000 92.00000 -53.00000
endloop
endfacet
facet normal 1 0 0
outer loop
vertex -65.50000 66.00000 29.00000
vertex -65.50000 66.00000 -53.00000
vertex -65.50000 92.00000 -53.00000
endloop
endfacet
facet normal -1 0 0
outer loop
vertex -70.50000 92.00000 -53.00000
vertex -70.50000 66.00000 -53.00000
vertex -70.50000 92.00000 29.00000
endloop
endfacet
facet normal -1 0 0
outer loop
vertex -70.50000 66.00000 -53.00000
vertex -70.50000 66.00000 29.00000
vertex -70.50000 92.00000 29.00000
endloop
endfacet
facet normal 0 1 0
outer loop
vertex -70.50000 92.00000 -53.00000
vertex -70.50000 92.00000 29.00000
vertex -65.50000 92.00000 -53.00000
endloop
endfacet
facet normal 0 1 0
outer loop
vertex -70.50000 92.00000 29.00000
vertex -65.50000 92.00000 29.00000
vertex -65.50000 92.00000 -53.00000
endloop
endfacet
facet normal 0 -1 0
outer loop
vertex -70.50000 66.00000 29.00000
vertex -70.50000 66.00000 -53.00000
vertex -65.50000 66.00000 29.00000
endloop
endfacet
facet normal 0 -1 0
outer loop
vertex -70.50000 66.00000 -53.00000
vertex -65.50000 66.00000 -53.00000
vertex -65.50000 66.00000 29.00000
endloop
endfacet
facet normal 0 0 1
outer loop
vertex -70.50000 92.00000 29.00000
vertex -70.50000 66.00000 29.00000
vertex -65.50000 92.00000 29.00000
endloop
endfacet
facet normal 0 0 1
outer loop
vertex -70.50000 66.00000 29.00000
vertex -65.50000 66.00000 29.00000
vertex -65.50000 92.00000 29.00000
endloop
endfacet
facet normal 0 0 -1
outer loop
vertex -65.50000 92.00000 -53.00000
vertex -65.50000 66.00000 -53.00000
vertex -70.50000 92.00000 -53.00000
endloop
endfacet
facet normal 0 0 -1
outer loop
vertex -65.50000 66.00000 -53.00000
vertex -70.50000 66.00000 -53.00000
vertex -70.50000 92.00000 -53.00000
endloop
endfacet
facet normal 1 0 0
outer loop
vertex -48.50000 92.00000 29.00000
vertex -48.50000 66.00000 29.00000
vertex -48.50000 92.00000 -53.00000
endloop
endfacet
facet normal 1 0 0
outer loop
vertex -48.50000 66.00000 29.00000
vertex -48.50000 66.00000 -53.00000
vertex -48.50000 92.00000 -53.00000
endloop
endfacet
facet normal -1 0 0
outer loop
vertex -53.50000 92.00000 -53.00000
vertex -53.50000 66.00000 -53.00000
vertex -53.50000 92.00000 29.00000
endloop
endfacet
facet normal -1 0 0
outer loop
vertex -53.50000 66.00000 -53.00000
vertex -53.50000 66.00000 29.00000
vertex -53.50000 92.00000 29.00000
endloop
endfacet
facet normal 0 1 0
outer loop
vertex -53.50000 92.00000 -53.00000
vertex -53.50000 92.00000 29.00000
vertex -48.50000 92.00000 -53.00000
endloop
endfacet
facet normal 0 1 0
outer loop
vertex -53.50000 92.00000 29.00000
vertex -48.50000 92.00000 29.00000
vertex -48.50000 92.00000 -53.00000
endloop
endfacet
facet normal 0 -1 0
outer loop
vertex -53.50000 66.00000 29.00000
vertex -53.50000 66.00000 -53.00000
vertex -48.50000 66.00000 29.00000
endloop
endfacet
facet normal 0 -1 0
outer loop
vertex -53.50000 66.00000 -53.00000
vertex -48.50000 66.00000 -53.00000
vertex -48.50000 66.00000 29.00000
endloop
endfacet
facet normal 0 0 1
outer loop
vertex -53.50000 92.00000 29.00000
vertex -53.50000 66.00000 29.00000
vertex -48.50000 92.00000 29.00000
endloop
endfacet
facet normal 0 0 1
outer loop
vertex -53.50000 66.00000 29.00000
vertex -48.50000 66.00000 29.00000
vertex -48.50000 92.00000 29.00000
endloop
endfacet
facet normal 0 0 -1
outer loop
vertex -48.50000 92.00000 -53.00000
vertex -48.50000 66.00000 -53.00000
vertex -53.50000 92.00000 -53.00000
endloop
endfacet
facet normal 0 0 -1
outer loop
vertex -48.50000 66.00000 -53.00000
vertex -53.50000 66.00000 -53.00000
vertex -53.50000 92.00000 -53.00000
endloop
endfacet
facet normal 1 0 0
outer loop
vertex -31.50000 92.00000 29.00000
vertex -31.50000 66.00000 29.00000
vertex -31.50000 92.00000 -53.00000
endloop
endfacet
facet normal 1 0 0
outer loop
vertex -31.50000 66.00000 29.00000
vertex -31.50000 66.00000 -53.00000
vertex -31.50000 92.00000 -53.00000
endloop
endfacet
facet normal -1 0 0
outer loop
vertex -36.50000 92.00000 -53.00000
vertex -36.50000 66.00000 -53.00000
vertex -36.50000 92.00000 29.00000
endloop
endfacet
facet normal -1 0 0
outer loop
vertex -36.50000 66.00000 -53.00000
vertex -36.50000 66.00000 29.00000
vertex -36.50000 92.00000 29.00000
endloop
endfacet
facet normal 0 1 0
outer loop
vertex -36.50000 92.00000 -53.00000
vertex -36.50000 92.00000 29.00000
vertex -31.50000 92.00000 -53.00000
endloop
endfacet
facet normal 0 1 0
outer loop
vertex -36.50000 92.00000 29.00000
vertex -31.50000 92.00000 29.00000
vertex -31.50000 92.00000 -53.00000
endloop
endfacet
facet normal 0 -1 0
outer loop
vertex -36.50000 66.00000 29.00000
vertex -36.50000 66.00000 -53.00000
vertex -31.50000 66.00000 29.00000
endloop
endfacet
facet normal 0 -1 0
outer loop
vertex -36.50000 66.00000 -53.00000
vertex -31.50000 66.00000 -53.00000
vertex -31.50000 66.00000 29.00000
endloop
endfacet
facet normal 0 0 1
outer loop
vertex -36.50000 92.00000 29.00000
vertex -36.50000 66.00000 29.00000
vertex -31.50000 92.00000 29.00000
endloop
endfacet
facet normal 0 0 1
outer loop
vertex -36.50000 66.00000 29.00000
vertex -31.50000 66.00000 29.00000
vertex -31.50000 92.00000 29.00000
endloop
endfacet
facet normal 0 0 -1
outer loop
vertex -31.50000 92.00000 -53.00000
vertex -31.50000 66.00000 -53.00000
vertex -36.50000 92.00000 -53.00000
endloop
endfacet
facet normal 0 0 -1
outer loop
vertex -31.50000 66.00000 -53.00000
vertex -36.50000 66.00000 -53.00000
vertex -36.50000 92.00000 -53.00000
endloop
endfacet
facet normal 1 0 0
outer loop
vertex -14.50000 92.00000 29.00000
vertex -14.50000 66.00000 29.00000
vertex -14.50000 92.00000 -53.00000
endloop
endfacet
facet normal 1 0 0
outer loop
vertex -14.50000 66.00000 29.00000
vertex -14.50000 66.00000 -53.00000
vertex -14.50000 92.00000 -53.00000
endloop
endfacet
facet normal -1 0 0
outer loop
vertex -19.50000 92.00000 -53.00000
vertex -19.50000 66.00000 -53.00000
vertex -19.50000 92.00000 29.00000
endloop
endfacet
facet normal -1 0 0
outer loop
vertex -19.50000 66.00000 -53.00000
vertex -19.50000 66.00000 29.00000
vertex -19.50000 92.00000 29.00000
endloop
endfacet
facet normal 0 1 0
outer loop
vertex -19.50000 92.00000 -53.00000
vertex -19.50000 92.00000 29.00000
vertex -14.50000 92.00000 -53.00000
endloop
endfacet
facet normal 0 1 0
outer loop
vertex -19.50000 92.00000 29.00000
vertex -14.50000 92.00000 29.00000
vertex -14.50000 92.00000 -53.00000
endloop
endfacet
facet normal 0 -1 0
outer loop
vertex -19.50000 66.00000 29.00000
vertex -19.50000 66.00000 -53.00000
vertex -14.50000 66.00000 29.00000
endloop
endfacet
facet normal 0 -1 0
outer loop
vertex -19.50000 66.00000 -53.00000
vertex -14.50000 66.00000 -53.00000
vertex -14.50000 66.00000 29.00000
endloop
endfacet
facet normal 0 0 1
outer loop
vertex -19.50000 92.00000 29.00000
vertex -19.50000 66.00000 29.00000
vertex -14.50000 92.00000 29.00000
endloop
endfacet
facet normal 0 0 1
outer loop
vertex -19.50000 66.00000 29.00000
vertex -14.50000 66.00000 29.00000
vertex -14.50000 92.00000 29.00000
endloop
endfacet
facet normal 0 0 -1
outer loop
vertex -14.50000 92.00000 -53.00000
vertex -14.50000 66.00000 -53.00000
vertex -19.50000 92.00000 -53.00000
endloop
endfacet
facet normal 0 0 -1
outer loop
vertex -14.50000 66.00000 -53.00000
vertex -19.50000 66.00000 -53.00000
vertex -19.50000 92.00000 -53.00000
endloop
endfacet
facet normal 1 0 0
outer loop
vertex 2.50000 92.00000 29.00000
vertex 2.50000 66.00000 29.00000
vertex 2.50000 92.00000 -53.00000
endloop
endfacet
facet normal 1 0 0
outer loop
vertex 2.50000 66.00000 29.00000
vertex 2.50000 66.00000 -53.00000
vertex 2.50000 92.00000 -53.00000
endloop
endfacet
facet normal -1 0 0
outer loop
vertex -2.50000 92.00000 -53.00000
vertex -2.50000 66.00000 -53.00000
vertex -2.50000 92.00000 29.00000
endloop
endfacet
facet normal -1 0 0
outer loop
vertex -2.50000 66.00000 -53.00000
vertex -2.50000 66.00000 29.00000
vertex -2.50000 92.00000 29.00000
endloop
endfacet
facet normal 0 1 0
outer loop
vertex -2.50000 92.00000 -53.00000
vertex -2.50000 92.00000 29.00000
vertex 2.50000 92.00000 -53.00000
endloop
endfacet
facet normal 0 1 0
outer loop
vertex -2.50000 92.00000 29.00000
vertex 2.50000 92.00000 29.00000
vertex 2.50000 92.00000 -53.00000
endloop
endfacet
facet normal 0 -1 0
outer loop
vertex -2.50000 66.00000 29.00000
vertex -2.50000 66.00000 -53.00000
vertex 2.50000 66.00000 29.00000
endloop
endfacet
facet normal 0 -1 0
outer loop
vertex -2.50000 66.00000 -53.00000
vertex 2.50000 66.00000 -53.00000
vertex 2.50000 66.00000 29.00000
endloop
endfacet
facet normal 0 0 1
outer loop
vertex -2.50000 92.00000 29.00000
vertex -2.50000 66.00000 29.00000
vertex 2.50000 92.00000 29.00000
endloop
endfacet
facet normal 0 0 1
outer loop
vertex -2.50000 66.00000 29.00000
vertex 2.50000 66.00000 29.00000
vertex 2.50000 92.00000 29.00000
endloop
endfacet
facet normal 0 0 -1
outer loop
vertex 2.50000 92.00000 -53.00000
vertex 2.50000 66.00000 -53.00000
vertex -2.50000 92.00000 -53.00000
endloop
endfacet
facet normal 0 0 -1
outer loop
vertex 2.50000 66.00000 -53.00000
vertex -2.50000 66.00000 -53.00000
vertex -2.50000 92.00000 -53.00000
endloop
endfacet
facet normal 1 0 0
outer loop
vertex 19.50000 92.00000 29.00000
vertex 19.50000 66.00000 29.00000
vertex 19.50000 92.00000 -53.00000
endloop
endfacet
facet normal 1 0 0
outer loop
vertex 19.50000 66.00000 29.00000
vertex 19.50000 66.00000 -53.00000
vertex 19.50000 92.00000 -53.00000
endloop
endfacet
facet normal -1 0 0
outer loop
vertex 14.50000 92.00000 -53.00000
vertex 14.50000 66.00000 -53.00000
vertex 14.50000 92.00000 29.00000
endloop
endfacet
facet normal -1 0 0
outer loop
vertex 14.50000 66.00000 -53.00000
vertex 14.50000 66.00000 29.00000
vertex 14.50000 92.00000 29.00000
endloop
endfacet
facet normal 0 1 0
outer loop
vertex 14.50000 92.00000 -53.00000
vertex 14.50000 92.00000 29.00000
vertex 19.50000 92.00000 -53.00000
endloop
endfacet
facet normal 0 1 0
outer loop
vertex 14.50000 92.00000 29.00000
vertex 19.50000 92.00000 29.00000
vertex 19.50000 92.00000 -53.00000
endloop
endfacet
facet normal 0 -1 0
outer loop
vertex 14.50000 66.00000 29.00000
vertex 14.50000 66.00000 -53.00000
vertex 19.50000 66.00000 29.00000
endloop
endfacet
facet normal 0 -1 0
outer loop
vertex 14.50000 66.00000 -53.00000
vertex 19.50000 66.00000 -53.00000
vertex 19.50000 66.00000 29.00000
endloop
endfacet
facet normal 0 0 1
outer loop
vertex 14.50000 92.00000 29.00000
vertex 14.50000 66.00000 29.00000
vertex 19.50000 92.00000 29.00000
endloop
endfacet
facet normal 0 0 1
outer loop
vertex 14.50000 66.00000 29.00000
vertex 19.50000 66.00000 29.00000
vertex 19.50000 92.00000 29.00000
endloop
endfacet
facet normal 0 0 -1
outer loop
vertex 19.50000 92.00000 -53.00000
vertex 19.50000 66.00000 -53.00000
vertex 14.50000 92.00000 -53.00000
endloop
endfacet
facet normal 0 0 -1
outer loop
vertex 19.50000 66.00000 -53.00000
vertex 14.50000 66.00000 -53.00000
vertex 14.50000 92.00000 -53.00000
endloop
endfacet
facet normal 1 0 0
outer loop
vertex 36.50000 92.00000 29.00000
vertex 36.50000 66.00000 29.00000
vertex 36.50000 92.00000 -53.00000
endloop
endfacet
facet normal 1 0 0
outer loop
vertex 36.50000 66.00000 29.00000
vertex 36.50000 66.00000 -53.00000
vertex 36.50000 92.00000 -53.00000
endloop
endfacet
facet normal -1 0 0
outer loop
vertex 31.50000 92.00000 -53.00000
vertex 31.50000 66.00000 -53.00000
vertex 31.50000 92.00000 29.00000
endloop
endfacet
facet normal -1 0 0
outer loop
vertex 31.50000 66.00000 -53.00000
vertex 31.50000 66.00000 29.00000
vertex 31.50000 92.00000 29.00000
endloop
endfacet
facet normal 0 1 0
outer loop
vertex 31.50000 92.00000 -53.00000
vertex 31.50000 92.00000 29.00000
vertex 36.50000 92.00000 -53.00000
endloop
endfacet
facet normal 0 1 0
outer loop
vertex 31.50000 92.00000 29.00000
vertex 36.50000 92.00000 29.00000
vertex 36.50000 92.00000 -53.00000
endloop
endfacet
facet normal 0 -1 0
outer loop
vertex 31.50000 66.00000 29.00000
vertex 31.50000 66.00000 -53.00000
vertex 36.50000 66.00000 29.00000
endloop
endfacet
facet normal 0 -1 0
outer loop
vertex 31.50000 66.00000 -53.00000
vertex 36.50000 66.00000 -53.00000
vertex 36.50000 66.00000 29.00000
endloop
endfacet
facet normal 0 0 1
outer loop
vertex 31.50000 92.00000 29.00000
vertex 31.50000 66.00000 29.00000
vertex 36.50000 92.00000 29.00000
endloop
endfacet
facet normal 0 0 1
outer loop
vertex 31.50000 66.00000 29.00000
vertex 36.50000 66.00000 29.00000
vertex 36.50000 92.00000 29.00000
endloop
endfacet
facet normal 0 0 -1
outer loop
vertex 36.50000 92.00000 -53.00000
vertex 36.50000 66.00000 -53.00000
vertex 31.50000 92.00000 -53.00000
endloop
endfacet
facet normal 0 0 -1
outer loop
vertex 36.50000 66.00000 -53.00000
vertex 31.50000 66.00000 -53.00000
vertex 31.50000 92.00000 -53.00000
endloop
endfacet
facet normal 1 0 0
outer loop
vertex 53.50000 92.00000 29.00000
vertex 53.50000 66.00000 29.00000
vertex 53.50000 92.00000 -53.00000
endloop
endfacet
facet normal 1 0 0
outer loop
vertex 53.50000 66.00000 29.00000
vertex 53.50000 66.00000 -53.00000
vertex 53.50000 92.00000 -53.00000
endloop
endfacet
facet normal -1 0 0
outer loop
vertex 48.50000 92.00000 -53.00000
vertex 48.50000 66.00000 -53.00000
vertex 48.50000 92.00000 29.00000
endloop
endfacet
facet normal -1 0 0
outer loop
vertex 48.50000 66.00000 -53.00000
vertex 48.50000 66.00000 29.00000
vertex 48.50000 92.00000 29.00000
endloop
endfacet
facet normal 0 1 0
outer loop
vertex 48.50000 92.00000 -53.00000
vertex 48.50000 92.00000 29.00000
vertex 53.50000 92.00000 -53.00000
endloop
endfacet
facet normal 0 1 0
outer loop
vertex 48.50000 92.00000 29.00000
vertex 53.50000 92.00000 29.00000
vertex 53.50000 92.00000 -53.00000
endloop
endfacet
facet normal 0 -1 0
outer loop
vertex 48.50000 66.00000 29.00000
vertex 48.50000 66.00000 -53.00000
vertex 53.50000 66.00000 29.00000
endloop
endfacet
facet normal 0 -1 0
outer loop
vertex 48.50000 66.00000 -53.00000
vertex 53.50000 66.00000 -53.00000
vertex 53.50000 66.00000 29.00000
endloop
endfacet
facet normal 0 0 1
outer loop
vertex 48.50000 92.00000 29.00000
vertex 48.50000 66.00000 29.00000
vertex 53.50000 92.00000 29.00000
endloop
endfacet
facet normal 0 0 1
outer loop
vertex 48.50000 66.00000 29.00000
vertex 53.50000 66.00000 29.00000
vertex 53.50000 92.00000 29.00000
endloop
endfacet
facet normal 0 0 -1
outer loop
vertex 53.50000 92.00000 -53.00000
vertex 53.50000 66.00000 -53.00000
vertex 48.50000 92.00000 -53.00000
endloop
endfacet
facet normal 0 0 -1
outer loop
vertex 53.50000 66.00000 -53.00000
vertex 48.50000 66.00000 -53.00000
vertex 48.50000 92.00000 -53.00000
endloop
endfacet
facet normal 1 0 0
outer loop
vertex 70.50000 92.00000 29.00000
vertex 70.50000 66.00000 29.00000
vertex 70.50000 92.00000 -53.00000
endloop
endfacet
facet normal 1 0 0
outer loop
vertex 70.50000 66.00000 29.00000
vertex 70.50000 66.00000 -53.00000
vertex 70.50000 92.00000 -53.00000
endloop
endfacet
facet normal -1 0 0
outer loop
vertex 65.50000 92.00000 -53.00000
vertex 65.50000 66.00000 -53.00000
vertex 65.50000 92.00000 29.00000
endloop
endfacet
facet normal -1 0 0
outer loop
vertex 65.50000 66.00000 -53.00000
vertex 65.50000 66.00000 29.00000
vertex 65.50000 92.00000 29.00000
endloop
endfacet
facet normal 0 1 0
outer loop
vertex 65.50000 92.00000 -53.00000
vertex 65.50000 92.00000 29.00000
vertex 70.50000 92.00000 -53.00000
endloop
endfacet
facet normal 0 1 0
outer loop
vertex 65.50000 92.00000 29.00000
vertex 70.50000 92.00000 29.00000
vertex 70.50000 92.00000 -53.00000
endloop
endfacet
facet normal 0 -1 0
outer loop
vertex 65.50000 66.00000 29.00000
vertex 65.50000 66.00000 -53.00000
vertex 70.50000 66.00000 29.00000
endloop
endfacet
facet normal 0 -1 0
outer loop
vertex 65.50000 66.00000 -53.00000
vertex 70.50000 66.00000 -53.00000
vertex 70.50000 66.00000 29.00000
endloop
endfacet
facet normal 0 0 1
outer loop
vertex 65.50000 92.00000 29.00000
vertex 65.50000 66.00000 29.00000
vertex 70.50000 92.00000 29.00000
endloop
endfacet
facet normal 0 0 1
outer loop
vertex 65.50000 66.00000 29.00000
vertex 70.50000 66.00000 29.00000
vertex 70.50000 92.00000 29.00000
endloop
endfacet
facet normal 0 0 -1
outer loop
vertex 70.50000 92.00000 -53.00000
vertex 70.50000 66.00000 -53.00000
vertex 65.50000 92.00000 -53.00000
endloop
endfacet
facet normal 0 0 -1
outer loop
vertex 70.50000 66.00000 -53.00000
vertex 65.50000 66.00000 -53.00000
vertex 65.50000 92.00000 -53.00000
endloop
endfacet
facet normal 1 0 0
outer loop
vertex 87.50000 92.00000 29.00000
vertex 87.50000 66.00000 29.00000
vertex 87.50000 92.00000 -53.00000
endloop
endfacet
facet normal 1 0 0
outer loop
vertex 87.50000 66.00000 29.00000
vertex 87.50000 66.00000 -53.00000
vertex 87.50000 92.00000 -53.00000
endloop
endfacet
facet normal -1 0 0
outer loop
vertex 82.50000 92.00000 -53.00000
vertex 82.50000 66.00000 -53.00000
vertex 82.50000 92.00000 29.00000
endloop
endfacet
facet normal -1 0 0
outer loop
vertex 82.50000 66.00000 -53.00000
vertex 82.50000 66.00000 29.00000
vertex 82.50000 92.00000 29.00000
endloop
endfacet
facet normal 0 1 0
outer loop
vertex 82.50000 92.00000 -53.00000
vertex 82.50000 92.00000 29.00000
vertex 87.50000 92.00000 -53.00000
endloop
endfacet
facet normal 0 1 0
outer loop
vertex 82.50000 92.00000 29.00000
vertex 87.50000 92.00000 29.00000
vertex 87.50000 92.00000 -53.00000
endloop
endfacet
facet normal 0 -1 0
outer loop
vertex 82.50000 66.00000 29.00000
vertex 82.50000 66.00000 -53.00000
vertex 87.50000 66.00000 29.00000
endloop
endfacet
facet normal 0 -1 0
outer loop
vertex 82.50000 66.00000 -53.00000
vertex 87.50000 66.00000 -53.00000
vertex 87.50000 66.00000 29.00000
endloop
endfacet
facet normal 0 0 1
outer loop
vertex 82.50000 92.00000 29.00000
vertex 82.50000 66.00000 29.00000
vertex 87.50000 92.00000 29.00000
endloop
endfacet
facet normal 0 0 1
outer loop
vertex 82.50000 66.00000 29.00000
vertex 87.50000 66.00000 29.00000
vertex 87.50000 92.00000 29.00000
endloop
endfacet
facet normal 0 0 -1
outer loop
vertex 87.50000 92.00000 -53.00000
vertex 87.50000 66.00000 -53.00000
vertex 82.50000 92.00000 -53.00000
endloop
endfacet
facet normal 0 0 -1
outer loop
vertex 87.50000 66.00000 -53.00000
vertex 82.50000 66.00000 -53.00000
vertex 82.50000 92.00000 -53.00000
endloop
endfacet
endsolid XR_DEMO_NONFUNCTIONAL
