solid XR_DEMO_NONFUNCTIONAL
facet normal 3.864349966365065e-17 -0.9914448685101538 -0.1305261380141317
outer loop
vertex 150.00000 -101.00000 -5.00000
vertex 138.00000 -101.00000 -5.00000
vertex 150.00000 -97.55851 -31.14072
endloop
endfacet
facet normal 0 -0.9914448685101538 -0.1305261380141317
outer loop
vertex 138.00000 -101.00000 -5.00000
vertex 138.00000 -97.55851 -31.14072
vertex 150.00000 -97.55851 -31.14072
endloop
endfacet
facet normal 0 -0.9238795255548156 -0.38268344915949626
outer loop
vertex 150.00000 -97.55851 -31.14072
vertex 138.00000 -97.55851 -31.14072
vertex 150.00000 -87.46857 -55.50000
endloop
endfacet
facet normal 0 -0.9238795255548156 -0.38268344915949626
outer loop
vertex 138.00000 -97.55851 -31.14072
vertex 138.00000 -87.46857 -55.50000
vertex 150.00000 -87.46857 -55.50000
endloop
endfacet
facet normal 0 -0.7933533440244701 -0.6087614241434742
outer loop
vertex 150.00000 -87.46857 -55.50000
vertex 138.00000 -87.46857 -55.50000
vertex 150.00000 -71.41779 -76.41779
endloop
endfacet
facet normal 0 -0.7933533440244701 -0.6087614241434742
outer loop
vertex 138.00000 -87.46857 -55.50000
vertex 138.00000 -71.41779 -76.41779
vertex 150.00000 -71.41779 -76.41779
endloop
endfacet
facet normal 0 -0.6087614241434742 -0.7933533440244701
outer loop
vertex 150.00000 -71.41779 -76.41779
vertex 138.00000 -71.41779 -76.41779
vertex 150.00000 -50.50000 -92.46857
endloop
endfacet
facet normal 0 -0.6087614241434742 -0.7933533440244701
outer loop
vertex 138.00000 -71.41779 -76.41779
vertex 138.00000 -50.50000 -92.46857
vertex 150.00000 -50.50000 -92.46857
endloop
endfacet
facet normal 0 -0.38268344915949626 -0.9238795255548156
outer loop
vertex 150.00000 -50.50000 -92.46857
vertex 138.00000 -50.50000 -92.46857
vertex 150.00000 -26.14072 -102.55851
endloop
endfacet
facet normal 0 -0.38268344915949626 -0.9238795255548156
outer loop
vertex 138.00000 -50.50000 -92.46857
vertex 138.00000 -26.14072 -102.55851
vertex 150.00000 -26.14072 -102.55851
endloop
endfacet
facet normal 0 -0.13052613801413174 -0.9914448685101537
outer loop
vertex 150.00000 -26.14072 -102.55851
vertex 138.00000 -26.14072 -102.55851
vertex 150.00000 -0.00000 -106.00000
endloop
endfacet
facet normal 0 -0.13052613801413174 -0.9914448685101537
outer loop
vertex 138.00000 -26.14072 -102.55851
vertex 138.00000 -0.00000 -106.00000
vertex 150.00000 -0.00000 -106.00000
endloop
endfacet
facet normal -7.992424084120266e-18 0.13052613801413165 -0.9914448685101537
outer loop
vertex 150.00000 -0.00000 -106.00000
vertex 138.00000 -0.00000 -106.00000
vertex 150.00000 26.14072 -102.55851
endloop
endfacet
facet normal 0 0.13052613801413165 -0.9914448685101537
outer loop
vertex 138.00000 -0.00000 -106.00000
vertex 138.00000 26.14072 -102.55851
vertex 150.00000 26.14072 -102.55851
endloop
endfacet
facet normal 0 0.38268344915949626 -0.9238795255548156
outer loop
vertex 150.00000 26.14072 -102.55851
vertex 138.00000 26.14072 -102.55851
vertex 150.00000 50.50000 -92.46857
endloop
endfacet
facet normal 0 0.38268344915949626 -0.9238795255548156
outer loop
vertex 138.00000 26.14072 -102.55851
vertex 138.00000 50.50000 -92.46857
vertex 150.00000 50.50000 -92.46857
endloop
endfacet
facet normal 0 0.6087614241434742 -0.7933533440244701
outer loop
vertex 150.00000 50.50000 -92.46857
vertex 138.00000 50.50000 -92.46857
vertex 150.00000 71.41779 -76.41779
endloop
endfacet
facet normal 0 0.6087614241434742 -0.7933533440244701
outer loop
vertex 138.00000 50.50000 -92.46857
vertex 138.00000 71.41779 -76.41779
vertex 150.00000 71.41779 -76.41779
endloop
endfacet
facet normal 0 0.7933533440244701 -0.6087614241434742
outer loop
vertex 150.00000 71.41779 -76.41779
vertex 138.00000 71.41779 -76.41779
vertex 150.00000 87.46857 -55.50000
endloop
endfacet
facet normal 0 0.7933533440244701 -0.6087614241434742
outer loop
vertex 138.00000 71.41779 -76.41779
vertex 138.00000 87.46857 -55.50000
vertex 150.00000 87.46857 -55.50000
endloop
endfacet
facet normal 0 0.9238795255548156 -0.38268344915949626
outer loop
vertex 150.00000 87.46857 -55.50000
vertex 138.00000 87.46857 -55.50000
vertex 150.00000 97.55851 -31.14072
endloop
endfacet
facet normal 0 0.9238795255548156 -0.38268344915949626
outer loop
vertex 138.00000 87.46857 -55.50000
vertex 138.00000 97.55851 -31.14072
vertex 150.00000 97.55851 -31.14072
endloop
endfacet
facet normal 0 0.9914448685101537 -0.13052613801413174
outer loop
vertex 150.00000 97.55851 -31.14072
vertex 138.00000 97.55851 -31.14072
vertex 150.00000 101.00000 -5.00000
endloop
endfacet
facet normal 0 0.9914448685101535 -0.13052613801413174
outer loop
vertex 138.00000 97.55851 -31.14072
vertex 138.00000 101.00000 -5.00000
vertex 150.00000 101.00000 -5.00000
endloop
endfacet
facet normal -2.8982624747737974e-17 0.9914448685101537 0.13052613801413165
outer loop
vertex 150.00000 101.00000 -5.00000
vertex 138.00000 101.00000 -5.00000
vertex 150.00000 97.55851 21.14072
endloop
endfacet
facet normal 0 0.9914448685101538 0.13052613801413163
outer loop
vertex 138.00000 101.00000 -5.00000
vertex 138.00000 97.55851 21.14072
vertex 150.00000 97.55851 21.14072
endloop
endfacet
facet normal 0 0.9238795255548156 0.38268344915949626
outer loop
vertex 150.00000 97.55851 21.14072
vertex 138.00000 97.55851 21.14072
vertex 150.00000 87.46857 45.50000
endloop
endfacet
facet normal 0 0.9238795255548156 0.38268344915949626
outer loop
vertex 138.00000 97.55851 21.14072
vertex 138.00000 87.46857 45.50000
vertex 150.00000 87.46857 45.50000
endloop
endfacet
facet normal 0 0.7933533440244701 0.6087614241434742
outer loop
vertex 150.00000 87.46857 45.50000
vertex 138.00000 87.46857 45.50000
vertex 150.00000 71.41779 66.41779
endloop
endfacet
facet normal 0 0.7933533440244701 0.6087614241434742
outer loop
vertex 138.00000 87.46857 45.50000
vertex 138.00000 71.41779 66.41779
vertex 150.00000 71.41779 66.41779
endloop
endfacet
facet normal 0 0.6087614241434742 0.7933533440244701
outer loop
vertex 150.00000 71.41779 66.41779
vertex 138.00000 71.41779 66.41779
vertex 150.00000 50.50000 82.46857
endloop
endfacet
facet normal 0 0.6087614241434742 0.7933533440244701
outer loop
vertex 138.00000 71.41779 66.41779
vertex 138.00000 50.50000 82.46857
vertex 150.00000 50.50000 82.46857
endloop
endfacet
facet normal 0 0.38268344915949626 0.9238795255548156
outer loop
vertex 150.00000 50.50000 82.46857
vertex 138.00000 50.50000 82.46857
vertex 150.00000 26.14072 92.55851
endloop
endfacet
facet normal 0 0.38268344915949626 0.9238795255548156
outer loop
vertex 138.00000 50.50000 82.46857
vertex 138.00000 26.14072 92.55851
vertex 150.00000 26.14072 92.55851
endloop
endfacet
facet normal 0 0.1305261380141318 0.9914448685101538
outer loop
vertex 150.00000 26.14072 92.55851
vertex 138.00000 26.14072 92.55851
vertex 150.00000 0.00000 96.00000
endloop
endfacet
facet normal 0 0.1305261380141318 0.9914448685101538
outer loop
vertex 138.00000 26.14072 92.55851
vertex 138.00000 0.00000 96.00000
vertex 150.00000 0.00000 96.00000
endloop
endfacet
facet normal 7.99241487079198e-18 -0.13052613801413157 0.9914448685101536
outer loop
vertex 150.00000 0.00000 96.00000
vertex 138.00000 0.00000 96.00000
vertex 150.00000 -26.14072 92.55851
endloop
endfacet
facet normal 0 -0.13052613801413157 0.9914448685101536
outer loop
vertex 138.00000 0.00000 96.00000
vertex 138.00000 -26.14072 92.55851
vertex 150.00000 -26.14072 92.55851
endloop
endfacet
facet normal 0 -0.38268344915949626 0.9238795255548156
outer loop
vertex 150.00000 -26.14072 92.55851
vertex 138.00000 -26.14072 92.55851
vertex 150.00000 -50.50000 82.46857
endloop
endfacet
facet normal 0 -0.38268344915949626 0.9238795255548156
outer loop
vertex 138.00000 -26.14072 92.55851
vertex 138.00000 -50.50000 82.46857
vertex 150.00000 -50.50000 82.46857
endloop
endfacet
facet normal 0 -0.6087614241434742 0.7933533440244701
outer loop
vertex 150.00000 -50.50000 82.46857
vertex 138.00000 -50.50000 82.46857
vertex 150.00000 -71.41779 66.41779
endloop
endfacet
facet normal 0 -0.6087614241434742 0.7933533440244701
outer loop
vertex 138.00000 -50.50000 82.46857
vertex 138.00000 -71.41779 66.41779
vertex 150.00000 -71.41779 66.41779
endloop
endfacet
facet normal 0 -0.7933533440244701 0.6087614241434742
outer loop
vertex 150.00000 -71.41779 66.41779
vertex 138.00000 -71.41779 66.41779
vertex 150.00000 -87.46857 45.50000
endloop
endfacet
facet normal 0 -0.7933533440244701 0.6087614241434742
outer loop
vertex 138.00000 -71.41779 66.41779
vertex 138.00000 -87.46857 45.50000
vertex 150.00000 -87.46857 45.50000
endloop
endfacet
facet normal 0 -0.9238795255548156 0.38268344915949626
outer loop
vertex 150.00000 -87.46857 45.50000
vertex 138.00000 -87.46857 45.50000
vertex 150.00000 -97.55851 21.14072
endloop
endfacet
facet normal 0 -0.9238795255548156 0.38268344915949626
outer loop
vertex 138.00000 -87.46857 45.50000
vertex 138.00000 -97.55851 21.14072
vertex 150.00000 -97.55851 21.14072
endloop
endfacet
facet normal 0 -0.9914448685101536 0.1305261380141318
outer loop
vertex 150.00000 -97.55851 21.14072
vertex 138.00000 -97.55851 21.14072
vertex 150.00000 -101.00000 -5.00000
endloop
endfacet
facet normal -4.491484527604916e-17 -0.9914448685101538 0.1305261380141318
outer loop
vertex 138.00000 -97.55851 21.14072
vertex 138.00000 -101.00000 -5.00000
vertex 150.00000 -101.00000 -5.00000
endloop
endfacet
facet normal 1 0 0
outer loop
vertex 150.00000 -101.00000 -5.00000
vertex 150.00000 -97.55851 -31.14072
vertex 150.00000 0.00000 -5.00000
endloop
endfacet
facet normal 1 0 0
outer loop
vertex 150.00000 -97.55851 -31.14072
vertex 150.00000 -87.46857 -55.50000
vertex 150.00000 0.00000 -5.00000
endloop
endfacet
facet normal 1 -5.4362895156120485e-16 9.4159297654327e-16
outer loop
vertex 150.00000 -87.46857 -55.50000
vertex 150.00000 -71.41779 -76.41779
vertex 150.00000 0.00000 -5.00000
endloop
endfacet
facet normal 1 1.7278553233021276e-16 2.251784926518524e-16
outer loop
vertex 150.00000 -71.41779 -76.41779
vertex 150.00000 -50.50000 -92.46857
vertex 150.00000 0.00000 -5.00000
endloop
endfacet
facet normal 1 1.0861753168622887e-16 2.622259046258994e-16
outer loop
vertex 150.00000 -50.50000 -92.46857
vertex 150.00000 -26.14072 -102.55851
vertex 150.00000 0.00000 -5.00000
endloop
endfacet
facet normal 1 3.7047400508553843e-17 2.814030636673664e-16
outer loop
vertex 150.00000 -26.14072 -102.55851
vertex 150.00000 -0.00000 -106.00000
vertex 150.00000 0.00000 -5.00000
endloop
endfacet
facet normal 0.9999999999999999 -3.704740050855382e-17 2.8140306366736636e-16
outer loop
vertex 150.00000 -0.00000 -106.00000
vertex 150.00000 26.14072 -102.55851
vertex 150.00000 0.00000 -5.00000
endloop
endfacet
facet normal 1 -1.0861753168622887e-16 2.622259046258994e-16
outer loop
vertex 150.00000 26.14072 -102.55851
vertex 150.00000 50.50000 -92.46857
vertex 150.00000 0.00000 -5.00000
endloop
endfacet
facet normal 1 -1.7278553233021276e-16 2.251784926518524e-16
outer loop
vertex 150.00000 50.50000 -92.46857
vertex 150.00000 71.41779 -76.41779
vertex 150.00000 0.00000 -5.00000
endloop
endfacet
facet normal 1 5.4362895156120485e-16 9.4159297654327e-16
outer loop
vertex 150.00000 71.41779 -76.41779
vertex 150.00000 87.46857 -55.50000
vertex 150.00000 0.00000 -5.00000
endloop
endfacet
facet normal 1 0 0
outer loop
vertex 150.00000 87.46857 -55.50000
vertex 150.00000 97.55851 -31.14072
vertex 150.00000 0.00000 -5.00000
endloop
endfacet
facet normal 1 0 0
outer loop
vertex 150.00000 97.55851 -31.14072
vertex 150.00000 101.00000 -5.00000
vertex 150.00000 0.00000 -5.00000
endloop
endfacet
facet normal 0.9999999999999999 0 0
outer loop
vertex 150.00000 101.00000 -5.00000
vertex 150.00000 97.55851 21.14072
vertex 150.00000 0.00000 -5.00000
endloop
endfacet
facet normal 1 0 0
outer loop
vertex 150.00000 97.55851 21.14072
vertex 150.00000 87.46857 45.50000
vertex 150.00000 0.00000 -5.00000
endloop
endfacet
facet normal 1 -5.4362895156120485e-16 9.4159297654327e-16
outer loop
vertex 150.00000 87.46857 45.50000
vertex 150.00000 71.41779 66.41779
vertex 150.00000 0.00000 -5.00000
endloop
endfacet
facet normal 1 1.7278553233021276e-16 2.251784926518524e-16
outer loop
vertex 150.00000 71.41779 66.41779
vertex 150.00000 50.50000 82.46857
vertex 150.00000 0.00000 -5.00000
endloop
endfacet
facet normal 1 1.0861753168622887e-16 2.622259046258994e-16
outer loop
vertex 150.00000 50.50000 82.46857
vertex 150.00000 26.14072 92.55851
vertex 150.00000 0.00000 -5.00000
endloop
endfacet
facet normal 1 3.704740050855386e-17 2.814030636673664e-16
outer loop
vertex 150.00000 26.14072 92.55851
vertex 150.00000 0.00000 96.00000
vertex 150.00000 0.00000 -5.00000
endloop
endfacet
facet normal 1 -3.7047400508553806e-17 2.814030636673664e-16
outer loop
vertex 150.00000 0.00000 96.00000
vertex 150.00000 -26.14072 92.55851
vertex 150.00000 0.00000 -5.00000
endloop
endfacet
facet normal 1 -1.0861753168622887e-16 2.622259046258994e-16
outer loop
vertex 150.00000 -26.14072 92.55851
vertex 150.00000 -50.50000 82.46857
vertex 150.00000 0.00000 -5.00000
endloop
endfacet
facet normal 1 -1.7278553233021276e-16 2.251784926518524e-16
outer loop
vertex 150.00000 -50.50000 82.46857
vertex 150.00000 -71.41779 66.41779
vertex 150.00000 0.00000 -5.00000
endloop
endfacet
facet normal 1 5.4362895156120485e-16 9.4159297654327e-16
outer loop
vertex 150.00000 -71.41779 66.41779
vertex 150.00000 -87.46857 45.50000
vertex 150.00000 0.00000 -5.00000
endloop
endfacet
facet normal 1 0 0
outer loop
vertex 150.00000 -87.46857 45.50000
vertex 150.00000 -97.55851 21.14072
vertex 150.00000 0.00000 -5.00000
endloop
endfacet
facet normal 1 0 0
outer loop
vertex 150.00000 -97.55851 21.14072
vertex 150.00000 -101.00000 -5.00000
vertex 150.00000 0.00000 -5.00000
endloop
endfacet
facet normal -1 0 0
outer loop
vertex 138.00000 -97.55851 -31.14072
vertex 138.00000 -101.00000 -5.00000
vertex 138.00000 -0.00000 -5.00000
endloop
endfacet
facet normal -1 0 0
outer loop
vertex 138.00000 -87.46857 -55.50000
vertex 138.00000 -97.55851 -31.14072
vertex 138.00000 -0.00000 -5.00000
endloop
endfacet
facet normal -1 5.4362895156120485e-16 -9.4159297654327e-16
outer loop
vertex 138.00000 -71.41779 -76.41779
vertex 138.00000 -87.46857 -55.50000
vertex 138.00000 -0.00000 -5.00000
endloop
endfacet
facet normal -1 -1.7278553233021276e-16 -2.251784926518524e-16
outer loop
vertex 138.00000 -50.50000 -92.46857
vertex 138.00000 -71.41779 -76.41779
vertex 138.00000 -0.00000 -5.00000
endloop
endfacet
facet normal -1 -1.0861753168622887e-16 -2.622259046258994e-16
outer loop
vertex 138.00000 -26.14072 -102.55851
vertex 138.00000 -50.50000 -92.46857
vertex 138.00000 -0.00000 -5.00000
endloop
endfacet
facet normal -1 -3.7047400508553843e-17 -2.814030636673664e-16
outer loop
vertex 138.00000 -0.00000 -106.00000
vertex 138.00000 -26.14072 -102.55851
vertex 138.00000 -0.00000 -5.00000
endloop
endfacet
facet normal -0.9999999999999999 3.704740050855382e-17 -2.8140306366736636e-16
outer loop
vertex 138.00000 26.14072 -102.55851
vertex 138.00000 -0.00000 -106.00000
vertex 138.00000 -0.00000 -5.00000
endloop
endfacet
facet normal -1 1.0861753168622887e-16 -2.622259046258994e-16
outer loop
vertex 138.00000 50.50000 -92.46857
vertex 138.00000 26.14072 -102.55851
vertex 138.00000 -0.00000 -5.00000
endloop
endfacet
facet normal -1 1.7278553233021276e-16 -2.251784926518524e-16
outer loop
vertex 138.00000 71.41779 -76.41779
vertex 138.00000 50.50000 -92.46857
vertex 138.00000 -0.00000 -5.00000
endloop
endfacet
facet normal -1 -5.4362895156120485e-16 -9.4159297654327e-16
outer loop
vertex 138.00000 87.46857 -55.50000
vertex 138.00000 71.41779 -76.41779
vertex 138.00000 -0.00000 -5.00000
endloop
endfacet
facet normal -1 0 0
outer loop
vertex 138.00000 97.55851 -31.14072
vertex 138.00000 87.46857 -55.50000
vertex 138.00000 -0.00000 -5.00000
endloop
endfacet
facet normal -1 0 0
outer loop
vertex 138.00000 101.00000 -5.00000
vertex 138.00000 97.55851 -31.14072
vertex 138.00000 -0.00000 -5.00000
endloop
endfacet
facet normal -1 0 0
outer loop
vertex 138.00000 97.55851 21.14072
vertex 138.00000 101.00000 -5.00000
vertex 138.00000 -0.00000 -5.00000
endloop
endfacet
facet normal -1 0 0
outer loop
vertex 138.00000 87.46857 45.50000
vertex 138.00000 97.55851 21.14072
vertex 138.00000 -0.00000 -5.00000
endloop
endfacet
facet normal -1 5.4362895156120485e-16 -9.4159297654327e-16
outer loop
vertex 138.00000 71.41779 66.41779
vertex 138.00000 87.46857 45.50000
vertex 138.00000 -0.00000 -5.00000
endloop
endfacet
facet normal -1 -1.7278553233021276e-16 -2.251784926518524e-16
outer loop
vertex 138.00000 50.50000 82.46857
vertex 138.00000 71.41779 66.41779
vertex 138.00000 -0.00000 -5.00000
endloop
endfacet
facet normal -1 -1.0861753168622887e-16 -2.622259046258994e-16
outer loop
vertex 138.00000 26.14072 92.55851
vertex 138.00000 50.50000 82.46857
vertex 138.00000 -0.00000 -5.00000
endloop
endfacet
facet normal -1 -3.704740050855386e-17 -2.814030636673664e-16
outer loop
vertex 138.00000 0.00000 96.00000
vertex 138.00000 26.14072 92.55851
vertex 138.00000 -0.00000 -5.00000
endloop
endfacet
facet normal -1 3.7047400508553806e-17 -2.814030636673664e-16
outer loop
vertex 138.00000 -26.14072 92.55851
vertex 138.00000 0.00000 96.00000
vertex 138.00000 -0.00000 -5.00000
endloop
endfacet
facet normal -1 1.0861753168622887e-16 -2.622259046258994e-16
outer loop
vertex 138.00000 -50.50000 82.46857
vertex 138.00000 -26.14072 92.55851
vertex 138.00000 -0.00000 -5.00000
endloop
endfacet
facet normal -1 1.7278553233021276e-16 -2.251784926518524e-16
outer loop
vertex 138.00000 -71.41779 66.41779
vertex 138.00000 -50.50000 82.46857
vertex 138.00000 -0.00000 -5.00000
endloop
endfacet
facet normal -1 -5.4362895156120485e-16 -9.4159297654327e-16
outer loop
vertex 138.00000 -87.46857 45.50000
vertex 138.00000 -71.41779 66.41779
vertex 138.00000 -0.00000 -5.00000
endloop
endfacet
facet normal -1 0 0
outer loop
vertex 138.00000 -97.55851 21.14072
vertex 138.00000 -87.46857 45.50000
vertex 138.00000 -0.00000 -5.00000
endloop
endfacet
facet normal -1 0 0
outer loop
vertex 138.00000 -101.00000 -5.00000
vertex 138.00000 -97.55851 21.14072
vertex 138.00000 -0.00000 -5.00000
endloop
endfacet
facet normal 1.7763568633120985e-16 -0.8660253998985327 -0.5000000067305869
outer loop
vertex 155.50000 81.00000 -5.00000
vertex 150.50000 81.00000 -5.00000
vertex 155.50000 83.00000 -8.46410
endloop
endfacet
facet normal 0 -0.8660253998985323 -0.500000006730587
outer loop
vertex 150.50000 81.00000 -5.00000
vertex 150.50000 83.00000 -8.46410
vertex 155.50000 83.00000 -8.46410
endloop
endfacet
facet normal 0 0 -1
outer loop
vertex 155.50000 83.00000 -8.46410
vertex 150.50000 83.00000 -8.46410
vertex 155.50000 87.00000 -8.46410
endloop
endfacet
facet normal 0 0 -1
outer loop
vertex 150.50000 83.00000 -8.46410
vertex 150.50000 87.00000 -8.46410
vertex 155.50000 87.00000 -8.46410
endloop
endfacet
facet normal 0 0.8660253998985326 -0.500000006730587
outer loop
vertex 155.50000 87.00000 -8.46410
vertex 150.50000 87.00000 -8.46410
vertex 155.50000 89.00000 -5.00000
endloop
endfacet
facet normal 8.881784316560494e-17 0.8660253998985323 -0.500000006730587
outer loop
vertex 150.50000 87.00000 -8.46410
vertex 150.50000 89.00000 -5.00000
vertex 155.50000 89.00000 -5.00000
endloop
endfacet
facet normal -8.881784316560493e-17 0.8660253998985327 0.5000000067305869
outer loop
vertex 155.50000 89.00000 -5.00000
vertex 150.50000 89.00000 -5.00000
vertex 155.50000 87.00000 -1.53590
endloop
endfacet
facet normal -8.881784316560493e-17 0.8660253998985327 0.5000000067305869
outer loop
vertex 150.50000 89.00000 -5.00000
vertex 150.50000 87.00000 -1.53590
vertex 155.50000 87.00000 -1.53590
endloop
endfacet
facet normal -1.7763568394002506e-16 0 1
outer loop
vertex 155.50000 87.00000 -1.53590
vertex 150.50000 87.00000 -1.53590
vertex 155.50000 83.00000 -1.53590
endloop
endfacet
facet normal -1.7763568394002506e-16 0 1
outer loop
vertex 150.50000 87.00000 -1.53590
vertex 150.50000 83.00000 -1.53590
vertex 155.50000 83.00000 -1.53590
endloop
endfacet
facet normal -8.881784316560495e-17 -0.8660253998985323 0.500000006730587
outer loop
vertex 155.50000 83.00000 -1.53590
vertex 150.50000 83.00000 -1.53590
vertex 155.50000 81.00000 -5.00000
endloop
endfacet
facet normal -1.7763568633120988e-16 -0.8660253998985323 0.500000006730587
outer loop
vertex 150.50000 83.00000 -1.53590
vertex 150.50000 81.00000 -5.00000
vertex 155.50000 81.00000 -5.00000
endloop
endfacet
facet normal 1 0 0
outer loop
vertex 155.50000 81.00000 -5.00000
vertex 155.50000 83.00000 -8.46410
vertex 155.50000 85.00000 -5.00000
endloop
endfacet
facet normal 1 0 0
outer loop
vertex 155.50000 83.00000 -8.46410
vertex 155.50000 87.00000 -8.46410
vertex 155.50000 85.00000 -5.00000
endloop
endfacet
facet normal 1 0 0
outer loop
vertex 155.50000 87.00000 -8.46410
vertex 155.50000 89.00000 -5.00000
vertex 155.50000 85.00000 -5.00000
endloop
endfacet
facet normal 1 0 0
outer loop
vertex 155.50000 89.00000 -5.00000
vertex 155.50000 87.00000 -1.53590
vertex 155.50000 85.00000 -5.00000
endloop
endfacet
facet normal 1 0 0
outer loop
vertex 155.50000 87.00000 -1.53590
vertex 155.50000 83.00000 -1.53590
vertex 155.50000 85.00000 -5.00000
endloop
endfacet
facet normal 1 0 0
outer loop
vertex 155.50000 83.00000 -1.53590
vertex 155.50000 81.00000 -5.00000
vertex 155.50000 85.00000 -5.00000
endloop
endfacet
facet normal -1 0 0
outer loop
vertex 150.50000 83.00000 -8.46410
vertex 150.50000 81.00000 -5.00000
vertex 150.50000 85.00000 -5.00000
endloop
endfacet
facet normal -1 0 0
outer loop
vertex 150.50000 87.00000 -8.46410
vertex 150.50000 83.00000 -8.46410
vertex 150.50000 85.00000 -5.00000
endloop
endfacet
facet normal -1 0 0
outer loop
vertex 150.50000 89.00000 -5.00000
vertex 150.50000 87.00000 -8.46410
vertex 150.50000 85.00000 -5.00000
endloop
endfacet
facet normal -1 0 0
outer loop
vertex 150.50000 87.00000 -1.53590
vertex 150.50000 89.00000 -5.00000
vertex 150.50000 85.00000 -5.00000
endloop
endfacet
facet normal -1 0 0
outer loop
vertex 150.50000 83.00000 -1.53590
vertex 150.50000 87.00000 -1.53590
vertex 150.50000 85.00000 -5.00000
endloop
endfacet
facet normal -1 0 0
outer loop
vertex 150.50000 81.00000 -5.00000
vertex 150.50000 83.00000 -1.53590
vertex 150.50000 85.00000 -5.00000
endloop
endfacet
facet normal 0 -0.8660253998985326 -0.500000006730587
outer loop
vertex 155.50000 64.76644 44.96175
vertex 150.50000 64.76644 44.96175
vertex 155.50000 66.76644 41.49764
endloop
endfacet
facet normal 0 -0.8660253998985326 -0.500000006730587
outer loop
vertex 150.50000 64.76644 44.96175
vertex 150.50000 66.76644 41.49764
vertex 155.50000 66.76644 41.49764
endloop
endfacet
facet normal 0 0 -1
outer loop
vertex 155.50000 66.76644 41.49764
vertex 150.50000 66.76644 41.49764
vertex 155.50000 70.76644 41.49764
endloop
endfacet
facet normal 0 0 -1
outer loop
vertex 150.50000 66.76644 41.49764
vertex 150.50000 70.76644 41.49764
vertex 155.50000 70.76644 41.49764
endloop
endfacet
facet normal 0 0.8660253998985326 -0.500000006730587
outer loop
vertex 155.50000 70.76644 41.49764
vertex 150.50000 70.76644 41.49764
vertex 155.50000 72.76644 44.96175
endloop
endfacet
facet normal 0 0.8660253998985326 -0.500000006730587
outer loop
vertex 150.50000 70.76644 41.49764
vertex 150.50000 72.76644 44.96175
vertex 155.50000 72.76644 44.96175
endloop
endfacet
facet normal 0 0.8660253998985326 0.500000006730587
outer loop
vertex 155.50000 72.76644 44.96175
vertex 150.50000 72.76644 44.96175
vertex 155.50000 70.76644 48.42585
endloop
endfacet
facet normal 0 0.8660253998985326 0.500000006730587
outer loop
vertex 150.50000 72.76644 44.96175
vertex 150.50000 70.76644 48.42585
vertex 155.50000 70.76644 48.42585
endloop
endfacet
facet normal 0 0 1
outer loop
vertex 155.50000 70.76644 48.42585
vertex 150.50000 70.76644 48.42585
vertex 155.50000 66.76644 48.42585
endloop
endfacet
facet normal 0 0 1
outer loop
vertex 150.50000 70.76644 48.42585
vertex 150.50000 66.76644 48.42585
vertex 155.50000 66.76644 48.42585
endloop
endfacet
facet normal 0 -0.8660253998985326 0.500000006730587
outer loop
vertex 155.50000 66.76644 48.42585
vertex 150.50000 66.76644 48.42585
vertex 155.50000 64.76644 44.96175
endloop
endfacet
facet normal 0 -0.8660253998985326 0.500000006730587
outer loop
vertex 150.50000 66.76644 48.42585
vertex 150.50000 64.76644 44.96175
vertex 155.50000 64.76644 44.96175
endloop
endfacet
facet normal 1 0 0
outer loop
vertex 155.50000 64.76644 44.96175
vertex 155.50000 66.76644 41.49764
vertex 155.50000 68.76644 44.96175
endloop
endfacet
facet normal 1 0 0
outer loop
vertex 155.50000 66.76644 41.49764
vertex 155.50000 70.76644 41.49764
vertex 155.50000 68.76644 44.96175
endloop
endfacet
facet normal 1 0 0
outer loop
vertex 155.50000 70.76644 41.49764
vertex 155.50000 72.76644 44.96175
vertex 155.50000 68.76644 44.96175
endloop
endfacet
facet normal 1 0 0
outer loop
vertex 155.50000 72.76644 44.96175
vertex 155.50000 70.76644 48.42585
vertex 155.50000 68.76644 44.96175
endloop
endfacet
facet normal 1 0 0
outer loop
vertex 155.50000 70.76644 48.42585
vertex 155.50000 66.76644 48.42585
vertex 155.50000 68.76644 44.96175
endloop
endfacet
facet normal 1 0 0
outer loop
vertex 155.50000 66.76644 48.42585
vertex 155.50000 64.76644 44.96175
vertex 155.50000 68.76644 44.96175
endloop
endfacet
facet normal -1 0 0
outer loop
vertex 150.50000 66.76644 41.49764
vertex 150.50000 64.76644 44.96175
vertex 150.50000 68.76644 44.96175
endloop
endfacet
facet normal -1 0 0
outer loop
vertex 150.50000 70.76644 41.49764
vertex 150.50000 66.76644 41.49764
vertex 150.50000 68.76644 44.96175
endloop
endfacet
facet normal -1 0 0
outer loop
vertex 150.50000 72.76644 44.96175
vertex 150.50000 70.76644 41.49764
vertex 150.50000 68.76644 44.96175
endloop
endfacet
facet normal -1 0 0
outer loop
vertex 150.50000 70.76644 48.42585
vertex 150.50000 72.76644 44.96175
vertex 150.50000 68.76644 44.96175
endloop
endfacet
facet normal -1 0 0
outer loop
vertex 150.50000 66.76644 48.42585
vertex 150.50000 70.76644 48.42585
vertex 150.50000 68.76644 44.96175
endloop
endfacet
facet normal -1 0 0
outer loop
vertex 150.50000 64.76644 44.96175
vertex 150.50000 66.76644 48.42585
vertex 150.50000 68.76644 44.96175
endloop
endfacet
facet normal 0 -0.8660253998985326 -0.500000006730587
outer loop
vertex 155.50000 22.26644 75.83980
vertex 150.50000 22.26644 75.83980
vertex 155.50000 24.26644 72.37570
endloop
endfacet
facet normal 0 -0.8660253998985326 -0.500000006730587
outer loop
vertex 150.50000 22.26644 75.83980
vertex 150.50000 24.26644 72.37570
vertex 155.50000 24.26644 72.37570
endloop
endfacet
facet normal 0 0 -1
outer loop
vertex 155.50000 24.26644 72.37570
vertex 150.50000 24.26644 72.37570
vertex 155.50000 28.26644 72.37570
endloop
endfacet
facet normal 0 0 -1
outer loop
vertex 150.50000 24.26644 72.37570
vertex 150.50000 28.26644 72.37570
vertex 155.50000 28.26644 72.37570
endloop
endfacet
facet normal 0 0.8660253998985326 -0.500000006730587
outer loop
vertex 155.50000 28.26644 72.37570
vertex 150.50000 28.26644 72.37570
vertex 155.50000 30.26644 75.83980
endloop
endfacet
facet normal 0 0.8660253998985326 -0.500000006730587
outer loop
vertex 150.50000 28.26644 72.37570
vertex 150.50000 30.26644 75.83980
vertex 155.50000 30.26644 75.83980
endloop
endfacet
facet normal 0 0.8660253998985326 0.500000006730587
outer loop
vertex 155.50000 30.26644 75.83980
vertex 150.50000 30.26644 75.83980
vertex 155.50000 28.26644 79.30391
endloop
endfacet
facet normal 0 0.8660253998985326 0.500000006730587
outer loop
vertex 150.50000 30.26644 75.83980
vertex 150.50000 28.26644 79.30391
vertex 155.50000 28.26644 79.30391
endloop
endfacet
facet normal 0 0 1
outer loop
vertex 155.50000 28.26644 79.30391
vertex 150.50000 28.26644 79.30391
vertex 155.50000 24.26644 79.30391
endloop
endfacet
facet normal 0 0 1
outer loop
vertex 150.50000 28.26644 79.30391
vertex 150.50000 24.26644 79.30391
vertex 155.50000 24.26644 79.30391
endloop
endfacet
facet normal 0 -0.8660253998985326 0.500000006730587
outer loop
vertex 155.50000 24.26644 79.30391
vertex 150.50000 24.26644 79.30391
vertex 155.50000 22.26644 75.83980
endloop
endfacet
facet normal 0 -0.8660253998985326 0.500000006730587
outer loop
vertex 150.50000 24.26644 79.30391
vertex 150.50000 22.26644 75.83980
vertex 155.50000 22.26644 75.83980
endloop
endfacet
facet normal 1 0 0
outer loop
vertex 155.50000 22.26644 75.83980
vertex 155.50000 24.26644 72.37570
vertex 155.50000 26.26644 75.83980
endloop
endfacet
facet normal 1 0 0
outer loop
vertex 155.50000 24.26644 72.37570
vertex 155.50000 28.26644 72.37570
vertex 155.50000 26.26644 75.83980
endloop
endfacet
facet normal 1 0 0
outer loop
vertex 155.50000 28.26644 72.37570
vertex 155.50000 30.26644 75.83980
vertex 155.50000 26.26644 75.83980
endloop
endfacet
facet normal 1 0 0
outer loop
vertex 155.50000 30.26644 75.83980
vertex 155.50000 28.26644 79.30391
vertex 155.50000 26.26644 75.83980
endloop
endfacet
facet normal 1 0 0
outer loop
vertex 155.50000 28.26644 79.30391
vertex 155.50000 24.26644 79.30391
vertex 155.50000 26.26644 75.83980
endloop
endfacet
facet normal 1 0 0
outer loop
vertex 155.50000 24.26644 79.30391
vertex 155.50000 22.26644 75.83980
vertex 155.50000 26.26644 75.83980
endloop
endfacet
facet normal -1 0 0
outer loop
vertex 150.50000 24.26644 72.37570
vertex 150.50000 22.26644 75.83980
vertex 150.50000 26.26644 75.83980
endloop
endfacet
facet normal -1 0 0
outer loop
vertex 150.50000 28.26644 72.37570
vertex 150.50000 24.26644 72.37570
vertex 150.50000 26.26644 75.83980
endloop
endfacet
facet normal -1 0 0
outer loop
vertex 150.50000 30.26644 75.83980
vertex 150.50000 28.26644 72.37570
vertex 150.50000 26.26644 75.83980
endloop
endfacet
facet normal -1 0 0
outer loop
vertex 150.50000 28.26644 79.30391
vertex 150.50000 30.26644 75.83980
vertex 150.50000 26.26644 75.83980
endloop
endfacet
facet normal -1 0 0
outer loop
vertex 150.50000 24.26644 79.30391
vertex 150.50000 28.26644 79.30391
vertex 150.50000 26.26644 75.83980
endloop
endfacet
facet normal -1 0 0
outer loop
vertex 150.50000 22.26644 75.83980
vertex 150.50000 24.26644 79.30391
vertex 150.50000 26.26644 75.83980
endloop
endfacet
facet normal 0 -0.8660253998985326 -0.500000006730587
outer loop
vertex 155.50000 -30.26644 75.83980
vertex 150.50000 -30.26644 75.83980
vertex 155.50000 -28.26644 72.37570
endloop
endfacet
facet normal 0 -0.8660253998985326 -0.500000006730587
outer loop
vertex 150.50000 -30.26644 75.83980
vertex 150.50000 -28.26644 72.37570
vertex 155.50000 -28.26644 72.37570
endloop
endfacet
facet normal 0 0 -1
outer loop
vertex 155.50000 -28.26644 72.37570
vertex 150.50000 -28.26644 72.37570
vertex 155.50000 -24.26644 72.37570
endloop
endfacet
facet normal 0 0 -1
outer loop
vertex 150.50000 -28.26644 72.37570
vertex 150.50000 -24.26644 72.37570
vertex 155.50000 -24.26644 72.37570
endloop
endfacet
facet normal 0 0.8660253998985326 -0.500000006730587
outer loop
vertex 155.50000 -24.26644 72.37570
vertex 150.50000 -24.26644 72.37570
vertex 155.50000 -22.26644 75.83980
endloop
endfacet
facet normal 0 0.8660253998985326 -0.500000006730587
outer loop
vertex 150.50000 -24.26644 72.37570
vertex 150.50000 -22.26644 75.83980
vertex 155.50000 -22.26644 75.83980
endloop
endfacet
facet normal 0 0.8660253998985326 0.500000006730587
outer loop
vertex 155.50000 -22.26644 75.83980
vertex 150.50000 -22.26644 75.83980
vertex 155.50000 -24.26644 79.30391
endloop
endfacet
facet normal 0 0.8660253998985326 0.500000006730587
outer loop
vertex 150.50000 -22.26644 75.83980
vertex 150.50000 -24.26644 79.30391
vertex 155.50000 -24.26644 79.30391
endloop
endfacet
facet normal 0 0 1
outer loop
vertex 155.50000 -24.26644 79.30391
vertex 150.50000 -24.26644 79.30391
vertex 155.50000 -28.26644 79.30391
endloop
endfacet
facet normal 0 0 1
outer loop
vertex 150.50000 -24.26644 79.30391
vertex 150.50000 -28.26644 79.30391
vertex 155.50000 -28.26644 79.30391
endloop
endfacet
facet normal 0 -0.8660253998985326 0.500000006730587
outer loop
vertex 155.50000 -28.26644 79.30391
vertex 150.50000 -28.26644 79.30391
vertex 155.50000 -30.26644 75.83980
endloop
endfacet
facet normal 0 -0.8660253998985326 0.500000006730587
outer loop
vertex 150.50000 -28.26644 79.30391
vertex 150.50000 -30.26644 75.83980
vertex 155.50000 -30.26644 75.83980
endloop
endfacet
facet normal 1 0 0
outer loop
vertex 155.50000 -30.26644 75.83980
vertex 155.50000 -28.26644 72.37570
vertex 155.50000 -26.26644 75.83980
endloop
endfacet
facet normal 1 0 0
outer loop
vertex 155.50000 -28.26644 72.37570
vertex 155.50000 -24.26644 72.37570
vertex 155.50000 -26.26644 75.83980
endloop
endfacet
facet normal 1 0 0
outer loop
vertex 155.50000 -24.26644 72.37570
vertex 155.50000 -22.26644 75.83980
vertex 155.50000 -26.26644 75.83980
endloop
endfacet
facet normal 1 0 0
outer loop
vertex 155.50000 -22.26644 75.83980
vertex 155.50000 -24.26644 79.30391
vertex 155.50000 -26.26644 75.83980
endloop
endfacet
facet normal 1 0 0
outer loop
vertex 155.50000 -24.26644 79.30391
vertex 155.50000 -28.26644 79.30391
vertex 155.50000 -26.26644 75.83980
endloop
endfacet
facet normal 1 0 0
outer loop
vertex 155.50000 -28.26644 79.30391
vertex 155.50000 -30.26644 75.83980
vertex 155.50000 -26.26644 75.83980
endloop
endfacet
facet normal -1 0 0
outer loop
vertex 150.50000 -28.26644 72.37570
vertex 150.50000 -30.26644 75.83980
vertex 150.50000 -26.26644 75.83980
endloop
endfacet
facet normal -1 0 0
outer loop
vertex 150.50000 -24.26644 72.37570
vertex 150.50000 -28.26644 72.37570
vertex 150.50000 -26.26644 75.83980
endloop
endfacet
facet normal -1 0 0
outer loop
vertex 150.50000 -22.26644 75.83980
vertex 150.50000 -24.26644 72.37570
vertex 150.50000 -26.26644 75.83980
endloop
endfacet
facet normal -1 0 0
outer loop
vertex 150.50000 -24.26644 79.30391
vertex 150.50000 -22.26644 75.83980
vertex 150.50000 -26.26644 75.83980
endloop
endfacet
facet normal -1 0 0
outer loop
vertex 150.50000 -28.26644 79.30391
vertex 150.50000 -24.26644 79.30391
vertex 150.50000 -26.26644 75.83980
endloop
endfacet
facet normal -1 0 0
outer loop
vertex 150.50000 -30.26644 75.83980
vertex 150.50000 -28.26644 79.30391
vertex 150.50000 -26.26644 75.83980
endloop
endfacet
facet normal 0 -0.8660253998985326 -0.500000006730587
outer loop
vertex 155.50000 -72.76644 44.96175
vertex 150.50000 -72.76644 44.96175
vertex 155.50000 -70.76644 41.49764
endloop
endfacet
facet normal 0 -0.8660253998985326 -0.500000006730587
outer loop
vertex 150.50000 -72.76644 44.96175
vertex 150.50000 -70.76644 41.49764
vertex 155.50000 -70.76644 41.49764
endloop
endfacet
facet normal 0 0 -1
outer loop
vertex 155.50000 -70.76644 41.49764
vertex 150.50000 -70.76644 41.49764
vertex 155.50000 -66.76644 41.49764
endloop
endfacet
facet normal 0 0 -1
outer loop
vertex 150.50000 -70.76644 41.49764
vertex 150.50000 -66.76644 41.49764
vertex 155.50000 -66.76644 41.49764
endloop
endfacet
facet normal 0 0.8660253998985326 -0.500000006730587
outer loop
vertex 155.50000 -66.76644 41.49764
vertex 150.50000 -66.76644 41.49764
vertex 155.50000 -64.76644 44.96175
endloop
endfacet
facet normal 0 0.8660253998985326 -0.500000006730587
outer loop
vertex 150.50000 -66.76644 41.49764
vertex 150.50000 -64.76644 44.96175
vertex 155.50000 -64.76644 44.96175
endloop
endfacet
facet normal 0 0.8660253998985326 0.500000006730587
outer loop
vertex 155.50000 -64.76644 44.96175
vertex 150.50000 -64.76644 44.96175
vertex 155.50000 -66.76644 48.42585
endloop
endfacet
facet normal 0 0.8660253998985326 0.500000006730587
outer loop
vertex 150.50000 -64.76644 44.96175
vertex 150.50000 -66.76644 48.42585
vertex 155.50000 -66.76644 48.42585
endloop
endfacet
facet normal 0 0 1
outer loop
vertex 155.50000 -66.76644 48.42585
vertex 150.50000 -66.76644 48.42585
vertex 155.50000 -70.76644 48.42585
endloop
endfacet
facet normal 0 0 1
outer loop
vertex 150.50000 -66.76644 48.42585
vertex 150.50000 -70.76644 48.42585
vertex 155.50000 -70.76644 48.42585
endloop
endfacet
facet normal 0 -0.8660253998985326 0.500000006730587
outer loop
vertex 155.50000 -70.76644 48.42585
vertex 150.50000 -70.76644 48.42585
vertex 155.50000 -72.76644 44.96175
endloop
endfacet
facet normal 0 -0.8660253998985326 0.500000006730587
outer loop
vertex 150.50000 -70.76644 48.42585
vertex 150.50000 -72.76644 44.96175
vertex 155.50000 -72.76644 44.96175
endloop
endfacet
facet normal 1 0 0
outer loop
vertex 155.50000 -72.76644 44.96175
vertex 155.50000 -70.76644 41.49764
vertex 155.50000 -68.76644 44.96175
endloop
endfacet
facet normal 1 0 0
outer loop
vertex 155.50000 -70.76644 41.49764
vertex 155.50000 -66.76644 41.49764
vertex 155.50000 -68.76644 44.96175
endloop
endfacet
facet normal 1 0 0
outer loop
vertex 155.50000 -66.76644 41.49764
vertex 155.50000 -64.76644 44.96175
vertex 155.50000 -68.76644 44.96175
endloop
endfacet
facet normal 1 0 0
outer loop
vertex 155.50000 -64.76644 44.96175
vertex 155.50000 -66.76644 48.42585
vertex 155.50000 -68.76644 44.96175
endloop
endfacet
facet normal 1 0 0
outer loop
vertex 155.50000 -66.76644 48.42585
vertex 155.50000 -70.76644 48.42585
vertex 155.50000 -68.76644 44.96175
endloop
endfacet
facet normal 1 0 0
outer loop
vertex 155.50000 -70.76644 48.42585
vertex 155.50000 -72.76644 44.96175
vertex 155.50000 -68.76644 44.96175
endloop
endfacet
facet normal -1 0 0
outer loop
vertex 150.50000 -70.76644 41.49764
vertex 150.50000 -72.76644 44.96175
vertex 150.50000 -68.76644 44.96175
endloop
endfacet
facet normal -1 0 0
outer loop
vertex 150.50000 -66.76644 41.49764
vertex 150.50000 -70.76644 41.49764
vertex 150.50000 -68.76644 44.96175
endloop
endfacet
facet normal -1 0 0
outer loop
vertex 150.50000 -64.76644 44.96175
vertex 150.50000 -66.76644 41.49764
vertex 150.50000 -68.76644 44.96175
endloop
endfacet
facet normal -1 0 0
outer loop
vertex 150.50000 -66.76644 48.42585
vertex 150.50000 -64.76644 44.96175
vertex 150.50000 -68.76644 44.96175
endloop
endfacet
facet normal -1 0 0
outer loop
vertex 150.50000 -70.76644 48.42585
vertex 150.50000 -66.76644 48.42585
vertex 150.50000 -68.76644 44.96175
endloop
endfacet
facet normal -1 0 0
outer loop
vertex 150.50000 -72.76644 44.96175
vertex 150.50000 -70.76644 48.42585
vertex 150.50000 -68.76644 44.96175
endloop
endfacet
facet normal 1.7763568633120985e-16 -0.8660253998985327 -0.5000000067305869
outer loop
vertex 155.50000 -89.00000 -5.00000
vertex 150.50000 -89.00000 -5.00000
vertex 155.50000 -87.00000 -8.46410
endloop
endfacet
facet normal 0 -0.8660253998985323 -0.500000006730587
outer loop
vertex 150.50000 -89.00000 -5.00000
vertex 150.50000 -87.00000 -8.46410
vertex 155.50000 -87.00000 -8.46410
endloop
endfacet
facet normal 0 0 -1
outer loop
vertex 155.50000 -87.00000 -8.46410
vertex 150.50000 -87.00000 -8.46410
vertex 155.50000 -83.00000 -8.46410
endloop
endfacet
facet normal 0 0 -1
outer loop
vertex 150.50000 -87.00000 -8.46410
vertex 150.50000 -83.00000 -8.46410
vertex 155.50000 -83.00000 -8.46410
endloop
endfacet
facet normal 0 0.8660253998985326 -0.500000006730587
outer loop
vertex 155.50000 -83.00000 -8.46410
vertex 150.50000 -83.00000 -8.46410
vertex 155.50000 -81.00000 -5.00000
endloop
endfacet
facet normal 8.881784316560494e-17 0.8660253998985323 -0.500000006730587
outer loop
vertex 150.50000 -83.00000 -8.46410
vertex 150.50000 -81.00000 -5.00000
vertex 155.50000 -81.00000 -5.00000
endloop
endfacet
facet normal -8.881784316560493e-17 0.8660253998985327 0.5000000067305869
outer loop
vertex 155.50000 -81.00000 -5.00000
vertex 150.50000 -81.00000 -5.00000
vertex 155.50000 -83.00000 -1.53590
endloop
endfacet
facet normal -8.881784316560493e-17 0.8660253998985327 0.5000000067305869
outer loop
vertex 150.50000 -81.00000 -5.00000
vertex 150.50000 -83.00000 -1.53590
vertex 155.50000 -83.00000 -1.53590
endloop
endfacet
facet normal -1.7763568394002506e-16 0 1
outer loop
vertex 155.50000 -83.00000 -1.53590
vertex 150.50000 -83.00000 -1.53590
vertex 155.50000 -87.00000 -1.53590
endloop
endfacet
facet normal -1.7763568394002506e-16 0 1
outer loop
vertex 150.50000 -83.00000 -1.53590
vertex 150.50000 -87.00000 -1.53590
vertex 155.50000 -87.00000 -1.53590
endloop
endfacet
facet normal -8.881784316560495e-17 -0.8660253998985323 0.500000006730587
outer loop
vertex 155.50000 -87.00000 -1.53590
vertex 150.50000 -87.00000 -1.53590
vertex 155.50000 -89.00000 -5.00000
endloop
endfacet
facet normal -1.7763568633120988e-16 -0.8660253998985323 0.500000006730587
outer loop
vertex 150.50000 -87.00000 -1.53590
vertex 150.50000 -89.00000 -5.00000
vertex 155.50000 -89.00000 -5.00000
endloop
endfacet
facet normal 1 0 0
outer loop
vertex 155.50000 -89.00000 -5.00000
vertex 155.50000 -87.00000 -8.46410
vertex 155.50000 -85.00000 -5.00000
endloop
endfacet
facet normal 1 0 0
outer loop
vertex 155.50000 -87.00000 -8.46410
vertex 155.50000 -83.00000 -8.46410
vertex 155.50000 -85.00000 -5.00000
endloop
endfacet
facet normal 1 0 0
outer loop
vertex 155.50000 -83.00000 -8.46410
vertex 155.50000 -81.00000 -5.00000
vertex 155.50000 -85.00000 -5.00000
endloop
endfacet
facet normal 1 0 0
outer loop
vertex 155.50000 -81.00000 -5.00000
vertex 155.50000 -83.00000 -1.53590
vertex 155.50000 -85.00000 -5.00000
endloop
endfacet
facet normal 1 0 0
outer loop
vertex 155.50000 -83.00000 -1.53590
vertex 155.50000 -87.00000 -1.53590
vertex 155.50000 -85.00000 -5.00000
endloop
endfacet
facet normal 1 0 0
outer loop
vertex 155.50000 -87.00000 -1.53590
vertex 155.50000 -89.00000 -5.00000
vertex 155.50000 -85.00000 -5.00000
endloop
endfacet
facet normal -1 0 0
outer loop
vertex 150.50000 -87.00000 -8.46410
vertex 150.50000 -89.00000 -5.00000
vertex 150.50000 -85.00000 -5.00000
endloop
endfacet
facet normal -1 0 0
outer loop
vertex 150.50000 -83.00000 -8.46410
vertex 150.50000 -87.00000 -8.46410
vertex 150.50000 -85.00000 -5.00000
endloop
endfacet
facet normal -1 0 0
outer loop
vertex 150.50000 -81.00000 -5.00000
vertex 150.50000 -83.00000 -8.46410
vertex 150.50000 -85.00000 -5.00000
endloop
endfacet
facet normal -1 0 0
outer loop
vertex 150.50000 -83.00000 -1.53590
vertex 150.50000 -81.00000 -5.00000
vertex 150.50000 -85.00000 -5.00000
endloop
endfacet
facet normal -1 0 0
outer loop
vertex 150.50000 -87.00000 -1.53590
vertex 150.50000 -83.00000 -1.53590
vertex 150.50000 -85.00000 -5.00000
endloop
endfacet
facet normal -1 0 0
outer loop
vertex 150.50000 -89.00000 -5.00000
vertex 150.50000 -87.00000 -1.53590
vertex 150.50000 -85.00000 -5.00000
endloop
endfacet
facet normal 0 -0.8660253998985326 -0.500000006730587
outer loop
vertex 155.50000 -72.76644 -54.96175
vertex 150.50000 -72.76644 -54.96175
vertex 155.50000 -70.76644 -58.42585
endloop
endfacet
facet normal 0 -0.8660253998985326 -0.500000006730587
outer loop
vertex 150.50000 -72.76644 -54.96175
vertex 150.50000 -70.76644 -58.42585
vertex 155.50000 -70.76644 -58.42585
endloop
endfacet
facet normal 0 0 -1
outer loop
vertex 155.50000 -70.76644 -58.42585
vertex 150.50000 -70.76644 -58.42585
vertex 155.50000 -66.76644 -58.42585
endloop
endfacet
facet normal 0 0 -1
outer loop
vertex 150.50000 -70.76644 -58.42585
vertex 150.50000 -66.76644 -58.42585
vertex 155.50000 -66.76644 -58.42585
endloop
endfacet
facet normal 0 0.8660253998985326 -0.500000006730587
outer loop
vertex 155.50000 -66.76644 -58.42585
vertex 150.50000 -66.76644 -58.42585
vertex 155.50000 -64.76644 -54.96175
endloop
endfacet
facet normal 0 0.8660253998985326 -0.500000006730587
outer loop
vertex 150.50000 -66.76644 -58.42585
vertex 150.50000 -64.76644 -54.96175
vertex 155.50000 -64.76644 -54.96175
endloop
endfacet
facet normal 0 0.8660253998985326 0.500000006730587
outer loop
vertex 155.50000 -64.76644 -54.96175
vertex 150.50000 -64.76644 -54.96175
vertex 155.50000 -66.76644 -51.49764
endloop
endfacet
facet normal 0 0.8660253998985326 0.500000006730587
outer loop
vertex 150.50000 -64.76644 -54.96175
vertex 150.50000 -66.76644 -51.49764
vertex 155.50000 -66.76644 -51.49764
endloop
endfacet
facet normal 0 0 1
outer loop
vertex 155.50000 -66.76644 -51.49764
vertex 150.50000 -66.76644 -51.49764
vertex 155.50000 -70.76644 -51.49764
endloop
endfacet
facet normal 0 0 1
outer loop
vertex 150.50000 -66.76644 -51.49764
vertex 150.50000 -70.76644 -51.49764
vertex 155.50000 -70.76644 -51.49764
endloop
endfacet
facet normal 0 -0.8660253998985326 0.500000006730587
outer loop
vertex 155.50000 -70.76644 -51.49764
vertex 150.50000 -70.76644 -51.49764
vertex 155.50000 -72.76644 -54.96175
endloop
endfacet
facet normal 0 -0.8660253998985326 0.500000006730587
outer loop
vertex 150.50000 -70.76644 -51.49764
vertex 150.50000 -72.76644 -54.96175
vertex 155.50000 -72.76644 -54.96175
endloop
endfacet
facet normal 1 0 0
outer loop
vertex 155.50000 -72.76644 -54.96175
vertex 155.50000 -70.76644 -58.42585
vertex 155.50000 -68.76644 -54.96175
endloop
endfacet
facet normal 1 0 0
outer loop
vertex 155.50000 -70.76644 -58.42585
vertex 155.50000 -66.76644 -58.42585
vertex 155.50000 -68.76644 -54.96175
endloop
endfacet
facet normal 1 0 0
outer loop
vertex 155.50000 -66.76644 -58.42585
vertex 155.50000 -64.76644 -54.96175
vertex 155.50000 -68.76644 -54.96175
endloop
endfacet
facet normal 1 0 0
outer loop
vertex 155.50000 -64.76644 -54.96175
vertex 155.50000 -66.76644 -51.49764
vertex 155.50000 -68.76644 -54.96175
endloop
endfacet
facet normal 1 0 0
outer loop
vertex 155.50000 -66.76644 -51.49764
vertex 155.50000 -70.76644 -51.49764
vertex 155.50000 -68.76644 -54.96175
endloop
endfacet
facet normal 1 0 0
outer loop
vertex 155.50000 -70.76644 -51.49764
vertex 155.50000 -72.76644 -54.96175
vertex 155.50000 -68.76644 -54.96175
endloop
endfacet
facet normal -1 0 0
outer loop
vertex 150.50000 -70.76644 -58.42585
vertex 150.50000 -72.76644 -54.96175
vertex 150.50000 -68.76644 -54.96175
endloop
endfacet
facet normal -1 0 0
outer loop
vertex 150.50000 -66.76644 -58.42585
vertex 150.50000 -70.76644 -58.42585
vertex 150.50000 -68.76644 -54.96175
endloop
endfacet
facet normal -1 0 0
outer loop
vertex 150.50000 -64.76644 -54.96175
vertex 150.50000 -66.76644 -58.42585
vertex 150.50000 -68.76644 -54.96175
endloop
endfacet
facet normal -1 0 0
outer loop
vertex 150.50000 -66.76644 -51.49764
vertex 150.50000 -64.76644 -54.96175
vertex 150.50000 -68.76644 -54.96175
endloop
endfacet
facet normal -1 0 0
outer loop
vertex 150.50000 -70.76644 -51.49764
vertex 150.50000 -66.76644 -51.49764
vertex 150.50000 -68.76644 -54.96175
endloop
endfacet
facet normal -1 0 0
outer loop
vertex 150.50000 -72.76644 -54.96175
vertex 150.50000 -70.76644 -51.49764
vertex 150.50000 -68.76644 -54.96175
endloop
endfacet
facet normal 0 -0.8660253998985326 -0.500000006730587
outer loop
vertex 155.50000 -30.26644 -85.83980
vertex 150.50000 -30.26644 -85.83980
vertex 155.50000 -28.26644 -89.30391
endloop
endfacet
facet normal 0 -0.8660253998985326 -0.500000006730587
outer loop
vertex 150.50000 -30.26644 -85.83980
vertex 150.50000 -28.26644 -89.30391
vertex 155.50000 -28.26644 -89.30391
endloop
endfacet
facet normal 0 0 -1
outer loop
vertex 155.50000 -28.26644 -89.30391
vertex 150.50000 -28.26644 -89.30391
vertex 155.50000 -24.26644 -89.30391
endloop
endfacet
facet normal 0 0 -1
outer loop
vertex 150.50000 -28.26644 -89.30391
vertex 150.50000 -24.26644 -89.30391
vertex 155.50000 -24.26644 -89.30391
endloop
endfacet
facet normal 0 0.8660253998985326 -0.500000006730587
outer loop
vertex 155.50000 -24.26644 -89.30391
vertex 150.50000 -24.26644 -89.30391
vertex 155.50000 -22.26644 -85.83980
endloop
endfacet
facet normal 0 0.8660253998985326 -0.500000006730587
outer loop
vertex 150.50000 -24.26644 -89.30391
vertex 150.50000 -22.26644 -85.83980
vertex 155.50000 -22.26644 -85.83980
endloop
endfacet
facet normal 0 0.8660253998985326 0.500000006730587
outer loop
vertex 155.50000 -22.26644 -85.83980
vertex 150.50000 -22.26644 -85.83980
vertex 155.50000 -24.26644 -82.37570
endloop
endfacet
facet normal 0 0.8660253998985326 0.500000006730587
outer loop
vertex 150.50000 -22.26644 -85.83980
vertex 150.50000 -24.26644 -82.37570
vertex 155.50000 -24.26644 -82.37570
endloop
endfacet
facet normal 0 0 1
outer loop
vertex 155.50000 -24.26644 -82.37570
vertex 150.50000 -24.26644 -82.37570
vertex 155.50000 -28.26644 -82.37570
endloop
endfacet
facet normal 0 0 1
outer loop
vertex 150.50000 -24.26644 -82.37570
vertex 150.50000 -28.26644 -82.37570
vertex 155.50000 -28.26644 -82.37570
endloop
endfacet
facet normal 0 -0.8660253998985326 0.500000006730587
outer loop
vertex 155.50000 -28.26644 -82.37570
vertex 150.50000 -28.26644 -82.37570
vertex 155.50000 -30.26644 -85.83980
endloop
endfacet
facet normal 0 -0.8660253998985326 0.500000006730587
outer loop
vertex 150.50000 -28.26644 -82.37570
vertex 150.50000 -30.26644 -85.83980
vertex 155.50000 -30.26644 -85.83980
endloop
endfacet
facet normal 1 0 0
outer loop
vertex 155.50000 -30.26644 -85.83980
vertex 155.50000 -28.26644 -89.30391
vertex 155.50000 -26.26644 -85.83980
endloop
endfacet
facet normal 1 0 0
outer loop
vertex 155.50000 -28.26644 -89.30391
vertex 155.50000 -24.26644 -89.30391
vertex 155.50000 -26.26644 -85.83980
endloop
endfacet
facet normal 1 0 0
outer loop
vertex 155.50000 -24.26644 -89.30391
vertex 155.50000 -22.26644 -85.83980
vertex 155.50000 -26.26644 -85.83980
endloop
endfacet
facet normal 1 0 0
outer loop
vertex 155.50000 -22.26644 -85.83980
vertex 155.50000 -24.26644 -82.37570
vertex 155.50000 -26.26644 -85.83980
endloop
endfacet
facet normal 1 0 0
outer loop
vertex 155.50000 -24.26644 -82.37570
vertex 155.50000 -28.26644 -82.37570
vertex 155.50000 -26.26644 -85.83980
endloop
endfacet
facet normal 1 0 0
outer loop
vertex 155.50000 -28.26644 -82.37570
vertex 155.50000 -30.26644 -85.83980
vertex 155.50000 -26.26644 -85.83980
endloop
endfacet
facet normal -1 0 0
outer loop
vertex 150.50000 -28.26644 -89.30391
vertex 150.50000 -30.26644 -85.83980
vertex 150.50000 -26.26644 -85.83980
endloop
endfacet
facet normal -1 0 0
outer loop
vertex 150.50000 -24.26644 -89.30391
vertex 150.50000 -28.26644 -89.30391
vertex 150.50000 -26.26644 -85.83980
endloop
endfacet
facet normal -1 0 0
outer loop
vertex 150.50000 -22.26644 -85.83980
vertex 150.50000 -24.26644 -89.30391
vertex 150.50000 -26.26644 -85.83980
endloop
endfacet
facet normal -1 0 0
outer loop
vertex 150.50000 -24.26644 -82.37570
vertex 150.50000 -22.26644 -85.83980
vertex 150.50000 -26.26644 -85.83980
endloop
endfacet
facet normal -1 0 0
outer loop
vertex 150.50000 -28.26644 -82.37570
vertex 150.50000 -24.26644 -82.37570
vertex 150.50000 -26.26644 -85.83980
endloop
endfacet
facet normal -1 0 0
outer loop
vertex 150.50000 -30.26644 -85.83980
vertex 150.50000 -28.26644 -82.37570
vertex 150.50000 -26.26644 -85.83980
endloop
endfacet
facet normal 0 -0.8660253998985326 -0.500000006730587
outer loop
vertex 155.50000 22.26644 -85.83980
vertex 150.50000 22.26644 -85.83980
vertex 155.50000 24.26644 -89.30391
endloop
endfacet
facet normal 0 -0.8660253998985326 -0.500000006730587
outer loop
vertex 150.50000 22.26644 -85.83980
vertex 150.50000 24.26644 -89.30391
vertex 155.50000 24.26644 -89.30391
endloop
endfacet
facet normal 0 0 -1
outer loop
vertex 155.50000 24.26644 -89.30391
vertex 150.50000 24.26644 -89.30391
vertex 155.50000 28.26644 -89.30391
endloop
endfacet
facet normal 0 0 -1
outer loop
vertex 150.50000 24.26644 -89.30391
vertex 150.50000 28.26644 -89.30391
vertex 155.50000 28.26644 -89.30391
endloop
endfacet
facet normal 0 0.8660253998985326 -0.500000006730587
outer loop
vertex 155.50000 28.26644 -89.30391
vertex 150.50000 28.26644 -89.30391
vertex 155.50000 30.26644 -85.83980
endloop
endfacet
facet normal 0 0.8660253998985326 -0.500000006730587
outer loop
vertex 150.50000 28.26644 -89.30391
vertex 150.50000 30.26644 -85.83980
vertex 155.50000 30.26644 -85.83980
endloop
endfacet
facet normal 0 0.8660253998985326 0.500000006730587
outer loop
vertex 155.50000 30.26644 -85.83980
vertex 150.50000 30.26644 -85.83980
vertex 155.50000 28.26644 -82.37570
endloop
endfacet
facet normal 0 0.8660253998985326 0.500000006730587
outer loop
vertex 150.50000 30.26644 -85.83980
vertex 150.50000 28.26644 -82.37570
vertex 155.50000 28.26644 -82.37570
endloop
endfacet
facet normal 0 0 1
outer loop
vertex 155.50000 28.26644 -82.37570
vertex 150.50000 28.26644 -82.37570
vertex 155.50000 24.26644 -82.37570
endloop
endfacet
facet normal 0 0 1
outer loop
vertex 150.50000 28.26644 -82.37570
vertex 150.50000 24.26644 -82.37570
vertex 155.50000 24.26644 -82.37570
endloop
endfacet
facet normal 0 -0.8660253998985326 0.500000006730587
outer loop
vertex 155.50000 24.26644 -82.37570
vertex 150.50000 24.26644 -82.37570
vertex 155.50000 22.26644 -85.83980
endloop
endfacet
facet normal 0 -0.8660253998985326 0.500000006730587
outer loop
vertex 150.50000 24.26644 -82.37570
vertex 150.50000 22.26644 -85.83980
vertex 155.50000 22.26644 -85.83980
endloop
endfacet
facet normal 1 0 0
outer loop
vertex 155.50000 22.26644 -85.83980
vertex 155.50000 24.26644 -89.30391
vertex 155.50000 26.26644 -85.83980
endloop
endfacet
facet normal 1 0 0
outer loop
vertex 155.50000 24.26644 -89.30391
vertex 155.50000 28.26644 -89.30391
vertex 155.50000 26.26644 -85.83980
endloop
endfacet
facet normal 1 0 0
outer loop
vertex 155.50000 28.26644 -89.30391
vertex 155.50000 30.26644 -85.83980
vertex 155.50000 26.26644 -85.83980
endloop
endfacet
facet normal 1 0 0
outer loop
vertex 155.50000 30.26644 -85.83980
vertex 155.50000 28.26644 -82.37570
vertex 155.50000 26.26644 -85.83980
endloop
endfacet
facet normal 1 0 0
outer loop
vertex 155.50000 28.26644 -82.37570
vertex 155.50000 24.26644 -82.37570
vertex 155.50000 26.26644 -85.83980
endloop
endfacet
facet normal 1 0 0
outer loop
vertex 155.50000 24.26644 -82.37570
vertex 155.50000 22.26644 -85.83980
vertex 155.50000 26.26644 -85.83980
endloop
endfacet
facet normal -1 0 0
outer loop
vertex 150.50000 24.26644 -89.30391
vertex 150.50000 22.26644 -85.83980
vertex 150.50000 26.26644 -85.83980
endloop
endfacet
facet normal -1 0 0
outer loop
vertex 150.50000 28.26644 -89.30391
vertex 150.50000 24.26644 -89.30391
vertex 150.50000 26.26644 -85.83980
endloop
endfacet
facet normal -1 0 0
outer loop
vertex 150.50000 30.26644 -85.83980
vertex 150.50000 28.26644 -89.30391
vertex 150.50000 26.26644 -85.83980
endloop
endfacet
facet normal -1 0 0
outer loop
vertex 150.50000 28.26644 -82.37570
vertex 150.50000 30.26644 -85.83980
vertex 150.50000 26.26644 -85.83980
endloop
endfacet
facet normal -1 0 0
outer loop
vertex 150.50000 24.26644 -82.37570
vertex 150.50000 28.26644 -82.37570
vertex 150.50000 26.26644 -85.83980
endloop
endfacet
facet normal -1 0 0
outer loop
vertex 150.50000 22.26644 -85.83980
vertex 150.50000 24.26644 -82.37570
vertex 150.50000 26.26644 -85.83980
endloop
endfacet
facet normal 0 -0.8660253998985326 -0.500000006730587
outer loop
vertex 155.50000 64.76644 -54.96175
vertex 150.50000 64.76644 -54.96175
vertex 155.50000 66.76644 -58.42585
endloop
endfacet
facet normal 0 -0.8660253998985326 -0.500000006730587
outer loop
vertex 150.50000 64.76644 -54.96175
vertex 150.50000 66.76644 -58.42585
vertex 155.50000 66.76644 -58.42585
endloop
endfacet
facet normal 0 0 -1
outer loop
vertex 155.50000 66.76644 -58.42585
vertex 150.50000 66.76644 -58.42585
vertex 155.50000 70.76644 -58.42585
endloop
endfacet
facet normal 0 0 -1
outer loop
vertex 150.50000 66.76644 -58.42585
vertex 150.50000 70.76644 -58.42585
vertex 155.50000 70.76644 -58.42585
endloop
endfacet
facet normal 0 0.8660253998985326 -0.500000006730587
outer loop
vertex 155.50000 70.76644 -58.42585
vertex 150.50000 70.76644 -58.42585
vertex 155.50000 72.76644 -54.96175
endloop
endfacet
facet normal 0 0.8660253998985326 -0.500000006730587
outer loop
vertex 150.50000 70.76644 -58.42585
vertex 150.50000 72.76644 -54.96175
vertex 155.50000 72.76644 -54.96175
endloop
endfacet
facet normal 0 0.8660253998985326 0.500000006730587
outer loop
vertex 155.50000 72.76644 -54.96175
vertex 150.50000 72.76644 -54.96175
vertex 155.50000 70.76644 -51.49764
endloop
endfacet
facet normal 0 0.8660253998985326 0.500000006730587
outer loop
vertex 150.50000 72.76644 -54.96175
vertex 150.50000 70.76644 -51.49764
vertex 155.50000 70.76644 -51.49764
endloop
endfacet
facet normal 0 0 1
outer loop
vertex 155.50000 70.76644 -51.49764
vertex 150.50000 70.76644 -51.49764
vertex 155.50000 66.76644 -51.49764
endloop
endfacet
facet normal 0 0 1
outer loop
vertex 150.50000 70.76644 -51.49764
vertex 150.50000 66.76644 -51.49764
vertex 155.50000 66.76644 -51.49764
endloop
endfacet
facet normal 0 -0.8660253998985326 0.500000006730587
outer loop
vertex 155.50000 66.76644 -51.49764
vertex 150.50000 66.76644 -51.49764
vertex 155.50000 64.76644 -54.96175
endloop
endfacet
facet normal 0 -0.8660253998985326 0.500000006730587
outer loop
vertex 150.50000 66.76644 -51.49764
vertex 150.50000 64.76644 -54.96175
vertex 155.50000 64.76644 -54.96175
endloop
endfacet
facet normal 1 0 0
outer loop
vertex 155.50000 64.76644 -54.96175
vertex 155.50000 66.76644 -58.42585
vertex 155.50000 68.76644 -54.96175
endloop
endfacet
facet normal 1 0 0
outer loop
vertex 155.50000 66.76644 -58.42585
vertex 155.50000 70.76644 -58.42585
vertex 155.50000 68.76644 -54.96175
endloop
endfacet
facet normal 1 0 0
outer loop
vertex 155.50000 70.76644 -58.42585
vertex 155.50000 72.76644 -54.96175
vertex 155.50000 68.76644 -54.96175
endloop
endfacet
facet normal 1 0 0
outer loop
vertex 155.50000 72.76644 -54.96175
vertex 155.50000 70.76644 -51.49764
vertex 155.50000 68.76644 -54.96175
endloop
endfacet
facet normal 1 0 0
outer loop
vertex 155.50000 70.76644 -51.49764
vertex 155.50000 66.76644 -51.49764
vertex 155.50000 68.76644 -54.96175
endloop
endfacet
facet normal 1 0 0
outer loop
vertex 155.50000 66.76644 -51.49764
vertex 155.50000 64.76644 -54.96175
vertex 155.50000 68.76644 -54.96175
endloop
endfacet
facet normal -1 0 0
outer loop
vertex 150.50000 66.76644 -58.42585
vertex 150.50000 64.76644 -54.96175
vertex 150.50000 68.76644 -54.96175
endloop
endfacet
facet normal -1 0 0
outer loop
vertex 150.50000 70.76644 -58.42585
vertex 150.50000 66.76644 -58.42585
vertex 150.50000 68.76644 -54.96175
endloop
endfacet
facet normal -1 0 0
outer loop
vertex 150.50000 72.76644 -54.96175
vertex 150.50000 70.76644 -58.42585
vertex 150.50000 68.76644 -54.96175
endloop
endfacet
facet normal -1 0 0
outer loop
vertex 150.50000 70.76644 -51.49764
vertex 150.50000 72.76644 -54.96175
vertex 150.50000 68.76644 -54.96175
endloop
endfacet
facet normal -1 0 0
outer loop
vertex 150.50000 66.76644 -51.49764
vertex 150.50000 70.76644 -51.49764
vertex 150.50000 68.76644 -54.96175
endloop
endfacet
facet normal -1 0 0
outer loop
vertex 150.50000 64.76644 -54.96175
vertex 150.50000 66.76644 -51.49764
vertex 150.50000 68.76644 -54.96175
endloop
endfacet
endsolid XR_DEMO_NONFUNCTIONAL
