solid XR_DEMO_NONFUNCTIONAL
facet normal 2.176414775114445e-17 0.09801700770209057 0.9951847397348538
outer loop
vertex -140.00000 0.00000 60.00000
vertex 140.00000 -0.00000 60.00000
vertex -140.00000 11.70542 58.84712
endloop
endfacet
facet normal 2.2653650466682372e-17 0.09801700770209057 0.9951847397348538
outer loop
vertex 140.00000 -0.00000 60.00000
vertex 140.00000 11.70542 58.84712
vertex -140.00000 11.70542 58.84712
endloop
endfacet
facet normal 6.629774911676245e-17 0.29028467048948303 0.9569403377843428
outer loop
vertex -140.00000 11.70542 58.84712
vertex 140.00000 11.70542 58.84712
vertex -140.00000 22.96101 55.43277
endloop
endfacet
facet normal 6.688220664002655e-17 0.29028467048948303 0.9569403377843428
outer loop
vertex 140.00000 11.70542 58.84712
vertex 140.00000 22.96101 55.43277
vertex -140.00000 22.96101 55.43277
endloop
endfacet
facet normal 1.0766174920142377e-16 0.47139692987487714 0.8819211611615521
outer loop
vertex -140.00000 22.96101 55.43277
vertex 140.00000 22.96101 55.43277
vertex -140.00000 33.33421 49.88818
endloop
endfacet
facet normal 9.492958100086732e-17 0.47139692987487686 0.8819211611615522
outer loop
vertex 140.00000 22.96101 55.43277
vertex 140.00000 33.33421 49.88818
vertex -140.00000 33.33421 49.88818
endloop
endfacet
facet normal 1.2878956885702636e-16 0.6343932156556211 0.7730105095858145
outer loop
vertex -140.00000 33.33421 49.88818
vertex 140.00000 33.33421 49.88818
vertex -140.00000 42.42641 42.42641
endloop
endfacet
facet normal 1.29449431222603e-16 0.6343932156556211 0.7730105095858145
outer loop
vertex 140.00000 33.33421 49.88818
vertex 140.00000 42.42641 42.42641
vertex -140.00000 42.42641 42.42641
endloop
endfacet
facet normal 1.5693057207211823e-16 0.7730105095858145 0.6343932156556211
outer loop
vertex -140.00000 42.42641 42.42641
vertex 140.00000 42.42641 42.42641
vertex -140.00000 49.88818 33.33421
endloop
endfacet
facet normal 1.5533931746712358e-16 0.7730105095858145 0.6343932156556211
outer loop
vertex 140.00000 42.42641 42.42641
vertex 140.00000 49.88818 33.33421
vertex -140.00000 49.88818 33.33421
endloop
endfacet
facet normal 1.79040764164701e-16 0.8819211611615522 0.471396929874877
outer loop
vertex -140.00000 49.88818 33.33421
vertex 140.00000 49.88818 33.33421
vertex -140.00000 55.43277 22.96101
endloop
endfacet
facet normal 1.7907170961527252e-16 0.8819211611615522 0.471396929874877
outer loop
vertex 140.00000 49.88818 33.33421
vertex 140.00000 55.43277 22.96101
vertex -140.00000 55.43277 22.96101
endloop
endfacet
facet normal 1.942705730195661e-16 0.9569403377843428 0.29028467048948303
outer loop
vertex -140.00000 55.43277 22.96101
vertex 140.00000 55.43277 22.96101
vertex -140.00000 58.84712 11.70542
endloop
endfacet
facet normal 1.9417414830975448e-16 0.9569403377843428 0.29028467048948303
outer loop
vertex 140.00000 55.43277 22.96101
vertex 140.00000 58.84712 11.70542
vertex -140.00000 58.84712 11.70542
endloop
endfacet
facet normal 2.0203465358797317e-16 0.9951847397348536 0.09801700770209057
outer loop
vertex -140.00000 58.84712 11.70542
vertex 140.00000 58.84712 11.70542
vertex -140.00000 60.00000 0.00000
endloop
endfacet
facet normal 2.0172536367950492e-16 0.9951847397348536 0.09801700770209057
outer loop
vertex 140.00000 58.84712 11.70542
vertex 140.00000 60.00000 0.00000
vertex -140.00000 60.00000 0.00000
endloop
endfacet
facet normal 2.020346535879732e-16 0.9951847397348536 -0.09801700770209051
outer loop
vertex -140.00000 60.00000 0.00000
vertex 140.00000 60.00000 0.00000
vertex -140.00000 58.84712 -11.70542
endloop
endfacet
facet normal 2.0172536367950482e-16 0.9951847397348536 -0.09801700770209051
outer loop
vertex 140.00000 60.00000 0.00000
vertex 140.00000 58.84712 -11.70542
vertex -140.00000 58.84712 -11.70542
endloop
endfacet
facet normal 1.942705730195661e-16 0.9569403377843428 -0.29028467048948303
outer loop
vertex -140.00000 58.84712 -11.70542
vertex 140.00000 58.84712 -11.70542
vertex -140.00000 55.43277 -22.96101
endloop
endfacet
facet normal 1.9417414830975448e-16 0.9569403377843428 -0.29028467048948303
outer loop
vertex 140.00000 58.84712 -11.70542
vertex 140.00000 55.43277 -22.96101
vertex -140.00000 55.43277 -22.96101
endloop
endfacet
facet normal 1.79040764164701e-16 0.8819211611615522 -0.471396929874877
outer loop
vertex -140.00000 55.43277 -22.96101
vertex 140.00000 55.43277 -22.96101
vertex -140.00000 49.88818 -33.33421
endloop
endfacet
facet normal 1.7907170961527252e-16 0.8819211611615522 -0.471396929874877
outer loop
vertex 140.00000 55.43277 -22.96101
vertex 140.00000 49.88818 -33.33421
vertex -140.00000 49.88818 -33.33421
endloop
endfacet
facet normal 1.5693057207211823e-16 0.7730105095858145 -0.6343932156556211
outer loop
vertex -140.00000 49.88818 -33.33421
vertex 140.00000 49.88818 -33.33421
vertex -140.00000 42.42641 -42.42641
endloop
endfacet
facet normal 1.5533931746712358e-16 0.7730105095858145 -0.6343932156556211
outer loop
vertex 140.00000 49.88818 -33.33421
vertex 140.00000 42.42641 -42.42641
vertex -140.00000 42.42641 -42.42641
endloop
endfacet
facet normal 1.2878956885702636e-16 0.6343932156556211 -0.7730105095858145
outer loop
vertex -140.00000 42.42641 -42.42641
vertex 140.00000 42.42641 -42.42641
vertex -140.00000 33.33421 -49.88818
endloop
endfacet
facet normal 1.29449431222603e-16 0.6343932156556211 -0.7730105095858145
outer loop
vertex 140.00000 42.42641 -42.42641
vertex 140.00000 33.33421 -49.88818
vertex -140.00000 33.33421 -49.88818
endloop
endfacet
facet normal 9.56993326234878e-17 0.47139692987487714 -0.8819211611615521
outer loop
vertex -140.00000 33.33421 -49.88818
vertex 140.00000 33.33421 -49.88818
vertex -140.00000 22.96101 -55.43277
endloop
endfacet
facet normal 1.0787452386462196e-16 0.47139692987487686 -0.8819211611615522
outer loop
vertex 140.00000 33.33421 -49.88818
vertex 140.00000 22.96101 -55.43277
vertex -140.00000 22.96101 -55.43277
endloop
endfacet
facet normal 6.629774911676245e-17 0.29028467048948303 -0.9569403377843428
outer loop
vertex -140.00000 22.96101 -55.43277
vertex 140.00000 22.96101 -55.43277
vertex -140.00000 11.70542 -58.84712
endloop
endfacet
facet normal 6.688220664002655e-17 0.29028467048948303 -0.9569403377843428
outer loop
vertex 140.00000 22.96101 -55.43277
vertex 140.00000 11.70542 -58.84712
vertex -140.00000 11.70542 -58.84712
endloop
endfacet
facet normal 2.23859805440343e-17 0.0980170077020906 -0.9951847397348537
outer loop
vertex -140.00000 11.70542 -58.84712
vertex 140.00000 11.70542 -58.84712
vertex -140.00000 0.00000 -60.00000
endloop
endfacet
facet normal 2.1574905206364173e-17 0.09801700770209061 -0.9951847397348537
outer loop
vertex 140.00000 11.70542 -58.84712
vertex 140.00000 -0.00000 -60.00000
vertex -140.00000 0.00000 -60.00000
endloop
endfacet
facet normal -2.1764147751144436e-17 -0.0980170077020905 -0.9951847397348537
outer loop
vertex -140.00000 0.00000 -60.00000
vertex 140.00000 -0.00000 -60.00000
vertex -140.00000 -11.70542 -58.84712
endloop
endfacet
facet normal -2.2653650466682354e-17 -0.0980170077020905 -0.9951847397348538
outer loop
vertex 140.00000 -0.00000 -60.00000
vertex 140.00000 -11.70542 -58.84712
vertex -140.00000 -11.70542 -58.84712
endloop
endfacet
facet normal -6.629774911676245e-17 -0.29028467048948303 -0.9569403377843428
outer loop
vertex -140.00000 -11.70542 -58.84712
vertex 140.00000 -11.70542 -58.84712
vertex -140.00000 -22.96101 -55.43277
endloop
endfacet
facet normal -6.688220664002655e-17 -0.29028467048948303 -0.9569403377843428
outer loop
vertex 140.00000 -11.70542 -58.84712
vertex 140.00000 -22.96101 -55.43277
vertex -140.00000 -22.96101 -55.43277
endloop
endfacet
facet normal -1.0766174920142372e-16 -0.47139692987487686 -0.8819211611615522
outer loop
vertex -140.00000 -22.96101 -55.43277
vertex 140.00000 -22.96101 -55.43277
vertex -140.00000 -33.33421 -49.88818
endloop
endfacet
facet normal -9.492958100086737e-17 -0.47139692987487714 -0.8819211611615521
outer loop
vertex 140.00000 -22.96101 -55.43277
vertex 140.00000 -33.33421 -49.88818
vertex -140.00000 -33.33421 -49.88818
endloop
endfacet
facet normal -1.2878956885702636e-16 -0.6343932156556211 -0.7730105095858145
outer loop
vertex -140.00000 -33.33421 -49.88818
vertex 140.00000 -33.33421 -49.88818
vertex -140.00000 -42.42641 -42.42641
endloop
endfacet
facet normal -1.29449431222603e-16 -0.6343932156556211 -0.7730105095858145
outer loop
vertex 140.00000 -33.33421 -49.88818
vertex 140.00000 -42.42641 -42.42641
vertex -140.00000 -42.42641 -42.42641
endloop
endfacet
facet normal -1.5693057207211823e-16 -0.7730105095858145 -0.6343932156556211
outer loop
vertex -140.00000 -42.42641 -42.42641
vertex 140.00000 -42.42641 -42.42641
vertex -140.00000 -49.88818 -33.33421
endloop
endfacet
facet normal -1.5533931746712358e-16 -0.7730105095858145 -0.6343932156556211
outer loop
vertex 140.00000 -42.42641 -42.42641
vertex 140.00000 -49.88818 -33.33421
vertex -140.00000 -49.88818 -33.33421
endloop
endfacet
facet normal -1.79040764164701e-16 -0.8819211611615522 -0.471396929874877
outer loop
vertex -140.00000 -49.88818 -33.33421
vertex 140.00000 -49.88818 -33.33421
vertex -140.00000 -55.43277 -22.96101
endloop
endfacet
facet normal -1.7907170961527252e-16 -0.8819211611615522 -0.471396929874877
outer loop
vertex 140.00000 -49.88818 -33.33421
vertex 140.00000 -55.43277 -22.96101
vertex -140.00000 -55.43277 -22.96101
endloop
endfacet
facet normal -1.942705730195661e-16 -0.9569403377843428 -0.29028467048948303
outer loop
vertex -140.00000 -55.43277 -22.96101
vertex 140.00000 -55.43277 -22.96101
vertex -140.00000 -58.84712 -11.70542
endloop
endfacet
facet normal -1.9417414830975448e-16 -0.9569403377843428 -0.29028467048948303
outer loop
vertex 140.00000 -55.43277 -22.96101
vertex 140.00000 -58.84712 -11.70542
vertex -140.00000 -58.84712 -11.70542
endloop
endfacet
facet normal -2.020346535879732e-16 -0.9951847397348536 -0.09801700770209064
outer loop
vertex -140.00000 -58.84712 -11.70542
vertex 140.00000 -58.84712 -11.70542
vertex -140.00000 -60.00000 -0.00000
endloop
endfacet
facet normal -2.0172536367950507e-16 -0.9951847397348536 -0.09801700770209064
outer loop
vertex 140.00000 -58.84712 -11.70542
vertex 140.00000 -60.00000 -0.00000
vertex -140.00000 -60.00000 -0.00000
endloop
endfacet
facet normal -2.0203465358797317e-16 -0.9951847397348536 0.09801700770209044
outer loop
vertex -140.00000 -60.00000 -0.00000
vertex 140.00000 -60.00000 -0.00000
vertex -140.00000 -58.84712 11.70542
endloop
endfacet
facet normal -2.0172536367950468e-16 -0.9951847397348536 0.09801700770209044
outer loop
vertex 140.00000 -60.00000 -0.00000
vertex 140.00000 -58.84712 11.70542
vertex -140.00000 -58.84712 11.70542
endloop
endfacet
facet normal -1.942705730195661e-16 -0.9569403377843428 0.29028467048948303
outer loop
vertex -140.00000 -58.84712 11.70542
vertex 140.00000 -58.84712 11.70542
vertex -140.00000 -55.43277 22.96101
endloop
endfacet
facet normal -1.9417414830975448e-16 -0.9569403377843428 0.29028467048948303
outer loop
vertex 140.00000 -58.84712 11.70542
vertex 140.00000 -55.43277 22.96101
vertex -140.00000 -55.43277 22.96101
endloop
endfacet
facet normal -1.79040764164701e-16 -0.8819211611615522 0.471396929874877
outer loop
vertex -140.00000 -55.43277 22.96101
vertex 140.00000 -55.43277 22.96101
vertex -140.00000 -49.88818 33.33421
endloop
endfacet
facet normal -1.7907170961527252e-16 -0.8819211611615522 0.471396929874877
outer loop
vertex 140.00000 -55.43277 22.96101
vertex 140.00000 -49.88818 33.33421
vertex -140.00000 -49.88818 33.33421
endloop
endfacet
facet normal -1.5693057207211823e-16 -0.7730105095858145 0.6343932156556211
outer loop
vertex -140.00000 -49.88818 33.33421
vertex 140.00000 -49.88818 33.33421
vertex -140.00000 -42.42641 42.42641
endloop
endfacet
facet normal -1.5533931746712358e-16 -0.7730105095858145 0.6343932156556211
outer loop
vertex 140.00000 -49.88818 33.33421
vertex 140.00000 -42.42641 42.42641
vertex -140.00000 -42.42641 42.42641
endloop
endfacet
facet normal -1.2878956885702636e-16 -0.6343932156556211 0.7730105095858145
outer loop
vertex -140.00000 -42.42641 42.42641
vertex 140.00000 -42.42641 42.42641
vertex -140.00000 -33.33421 49.88818
endloop
endfacet
facet normal -1.29449431222603e-16 -0.6343932156556211 0.7730105095858145
outer loop
vertex 140.00000 -42.42641 42.42641
vertex 140.00000 -33.33421 49.88818
vertex -140.00000 -33.33421 49.88818
endloop
endfacet
facet normal -9.569933262348775e-17 -0.47139692987487686 0.8819211611615522
outer loop
vertex -140.00000 -33.33421 49.88818
vertex 140.00000 -33.33421 49.88818
vertex -140.00000 -22.96101 55.43277
endloop
endfacet
facet normal -1.0787452386462202e-16 -0.47139692987487714 0.8819211611615521
outer loop
vertex 140.00000 -33.33421 49.88818
vertex 140.00000 -22.96101 55.43277
vertex -140.00000 -22.96101 55.43277
endloop
endfacet
facet normal -6.629774911676245e-17 -0.29028467048948303 0.9569403377843428
outer loop
vertex -140.00000 -22.96101 55.43277
vertex 140.00000 -22.96101 55.43277
vertex -140.00000 -11.70542 58.84712
endloop
endfacet
facet normal -6.688220664002655e-17 -0.29028467048948303 0.9569403377843428
outer loop
vertex 140.00000 -22.96101 55.43277
vertex 140.00000 -11.70542 58.84712
vertex -140.00000 -11.70542 58.84712
endloop
endfacet
facet normal -2.2385980544034316e-17 -0.09801700770209067 0.9951847397348536
outer loop
vertex -140.00000 -11.70542 58.84712
vertex 140.00000 -11.70542 58.84712
vertex -140.00000 0.00000 60.00000
endloop
endfacet
facet normal -2.1574905206364185e-17 -0.09801700770209067 0.9951847397348537
outer loop
vertex 140.00000 -11.70542 58.84712
vertex 140.00000 -0.00000 60.00000
vertex -140.00000 0.00000 60.00000
endloop
endfacet
facet normal 1 0 0
outer loop
vertex -140.00000 0.00000 -54.00000
vertex -140.00000 0.00000 -60.00000
vertex -140.00000 10.53488 -52.96241
endloop
endfacet
facet normal 0.9999999999999999 0 0
outer loop
vertex -140.00000 0.00000 -60.00000
vertex -140.00000 11.70542 -58.84712
vertex -140.00000 10.53488 -52.96241
endloop
endfacet
facet normal 1 0 0
outer loop
vertex -140.00000 10.53488 -52.96241
vertex -140.00000 11.70542 -58.84712
vertex -140.00000 20.66491 -49.88950
endloop
endfacet
facet normal 1 0 0
outer loop
vertex -140.00000 11.70542 -58.84712
vertex -140.00000 22.96101 -55.43277
vertex -140.00000 20.66491 -49.88950
endloop
endfacet
facet normal 1 0 0
outer loop
vertex -140.00000 20.66491 -49.88950
vertex -140.00000 22.96101 -55.43277
vertex -140.00000 30.00079 -44.89936
endloop
endfacet
facet normal 1 0 0
outer loop
vertex -140.00000 22.96101 -55.43277
vertex -140.00000 33.33421 -49.88818
vertex -140.00000 30.00079 -44.89936
endloop
endfacet
facet normal 1 0 0
outer loop
vertex -140.00000 30.00079 -44.89936
vertex -140.00000 33.33421 -49.88818
vertex -140.00000 38.18377 -38.18377
endloop
endfacet
facet normal 1 0 0
outer loop
vertex -140.00000 33.33421 -49.88818
vertex -140.00000 42.42641 -42.42641
vertex -140.00000 38.18377 -38.18377
endloop
endfacet
facet normal 1 0 0
outer loop
vertex -140.00000 38.18377 -38.18377
vertex -140.00000 42.42641 -42.42641
vertex -140.00000 44.89936 -30.00079
endloop
endfacet
facet normal 1 0 0
outer loop
vertex -140.00000 42.42641 -42.42641
vertex -140.00000 49.88818 -33.33421
vertex -140.00000 44.89936 -30.00079
endloop
endfacet
facet normal 1 0 0
outer loop
vertex -140.00000 44.89936 -30.00079
vertex -140.00000 49.88818 -33.33421
vertex -140.00000 49.88950 -20.66491
endloop
endfacet
facet normal 1 0 0
outer loop
vertex -140.00000 49.88818 -33.33421
vertex -140.00000 55.43277 -22.96101
vertex -140.00000 49.88950 -20.66491
endloop
endfacet
facet normal 1 0 0
outer loop
vertex -140.00000 49.88950 -20.66491
vertex -140.00000 55.43277 -22.96101
vertex -140.00000 52.96241 -10.53488
endloop
endfacet
facet normal 1 0 0
outer loop
vertex -140.00000 55.43277 -22.96101
vertex -140.00000 58.84712 -11.70542
vertex -140.00000 52.96241 -10.53488
endloop
endfacet
facet normal 1 0 0
outer loop
vertex -140.00000 52.96241 -10.53488
vertex -140.00000 58.84712 -11.70542
vertex -140.00000 54.00000 -0.00000
endloop
endfacet
facet normal 1 0 0
outer loop
vertex -140.00000 58.84712 -11.70542
vertex -140.00000 60.00000 -0.00000
vertex -140.00000 54.00000 -0.00000
endloop
endfacet
facet normal 1 0 0
outer loop
vertex -140.00000 54.00000 -0.00000
vertex -140.00000 60.00000 -0.00000
vertex -140.00000 52.96241 10.53488
endloop
endfacet
facet normal 1 0 0
outer loop
vertex -140.00000 60.00000 -0.00000
vertex -140.00000 58.84712 11.70542
vertex -140.00000 52.96241 10.53488
endloop
endfacet
facet normal 1 0 0
outer loop
vertex -140.00000 52.96241 10.53488
vertex -140.00000 58.84712 11.70542
vertex -140.00000 49.88950 20.66491
endloop
endfacet
facet normal 1 0 0
outer loop
vertex -140.00000 58.84712 11.70542
vertex -140.00000 55.43277 22.96101
vertex -140.00000 49.88950 20.66491
endloop
endfacet
facet normal 1 0 0
outer loop
vertex -140.00000 49.88950 20.66491
vertex -140.00000 55.43277 22.96101
vertex -140.00000 44.89936 30.00079
endloop
endfacet
facet normal 1 0 0
outer loop
vertex -140.00000 55.43277 22.96101
vertex -140.00000 49.88818 33.33421
vertex -140.00000 44.89936 30.00079
endloop
endfacet
facet normal 1 0 0
outer loop
vertex -140.00000 44.89936 30.00079
vertex -140.00000 49.88818 33.33421
vertex -140.00000 38.18377 38.18377
endloop
endfacet
facet normal 1 0 0
outer loop
vertex -140.00000 49.88818 33.33421
vertex -140.00000 42.42641 42.42641
vertex -140.00000 38.18377 38.18377
endloop
endfacet
facet normal 1 0 0
outer loop
vertex -140.00000 38.18377 38.18377
vertex -140.00000 42.42641 42.42641
vertex -140.00000 30.00079 44.89936
endloop
endfacet
facet normal 1 0 0
outer loop
vertex -140.00000 42.42641 42.42641
vertex -140.00000 33.33421 49.88818
vertex -140.00000 30.00079 44.89936
endloop
endfacet
facet normal 1 0 0
outer loop
vertex -140.00000 30.00079 44.89936
vertex -140.00000 33.33421 49.88818
vertex -140.00000 20.66491 49.88950
endloop
endfacet
facet normal 1 0 0
outer loop
vertex -140.00000 33.33421 49.88818
vertex -140.00000 22.96101 55.43277
vertex -140.00000 20.66491 49.88950
endloop
endfacet
facet normal 1 0 0
outer loop
vertex -140.00000 20.66491 49.88950
vertex -140.00000 22.96101 55.43277
vertex -140.00000 10.53488 52.96241
endloop
endfacet
facet normal 1 0 0
outer loop
vertex -140.00000 22.96101 55.43277
vertex -140.00000 11.70542 58.84712
vertex -140.00000 10.53488 52.96241
endloop
endfacet
facet normal 0.9999999999999999 0 0
outer loop
vertex -140.00000 10.53488 52.96241
vertex -140.00000 11.70542 58.84712
vertex -140.00000 0.00000 54.00000
endloop
endfacet
facet normal 1 0 0
outer loop
vertex -140.00000 11.70542 58.84712
vertex -140.00000 0.00000 60.00000
vertex -140.00000 0.00000 54.00000
endloop
endfacet
facet normal 1 0 0
outer loop
vertex -140.00000 0.00000 54.00000
vertex -140.00000 0.00000 60.00000
vertex -140.00000 -10.53488 52.96241
endloop
endfacet
facet normal 0.9999999999999999 0 0
outer loop
vertex -140.00000 0.00000 60.00000
vertex -140.00000 -11.70542 58.84712
vertex -140.00000 -10.53488 52.96241
endloop
endfacet
facet normal 1 0 0
outer loop
vertex -140.00000 -10.53488 52.96241
vertex -140.00000 -11.70542 58.84712
vertex -140.00000 -20.66491 49.88950
endloop
endfacet
facet normal 1 0 0
outer loop
vertex -140.00000 -11.70542 58.84712
vertex -140.00000 -22.96101 55.43277
vertex -140.00000 -20.66491 49.88950
endloop
endfacet
facet normal 1 0 0
outer loop
vertex -140.00000 -20.66491 49.88950
vertex -140.00000 -22.96101 55.43277
vertex -140.00000 -30.00079 44.89936
endloop
endfacet
facet normal 1 0 0
outer loop
vertex -140.00000 -22.96101 55.43277
vertex -140.00000 -33.33421 49.88818
vertex -140.00000 -30.00079 44.89936
endloop
endfacet
facet normal 1 0 0
outer loop
vertex -140.00000 -30.00079 44.89936
vertex -140.00000 -33.33421 49.88818
vertex -140.00000 -38.18377 38.18377
endloop
endfacet
facet normal 1 0 0
outer loop
vertex -140.00000 -33.33421 49.88818
vertex -140.00000 -42.42641 42.42641
vertex -140.00000 -38.18377 38.18377
endloop
endfacet
facet normal 1 0 0
outer loop
vertex -140.00000 -38.18377 38.18377
vertex -140.00000 -42.42641 42.42641
vertex -140.00000 -44.89936 30.00079
endloop
endfacet
facet normal 1 0 0
outer loop
vertex -140.00000 -42.42641 42.42641
vertex -140.00000 -49.88818 33.33421
vertex -140.00000 -44.89936 30.00079
endloop
endfacet
facet normal 1 0 0
outer loop
vertex -140.00000 -44.89936 30.00079
vertex -140.00000 -49.88818 33.33421
vertex -140.00000 -49.88950 20.66491
endloop
endfacet
facet normal 1 0 0
outer loop
vertex -140.00000 -49.88818 33.33421
vertex -140.00000 -55.43277 22.96101
vertex -140.00000 -49.88950 20.66491
endloop
endfacet
facet normal 1 0 0
outer loop
vertex -140.00000 -49.88950 20.66491
vertex -140.00000 -55.43277 22.96101
vertex -140.00000 -52.96241 10.53488
endloop
endfacet
facet normal 1 0 0
outer loop
vertex -140.00000 -55.43277 22.96101
vertex -140.00000 -58.84712 11.70542
vertex -140.00000 -52.96241 10.53488
endloop
endfacet
facet normal 1 0 0
outer loop
vertex -140.00000 -52.96241 10.53488
vertex -140.00000 -58.84712 11.70542
vertex -140.00000 -54.00000 0.00000
endloop
endfacet
facet normal 1 0 0
outer loop
vertex -140.00000 -58.84712 11.70542
vertex -140.00000 -60.00000 0.00000
vertex -140.00000 -54.00000 0.00000
endloop
endfacet
facet normal 1 0 0
outer loop
vertex -140.00000 -54.00000 0.00000
vertex -140.00000 -60.00000 0.00000
vertex -140.00000 -52.96241 -10.53488
endloop
endfacet
facet normal 1 0 0
outer loop
vertex -140.00000 -60.00000 0.00000
vertex -140.00000 -58.84712 -11.70542
vertex -140.00000 -52.96241 -10.53488
endloop
endfacet
facet normal 1 0 0
outer loop
vertex -140.00000 -52.96241 -10.53488
vertex -140.00000 -58.84712 -11.70542
vertex -140.00000 -49.88950 -20.66491
endloop
endfacet
facet normal 1 0 0
outer loop
vertex -140.00000 -58.84712 -11.70542
vertex -140.00000 -55.43277 -22.96101
vertex -140.00000 -49.88950 -20.66491
endloop
endfacet
facet normal 1 0 0
outer loop
vertex -140.00000 -49.88950 -20.66491
vertex -140.00000 -55.43277 -22.96101
vertex -140.00000 -44.89936 -30.00079
endloop
endfacet
facet normal 1 0 0
outer loop
vertex -140.00000 -55.43277 -22.96101
vertex -140.00000 -49.88818 -33.33421
vertex -140.00000 -44.89936 -30.00079
endloop
endfacet
facet normal 1 0 0
outer loop
vertex -140.00000 -44.89936 -30.00079
vertex -140.00000 -49.88818 -33.33421
vertex -140.00000 -38.18377 -38.18377
endloop
endfacet
facet normal 1 0 0
outer loop
vertex -140.00000 -49.88818 -33.33421
vertex -140.00000 -42.42641 -42.42641
vertex -140.00000 -38.18377 -38.18377
endloop
endfacet
facet normal 1 0 0
outer loop
vertex -140.00000 -38.18377 -38.18377
vertex -140.00000 -42.42641 -42.42641
vertex -140.00000 -30.00079 -44.89936
endloop
endfacet
facet normal 1 0 0
outer loop
vertex -140.00000 -42.42641 -42.42641
vertex -140.00000 -33.33421 -49.88818
vertex -140.00000 -30.00079 -44.89936
endloop
endfacet
facet normal 1 0 0
outer loop
vertex -140.00000 -30.00079 -44.89936
vertex -140.00000 -33.33421 -49.88818
vertex -140.00000 -20.66491 -49.88950
endloop
endfacet
facet normal 1 0 0
outer loop
vertex -140.00000 -33.33421 -49.88818
vertex -140.00000 -22.96101 -55.43277
vertex -140.00000 -20.66491 -49.88950
endloop
endfacet
facet normal 1 0 0
outer loop
vertex -140.00000 -20.66491 -49.88950
vertex -140.00000 -22.96101 -55.43277
vertex -140.00000 -10.53488 -52.96241
endloop
endfacet
facet normal 1 0 0
outer loop
vertex -140.00000 -22.96101 -55.43277
vertex -140.00000 -11.70542 -58.84712
vertex -140.00000 -10.53488 -52.96241
endloop
endfacet
facet normal 1 0 0
outer loop
vertex -140.00000 -10.53488 -52.96241
vertex -140.00000 -11.70542 -58.84712
vertex -140.00000 -0.00000 -54.00000
endloop
endfacet
facet normal 1 0 0
outer loop
vertex -140.00000 -11.70542 -58.84712
vertex -140.00000 -0.00000 -60.00000
vertex -140.00000 -0.00000 -54.00000
endloop
endfacet
facet normal 1 0 0
outer loop
vertex 140.00000 0.00000 -54.00000
vertex 140.00000 0.00000 -60.00000
vertex 140.00000 10.53488 -52.96241
endloop
endfacet
facet normal 0.9999999999999999 0 0
outer loop
vertex 140.00000 0.00000 -60.00000
vertex 140.00000 11.70542 -58.84712
vertex 140.00000 10.53488 -52.96241
endloop
endfacet
facet normal 1 0 0
outer loop
vertex 140.00000 10.53488 -52.96241
vertex 140.00000 11.70542 -58.84712
vertex 140.00000 20.66491 -49.88950
endloop
endfacet
facet normal 1 0 0
outer loop
vertex 140.00000 11.70542 -58.84712
vertex 140.00000 22.96101 -55.43277
vertex 140.00000 20.66491 -49.88950
endloop
endfacet
facet normal 1 0 0
outer loop
vertex 140.00000 20.66491 -49.88950
vertex 140.00000 22.96101 -55.43277
vertex 140.00000 30.00079 -44.89936
endloop
endfacet
facet normal 1 0 0
outer loop
vertex 140.00000 22.96101 -55.43277
vertex 140.00000 33.33421 -49.88818
vertex 140.00000 30.00079 -44.89936
endloop
endfacet
facet normal 1 0 0
outer loop
vertex 140.00000 30.00079 -44.89936
vertex 140.00000 33.33421 -49.88818
vertex 140.00000 38.18377 -38.18377
endloop
endfacet
facet normal 1 0 0
outer loop
vertex 140.00000 33.33421 -49.88818
vertex 140.00000 42.42641 -42.42641
vertex 140.00000 38.18377 -38.18377
endloop
endfacet
facet normal 1 0 0
outer loop
vertex 140.00000 38.18377 -38.18377
vertex 140.00000 42.42641 -42.42641
vertex 140.00000 44.89936 -30.00079
endloop
endfacet
facet normal 1 0 0
outer loop
vertex 140.00000 42.42641 -42.42641
vertex 140.00000 49.88818 -33.33421
vertex 140.00000 44.89936 -30.00079
endloop
endfacet
facet normal 1 0 0
outer loop
vertex 140.00000 44.89936 -30.00079
vertex 140.00000 49.88818 -33.33421
vertex 140.00000 49.88950 -20.66491
endloop
endfacet
facet normal 1 0 0
outer loop
vertex 140.00000 49.88818 -33.33421
vertex 140.00000 55.43277 -22.96101
vertex 140.00000 49.88950 -20.66491
endloop
endfacet
facet normal 1 0 0
outer loop
vertex 140.00000 49.88950 -20.66491
vertex 140.00000 55.43277 -22.96101
vertex 140.00000 52.96241 -10.53488
endloop
endfacet
facet normal 1 0 0
outer loop
vertex 140.00000 55.43277 -22.96101
vertex 140.00000 58.84712 -11.70542
vertex 140.00000 52.96241 -10.53488
endloop
endfacet
facet normal 1 0 0
outer loop
vertex 140.00000 52.96241 -10.53488
vertex 140.00000 58.84712 -11.70542
vertex 140.00000 54.00000 -0.00000
endloop
endfacet
facet normal 1 0 0
outer loop
vertex 140.00000 58.84712 -11.70542
vertex 140.00000 60.00000 -0.00000
vertex 140.00000 54.00000 -0.00000
endloop
endfacet
facet normal 1 0 0
outer loop
vertex 140.00000 54.00000 -0.00000
vertex 140.00000 60.00000 -0.00000
vertex 140.00000 52.96241 10.53488
endloop
endfacet
facet normal 1 0 0
outer loop
vertex 140.00000 60.00000 -0.00000
vertex 140.00000 58.84712 11.70542
vertex 140.00000 52.96241 10.53488
endloop
endfacet
facet normal 1 0 0
outer loop
vertex 140.00000 52.96241 10.53488
vertex 140.00000 58.84712 11.70542
vertex 140.00000 49.88950 20.66491
endloop
endfacet
facet normal 1 0 0
outer loop
vertex 140.00000 58.84712 11.70542
vertex 140.00000 55.43277 22.96101
vertex 140.00000 49.88950 20.66491
endloop
endfacet
facet normal 1 0 0
outer loop
vertex 140.00000 49.88950 20.66491
vertex 140.00000 55.43277 22.96101
vertex 140.00000 44.89936 30.00079
endloop
endfacet
facet normal 1 0 0
outer loop
vertex 140.00000 55.43277 22.96101
vertex 140.00000 49.88818 33.33421
vertex 140.00000 44.89936 30.00079
endloop
endfacet
facet normal 1 0 0
outer loop
vertex 140.00000 44.89936 30.00079
vertex 140.00000 49.88818 33.33421
vertex 140.00000 38.18377 38.18377
endloop
endfacet
facet normal 1 0 0
outer loop
vertex 140.00000 49.88818 33.33421
vertex 140.00000 42.42641 42.42641
vertex 140.00000 38.18377 38.18377
endloop
endfacet
facet normal 1 0 0
outer loop
vertex 140.00000 38.18377 38.18377
vertex 140.00000 42.42641 42.42641
vertex 140.00000 30.00079 44.89936
endloop
endfacet
facet normal 1 0 0
outer loop
vertex 140.00000 42.42641 42.42641
vertex 140.00000 33.33421 49.88818
vertex 140.00000 30.00079 44.89936
endloop
endfacet
facet normal 1 0 0
outer loop
vertex 140.00000 30.00079 44.89936
vertex 140.00000 33.33421 49.88818
vertex 140.00000 20.66491 49.88950
endloop
endfacet
facet normal 1 0 0
outer loop
vertex 140.00000 33.33421 49.88818
vertex 140.00000 22.96101 55.43277
vertex 140.00000 20.66491 49.88950
endloop
endfacet
facet normal 1 0 0
outer loop
vertex 140.00000 20.66491 49.88950
vertex 140.00000 22.96101 55.43277
vertex 140.00000 10.53488 52.96241
endloop
endfacet
facet normal 1 0 0
outer loop
vertex 140.00000 22.96101 55.43277
vertex 140.00000 11.70542 58.84712
vertex 140.00000 10.53488 52.96241
endloop
endfacet
facet normal 0.9999999999999999 0 0
outer loop
vertex 140.00000 10.53488 52.96241
vertex 140.00000 11.70542 58.84712
vertex 140.00000 0.00000 54.00000
endloop
endfacet
facet normal 1 0 0
outer loop
vertex 140.00000 11.70542 58.84712
vertex 140.00000 0.00000 60.00000
vertex 140.00000 0.00000 54.00000
endloop
endfacet
facet normal 1 0 0
outer loop
vertex 140.00000 0.00000 54.00000
vertex 140.00000 0.00000 60.00000
vertex 140.00000 -10.53488 52.96241
endloop
endfacet
facet normal 0.9999999999999999 0 0
outer loop
vertex 140.00000 0.00000 60.00000
vertex 140.00000 -11.70542 58.84712
vertex 140.00000 -10.53488 52.96241
endloop
endfacet
facet normal 1 0 0
outer loop
vertex 140.00000 -10.53488 52.96241
vertex 140.00000 -11.70542 58.84712
vertex 140.00000 -20.66491 49.88950
endloop
endfacet
facet normal 1 0 0
outer loop
vertex 140.00000 -11.70542 58.84712
vertex 140.00000 -22.96101 55.43277
vertex 140.00000 -20.66491 49.88950
endloop
endfacet
facet normal 1 0 0
outer loop
vertex 140.00000 -20.66491 49.88950
vertex 140.00000 -22.96101 55.43277
vertex 140.00000 -30.00079 44.89936
endloop
endfacet
facet normal 1 0 0
outer loop
vertex 140.00000 -22.96101 55.43277
vertex 140.00000 -33.33421 49.88818
vertex 140.00000 -30.00079 44.89936
endloop
endfacet
facet normal 1 0 0
outer loop
vertex 140.00000 -30.00079 44.89936
vertex 140.00000 -33.33421 49.88818
vertex 140.00000 -38.18377 38.18377
endloop
endfacet
facet normal 1 0 0
outer loop
vertex 140.00000 -33.33421 49.88818
vertex 140.00000 -42.42641 42.42641
vertex 140.00000 -38.18377 38.18377
endloop
endfacet
facet normal 1 0 0
outer loop
vertex 140.00000 -38.18377 38.18377
vertex 140.00000 -42.42641 42.42641
vertex 140.00000 -44.89936 30.00079
endloop
endfacet
facet normal 1 0 0
outer loop
vertex 140.00000 -42.42641 42.42641
vertex 140.00000 -49.88818 33.33421
vertex 140.00000 -44.89936 30.00079
endloop
endfacet
facet normal 1 0 0
outer loop
vertex 140.00000 -44.89936 30.00079
vertex 140.00000 -49.88818 33.33421
vertex 140.00000 -49.88950 20.66491
endloop
endfacet
facet normal 1 0 0
outer loop
vertex 140.00000 -49.88818 33.33421
vertex 140.00000 -55.43277 22.96101
vertex 140.00000 -49.88950 20.66491
endloop
endfacet
facet normal 1 0 0
outer loop
vertex 140.00000 -49.88950 20.66491
vertex 140.00000 -55.43277 22.96101
vertex 140.00000 -52.96241 10.53488
endloop
endfacet
facet normal 1 0 0
outer loop
vertex 140.00000 -55.43277 22.96101
vertex 140.00000 -58.84712 11.70542
vertex 140.00000 -52.96241 10.53488
endloop
endfacet
facet normal 1 0 0
outer loop
vertex 140.00000 -52.96241 10.53488
vertex 140.00000 -58.84712 11.70542
vertex 140.00000 -54.00000 0.00000
endloop
endfacet
facet normal 1 0 0
outer loop
vertex 140.00000 -58.84712 11.70542
vertex 140.00000 -60.00000 0.00000
vertex 140.00000 -54.00000 0.00000
endloop
endfacet
facet normal 1 0 0
outer loop
vertex 140.00000 -54.00000 0.00000
vertex 140.00000 -60.00000 0.00000
vertex 140.00000 -52.96241 -10.53488
endloop
endfacet
facet normal 1 0 0
outer loop
vertex 140.00000 -60.00000 0.00000
vertex 140.00000 -58.84712 -11.70542
vertex 140.00000 -52.96241 -10.53488
endloop
endfacet
facet normal 1 0 0
outer loop
vertex 140.00000 -52.96241 -10.53488
vertex 140.00000 -58.84712 -11.70542
vertex 140.00000 -49.88950 -20.66491
endloop
endfacet
facet normal 1 0 0
outer loop
vertex 140.00000 -58.84712 -11.70542
vertex 140.00000 -55.43277 -22.96101
vertex 140.00000 -49.88950 -20.66491
endloop
endfacet
facet normal 1 0 0
outer loop
vertex 140.00000 -49.88950 -20.66491
vertex 140.00000 -55.43277 -22.96101
vertex 140.00000 -44.89936 -30.00079
endloop
endfacet
facet normal 1 0 0
outer loop
vertex 140.00000 -55.43277 -22.96101
vertex 140.00000 -49.88818 -33.33421
vertex 140.00000 -44.89936 -30.00079
endloop
endfacet
facet normal 1 0 0
outer loop
vertex 140.00000 -44.89936 -30.00079
vertex 140.00000 -49.88818 -33.33421
vertex 140.00000 -38.18377 -38.18377
endloop
endfacet
facet normal 1 0 0
outer loop
vertex 140.00000 -49.88818 -33.33421
vertex 140.00000 -42.42641 -42.42641
vertex 140.00000 -38.18377 -38.18377
endloop
endfacet
facet normal 1 0 0
outer loop
vertex 140.00000 -38.18377 -38.18377
vertex 140.00000 -42.42641 -42.42641
vertex 140.00000 -30.00079 -44.89936
endloop
endfacet
facet normal 1 0 0
outer loop
vertex 140.00000 -42.42641 -42.42641
vertex 140.00000 -33.33421 -49.88818
vertex 140.00000 -30.00079 -44.89936
endloop
endfacet
facet normal 1 0 0
outer loop
vertex 140.00000 -30.00079 -44.89936
vertex 140.00000 -33.33421 -49.88818
vertex 140.00000 -20.66491 -49.88950
endloop
endfacet
facet normal 1 0 0
outer loop
vertex 140.00000 -33.33421 -49.88818
vertex 140.00000 -22.96101 -55.43277
vertex 140.00000 -20.66491 -49.88950
endloop
endfacet
facet normal 1 0 0
outer loop
vertex 140.00000 -20.66491 -49.88950
vertex 140.00000 -22.96101 -55.43277
vertex 140.00000 -10.53488 -52.96241
endloop
endfacet
facet normal 1 0 0
outer loop
vertex 140.00000 -22.96101 -55.43277
vertex 140.00000 -11.70542 -58.84712
vertex 140.00000 -10.53488 -52.96241
endloop
endfacet
facet normal 1 0 0
outer loop
vertex 140.00000 -10.53488 -52.96241
vertex 140.00000 -11.70542 -58.84712
vertex 140.00000 -0.00000 -54.00000
endloop
endfacet
facet normal 1 0 0
outer loop
vertex 140.00000 -11.70542 -58.84712
vertex 140.00000 -0.00000 -60.00000
vertex 140.00000 -0.00000 -54.00000
endloop
endfacet
endsolid XR_DEMO_NONFUNCTIONAL
