solid XR_DEMO_NONFUNCTIONAL
facet normal 2.1849548998070197e-17 -0.9951847169151015 -0.0980172393949617
outer loop
vertex 125.50000 -105.00000 -5.00000
vertex -129.50000 -105.00000 -5.00000
vertex 125.50000 -102.98245 -25.48448
endloop
endfacet
facet normal 2.165951268529486e-17 -0.9951847169151015 -0.0980172393949617
outer loop
vertex -129.50000 -105.00000 -5.00000
vertex -129.50000 -102.98245 -25.48448
vertex 125.50000 -102.98245 -25.48448
endloop
endfacet
facet normal 6.470893738961094e-17 -0.9569403061875603 -0.29028477465009805
outer loop
vertex 125.50000 -102.98245 -25.48448
vertex -129.50000 -102.98245 -25.48448
vertex 125.50000 -97.00735 -45.18176
endloop
endfacet
facet normal 6.497854109290141e-17 -0.9569403061875603 -0.29028477465009805
outer loop
vertex -129.50000 -102.98245 -25.48448
vertex -129.50000 -97.00735 -45.18176
vertex 125.50000 -97.00735 -45.18176
endloop
endfacet
facet normal 1.0508157138307069e-16 -0.8819212780614009 -0.47139671117069276
outer loop
vertex 125.50000 -97.00735 -45.18176
vertex -129.50000 -97.00735 -45.18176
vertex 125.50000 -87.30431 -63.33487
endloop
endfacet
facet normal 1.0288268597980456e-16 -0.8819212780614009 -0.47139671117069276
outer loop
vertex -129.50000 -97.00735 -45.18176
vertex -129.50000 -87.30431 -63.33487
vertex 125.50000 -87.30431 -63.33487
endloop
endfacet
facet normal 1.4141593988821356e-16 -0.773010720496029 -0.6343929586606476
outer loop
vertex 125.50000 -87.30431 -63.33487
vertex -129.50000 -87.30431 -63.33487
vertex 125.50000 -74.24622 -79.24622
endloop
endfacet
facet normal 1.4078683704791742e-16 -0.773010720496029 -0.6343929586606476
outer loop
vertex -129.50000 -87.30431 -63.33487
vertex -129.50000 -74.24622 -79.24622
vertex 125.50000 -74.24622 -79.24622
endloop
endfacet
facet normal 1.7231596929039515e-16 -0.6343929586606476 -0.773010720496029
outer loop
vertex 125.50000 -74.24622 -79.24622
vertex -129.50000 -74.24622 -79.24622
vertex 125.50000 -58.33487 -92.30431
endloop
endfacet
facet normal 1.7327610713589835e-16 -0.6343929586606476 -0.773010720496029
outer loop
vertex -129.50000 -74.24622 -79.24622
vertex -129.50000 -58.33487 -92.30431
vertex 125.50000 -58.33487 -92.30431
endloop
endfacet
facet normal 1.9659380631805233e-16 -0.47139671117069276 -0.8819212780614009
outer loop
vertex 125.50000 -58.33487 -92.30431
vertex -129.50000 -58.33487 -92.30431
vertex 125.50000 -40.18176 -102.00735
endloop
endfacet
facet normal 1.9493561554068232e-16 -0.47139671117069276 -0.8819212780614009
outer loop
vertex -129.50000 -58.33487 -92.30431
vertex -129.50000 -40.18176 -102.00735
vertex 125.50000 -40.18176 -102.00735
endloop
endfacet
facet normal 2.1331670058591908e-16 -0.29028477465009805 -0.9569403061875603
outer loop
vertex 125.50000 -40.18176 -102.00735
vertex -129.50000 -40.18176 -102.00735
vertex 125.50000 -20.48448 -107.98245
endloop
endfacet
facet normal 2.138876977641338e-16 -0.29028477465009805 -0.9569403061875603
outer loop
vertex -129.50000 -40.18176 -102.00735
vertex -129.50000 -20.48448 -107.98245
vertex 125.50000 -20.48448 -107.98245
endloop
endfacet
facet normal 2.218419674803128e-16 -0.0980172393949617 -0.9951847169151015
outer loop
vertex 125.50000 -20.48448 -107.98245
vertex -129.50000 -20.48448 -107.98245
vertex 125.50000 0.00000 -110.00000
endloop
endfacet
facet normal 2.274248831955962e-16 -0.09801723939496178 -0.9951847169151017
outer loop
vertex -129.50000 -20.48448 -107.98245
vertex -129.50000 -0.00000 -110.00000
vertex 125.50000 0.00000 -110.00000
endloop
endfacet
facet normal 2.158401428587906e-16 0.0980172393949617 -0.9951847169151015
outer loop
vertex 125.50000 0.00000 -110.00000
vertex -129.50000 -0.00000 -110.00000
vertex 125.50000 20.48448 -107.98245
endloop
endfacet
facet normal 2.2201000502427217e-16 0.09801723939496164 -0.9951847169151016
outer loop
vertex -129.50000 -0.00000 -110.00000
vertex -129.50000 20.48448 -107.98245
vertex 125.50000 20.48448 -107.98245
endloop
endfacet
facet normal 2.1331670058591908e-16 0.29028477465009805 -0.9569403061875603
outer loop
vertex 125.50000 20.48448 -107.98245
vertex -129.50000 20.48448 -107.98245
vertex 125.50000 40.18176 -102.00735
endloop
endfacet
facet normal 2.138876977641338e-16 0.29028477465009805 -0.9569403061875603
outer loop
vertex -129.50000 20.48448 -107.98245
vertex -129.50000 40.18176 -102.00735
vertex 125.50000 40.18176 -102.00735
endloop
endfacet
facet normal 1.9659380631805233e-16 0.47139671117069276 -0.8819212780614009
outer loop
vertex 125.50000 40.18176 -102.00735
vertex -129.50000 40.18176 -102.00735
vertex 125.50000 58.33487 -92.30431
endloop
endfacet
facet normal 1.9493561554068225e-16 0.4713967111706927 -0.8819212780614007
outer loop
vertex -129.50000 40.18176 -102.00735
vertex -129.50000 58.33487 -92.30431
vertex 125.50000 58.33487 -92.30431
endloop
endfacet
facet normal 1.7231596929039515e-16 0.6343929586606476 -0.773010720496029
outer loop
vertex 125.50000 58.33487 -92.30431
vertex -129.50000 58.33487 -92.30431
vertex 125.50000 74.24622 -79.24622
endloop
endfacet
facet normal 1.7327610713589835e-16 0.6343929586606476 -0.773010720496029
outer loop
vertex -129.50000 58.33487 -92.30431
vertex -129.50000 74.24622 -79.24622
vertex 125.50000 74.24622 -79.24622
endloop
endfacet
facet normal 1.4141593988821356e-16 0.773010720496029 -0.6343929586606476
outer loop
vertex 125.50000 74.24622 -79.24622
vertex -129.50000 74.24622 -79.24622
vertex 125.50000 87.30431 -63.33487
endloop
endfacet
facet normal 1.4078683704791742e-16 0.773010720496029 -0.6343929586606476
outer loop
vertex -129.50000 74.24622 -79.24622
vertex -129.50000 87.30431 -63.33487
vertex 125.50000 87.30431 -63.33487
endloop
endfacet
facet normal 1.0508157138307069e-16 0.8819212780614009 -0.47139671117069276
outer loop
vertex 125.50000 87.30431 -63.33487
vertex -129.50000 87.30431 -63.33487
vertex 125.50000 97.00735 -45.18176
endloop
endfacet
facet normal 1.0288268597980456e-16 0.8819212780614009 -0.47139671117069276
outer loop
vertex -129.50000 87.30431 -63.33487
vertex -129.50000 97.00735 -45.18176
vertex 125.50000 97.00735 -45.18176
endloop
endfacet
facet normal 6.470893738961094e-17 0.9569403061875603 -0.29028477465009805
outer loop
vertex 125.50000 97.00735 -45.18176
vertex -129.50000 97.00735 -45.18176
vertex 125.50000 102.98245 -25.48448
endloop
endfacet
facet normal 6.497854109290141e-17 0.9569403061875603 -0.29028477465009805
outer loop
vertex -129.50000 97.00735 -45.18176
vertex -129.50000 102.98245 -25.48448
vertex 125.50000 102.98245 -25.48448
endloop
endfacet
facet normal 2.1849548998070215e-17 0.9951847169151017 -0.09801723939496178
outer loop
vertex 125.50000 102.98245 -25.48448
vertex -129.50000 102.98245 -25.48448
vertex 125.50000 105.00000 -5.00000
endloop
endfacet
facet normal 2.1659512685294877e-17 0.9951847169151017 -0.09801723939496178
outer loop
vertex -129.50000 102.98245 -25.48448
vertex -129.50000 105.00000 -5.00000
vertex 125.50000 105.00000 -5.00000
endloop
endfacet
facet normal -2.1508149794975338e-17 0.9951847169151016 0.09801723939496164
outer loop
vertex 125.50000 105.00000 -5.00000
vertex -129.50000 105.00000 -5.00000
vertex 125.50000 102.98245 15.48448
endloop
endfacet
facet normal -2.1659512685294846e-17 0.9951847169151016 0.09801723939496164
outer loop
vertex -129.50000 105.00000 -5.00000
vertex -129.50000 102.98245 15.48448
vertex 125.50000 102.98245 15.48448
endloop
endfacet
facet normal -6.470893738961094e-17 0.9569403061875603 0.29028477465009805
outer loop
vertex 125.50000 102.98245 15.48448
vertex -129.50000 102.98245 15.48448
vertex 125.50000 97.00735 35.18176
endloop
endfacet
facet normal -6.497854109290141e-17 0.9569403061875603 0.29028477465009805
outer loop
vertex -129.50000 102.98245 15.48448
vertex -129.50000 97.00735 35.18176
vertex 125.50000 97.00735 35.18176
endloop
endfacet
facet normal -1.0508157138307069e-16 0.8819212780614009 0.47139671117069276
outer loop
vertex 125.50000 97.00735 35.18176
vertex -129.50000 97.00735 35.18176
vertex 125.50000 87.30431 53.33487
endloop
endfacet
facet normal -1.0288268597980456e-16 0.8819212780614009 0.47139671117069276
outer loop
vertex -129.50000 97.00735 35.18176
vertex -129.50000 87.30431 53.33487
vertex 125.50000 87.30431 53.33487
endloop
endfacet
facet normal -1.4141593988821356e-16 0.773010720496029 0.6343929586606476
outer loop
vertex 125.50000 87.30431 53.33487
vertex -129.50000 87.30431 53.33487
vertex 125.50000 74.24622 69.24622
endloop
endfacet
facet normal -1.4078683704791742e-16 0.773010720496029 0.6343929586606476
outer loop
vertex -129.50000 87.30431 53.33487
vertex -129.50000 74.24622 69.24622
vertex 125.50000 74.24622 69.24622
endloop
endfacet
facet normal -1.7231596929039515e-16 0.6343929586606476 0.773010720496029
outer loop
vertex 125.50000 74.24622 69.24622
vertex -129.50000 74.24622 69.24622
vertex 125.50000 58.33487 82.30431
endloop
endfacet
facet normal -1.7327610713589835e-16 0.6343929586606476 0.773010720496029
outer loop
vertex -129.50000 74.24622 69.24622
vertex -129.50000 58.33487 82.30431
vertex 125.50000 58.33487 82.30431
endloop
endfacet
facet normal -1.9659380631805233e-16 0.47139671117069276 0.8819212780614009
outer loop
vertex 125.50000 58.33487 82.30431
vertex -129.50000 58.33487 82.30431
vertex 125.50000 40.18176 92.00735
endloop
endfacet
facet normal -1.9493561554068232e-16 0.47139671117069276 0.8819212780614009
outer loop
vertex -129.50000 58.33487 82.30431
vertex -129.50000 40.18176 92.00735
vertex 125.50000 40.18176 92.00735
endloop
endfacet
facet normal -2.1331670058591908e-16 0.29028477465009805 0.9569403061875603
outer loop
vertex 125.50000 40.18176 92.00735
vertex -129.50000 40.18176 92.00735
vertex 125.50000 20.48448 97.98245
endloop
endfacet
facet normal -2.138876977641338e-16 0.29028477465009805 0.9569403061875603
outer loop
vertex -129.50000 40.18176 92.00735
vertex -129.50000 20.48448 97.98245
vertex 125.50000 20.48448 97.98245
endloop
endfacet
facet normal -2.2184196748031285e-16 0.09801723939496185 0.9951847169151017
outer loop
vertex 125.50000 20.48448 97.98245
vertex -129.50000 20.48448 97.98245
vertex 125.50000 0.00000 100.00000
endloop
endfacet
facet normal -2.287786027384271e-16 0.09801723939496175 0.9951847169151016
outer loop
vertex -129.50000 20.48448 97.98245
vertex -129.50000 0.00000 100.00000
vertex 125.50000 0.00000 100.00000
endloop
endfacet
facet normal -2.158401428180927e-16 -0.09801723939496157 0.9951847169151016
outer loop
vertex 125.50000 0.00000 100.00000
vertex -129.50000 0.00000 100.00000
vertex 125.50000 -20.48448 97.98245
endloop
endfacet
facet normal -2.220100050242722e-16 -0.09801723939496165 0.9951847169151016
outer loop
vertex -129.50000 0.00000 100.00000
vertex -129.50000 -20.48448 97.98245
vertex 125.50000 -20.48448 97.98245
endloop
endfacet
facet normal -2.1331670058591908e-16 -0.29028477465009805 0.9569403061875603
outer loop
vertex 125.50000 -20.48448 97.98245
vertex -129.50000 -20.48448 97.98245
vertex 125.50000 -40.18176 92.00735
endloop
endfacet
facet normal -2.138876977641338e-16 -0.29028477465009805 0.9569403061875603
outer loop
vertex -129.50000 -20.48448 97.98245
vertex -129.50000 -40.18176 92.00735
vertex 125.50000 -40.18176 92.00735
endloop
endfacet
facet normal -1.9659380631805233e-16 -0.47139671117069276 0.8819212780614009
outer loop
vertex 125.50000 -40.18176 92.00735
vertex -129.50000 -40.18176 92.00735
vertex 125.50000 -58.33487 82.30431
endloop
endfacet
facet normal -1.9493561554068235e-16 -0.47139671117069276 0.8819212780614007
outer loop
vertex -129.50000 -40.18176 92.00735
vertex -129.50000 -58.33487 82.30431
vertex 125.50000 -58.33487 82.30431
endloop
endfacet
facet normal -1.7231596929039515e-16 -0.6343929586606476 0.773010720496029
outer loop
vertex 125.50000 -58.33487 82.30431
vertex -129.50000 -58.33487 82.30431
vertex 125.50000 -74.24622 69.24622
endloop
endfacet
facet normal -1.7327610713589835e-16 -0.6343929586606476 0.773010720496029
outer loop
vertex -129.50000 -58.33487 82.30431
vertex -129.50000 -74.24622 69.24622
vertex 125.50000 -74.24622 69.24622
endloop
endfacet
facet normal -1.4141593988821356e-16 -0.773010720496029 0.6343929586606476
outer loop
vertex 125.50000 -74.24622 69.24622
vertex -129.50000 -74.24622 69.24622
vertex 125.50000 -87.30431 53.33487
endloop
endfacet
facet normal -1.4078683704791742e-16 -0.773010720496029 0.6343929586606476
outer loop
vertex -129.50000 -74.24622 69.24622
vertex -129.50000 -87.30431 53.33487
vertex 125.50000 -87.30431 53.33487
endloop
endfacet
facet normal -1.0508157138307069e-16 -0.8819212780614009 0.47139671117069276
outer loop
vertex 125.50000 -87.30431 53.33487
vertex -129.50000 -87.30431 53.33487
vertex 125.50000 -97.00735 35.18176
endloop
endfacet
facet normal -1.0288268597980456e-16 -0.8819212780614009 0.47139671117069276
outer loop
vertex -129.50000 -87.30431 53.33487
vertex -129.50000 -97.00735 35.18176
vertex 125.50000 -97.00735 35.18176
endloop
endfacet
facet normal -6.470893738961094e-17 -0.9569403061875603 0.29028477465009805
outer loop
vertex 125.50000 -97.00735 35.18176
vertex -129.50000 -97.00735 35.18176
vertex 125.50000 -102.98245 15.48448
endloop
endfacet
facet normal -6.497854109290141e-17 -0.9569403061875603 0.29028477465009805
outer loop
vertex -129.50000 -97.00735 35.18176
vertex -129.50000 -102.98245 15.48448
vertex 125.50000 -102.98245 15.48448
endloop
endfacet
facet normal -2.184954899807022e-17 -0.9951847169151015 0.0980172393949618
outer loop
vertex 125.50000 -102.98245 15.48448
vertex -129.50000 -102.98245 15.48448
vertex 125.50000 -105.00000 -5.00000
endloop
endfacet
facet normal -2.1659512685294883e-17 -0.9951847169151015 0.0980172393949618
outer loop
vertex -129.50000 -102.98245 15.48448
vertex -129.50000 -105.00000 -5.00000
vertex 125.50000 -105.00000 -5.00000
endloop
endfacet
facet normal 1 0 0
outer loop
vertex -130.00000 0.00000 -99.00000
vertex -130.00000 0.00000 -110.00000
vertex -130.00000 18.33849 -97.19382
endloop
endfacet
facet normal 1 0 0
outer loop
vertex -130.00000 0.00000 -110.00000
vertex -130.00000 20.48448 -107.98245
vertex -130.00000 18.33849 -97.19382
endloop
endfacet
facet normal 1 0 0
outer loop
vertex -130.00000 18.33849 -97.19382
vertex -130.00000 20.48448 -107.98245
vertex -130.00000 35.97224 -91.84467
endloop
endfacet
facet normal 1 0 0
outer loop
vertex -130.00000 20.48448 -107.98245
vertex -130.00000 40.18176 -102.00735
vertex -130.00000 35.97224 -91.84467
endloop
endfacet
facet normal 1 0 0
outer loop
vertex -130.00000 35.97224 -91.84467
vertex -130.00000 40.18176 -102.00735
vertex -130.00000 52.22360 -83.15814
endloop
endfacet
facet normal 0.9999999999999999 0 0
outer loop
vertex -130.00000 40.18176 -102.00735
vertex -130.00000 58.33487 -92.30431
vertex -130.00000 52.22360 -83.15814
endloop
endfacet
facet normal 1 0 0
outer loop
vertex -130.00000 52.22360 -83.15814
vertex -130.00000 58.33487 -92.30431
vertex -130.00000 66.46804 -71.46804
endloop
endfacet
facet normal 0.9999999999999999 0 0
outer loop
vertex -130.00000 58.33487 -92.30431
vertex -130.00000 74.24622 -79.24622
vertex -130.00000 66.46804 -71.46804
endloop
endfacet
facet normal 1 1.0959018226330408e-15 1.0959018226330408e-15
outer loop
vertex -130.00000 66.46804 -71.46804
vertex -130.00000 74.24622 -79.24622
vertex -130.00000 78.15814 -57.22360
endloop
endfacet
facet normal 1 7.708397676372633e-16 1.1536433250528012e-15
outer loop
vertex -130.00000 74.24622 -79.24622
vertex -130.00000 87.30431 -63.33487
vertex -130.00000 78.15814 -57.22360
endloop
endfacet
facet normal 0.9999999999999999 0 0
outer loop
vertex -130.00000 78.15814 -57.22360
vertex -130.00000 87.30431 -63.33487
vertex -130.00000 86.84467 -40.97224
endloop
endfacet
facet normal 1 0 0
outer loop
vertex -130.00000 87.30431 -63.33487
vertex -130.00000 97.00735 -45.18176
vertex -130.00000 86.84467 -40.97224
endloop
endfacet
facet normal 1 0 0
outer loop
vertex -130.00000 86.84467 -40.97224
vertex -130.00000 97.00735 -45.18176
vertex -130.00000 92.19382 -23.33849
endloop
endfacet
facet normal 1 0 0
outer loop
vertex -130.00000 97.00735 -45.18176
vertex -130.00000 102.98245 -25.48448
vertex -130.00000 92.19382 -23.33849
endloop
endfacet
facet normal 1 0 0
outer loop
vertex -130.00000 92.19382 -23.33849
vertex -130.00000 102.98245 -25.48448
vertex -130.00000 94.00000 -5.00000
endloop
endfacet
facet normal 1 0 0
outer loop
vertex -130.00000 102.98245 -25.48448
vertex -130.00000 105.00000 -5.00000
vertex -130.00000 94.00000 -5.00000
endloop
endfacet
facet normal 1 0 0
outer loop
vertex -130.00000 94.00000 -5.00000
vertex -130.00000 105.00000 -5.00000
vertex -130.00000 92.19382 13.33849
endloop
endfacet
facet normal 1 0 0
outer loop
vertex -130.00000 105.00000 -5.00000
vertex -130.00000 102.98245 15.48448
vertex -130.00000 92.19382 13.33849
endloop
endfacet
facet normal 1 0 0
outer loop
vertex -130.00000 92.19382 13.33849
vertex -130.00000 102.98245 15.48448
vertex -130.00000 86.84467 30.97224
endloop
endfacet
facet normal 1 0 0
outer loop
vertex -130.00000 102.98245 15.48448
vertex -130.00000 97.00735 35.18176
vertex -130.00000 86.84467 30.97224
endloop
endfacet
facet normal 1 0 0
outer loop
vertex -130.00000 86.84467 30.97224
vertex -130.00000 97.00735 35.18176
vertex -130.00000 78.15814 47.22360
endloop
endfacet
facet normal 0.9999999999999999 0 0
outer loop
vertex -130.00000 97.00735 35.18176
vertex -130.00000 87.30431 53.33487
vertex -130.00000 78.15814 47.22360
endloop
endfacet
facet normal 1 -8.610444476653297e-16 1.288644179149722e-15
outer loop
vertex -130.00000 78.15814 47.22360
vertex -130.00000 87.30431 53.33487
vertex -130.00000 66.46804 61.46804
endloop
endfacet
facet normal 0.9999999999999999 -9.81093057513228e-16 9.81093057513228e-16
outer loop
vertex -130.00000 87.30431 53.33487
vertex -130.00000 74.24622 69.24622
vertex -130.00000 66.46804 61.46804
endloop
endfacet
facet normal 1 0 0
outer loop
vertex -130.00000 66.46804 61.46804
vertex -130.00000 74.24622 69.24622
vertex -130.00000 52.22360 73.15814
endloop
endfacet
facet normal 1 0 0
outer loop
vertex -130.00000 74.24622 69.24622
vertex -130.00000 58.33487 82.30431
vertex -130.00000 52.22360 73.15814
endloop
endfacet
facet normal 0.9999999999999999 0 0
outer loop
vertex -130.00000 52.22360 73.15814
vertex -130.00000 58.33487 82.30431
vertex -130.00000 35.97224 81.84467
endloop
endfacet
facet normal 1 0 0
outer loop
vertex -130.00000 58.33487 82.30431
vertex -130.00000 40.18176 92.00735
vertex -130.00000 35.97224 81.84467
endloop
endfacet
facet normal 1 0 0
outer loop
vertex -130.00000 35.97224 81.84467
vertex -130.00000 40.18176 92.00735
vertex -130.00000 18.33849 87.19382
endloop
endfacet
facet normal 1 0 0
outer loop
vertex -130.00000 40.18176 92.00735
vertex -130.00000 20.48448 97.98245
vertex -130.00000 18.33849 87.19382
endloop
endfacet
facet normal 1 0 0
outer loop
vertex -130.00000 18.33849 87.19382
vertex -130.00000 20.48448 97.98245
vertex -130.00000 0.00000 89.00000
endloop
endfacet
facet normal 1 0 0
outer loop
vertex -130.00000 20.48448 97.98245
vertex -130.00000 0.00000 100.00000
vertex -130.00000 0.00000 89.00000
endloop
endfacet
facet normal 1 0 0
outer loop
vertex -130.00000 0.00000 89.00000
vertex -130.00000 0.00000 100.00000
vertex -130.00000 -18.33849 87.19382
endloop
endfacet
facet normal 1 0 0
outer loop
vertex -130.00000 0.00000 100.00000
vertex -130.00000 -20.48448 97.98245
vertex -130.00000 -18.33849 87.19382
endloop
endfacet
facet normal 1 0 0
outer loop
vertex -130.00000 -18.33849 87.19382
vertex -130.00000 -20.48448 97.98245
vertex -130.00000 -35.97224 81.84467
endloop
endfacet
facet normal 1 0 0
outer loop
vertex -130.00000 -20.48448 97.98245
vertex -130.00000 -40.18176 92.00735
vertex -130.00000 -35.97224 81.84467
endloop
endfacet
facet normal 1 0 0
outer loop
vertex -130.00000 -35.97224 81.84467
vertex -130.00000 -40.18176 92.00735
vertex -130.00000 -52.22360 73.15814
endloop
endfacet
facet normal 0.9999999999999999 0 0
outer loop
vertex -130.00000 -40.18176 92.00735
vertex -130.00000 -58.33487 82.30431
vertex -130.00000 -52.22360 73.15814
endloop
endfacet
facet normal 1 0 0
outer loop
vertex -130.00000 -52.22360 73.15814
vertex -130.00000 -58.33487 82.30431
vertex -130.00000 -66.46804 61.46804
endloop
endfacet
facet normal 0.9999999999999999 0 0
outer loop
vertex -130.00000 -58.33487 82.30431
vertex -130.00000 -74.24622 69.24622
vertex -130.00000 -66.46804 61.46804
endloop
endfacet
facet normal 1 1.0959018226330408e-15 1.0959018226330408e-15
outer loop
vertex -130.00000 -66.46804 61.46804
vertex -130.00000 -74.24622 69.24622
vertex -130.00000 -78.15814 47.22360
endloop
endfacet
facet normal 1 7.708397676372633e-16 1.1536433250528012e-15
outer loop
vertex -130.00000 -74.24622 69.24622
vertex -130.00000 -87.30431 53.33487
vertex -130.00000 -78.15814 47.22360
endloop
endfacet
facet normal 0.9999999999999999 0 0
outer loop
vertex -130.00000 -78.15814 47.22360
vertex -130.00000 -87.30431 53.33487
vertex -130.00000 -86.84467 30.97224
endloop
endfacet
facet normal 1 0 0
outer loop
vertex -130.00000 -87.30431 53.33487
vertex -130.00000 -97.00735 35.18176
vertex -130.00000 -86.84467 30.97224
endloop
endfacet
facet normal 1 0 0
outer loop
vertex -130.00000 -86.84467 30.97224
vertex -130.00000 -97.00735 35.18176
vertex -130.00000 -92.19382 13.33849
endloop
endfacet
facet normal 1 0 0
outer loop
vertex -130.00000 -97.00735 35.18176
vertex -130.00000 -102.98245 15.48448
vertex -130.00000 -92.19382 13.33849
endloop
endfacet
facet normal 1 0 0
outer loop
vertex -130.00000 -92.19382 13.33849
vertex -130.00000 -102.98245 15.48448
vertex -130.00000 -94.00000 -5.00000
endloop
endfacet
facet normal 1 0 0
outer loop
vertex -130.00000 -102.98245 15.48448
vertex -130.00000 -105.00000 -5.00000
vertex -130.00000 -94.00000 -5.00000
endloop
endfacet
facet normal 1 0 0
outer loop
vertex -130.00000 -94.00000 -5.00000
vertex -130.00000 -105.00000 -5.00000
vertex -130.00000 -92.19382 -23.33849
endloop
endfacet
facet normal 1 0 0
outer loop
vertex -130.00000 -105.00000 -5.00000
vertex -130.00000 -102.98245 -25.48448
vertex -130.00000 -92.19382 -23.33849
endloop
endfacet
facet normal 1 0 0
outer loop
vertex -130.00000 -92.19382 -23.33849
vertex -130.00000 -102.98245 -25.48448
vertex -130.00000 -86.84467 -40.97224
endloop
endfacet
facet normal 1 0 0
outer loop
vertex -130.00000 -102.98245 -25.48448
vertex -130.00000 -97.00735 -45.18176
vertex -130.00000 -86.84467 -40.97224
endloop
endfacet
facet normal 1 0 0
outer loop
vertex -130.00000 -86.84467 -40.97224
vertex -130.00000 -97.00735 -45.18176
vertex -130.00000 -78.15814 -57.22360
endloop
endfacet
facet normal 0.9999999999999999 0 0
outer loop
vertex -130.00000 -97.00735 -45.18176
vertex -130.00000 -87.30431 -63.33487
vertex -130.00000 -78.15814 -57.22360
endloop
endfacet
facet normal 1 -8.610444476653297e-16 1.288644179149722e-15
outer loop
vertex -130.00000 -78.15814 -57.22360
vertex -130.00000 -87.30431 -63.33487
vertex -130.00000 -66.46804 -71.46804
endloop
endfacet
facet normal 0.9999999999999999 -9.81093057513228e-16 9.81093057513228e-16
outer loop
vertex -130.00000 -87.30431 -63.33487
vertex -130.00000 -74.24622 -79.24622
vertex -130.00000 -66.46804 -71.46804
endloop
endfacet
facet normal 1 0 0
outer loop
vertex -130.00000 -66.46804 -71.46804
vertex -130.00000 -74.24622 -79.24622
vertex -130.00000 -52.22360 -83.15814
endloop
endfacet
facet normal 1 0 0
outer loop
vertex -130.00000 -74.24622 -79.24622
vertex -130.00000 -58.33487 -92.30431
vertex -130.00000 -52.22360 -83.15814
endloop
endfacet
facet normal 0.9999999999999999 0 0
outer loop
vertex -130.00000 -52.22360 -83.15814
vertex -130.00000 -58.33487 -92.30431
vertex -130.00000 -35.97224 -91.84467
endloop
endfacet
facet normal 1 0 0
outer loop
vertex -130.00000 -58.33487 -92.30431
vertex -130.00000 -40.18176 -102.00735
vertex -130.00000 -35.97224 -91.84467
endloop
endfacet
facet normal 1 0 0
outer loop
vertex -130.00000 -35.97224 -91.84467
vertex -130.00000 -40.18176 -102.00735
vertex -130.00000 -18.33849 -97.19382
endloop
endfacet
facet normal 1 0 0
outer loop
vertex -130.00000 -40.18176 -102.00735
vertex -130.00000 -20.48448 -107.98245
vertex -130.00000 -18.33849 -97.19382
endloop
endfacet
facet normal 0.9999999999999999 0 0
outer loop
vertex -130.00000 -18.33849 -97.19382
vertex -130.00000 -20.48448 -107.98245
vertex -130.00000 -0.00000 -99.00000
endloop
endfacet
facet normal 1 0 0
outer loop
vertex -130.00000 -20.48448 -107.98245
vertex -130.00000 -0.00000 -110.00000
vertex -130.00000 -0.00000 -99.00000
endloop
endfacet
facet normal 1 -1.2724058863871743e-16 1.2918958832001822e-15
outer loop
vertex 127.00000 0.00000 -99.00000
vertex 127.00000 0.00000 -110.00000
vertex 127.00000 18.33849 -97.19382
endloop
endfacet
facet normal 1 -1.2724079788941194e-16 1.2918961828477595e-15
outer loop
vertex 127.00000 0.00000 -110.00000
vertex 127.00000 20.48448 -107.98245
vertex 127.00000 18.33849 -97.19382
endloop
endfacet
facet normal 1 -3.7683241299303206e-16 1.2422492958800161e-15
outer loop
vertex 127.00000 18.33849 -97.19382
vertex 127.00000 20.48448 -107.98245
vertex 127.00000 35.97224 -91.84467
endloop
endfacet
facet normal 1 -3.768323131074637e-16 1.24224920001777e-15
outer loop
vertex 127.00000 20.48448 -107.98245
vertex 127.00000 40.18176 -102.00735
vertex 127.00000 35.97224 -91.84467
endloop
endfacet
facet normal 1 -6.119422551716981e-16 1.1448635372691702e-15
outer loop
vertex 127.00000 35.97224 -91.84467
vertex 127.00000 40.18176 -102.00735
vertex 127.00000 52.22360 -83.15814
endloop
endfacet
facet normal 0.9999999999999999 5.768216693990842e-16 3.854198884108117e-16
outer loop
vertex 127.00000 40.18176 -102.00735
vertex 127.00000 58.33487 -92.30431
vertex 127.00000 52.22360 -83.15814
endloop
endfacet
facet normal 1 0 0
outer loop
vertex 127.00000 52.22360 -83.15814
vertex 127.00000 58.33487 -92.30431
vertex 127.00000 66.46804 -71.46804
endloop
endfacet
facet normal 0.9999999999999999 0 0
outer loop
vertex 127.00000 58.33487 -92.30431
vertex 127.00000 74.24622 -79.24622
vertex 127.00000 66.46804 -71.46804
endloop
endfacet
facet normal 1 0 0
outer loop
vertex 127.00000 66.46804 -71.46804
vertex 127.00000 74.24622 -79.24622
vertex 127.00000 78.15814 -57.22360
endloop
endfacet
facet normal 1 0 0
outer loop
vertex 127.00000 74.24622 -79.24622
vertex 127.00000 87.30431 -63.33487
vertex 127.00000 78.15814 -57.22360
endloop
endfacet
facet normal 0.9999999999999999 0 0
outer loop
vertex 127.00000 78.15814 -57.22360
vertex 127.00000 87.30431 -63.33487
vertex 127.00000 86.84467 -40.97224
endloop
endfacet
facet normal 1 0 0
outer loop
vertex 127.00000 87.30431 -63.33487
vertex 127.00000 97.00735 -45.18176
vertex 127.00000 86.84467 -40.97224
endloop
endfacet
facet normal 1 2.9654864417118112e-16 7.159322284461852e-16
outer loop
vertex 127.00000 86.84467 -40.97224
vertex 127.00000 97.00735 -45.18176
vertex 127.00000 92.19382 -23.33849
endloop
endfacet
facet normal 1 1.3534155225196435e-16 6.804075477913918e-16
outer loop
vertex 127.00000 97.00735 -45.18176
vertex 127.00000 102.98245 -25.48448
vertex 127.00000 92.19382 -23.33849
endloop
endfacet
facet normal 1 0 0
outer loop
vertex 127.00000 92.19382 -23.33849
vertex 127.00000 102.98245 -25.48448
vertex 127.00000 94.00000 -5.00000
endloop
endfacet
facet normal 1 0 0
outer loop
vertex 127.00000 102.98245 -25.48448
vertex 127.00000 105.00000 -5.00000
vertex 127.00000 94.00000 -5.00000
endloop
endfacet
facet normal 1 0 0
outer loop
vertex 127.00000 94.00000 -5.00000
vertex 127.00000 105.00000 -5.00000
vertex 127.00000 92.19382 13.33849
endloop
endfacet
facet normal 1 0 0
outer loop
vertex 127.00000 105.00000 -5.00000
vertex 127.00000 102.98245 15.48448
vertex 127.00000 92.19382 13.33849
endloop
endfacet
facet normal 1 -1.511793607092861e-16 7.600295429254078e-16
outer loop
vertex 127.00000 92.19382 13.33849
vertex 127.00000 102.98245 15.48448
vertex 127.00000 86.84467 30.97224
endloop
endfacet
facet normal 1 -2.6548170361810356e-16 6.409299500060552e-16
outer loop
vertex 127.00000 102.98245 15.48448
vertex 127.00000 97.00735 35.18176
vertex 127.00000 86.84467 30.97224
endloop
endfacet
facet normal 1 0 0
outer loop
vertex 127.00000 86.84467 30.97224
vertex 127.00000 97.00735 35.18176
vertex 127.00000 78.15814 47.22360
endloop
endfacet
facet normal 0.9999999999999999 0 0
outer loop
vertex 127.00000 97.00735 35.18176
vertex 127.00000 87.30431 53.33487
vertex 127.00000 78.15814 47.22360
endloop
endfacet
facet normal 1 0 0
outer loop
vertex 127.00000 78.15814 47.22360
vertex 127.00000 87.30431 53.33487
vertex 127.00000 66.46804 61.46804
endloop
endfacet
facet normal 0.9999999999999999 0 0
outer loop
vertex 127.00000 87.30431 53.33487
vertex 127.00000 74.24622 69.24622
vertex 127.00000 66.46804 61.46804
endloop
endfacet
facet normal 1 0 0
outer loop
vertex 127.00000 66.46804 61.46804
vertex 127.00000 74.24622 69.24622
vertex 127.00000 52.22360 73.15814
endloop
endfacet
facet normal 1 0 0
outer loop
vertex 127.00000 74.24622 69.24622
vertex 127.00000 58.33487 82.30431
vertex 127.00000 52.22360 73.15814
endloop
endfacet
facet normal 0.9999999999999999 0 0
outer loop
vertex 127.00000 52.22360 73.15814
vertex 127.00000 58.33487 82.30431
vertex 127.00000 35.97224 81.84467
endloop
endfacet
facet normal 1 -2.898769359103082e-17 1.4103452403722717e-15
outer loop
vertex 127.00000 58.33487 82.30431
vertex 127.00000 40.18176 92.00735
vertex 127.00000 35.97224 81.84467
endloop
endfacet
facet normal 1 3.768323760098215e-16 1.2422491739627775e-15
outer loop
vertex 127.00000 35.97224 81.84467
vertex 127.00000 40.18176 92.00735
vertex 127.00000 18.33849 87.19382
endloop
endfacet
facet normal 1 3.7683234621624437e-16 1.2422493091627527e-15
outer loop
vertex 127.00000 40.18176 92.00735
vertex 127.00000 20.48448 97.98245
vertex 127.00000 18.33849 87.19382
endloop
endfacet
facet normal 1 1.272406216050321e-16 1.2918962179129226e-15
outer loop
vertex 127.00000 18.33849 87.19382
vertex 127.00000 20.48448 97.98245
vertex 127.00000 0.00000 89.00000
endloop
endfacet
facet normal 1 1.2724076837667149e-16 1.2918958832001822e-15
outer loop
vertex 127.00000 20.48448 97.98245
vertex 127.00000 0.00000 100.00000
vertex 127.00000 0.00000 89.00000
endloop
endfacet
facet normal 1 -1.2724058863871735e-16 1.2918958832001822e-15
outer loop
vertex 127.00000 0.00000 89.00000
vertex 127.00000 0.00000 100.00000
vertex 127.00000 -18.33849 87.19382
endloop
endfacet
facet normal 1 -1.2724079788941187e-16 1.2918961828477597e-15
outer loop
vertex 127.00000 0.00000 100.00000
vertex 127.00000 -20.48448 97.98245
vertex 127.00000 -18.33849 87.19382
endloop
endfacet
facet normal 1 -3.7683241299303206e-16 1.2422492958800161e-15
outer loop
vertex 127.00000 -18.33849 87.19382
vertex 127.00000 -20.48448 97.98245
vertex 127.00000 -35.97224 81.84467
endloop
endfacet
facet normal 1 -3.768323131074637e-16 1.24224920001777e-15
outer loop
vertex 127.00000 -20.48448 97.98245
vertex 127.00000 -40.18176 92.00735
vertex 127.00000 -35.97224 81.84467
endloop
endfacet
facet normal 1 -6.119422551716981e-16 1.1448635372691702e-15
outer loop
vertex 127.00000 -35.97224 81.84467
vertex 127.00000 -40.18176 92.00735
vertex 127.00000 -52.22360 73.15814
endloop
endfacet
facet normal 0.9999999999999999 5.768216693990842e-16 3.854198884108117e-16
outer loop
vertex 127.00000 -40.18176 92.00735
vertex 127.00000 -58.33487 82.30431
vertex 127.00000 -52.22360 73.15814
endloop
endfacet
facet normal 1 0 0
outer loop
vertex 127.00000 -52.22360 73.15814
vertex 127.00000 -58.33487 82.30431
vertex 127.00000 -66.46804 61.46804
endloop
endfacet
facet normal 0.9999999999999999 0 0
outer loop
vertex 127.00000 -58.33487 82.30431
vertex 127.00000 -74.24622 69.24622
vertex 127.00000 -66.46804 61.46804
endloop
endfacet
facet normal 1 0 0
outer loop
vertex 127.00000 -66.46804 61.46804
vertex 127.00000 -74.24622 69.24622
vertex 127.00000 -78.15814 47.22360
endloop
endfacet
facet normal 1 0 0
outer loop
vertex 127.00000 -74.24622 69.24622
vertex 127.00000 -87.30431 53.33487
vertex 127.00000 -78.15814 47.22360
endloop
endfacet
facet normal 0.9999999999999999 0 0
outer loop
vertex 127.00000 -78.15814 47.22360
vertex 127.00000 -87.30431 53.33487
vertex 127.00000 -86.84467 30.97224
endloop
endfacet
facet normal 1 0 0
outer loop
vertex 127.00000 -87.30431 53.33487
vertex 127.00000 -97.00735 35.18176
vertex 127.00000 -86.84467 30.97224
endloop
endfacet
facet normal 1 2.9654864417118112e-16 7.159322284461852e-16
outer loop
vertex 127.00000 -86.84467 30.97224
vertex 127.00000 -97.00735 35.18176
vertex 127.00000 -92.19382 13.33849
endloop
endfacet
facet normal 1 1.3534155225196435e-16 6.804075477913918e-16
outer loop
vertex 127.00000 -97.00735 35.18176
vertex 127.00000 -102.98245 15.48448
vertex 127.00000 -92.19382 13.33849
endloop
endfacet
facet normal 1 0 0
outer loop
vertex 127.00000 -92.19382 13.33849
vertex 127.00000 -102.98245 15.48448
vertex 127.00000 -94.00000 -5.00000
endloop
endfacet
facet normal 1 0 0
outer loop
vertex 127.00000 -102.98245 15.48448
vertex 127.00000 -105.00000 -5.00000
vertex 127.00000 -94.00000 -5.00000
endloop
endfacet
facet normal 1 0 0
outer loop
vertex 127.00000 -94.00000 -5.00000
vertex 127.00000 -105.00000 -5.00000
vertex 127.00000 -92.19382 -23.33849
endloop
endfacet
facet normal 1 0 0
outer loop
vertex 127.00000 -105.00000 -5.00000
vertex 127.00000 -102.98245 -25.48448
vertex 127.00000 -92.19382 -23.33849
endloop
endfacet
facet normal 1 -1.511793607092861e-16 7.600295429254078e-16
outer loop
vertex 127.00000 -92.19382 -23.33849
vertex 127.00000 -102.98245 -25.48448
vertex 127.00000 -86.84467 -40.97224
endloop
endfacet
facet normal 1 -2.6548170361810356e-16 6.409299500060552e-16
outer loop
vertex 127.00000 -102.98245 -25.48448
vertex 127.00000 -97.00735 -45.18176
vertex 127.00000 -86.84467 -40.97224
endloop
endfacet
facet normal 1 0 0
outer loop
vertex 127.00000 -86.84467 -40.97224
vertex 127.00000 -97.00735 -45.18176
vertex 127.00000 -78.15814 -57.22360
endloop
endfacet
facet normal 0.9999999999999999 0 0
outer loop
vertex 127.00000 -97.00735 -45.18176
vertex 127.00000 -87.30431 -63.33487
vertex 127.00000 -78.15814 -57.22360
endloop
endfacet
facet normal 1 0 0
outer loop
vertex 127.00000 -78.15814 -57.22360
vertex 127.00000 -87.30431 -63.33487
vertex 127.00000 -66.46804 -71.46804
endloop
endfacet
facet normal 0.9999999999999999 0 0
outer loop
vertex 127.00000 -87.30431 -63.33487
vertex 127.00000 -74.24622 -79.24622
vertex 127.00000 -66.46804 -71.46804
endloop
endfacet
facet normal 1 0 0
outer loop
vertex 127.00000 -66.46804 -71.46804
vertex 127.00000 -74.24622 -79.24622
vertex 127.00000 -52.22360 -83.15814
endloop
endfacet
facet normal 1 0 0
outer loop
vertex 127.00000 -74.24622 -79.24622
vertex 127.00000 -58.33487 -92.30431
vertex 127.00000 -52.22360 -83.15814
endloop
endfacet
facet normal 0.9999999999999999 0 0
outer loop
vertex 127.00000 -52.22360 -83.15814
vertex 127.00000 -58.33487 -92.30431
vertex 127.00000 -35.97224 -91.84467
endloop
endfacet
facet normal 1 -2.898769359103082e-17 1.4103452403722717e-15
outer loop
vertex 127.00000 -58.33487 -92.30431
vertex 127.00000 -40.18176 -102.00735
vertex 127.00000 -35.97224 -91.84467
endloop
endfacet
facet normal 1 3.768323760098215e-16 1.2422491739627775e-15
outer loop
vertex 127.00000 -35.97224 -91.84467
vertex 127.00000 -40.18176 -102.00735
vertex 127.00000 -18.33849 -97.19382
endloop
endfacet
facet normal 1 3.7683234621624437e-16 1.2422493091627527e-15
outer loop
vertex 127.00000 -40.18176 -102.00735
vertex 127.00000 -20.48448 -107.98245
vertex 127.00000 -18.33849 -97.19382
endloop
endfacet
facet normal 0.9999999999999999 1.2724062160503218e-16 1.2918962179129226e-15
outer loop
vertex 127.00000 -18.33849 -97.19382
vertex 127.00000 -20.48448 -107.98245
vertex 127.00000 -0.00000 -99.00000
endloop
endfacet
facet normal 1 1.2724076837667156e-16 1.2918958832001822e-15
outer loop
vertex 127.00000 -20.48448 -107.98245
vertex 127.00000 -0.00000 -110.00000
vertex 127.00000 -0.00000 -99.00000
endloop
endfacet
endsolid XR_DEMO_NONFUNCTIONAL
