solid XR_DEMO_NONFUNCTIONAL
facet normal 1 0 0
outer loop
vertex 91.00000 79.50000 163.00000
vertex 91.00000 56.50000 163.00000
vertex 91.00000 79.50000 151.00000
endloop
endfacet
facet normal 1 0 0
outer loop
vertex 91.00000 56.50000 163.00000
vertex 91.00000 56.50000 151.00000
vertex 91.00000 79.50000 151.00000
endloop
endfacet
facet normal -1 0 0
outer loop
vertex 25.00000 79.50000 151.00000
vertex 25.00000 56.50000 151.00000
vertex 25.00000 79.50000 163.00000
endloop
endfacet
facet normal -1 0 0
outer loop
vertex 25.00000 56.50000 151.00000
vertex 25.00000 56.50000 163.00000
vertex 25.00000 79.50000 163.00000
endloop
endfacet
facet normal 0 1 0
outer loop
vertex 25.00000 79.50000 151.00000
vertex 25.00000 79.50000 163.00000
vertex 91.00000 79.50000 151.00000
endloop
endfacet
facet normal 0 1 0
outer loop
vertex 25.00000 79.50000 163.00000
vertex 91.00000 79.50000 163.00000
vertex 91.00000 79.50000 151.00000
endloop
endfacet
facet normal 0 -1 0
outer loop
vertex 25.00000 56.50000 163.00000
vertex 25.00000 56.50000 151.00000
vertex 91.00000 56.50000 163.00000
endloop
endfacet
facet normal 0 -1 0
outer loop
vertex 25.00000 56.50000 151.00000
vertex 91.00000 56.50000 151.00000
vertex 91.00000 56.50000 163.00000
endloop
endfacet
facet normal 0 0 1
outer loop
vertex 25.00000 79.50000 163.00000
vertex 25.00000 56.50000 163.00000
vertex 91.00000 79.50000 163.00000
endloop
endfacet
facet normal 0 0 1
outer loop
vertex 25.00000 56.50000 163.00000
vertex 91.00000 56.50000 163.00000
vertex 91.00000 79.50000 163.00000
endloop
endfacet
facet normal 0 0 -1
outer loop
vertex 91.00000 79.50000 151.00000
vertex 91.00000 56.50000 151.00000
vertex 25.00000 79.50000 151.00000
endloop
endfacet
facet normal 0 0 -1
outer loop
vertex 91.00000 56.50000 151.00000
vertex 25.00000 56.50000 151.00000
vertex 25.00000 79.50000 151.00000
endloop
endfacet
facet normal 1 0 0
outer loop
vertex 85.00000 72.00000 165.50000
vertex 85.00000 64.00000 165.50000
vertex 85.00000 72.00000 162.50000
endloop
endfacet
facet normal 1 0 0
outer loop
vertex 85.00000 64.00000 165.50000
vertex 85.00000 64.00000 162.50000
vertex 85.00000 72.00000 162.50000
endloop
endfacet
facet normal -1 0 0
outer loop
vertex 31.00000 72.00000 162.50000
vertex 31.00000 64.00000 162.50000
vertex 31.00000 72.00000 165.50000
endloop
endfacet
facet normal -1 0 0
outer loop
vertex 31.00000 64.00000 162.50000
vertex 31.00000 64.00000 165.50000
vertex 31.00000 72.00000 165.50000
endloop
endfacet
facet normal 0 1 0
outer loop
vertex 31.00000 72.00000 162.50000
vertex 31.00000 72.00000 165.50000
vertex 85.00000 72.00000 162.50000
endloop
endfacet
facet normal 0 1 0
outer loop
vertex 31.00000 72.00000 165.50000
vertex 85.00000 72.00000 165.50000
vertex 85.00000 72.00000 162.50000
endloop
endfacet
facet normal 0 -1 0
outer loop
vertex 31.00000 64.00000 165.50000
vertex 31.00000 64.00000 162.50000
vertex 85.00000 64.00000 165.50000
endloop
endfacet
facet normal 0 -1 0
outer loop
vertex 31.00000 64.00000 162.50000
vertex 85.00000 64.00000 162.50000
vertex 85.00000 64.00000 165.50000
endloop
endfacet
facet normal 0 0 1
outer loop
vertex 31.00000 72.00000 165.50000
vertex 31.00000 64.00000 165.50000
vertex 85.00000 72.00000 165.50000
endloop
endfacet
facet normal 0 0 1
outer loop
vertex 31.00000 64.00000 165.50000
vertex 85.00000 64.00000 165.50000
vertex 85.00000 72.00000 165.50000
endloop
endfacet
facet normal 0 0 -1
outer loop
vertex 85.00000 72.00000 162.50000
vertex 85.00000 64.00000 162.50000
vertex 31.00000 72.00000 162.50000
endloop
endfacet
facet normal 0 0 -1
outer loop
vertex 85.00000 64.00000 162.50000
vertex 31.00000 64.00000 162.50000
vertex 31.00000 72.00000 162.50000
endloop
endfacet
endsolid XR_DEMO_NONFUNCTIONAL
