ISO-10303-21;
HEADER;
FILE_DESCRIPTION(('Open CASCADE Model'),'2;1');
FILE_NAME('Open CASCADE Shape Model','2026-09-28T14:31:41',('Author'),(
    'Open CASCADE'),'Open CASCADE STEP processor 7.8','Open CASCADE 7.8'
  ,'Unknown');
FILE_SCHEMA(('AUTOMOTIVE_DESIGN { 1 0 10303 214 1 1 1 1 }'));
ENDSEC;
DATA;
#1 = APPLICATION_PROTOCOL_DEFINITION('international standard',
  'automotive_design',2000,#2);
#2 = APPLICATION_CONTEXT(
  'core data for automotive mechanical design processes');
#3 = SHAPE_DEFINITION_REPRESENTATION(#4,#10);
#4 = PRODUCT_DEFINITION_SHAPE('','',#5);
#5 = PRODUCT_DEFINITION('design','',#6,#9);
#6 = PRODUCT_DEFINITION_FORMATION('','',#7);
#7 = PRODUCT('Open CASCADE STEP translator 7.8 3',
  'Open CASCADE STEP translator 7.8 3','',(#8));
#8 = PRODUCT_CONTEXT('',#2,'mechanical');
#9 = PRODUCT_DEFINITION_CONTEXT('part definition',#2,'design');
#10 = SHAPE_REPRESENTATION('',(#11,#15,#19),#23);
#11 = AXIS2_PLACEMENT_3D('',#12,#13,#14);
#12 = CARTESIAN_POINT('',(0.,0.,0.));
#13 = DIRECTION('',(0.,0.,1.));
#14 = DIRECTION('',(1.,0.,-0.));
#15 = AXIS2_PLACEMENT_3D('',#16,#17,#18);
#16 = CARTESIAN_POINT('',(0.,0.,0.));
#17 = DIRECTION('',(0.,0.,1.));
#18 = DIRECTION('',(1.,0.,-0.));
#19 = AXIS2_PLACEMENT_3D('',#20,#21,#22);
#20 = CARTESIAN_POINT('',(0.,0.,0.));
#21 = DIRECTION('',(0.,0.,1.));
#22 = DIRECTION('',(1.,0.,-0.));
#23 = ( GEOMETRIC_REPRESENTATION_CONTEXT(3) 
GLOBAL_UNCERTAINTY_ASSIGNED_CONTEXT((#27)) GLOBAL_UNIT_ASSIGNED_CONTEXT(
(#24,#25,#26)) REPRESENTATION_CONTEXT('Context #1',
  '3D Context with UNIT and UNCERTAINTY') );
#24 = ( LENGTH_UNIT() NAMED_UNIT(*) SI_UNIT(.MILLI.,.METRE.) );
#25 = ( NAMED_UNIT(*) PLANE_ANGLE_UNIT() SI_UNIT($,.RADIAN.) );
#26 = ( NAMED_UNIT(*) SI_UNIT($,.STERADIAN.) SOLID_ANGLE_UNIT() );
#27 = UNCERTAINTY_MEASURE_WITH_UNIT(LENGTH_MEASURE(1.E-07),#24,
  'distance_accuracy_value','confusion accuracy');
#28 = PRODUCT_RELATED_PRODUCT_CATEGORY('part',$,(#7));
#29 = SHAPE_DEFINITION_REPRESENTATION(#30,#36);
#30 = PRODUCT_DEFINITION_SHAPE('','',#31);
#31 = PRODUCT_DEFINITION('design','',#32,#35);
#32 = PRODUCT_DEFINITION_FORMATION('','',#33);
#33 = PRODUCT('Open CASCADE STEP translator 7.8 3.1',
  'Open CASCADE STEP translator 7.8 3.1','',(#34));
#34 = PRODUCT_CONTEXT('',#2,'mechanical');
#35 = PRODUCT_DEFINITION_CONTEXT('part definition',#2,'design');
#36 = ADVANCED_BREP_SHAPE_REPRESENTATION('',(#11,#37),#1051);
#37 = MANIFOLD_SOLID_BREP('',#38);
#38 = CLOSED_SHELL('',(#39,#460,#495,#588,#633,#687,#734,#786,#832,#991,
    #1016));
#39 = ADVANCED_FACE('',(#40),#54,.T.);
#40 = FACE_BOUND('',#41,.F.);
#41 = EDGE_LOOP('',(#42,#72,#101,#127,#266,#292,#325,#351,#384,#410,#432
    ,#433));
#42 = ORIENTED_EDGE('',*,*,#43,.F.);
#43 = EDGE_CURVE('',#44,#46,#48,.T.);
#44 = VERTEX_POINT('',#45);
#45 = CARTESIAN_POINT('',(13.5,0.,0.));
#46 = VERTEX_POINT('',#47);
#47 = CARTESIAN_POINT('',(13.5,0.,180.));
#48 = SEAM_CURVE('',#49,(#53,#65),.PCURVE_S1.);
#49 = LINE('',#50,#51);
#50 = CARTESIAN_POINT('',(13.5,0.,0.));
#51 = VECTOR('',#52,1.);
#52 = DIRECTION('',(0.,0.,1.));
#53 = PCURVE('',#54,#59);
#54 = CYLINDRICAL_SURFACE('',#55,13.5);
#55 = AXIS2_PLACEMENT_3D('',#56,#57,#58);
#56 = CARTESIAN_POINT('',(0.,0.,0.));
#57 = DIRECTION('',(-0.,-0.,-1.));
#58 = DIRECTION('',(1.,0.,0.));
#59 = DEFINITIONAL_REPRESENTATION('',(#60),#64);
#60 = LINE('',#61,#62);
#61 = CARTESIAN_POINT('',(-6.28318530718,0.));
#62 = VECTOR('',#63,1.);
#63 = DIRECTION('',(-0.,-1.));
#64 = ( GEOMETRIC_REPRESENTATION_CONTEXT(2) 
PARAMETRIC_REPRESENTATION_CONTEXT() REPRESENTATION_CONTEXT('2D SPACE',''
  ) );
#65 = PCURVE('',#54,#66);
#66 = DEFINITIONAL_REPRESENTATION('',(#67),#71);
#67 = LINE('',#68,#69);
#68 = CARTESIAN_POINT('',(-0.,0.));
#69 = VECTOR('',#70,1.);
#70 = DIRECTION('',(-0.,-1.));
#71 = ( GEOMETRIC_REPRESENTATION_CONTEXT(2) 
PARAMETRIC_REPRESENTATION_CONTEXT() REPRESENTATION_CONTEXT('2D SPACE',''
  ) );
#72 = ORIENTED_EDGE('',*,*,#73,.F.);
#73 = EDGE_CURVE('',#74,#44,#76,.T.);
#74 = VERTEX_POINT('',#75);
#75 = CARTESIAN_POINT('',(-2.5,13.266499161422,0.));
#76 = SURFACE_CURVE('',#77,(#82,#89),.PCURVE_S1.);
#77 = CIRCLE('',#78,13.5);
#78 = AXIS2_PLACEMENT_3D('',#79,#80,#81);
#79 = CARTESIAN_POINT('',(0.,0.,0.));
#80 = DIRECTION('',(0.,0.,1.));
#81 = DIRECTION('',(1.,0.,0.));
#82 = PCURVE('',#54,#83);
#83 = DEFINITIONAL_REPRESENTATION('',(#84),#88);
#84 = LINE('',#85,#86);
#85 = CARTESIAN_POINT('',(-0.,0.));
#86 = VECTOR('',#87,1.);
#87 = DIRECTION('',(-1.,0.));
#88 = ( GEOMETRIC_REPRESENTATION_CONTEXT(2) 
PARAMETRIC_REPRESENTATION_CONTEXT() REPRESENTATION_CONTEXT('2D SPACE',''
  ) );
#89 = PCURVE('',#90,#95);
#90 = PLANE('',#91);
#91 = AXIS2_PLACEMENT_3D('',#92,#93,#94);
#92 = CARTESIAN_POINT('',(-1.215502340035E-15,-5.510910596163E-16,0.));
#93 = DIRECTION('',(0.,0.,1.));
#94 = DIRECTION('',(1.,0.,-0.));
#95 = DEFINITIONAL_REPRESENTATION('',(#96),#100);
#96 = CIRCLE('',#97,13.5);
#97 = AXIS2_PLACEMENT_2D('',#98,#99);
#98 = CARTESIAN_POINT('',(1.215502340035E-15,5.510910596163E-16));
#99 = DIRECTION('',(1.,0.));
#100 = ( GEOMETRIC_REPRESENTATION_CONTEXT(2) 
PARAMETRIC_REPRESENTATION_CONTEXT() REPRESENTATION_CONTEXT('2D SPACE',''
  ) );
#101 = ORIENTED_EDGE('',*,*,#102,.F.);
#102 = EDGE_CURVE('',#103,#74,#105,.T.);
#103 = VERTEX_POINT('',#104);
#104 = CARTESIAN_POINT('',(-2.5,13.266499161422,35.5));
#105 = SURFACE_CURVE('',#106,(#110,#116),.PCURVE_S1.);
#106 = LINE('',#107,#108);
#107 = CARTESIAN_POINT('',(-2.5,13.266499161422,0.));
#108 = VECTOR('',#109,1.);
#109 = DIRECTION('',(-0.,-0.,-1.));
#110 = PCURVE('',#54,#111);
#111 = DEFINITIONAL_REPRESENTATION('',(#112),#115);
#112 = B_SPLINE_CURVE_WITH_KNOTS('',1,(#113,#114),.UNSPECIFIED.,.F.,.F.,
  (2,2),(-39.15,6.E-07),.PIECEWISE_BEZIER_KNOTS.);
#113 = CARTESIAN_POINT('',(-1.757056630371,-39.15));
#114 = CARTESIAN_POINT('',(-1.757056630371,6.E-07));
#115 = ( GEOMETRIC_REPRESENTATION_CONTEXT(2) 
PARAMETRIC_REPRESENTATION_CONTEXT() REPRESENTATION_CONTEXT('2D SPACE',''
  ) );
#116 = PCURVE('',#117,#122);
#117 = PLANE('',#118);
#118 = AXIS2_PLACEMENT_3D('',#119,#120,#121);
#119 = CARTESIAN_POINT('',(-2.5,0.,-1.));
#120 = DIRECTION('',(1.,0.,-0.));
#121 = DIRECTION('',(0.,0.,1.));
#122 = DEFINITIONAL_REPRESENTATION('',(#123),#126);
#123 = B_SPLINE_CURVE_WITH_KNOTS('',1,(#124,#125),.UNSPECIFIED.,.F.,.F.,
  (2,2),(-39.15,6.E-07),.PIECEWISE_BEZIER_KNOTS.);
#124 = CARTESIAN_POINT('',(40.15,-13.26649916142));
#125 = CARTESIAN_POINT('',(0.9999994,-13.26649916142));
#126 = ( GEOMETRIC_REPRESENTATION_CONTEXT(2) 
PARAMETRIC_REPRESENTATION_CONTEXT() REPRESENTATION_CONTEXT('2D SPACE',''
  ) );
#127 = ORIENTED_EDGE('',*,*,#128,.F.);
#128 = EDGE_CURVE('',#129,#103,#131,.T.);
#129 = VERTEX_POINT('',#130);
#130 = CARTESIAN_POINT('',(2.5,13.266499161422,35.5));
#131 = SURFACE_CURVE('',#132,(#159,#210),.PCURVE_S1.);
#132 = B_SPLINE_CURVE_WITH_KNOTS('',7,(#133,#134,#135,#136,#137,#138,
    #139,#140,#141,#142,#143,#144,#145,#146,#147,#148,#149,#150,#151,
    #152,#153,#154,#155,#156,#157,#158),.UNSPECIFIED.,.F.,.F.,(8,6,6,6,8
    ),(0.,0.551167728342,1.,1.469645230679,2.00176083611),
  .UNSPECIFIED.);
#133 = CARTESIAN_POINT('',(2.5,13.266499161422,35.5));
#134 = CARTESIAN_POINT('',(2.5,13.266499161422,35.769090754433));
#135 = CARTESIAN_POINT('',(2.46620992867,13.272866631709,36.037803055167
    ));
#136 = CARTESIAN_POINT('',(2.39879235004,13.285571557623,36.303672388584
    ));
#137 = CARTESIAN_POINT('',(2.296927421219,13.304204844128,36.5639516699)
  );
#138 = CARTESIAN_POINT('',(2.159091659923,13.327950396373,
    36.815114801926));
#139 = CARTESIAN_POINT('',(1.983322331606,13.355287614254,
    37.052211574327));
#140 = CARTESIAN_POINT('',(1.592233798016,13.40694375921,37.443300107917
    ));
#141 = CARTESIAN_POINT('',(1.386092099385,13.431438660087,
    37.608773142418));
#142 = CARTESIAN_POINT('',(1.150297266559,13.455422967346,
    37.754653584399));
#143 = CARTESIAN_POINT('',(0.888086319461,13.47643728115,37.872755066067
    ));
#144 = CARTESIAN_POINT('',(0.604508395277,13.491909015508,
    37.956310125469));
#145 = CARTESIAN_POINT('',(0.305977145783,13.5,38.));
#146 = CARTESIAN_POINT('',(-0.320165719552,13.5,38.));
#147 = CARTESIAN_POINT('',(-0.631617721904,13.491141212081,
    37.952164370799));
#148 = CARTESIAN_POINT('',(-0.926055881673,13.474293345725,
    37.861176104393));
#149 = CARTESIAN_POINT('',(-1.196571459451,13.451623765004,
    37.733218733878));
#150 = CARTESIAN_POINT('',(-1.437855269238,13.426076068684,
    37.575958654626));
#151 = CARTESIAN_POINT('',(-1.64667826411,13.400369759618,
    37.398515375715));
#152 = CARTESIAN_POINT('',(-2.021541561126,13.349297900498,
    36.999326509485));
#153 = CARTESIAN_POINT('',(-2.184069582513,13.323632515744,
    36.768573140796));
#154 = CARTESIAN_POINT('',(-2.311698891142,13.301500228395,
    36.525436422301));
#155 = CARTESIAN_POINT('',(-2.406130912045,13.284188504167,
    36.274189066579));
#156 = CARTESIAN_POINT('',(-2.468666757062,13.272403689153,
    36.017930618625));
#157 = CARTESIAN_POINT('',(-2.5,13.266499161422,35.759122656446));
#158 = CARTESIAN_POINT('',(-2.5,13.266499161422,35.5));
#159 = PCURVE('',#54,#160);
#160 = DEFINITIONAL_REPRESENTATION('',(#161),#209);
#161 = B_SPLINE_CURVE_WITH_KNOTS('',3,(#162,#163,#164,#165,#166,#167,
    #168,#169,#170,#171,#172,#173,#174,#175,#176,#177,#178,#179,#180,
    #181,#182,#183,#184,#185,#186,#187,#188,#189,#190,#191,#192,#193,
    #194,#195,#196,#197,#198,#199,#200,#201,#202,#203,#204,#205,#206,
    #207,#208),.UNSPECIFIED.,.F.,.F.,(4,1,1,1,1,1,1,1,1,1,1,1,1,1,1,1,1,
    1,1,1,1,1,1,1,1,1,1,1,1,1,1,1,1,1,1,1,1,1,1,1,1,1,1,1,4),(0.,
    4.549456445705E-02,9.098912891411E-02,0.136483693371,0.181978257828,
    0.227472822285,0.272967386742,0.318461951199,0.363956515656,
    0.409451080113,0.454945644571,0.500440209028,0.545934773485,
    0.591429337942,0.636923902399,0.682418466856,0.727913031313,
    0.77340759577,0.818902160227,0.864396724684,0.909891289141,
    0.955385853598,1.000880418055,1.046374982512,1.091869546969,
    1.137364111426,1.182858675883,1.22835324034,1.273847804797,
    1.319342369255,1.364836933712,1.410331498169,1.455826062626,
    1.501320627083,1.54681519154,1.592309755997,1.637804320454,
    1.683298884911,1.728793449368,1.774288013825,1.819782578282,
    1.865277142739,1.910771707196,1.956266271653,2.00176083611),
  .QUASI_UNIFORM_KNOTS.);
#162 = CARTESIAN_POINT('',(-1.384536023218,-35.5));
#163 = CARTESIAN_POINT('',(-1.384536218759,-35.55182501435));
#164 = CARTESIAN_POINT('',(-1.384778809224,-35.65544418409));
#165 = CARTESIAN_POINT('',(-1.385871694857,-35.81046462831));
#166 = CARTESIAN_POINT('',(-1.387695107963,-35.96476889044));
#167 = CARTESIAN_POINT('',(-1.390253635945,-36.11802158253));
#168 = CARTESIAN_POINT('',(-1.393553618261,-36.26986240516));
#169 = CARTESIAN_POINT('',(-1.397603227455,-36.41989798351));
#170 = CARTESIAN_POINT('',(-1.402412210999,-36.56769664694));
#171 = CARTESIAN_POINT('',(-1.407991565953,-36.71277981202));
#172 = CARTESIAN_POINT('',(-1.414353777893,-36.85462137498));
#173 = CARTESIAN_POINT('',(-1.421510818328,-36.99261558746));
#174 = CARTESIAN_POINT('',(-1.429480484583,-37.12615987152));
#175 = CARTESIAN_POINT('',(-1.438261544537,-37.25430603407));
#176 = CARTESIAN_POINT('',(-1.4479252451,-37.3770193418));
#177 = CARTESIAN_POINT('',(-1.458567842672,-37.49391789634));
#178 = CARTESIAN_POINT('',(-1.470120586607,-37.60265992405));
#179 = CARTESIAN_POINT('',(-1.482541095768,-37.70156401777));
#180 = CARTESIAN_POINT('',(-1.495764762767,-37.78892888251));
#181 = CARTESIAN_POINT('',(-1.509719778803,-37.86321731681));
#182 = CARTESIAN_POINT('',(-1.524321752744,-37.9230087013));
#183 = CARTESIAN_POINT('',(-1.539485778778,-37.96701256894));
#184 = CARTESIAN_POINT('',(-1.555088465943,-37.99406888231));
#185 = CARTESIAN_POINT('',(-1.571111949134,-38.00314013666));
#186 = CARTESIAN_POINT('',(-1.58710869136,-37.99334939585));
#187 = CARTESIAN_POINT('',(-1.602677060316,-37.96566988167));
#188 = CARTESIAN_POINT('',(-1.617793256708,-37.92115791429));
#189 = CARTESIAN_POINT('',(-1.632341836118,-37.86098727397));
#190 = CARTESIAN_POINT('',(-1.646241992479,-37.78643926056));
#191 = CARTESIAN_POINT('',(-1.659414354059,-37.69890462863));
#192 = CARTESIAN_POINT('',(-1.671790781426,-37.59988164136));
#193 = CARTESIAN_POINT('',(-1.683312405081,-37.49097696665));
#194 = CARTESIAN_POINT('',(-1.693932385404,-37.37389815307));
#195 = CARTESIAN_POINT('',(-1.703612129983,-37.25047588597));
#196 = CARTESIAN_POINT('',(-1.712339433618,-37.12257435912));
#197 = CARTESIAN_POINT('',(-1.720269760696,-36.98921959617));
#198 = CARTESIAN_POINT('',(-1.72738918812,-36.8514833882));
#199 = CARTESIAN_POINT('',(-1.733718883956,-36.70992423507));
#200 = CARTESIAN_POINT('',(-1.739269807464,-36.56515056579));
#201 = CARTESIAN_POINT('',(-1.744054555049,-36.41768033733));
#202 = CARTESIAN_POINT('',(-1.748083908026,-36.26798847913));
#203 = CARTESIAN_POINT('',(-1.751367484022,-36.11650330447));
#204 = CARTESIAN_POINT('',(-1.753913322739,-35.96361616332));
#205 = CARTESIAN_POINT('',(-1.755727675033,-35.80968634212));
#206 = CARTESIAN_POINT('',(-1.756815082014,-35.65504914067));
#207 = CARTESIAN_POINT('',(-1.757056441347,-35.55169213047));
#208 = CARTESIAN_POINT('',(-1.757056630371,-35.5));
#209 = ( GEOMETRIC_REPRESENTATION_CONTEXT(2) 
PARAMETRIC_REPRESENTATION_CONTEXT() REPRESENTATION_CONTEXT('2D SPACE',''
  ) );
#210 = PCURVE('',#211,#216);
#211 = CYLINDRICAL_SURFACE('',#212,2.5);
#212 = AXIS2_PLACEMENT_3D('',#213,#214,#215);
#213 = CARTESIAN_POINT('',(0.,0.,35.5));
#214 = DIRECTION('',(0.,1.,0.));
#215 = DIRECTION('',(0.,-0.,1.));
#216 = DEFINITIONAL_REPRESENTATION('',(#217),#265);
#217 = B_SPLINE_CURVE_WITH_KNOTS('',3,(#218,#219,#220,#221,#222,#223,
    #224,#225,#226,#227,#228,#229,#230,#231,#232,#233,#234,#235,#236,
    #237,#238,#239,#240,#241,#242,#243,#244,#245,#246,#247,#248,#249,
    #250,#251,#252,#253,#254,#255,#256,#257,#258,#259,#260,#261,#262,
    #263,#264),.UNSPECIFIED.,.F.,.F.,(4,1,1,1,1,1,1,1,1,1,1,1,1,1,1,1,1,
    1,1,1,1,1,1,1,1,1,1,1,1,1,1,1,1,1,1,1,1,1,1,1,1,1,1,1,4),(0.,
    4.549456445705E-02,9.098912891411E-02,0.136483693371,0.181978257828,
    0.227472822285,0.272967386742,0.318461951199,0.363956515656,
    0.409451080113,0.454945644571,0.500440209028,0.545934773485,
    0.591429337942,0.636923902399,0.682418466856,0.727913031313,
    0.77340759577,0.818902160227,0.864396724684,0.909891289141,
    0.955385853598,1.000880418055,1.046374982512,1.091869546969,
    1.137364111426,1.182858675883,1.22835324034,1.273847804797,
    1.319342369255,1.364836933712,1.410331498169,1.455826062626,
    1.501320627083,1.54681519154,1.592309755997,1.637804320454,
    1.683298884911,1.728793449368,1.774288013825,1.819782578282,
    1.865277142739,1.910771707196,1.956266271653,2.00176083611),
  .QUASI_UNIFORM_KNOTS.);
#218 = CARTESIAN_POINT('',(7.853981633974,13.266499161422));
#219 = CARTESIAN_POINT('',(7.833251342307,13.266497874417));
#220 = CARTESIAN_POINT('',(7.791804091619,13.26710753102));
#221 = CARTESIAN_POINT('',(7.72955527459,13.269830784281));
#222 = CARTESIAN_POINT('',(7.667109598034,13.274341135594));
#223 = CARTESIAN_POINT('',(7.604351572015,13.280595028529));
#224 = CARTESIAN_POINT('',(7.541166252422,13.288533128855));
#225 = CARTESIAN_POINT('',(7.477438572765,13.298076847577));
#226 = CARTESIAN_POINT('',(7.413051890401,13.309127171403));
#227 = CARTESIAN_POINT('',(7.34788791943,13.321562326766));
#228 = CARTESIAN_POINT('',(7.281821952521,13.335236544298));
#229 = CARTESIAN_POINT('',(7.214735090524,13.349974594041));
#230 = CARTESIAN_POINT('',(7.146462107873,13.365581407504));
#231 = CARTESIAN_POINT('',(7.076978034374,13.381795115873));
#232 = CARTESIAN_POINT('',(7.005691727988,13.398451135148));
#233 = CARTESIAN_POINT('',(6.931960422353,13.415347009598));
#234 = CARTESIAN_POINT('',(6.856253507646,13.431964209897));
#235 = CARTESIAN_POINT('',(6.778700399163,13.44782736332));
#236 = CARTESIAN_POINT('',(6.69947592939,13.462432070969));
#237 = CARTESIAN_POINT('',(6.618699082795,13.475286479025));
#238 = CARTESIAN_POINT('',(6.536478753538,13.485922642767));
#239 = CARTESIAN_POINT('',(6.45285402441,13.49391550172));
#240 = CARTESIAN_POINT('',(6.368005140426,13.498899573971));
#241 = CARTESIAN_POINT('',(6.281483009183,13.500582539343));
#242 = CARTESIAN_POINT('',(6.19509289877,13.498766347185));
#243 = CARTESIAN_POINT('',(6.110396170556,13.493669592943));
#244 = CARTESIAN_POINT('',(6.026981920213,13.485589672608));
#245 = CARTESIAN_POINT('',(5.944994063676,13.474895051257));
#246 = CARTESIAN_POINT('',(5.864455230585,13.462008569926));
#247 = CARTESIAN_POINT('',(5.78544993839,13.447391962475));
#248 = CARTESIAN_POINT('',(5.708077845913,13.431529143509));
#249 = CARTESIAN_POINT('',(5.632471420508,13.414910042589));
#250 = CARTESIAN_POINT('',(5.558789807166,13.398012514011));
#251 = CARTESIAN_POINT('',(5.487247237229,13.381292620947));
#252 = CARTESIAN_POINT('',(5.418030558753,13.365146760727));
#253 = CARTESIAN_POINT('',(5.349947894508,13.349595903436));
#254 = CARTESIAN_POINT('',(5.283060425661,13.334919121033));
#255 = CARTESIAN_POINT('',(5.217180303841,13.321303689716));
#256 = CARTESIAN_POINT('',(5.152195462755,13.308924326805));
#257 = CARTESIAN_POINT('',(5.087980396622,13.297924871196));
#258 = CARTESIAN_POINT('',(5.024418296836,13.288426010543));
#259 = CARTESIAN_POINT('',(4.961393610338,13.280525830365));
#260 = CARTESIAN_POINT('',(4.898792694242,13.274302247873));
#261 = CARTESIAN_POINT('',(4.83650221028,13.269814070991));
#262 = CARTESIAN_POINT('',(4.774408503677,13.267104424591));
#263 = CARTESIAN_POINT('',(4.733066117737,13.266497876354));
#264 = CARTESIAN_POINT('',(4.712388980385,13.266499161422));
#265 = ( GEOMETRIC_REPRESENTATION_CONTEXT(2) 
PARAMETRIC_REPRESENTATION_CONTEXT() REPRESENTATION_CONTEXT('2D SPACE',''
  ) );
#266 = ORIENTED_EDGE('',*,*,#267,.T.);
#267 = EDGE_CURVE('',#129,#268,#270,.T.);
#268 = VERTEX_POINT('',#269);
#269 = CARTESIAN_POINT('',(2.5,13.266499161422,24.));
#270 = SURFACE_CURVE('',#271,(#275,#281),.PCURVE_S1.);
#271 = LINE('',#272,#273);
#272 = CARTESIAN_POINT('',(2.5,13.266499161422,0.));
#273 = VECTOR('',#274,1.);
#274 = DIRECTION('',(-0.,-0.,-1.));
#275 = PCURVE('',#54,#276);
#276 = DEFINITIONAL_REPRESENTATION('',(#277),#280);
#277 = B_SPLINE_CURVE_WITH_KNOTS('',1,(#278,#279),.UNSPECIFIED.,.F.,.F.,
  (2,2),(-39.15,6.E-07),.PIECEWISE_BEZIER_KNOTS.);
#278 = CARTESIAN_POINT('',(-1.384536023218,-39.15));
#279 = CARTESIAN_POINT('',(-1.384536023218,6.E-07));
#280 = ( GEOMETRIC_REPRESENTATION_CONTEXT(2) 
PARAMETRIC_REPRESENTATION_CONTEXT() REPRESENTATION_CONTEXT('2D SPACE',''
  ) );
#281 = PCURVE('',#282,#287);
#282 = PLANE('',#283);
#283 = AXIS2_PLACEMENT_3D('',#284,#285,#286);
#284 = CARTESIAN_POINT('',(2.5,0.,-1.));
#285 = DIRECTION('',(1.,0.,-0.));
#286 = DIRECTION('',(0.,0.,1.));
#287 = DEFINITIONAL_REPRESENTATION('',(#288),#291);
#288 = B_SPLINE_CURVE_WITH_KNOTS('',1,(#289,#290),.UNSPECIFIED.,.F.,.F.,
  (2,2),(-39.15,6.E-07),.PIECEWISE_BEZIER_KNOTS.);
#289 = CARTESIAN_POINT('',(40.15,-13.26649916142));
#290 = CARTESIAN_POINT('',(0.9999994,-13.26649916142));
#291 = ( GEOMETRIC_REPRESENTATION_CONTEXT(2) 
PARAMETRIC_REPRESENTATION_CONTEXT() REPRESENTATION_CONTEXT('2D SPACE',''
  ) );
#292 = ORIENTED_EDGE('',*,*,#293,.T.);
#293 = EDGE_CURVE('',#268,#294,#296,.T.);
#294 = VERTEX_POINT('',#295);
#295 = CARTESIAN_POINT('',(12.235155124995,5.705346533499,24.));
#296 = SURFACE_CURVE('',#297,(#302,#309),.PCURVE_S1.);
#297 = CIRCLE('',#298,13.5);
#298 = AXIS2_PLACEMENT_3D('',#299,#300,#301);
#299 = CARTESIAN_POINT('',(0.,0.,24.));
#300 = DIRECTION('',(0.,0.,-1.));
#301 = DIRECTION('',(1.,0.,0.));
#302 = PCURVE('',#54,#303);
#303 = DEFINITIONAL_REPRESENTATION('',(#304),#308);
#304 = LINE('',#305,#306);
#305 = CARTESIAN_POINT('',(-6.28318530718,-24.));
#306 = VECTOR('',#307,1.);
#307 = DIRECTION('',(1.,-0.));
#308 = ( GEOMETRIC_REPRESENTATION_CONTEXT(2) 
PARAMETRIC_REPRESENTATION_CONTEXT() REPRESENTATION_CONTEXT('2D SPACE',''
  ) );
#309 = PCURVE('',#310,#315);
#310 = PLANE('',#311);
#311 = AXIS2_PLACEMENT_3D('',#312,#313,#314);
#312 = CARTESIAN_POINT('',(0.,0.,24.));
#313 = DIRECTION('',(0.,0.,1.));
#314 = DIRECTION('',(0.906307787037,0.422618261741,0.));
#315 = DEFINITIONAL_REPRESENTATION('',(#316),#324);
#316 = ( BOUNDED_CURVE() B_SPLINE_CURVE(2,(#317,#318,#319,#320,#321,#322
,#323),.UNSPECIFIED.,.T.,.F.) B_SPLINE_CURVE_WITH_KNOTS((1,2,2,2,2,1),(
    -2.094395102393,0.,2.094395102393,4.188790204786,6.28318530718,
8.377580409573),.UNSPECIFIED.) CURVE() GEOMETRIC_REPRESENTATION_ITEM() 
RATIONAL_B_SPLINE_CURVE((1.,0.5,1.,0.5,1.,0.5,1.)) REPRESENTATION_ITEM(
  '') );
#317 = CARTESIAN_POINT('',(12.235155124995,-5.705346533499));
#318 = CARTESIAN_POINT('',(2.353205054187,-26.89725684847));
#319 = CARTESIAN_POINT('',(-11.0585525979,-7.743281890739));
#320 = CARTESIAN_POINT('',(-24.47031024999,11.410693066999));
#321 = CARTESIAN_POINT('',(-1.176602527093,13.448628424239));
#322 = CARTESIAN_POINT('',(22.117105195803,15.486563781478));
#323 = CARTESIAN_POINT('',(12.235155124995,-5.705346533499));
#324 = ( GEOMETRIC_REPRESENTATION_CONTEXT(2) 
PARAMETRIC_REPRESENTATION_CONTEXT() REPRESENTATION_CONTEXT('2D SPACE',''
  ) );
#325 = ORIENTED_EDGE('',*,*,#326,.T.);
#326 = EDGE_CURVE('',#294,#327,#329,.T.);
#327 = VERTEX_POINT('',#328);
#328 = CARTESIAN_POINT('',(12.235155124995,5.705346533499,18.));
#329 = SURFACE_CURVE('',#330,(#334,#340),.PCURVE_S1.);
#330 = LINE('',#331,#332);
#331 = CARTESIAN_POINT('',(12.235155124995,5.705346533499,0.));
#332 = VECTOR('',#333,1.);
#333 = DIRECTION('',(-0.,-0.,-1.));
#334 = PCURVE('',#54,#335);
#335 = DEFINITIONAL_REPRESENTATION('',(#336),#339);
#336 = B_SPLINE_CURVE_WITH_KNOTS('',1,(#337,#338),.UNSPECIFIED.,.F.,.F.,
  (2,2),(-24.6,-17.4),.PIECEWISE_BEZIER_KNOTS.);
#337 = CARTESIAN_POINT('',(-0.436332312999,-24.6));
#338 = CARTESIAN_POINT('',(-0.436332312999,-17.4));
#339 = ( GEOMETRIC_REPRESENTATION_CONTEXT(2) 
PARAMETRIC_REPRESENTATION_CONTEXT() REPRESENTATION_CONTEXT('2D SPACE',''
  ) );
#340 = PCURVE('',#341,#346);
#341 = PLANE('',#342);
#342 = AXIS2_PLACEMENT_3D('',#343,#344,#345);
#343 = CARTESIAN_POINT('',(0.,0.,18.));
#344 = DIRECTION('',(0.422618261741,-0.906307787037,0.));
#345 = DIRECTION('',(0.906307787037,0.422618261741,0.));
#346 = DEFINITIONAL_REPRESENTATION('',(#347),#350);
#347 = B_SPLINE_CURVE_WITH_KNOTS('',1,(#348,#349),.UNSPECIFIED.,.F.,.F.,
  (2,2),(-24.6,-17.4),.PIECEWISE_BEZIER_KNOTS.);
#348 = CARTESIAN_POINT('',(13.5,6.6));
#349 = CARTESIAN_POINT('',(13.5,-0.6));
#350 = ( GEOMETRIC_REPRESENTATION_CONTEXT(2) 
PARAMETRIC_REPRESENTATION_CONTEXT() REPRESENTATION_CONTEXT('2D SPACE',''
  ) );
#351 = ORIENTED_EDGE('',*,*,#352,.F.);
#352 = EDGE_CURVE('',#353,#327,#355,.T.);
#353 = VERTEX_POINT('',#354);
#354 = CARTESIAN_POINT('',(2.5,13.266499161422,18.));
#355 = SURFACE_CURVE('',#356,(#361,#368),.PCURVE_S1.);
#356 = CIRCLE('',#357,13.5);
#357 = AXIS2_PLACEMENT_3D('',#358,#359,#360);
#358 = CARTESIAN_POINT('',(0.,0.,18.));
#359 = DIRECTION('',(0.,0.,-1.));
#360 = DIRECTION('',(1.,0.,0.));
#361 = PCURVE('',#54,#362);
#362 = DEFINITIONAL_REPRESENTATION('',(#363),#367);
#363 = LINE('',#364,#365);
#364 = CARTESIAN_POINT('',(-6.28318530718,-18.));
#365 = VECTOR('',#366,1.);
#366 = DIRECTION('',(1.,-0.));
#367 = ( GEOMETRIC_REPRESENTATION_CONTEXT(2) 
PARAMETRIC_REPRESENTATION_CONTEXT() REPRESENTATION_CONTEXT('2D SPACE',''
  ) );
#368 = PCURVE('',#369,#374);
#369 = PLANE('',#370);
#370 = AXIS2_PLACEMENT_3D('',#371,#372,#373);
#371 = CARTESIAN_POINT('',(0.,0.,18.));
#372 = DIRECTION('',(0.,0.,1.));
#373 = DIRECTION('',(0.906307787037,0.422618261741,0.));
#374 = DEFINITIONAL_REPRESENTATION('',(#375),#383);
#375 = ( BOUNDED_CURVE() B_SPLINE_CURVE(2,(#376,#377,#378,#379,#380,#381
,#382),.UNSPECIFIED.,.T.,.F.) B_SPLINE_CURVE_WITH_KNOTS((1,2,2,2,2,1),(
    -2.094395102393,0.,2.094395102393,4.188790204786,6.28318530718,
8.377580409573),.UNSPECIFIED.) CURVE() GEOMETRIC_REPRESENTATION_ITEM() 
RATIONAL_B_SPLINE_CURVE((1.,0.5,1.,0.5,1.,0.5,1.)) REPRESENTATION_ITEM(
  '') );
#376 = CARTESIAN_POINT('',(12.235155124995,-5.705346533499));
#377 = CARTESIAN_POINT('',(2.353205054187,-26.89725684847));
#378 = CARTESIAN_POINT('',(-11.0585525979,-7.743281890739));
#379 = CARTESIAN_POINT('',(-24.47031024999,11.410693066999));
#380 = CARTESIAN_POINT('',(-1.176602527093,13.448628424239));
#381 = CARTESIAN_POINT('',(22.117105195803,15.486563781478));
#382 = CARTESIAN_POINT('',(12.235155124995,-5.705346533499));
#383 = ( GEOMETRIC_REPRESENTATION_CONTEXT(2) 
PARAMETRIC_REPRESENTATION_CONTEXT() REPRESENTATION_CONTEXT('2D SPACE',''
  ) );
#384 = ORIENTED_EDGE('',*,*,#385,.T.);
#385 = EDGE_CURVE('',#353,#386,#388,.T.);
#386 = VERTEX_POINT('',#387);
#387 = CARTESIAN_POINT('',(2.5,13.266499161422,0.));
#388 = SURFACE_CURVE('',#389,(#393,#399),.PCURVE_S1.);
#389 = LINE('',#390,#391);
#390 = CARTESIAN_POINT('',(2.5,13.266499161422,0.));
#391 = VECTOR('',#392,1.);
#392 = DIRECTION('',(-0.,-0.,-1.));
#393 = PCURVE('',#54,#394);
#394 = DEFINITIONAL_REPRESENTATION('',(#395),#398);
#395 = B_SPLINE_CURVE_WITH_KNOTS('',1,(#396,#397),.UNSPECIFIED.,.F.,.F.,
  (2,2),(-39.15,6.E-07),.PIECEWISE_BEZIER_KNOTS.);
#396 = CARTESIAN_POINT('',(-1.384536023218,-39.15));
#397 = CARTESIAN_POINT('',(-1.384536023218,6.E-07));
#398 = ( GEOMETRIC_REPRESENTATION_CONTEXT(2) 
PARAMETRIC_REPRESENTATION_CONTEXT() REPRESENTATION_CONTEXT('2D SPACE',''
  ) );
#399 = PCURVE('',#400,#405);
#400 = PLANE('',#401);
#401 = AXIS2_PLACEMENT_3D('',#402,#403,#404);
#402 = CARTESIAN_POINT('',(2.5,0.,-1.));
#403 = DIRECTION('',(1.,0.,-0.));
#404 = DIRECTION('',(0.,0.,1.));
#405 = DEFINITIONAL_REPRESENTATION('',(#406),#409);
#406 = B_SPLINE_CURVE_WITH_KNOTS('',1,(#407,#408),.UNSPECIFIED.,.F.,.F.,
  (2,2),(-39.15,6.E-07),.PIECEWISE_BEZIER_KNOTS.);
#407 = CARTESIAN_POINT('',(40.15,-13.26649916142));
#408 = CARTESIAN_POINT('',(0.9999994,-13.26649916142));
#409 = ( GEOMETRIC_REPRESENTATION_CONTEXT(2) 
PARAMETRIC_REPRESENTATION_CONTEXT() REPRESENTATION_CONTEXT('2D SPACE',''
  ) );
#410 = ORIENTED_EDGE('',*,*,#411,.F.);
#411 = EDGE_CURVE('',#44,#386,#412,.T.);
#412 = SURFACE_CURVE('',#413,(#418,#425),.PCURVE_S1.);
#413 = CIRCLE('',#414,13.5);
#414 = AXIS2_PLACEMENT_3D('',#415,#416,#417);
#415 = CARTESIAN_POINT('',(0.,0.,0.));
#416 = DIRECTION('',(0.,0.,1.));
#417 = DIRECTION('',(1.,0.,0.));
#418 = PCURVE('',#54,#419);
#419 = DEFINITIONAL_REPRESENTATION('',(#420),#424);
#420 = LINE('',#421,#422);
#421 = CARTESIAN_POINT('',(-0.,0.));
#422 = VECTOR('',#423,1.);
#423 = DIRECTION('',(-1.,0.));
#424 = ( GEOMETRIC_REPRESENTATION_CONTEXT(2) 
PARAMETRIC_REPRESENTATION_CONTEXT() REPRESENTATION_CONTEXT('2D SPACE',''
  ) );
#425 = PCURVE('',#90,#426);
#426 = DEFINITIONAL_REPRESENTATION('',(#427),#431);
#427 = CIRCLE('',#428,13.5);
#428 = AXIS2_PLACEMENT_2D('',#429,#430);
#429 = CARTESIAN_POINT('',(1.215502340035E-15,5.510910596163E-16));
#430 = DIRECTION('',(1.,0.));
#431 = ( GEOMETRIC_REPRESENTATION_CONTEXT(2) 
PARAMETRIC_REPRESENTATION_CONTEXT() REPRESENTATION_CONTEXT('2D SPACE',''
  ) );
#432 = ORIENTED_EDGE('',*,*,#43,.T.);
#433 = ORIENTED_EDGE('',*,*,#434,.T.);
#434 = EDGE_CURVE('',#46,#46,#435,.T.);
#435 = SURFACE_CURVE('',#436,(#441,#448),.PCURVE_S1.);
#436 = CIRCLE('',#437,13.5);
#437 = AXIS2_PLACEMENT_3D('',#438,#439,#440);
#438 = CARTESIAN_POINT('',(0.,0.,180.));
#439 = DIRECTION('',(0.,0.,1.));
#440 = DIRECTION('',(1.,0.,0.));
#441 = PCURVE('',#54,#442);
#442 = DEFINITIONAL_REPRESENTATION('',(#443),#447);
#443 = LINE('',#444,#445);
#444 = CARTESIAN_POINT('',(-0.,-180.));
#445 = VECTOR('',#446,1.);
#446 = DIRECTION('',(-1.,0.));
#447 = ( GEOMETRIC_REPRESENTATION_CONTEXT(2) 
PARAMETRIC_REPRESENTATION_CONTEXT() REPRESENTATION_CONTEXT('2D SPACE',''
  ) );
#448 = PCURVE('',#449,#454);
#449 = PLANE('',#450);
#450 = AXIS2_PLACEMENT_3D('',#451,#452,#453);
#451 = CARTESIAN_POINT('',(-1.215502340035E-15,-5.510910596163E-16,180.)
  );
#452 = DIRECTION('',(0.,0.,1.));
#453 = DIRECTION('',(1.,0.,-0.));
#454 = DEFINITIONAL_REPRESENTATION('',(#455),#459);
#455 = CIRCLE('',#456,13.5);
#456 = AXIS2_PLACEMENT_2D('',#457,#458);
#457 = CARTESIAN_POINT('',(1.215502340035E-15,5.510910596163E-16));
#458 = DIRECTION('',(1.,0.));
#459 = ( GEOMETRIC_REPRESENTATION_CONTEXT(2) 
PARAMETRIC_REPRESENTATION_CONTEXT() REPRESENTATION_CONTEXT('2D SPACE',''
  ) );
#460 = ADVANCED_FACE('',(#461,#464),#449,.T.);
#461 = FACE_BOUND('',#462,.T.);
#462 = EDGE_LOOP('',(#463));
#463 = ORIENTED_EDGE('',*,*,#434,.T.);
#464 = FACE_BOUND('',#465,.T.);
#465 = EDGE_LOOP('',(#466));
#466 = ORIENTED_EDGE('',*,*,#467,.F.);
#467 = EDGE_CURVE('',#468,#468,#470,.T.);
#468 = VERTEX_POINT('',#469);
#469 = CARTESIAN_POINT('',(12.5,3.947459643112E-16,180.));
#470 = SURFACE_CURVE('',#471,(#476,#483),.PCURVE_S1.);
#471 = CIRCLE('',#472,12.5);
#472 = AXIS2_PLACEMENT_3D('',#473,#474,#475);
#473 = CARTESIAN_POINT('',(6.421201019462E-14,3.947459643112E-16,180.));
#474 = DIRECTION('',(0.,0.,1.));
#475 = DIRECTION('',(1.,0.,0.));
#476 = PCURVE('',#449,#477);
#477 = DEFINITIONAL_REPRESENTATION('',(#478),#482);
#478 = CIRCLE('',#479,12.5);
#479 = AXIS2_PLACEMENT_2D('',#480,#481);
#480 = CARTESIAN_POINT('',(6.542751253465E-14,9.458370239275E-16));
#481 = DIRECTION('',(1.,0.));
#482 = ( GEOMETRIC_REPRESENTATION_CONTEXT(2) 
PARAMETRIC_REPRESENTATION_CONTEXT() REPRESENTATION_CONTEXT('2D SPACE',''
  ) );
#483 = PCURVE('',#484,#489);
#484 = CYLINDRICAL_SURFACE('',#485,12.5);
#485 = AXIS2_PLACEMENT_3D('',#486,#487,#488);
#486 = CARTESIAN_POINT('',(6.421201019462E-14,3.947459643112E-16,0.));
#487 = DIRECTION('',(-0.,-0.,-1.));
#488 = DIRECTION('',(1.,0.,0.));
#489 = DEFINITIONAL_REPRESENTATION('',(#490),#494);
#490 = LINE('',#491,#492);
#491 = CARTESIAN_POINT('',(-0.,-180.));
#492 = VECTOR('',#493,1.);
#493 = DIRECTION('',(-1.,0.));
#494 = ( GEOMETRIC_REPRESENTATION_CONTEXT(2) 
PARAMETRIC_REPRESENTATION_CONTEXT() REPRESENTATION_CONTEXT('2D SPACE',''
  ) );
#495 = ADVANCED_FACE('',(#496),#90,.F.);
#496 = FACE_BOUND('',#497,.F.);
#497 = EDGE_LOOP('',(#498,#499,#500,#521,#545,#569));
#498 = ORIENTED_EDGE('',*,*,#73,.T.);
#499 = ORIENTED_EDGE('',*,*,#411,.T.);
#500 = ORIENTED_EDGE('',*,*,#501,.F.);
#501 = EDGE_CURVE('',#502,#386,#504,.T.);
#502 = VERTEX_POINT('',#503);
#503 = CARTESIAN_POINT('',(2.5,12.247448713916,0.));
#504 = SURFACE_CURVE('',#505,(#509,#515),.PCURVE_S1.);
#505 = LINE('',#506,#507);
#506 = CARTESIAN_POINT('',(2.5,-2.755455298082E-16,0.));
#507 = VECTOR('',#508,1.);
#508 = DIRECTION('',(-0.,1.,0.));
#509 = PCURVE('',#90,#510);
#510 = DEFINITIONAL_REPRESENTATION('',(#511),#514);
#511 = B_SPLINE_CURVE_WITH_KNOTS('',1,(#512,#513),.UNSPECIFIED.,.F.,.F.,
  (2,2),(2.755455298082E-16,13.5),.PIECEWISE_BEZIER_KNOTS.);
#512 = CARTESIAN_POINT('',(2.5,5.510910596163E-16));
#513 = CARTESIAN_POINT('',(2.5,13.5));
#514 = ( GEOMETRIC_REPRESENTATION_CONTEXT(2) 
PARAMETRIC_REPRESENTATION_CONTEXT() REPRESENTATION_CONTEXT('2D SPACE',''
  ) );
#515 = PCURVE('',#400,#516);
#516 = DEFINITIONAL_REPRESENTATION('',(#517),#520);
#517 = B_SPLINE_CURVE_WITH_KNOTS('',1,(#518,#519),.UNSPECIFIED.,.F.,.F.,
  (2,2),(2.755455298082E-16,13.5),.PIECEWISE_BEZIER_KNOTS.);
#518 = CARTESIAN_POINT('',(1.,0.));
#519 = CARTESIAN_POINT('',(1.,-13.5));
#520 = ( GEOMETRIC_REPRESENTATION_CONTEXT(2) 
PARAMETRIC_REPRESENTATION_CONTEXT() REPRESENTATION_CONTEXT('2D SPACE',''
  ) );
#521 = ORIENTED_EDGE('',*,*,#522,.F.);
#522 = EDGE_CURVE('',#523,#502,#525,.T.);
#523 = VERTEX_POINT('',#524);
#524 = CARTESIAN_POINT('',(12.5,3.947459643112E-16,0.));
#525 = SURFACE_CURVE('',#526,(#531,#538),.PCURVE_S1.);
#526 = CIRCLE('',#527,12.5);
#527 = AXIS2_PLACEMENT_3D('',#528,#529,#530);
#528 = CARTESIAN_POINT('',(6.421201019462E-14,3.947459643112E-16,0.));
#529 = DIRECTION('',(0.,0.,1.));
#530 = DIRECTION('',(1.,0.,0.));
#531 = PCURVE('',#90,#532);
#532 = DEFINITIONAL_REPRESENTATION('',(#533),#537);
#533 = CIRCLE('',#534,12.5);
#534 = AXIS2_PLACEMENT_2D('',#535,#536);
#535 = CARTESIAN_POINT('',(6.542751253465E-14,9.458370239275E-16));
#536 = DIRECTION('',(1.,0.));
#537 = ( GEOMETRIC_REPRESENTATION_CONTEXT(2) 
PARAMETRIC_REPRESENTATION_CONTEXT() REPRESENTATION_CONTEXT('2D SPACE',''
  ) );
#538 = PCURVE('',#484,#539);
#539 = DEFINITIONAL_REPRESENTATION('',(#540),#544);
#540 = LINE('',#541,#542);
#541 = CARTESIAN_POINT('',(-0.,0.));
#542 = VECTOR('',#543,1.);
#543 = DIRECTION('',(-1.,0.));
#544 = ( GEOMETRIC_REPRESENTATION_CONTEXT(2) 
PARAMETRIC_REPRESENTATION_CONTEXT() REPRESENTATION_CONTEXT('2D SPACE',''
  ) );
#545 = ORIENTED_EDGE('',*,*,#546,.F.);
#546 = EDGE_CURVE('',#547,#523,#549,.T.);
#547 = VERTEX_POINT('',#548);
#548 = CARTESIAN_POINT('',(-2.5,12.247448713916,0.));
#549 = SURFACE_CURVE('',#550,(#555,#562),.PCURVE_S1.);
#550 = CIRCLE('',#551,12.5);
#551 = AXIS2_PLACEMENT_3D('',#552,#553,#554);
#552 = CARTESIAN_POINT('',(6.421201019462E-14,3.947459643112E-16,0.));
#553 = DIRECTION('',(0.,0.,1.));
#554 = DIRECTION('',(1.,0.,0.));
#555 = PCURVE('',#90,#556);
#556 = DEFINITIONAL_REPRESENTATION('',(#557),#561);
#557 = CIRCLE('',#558,12.5);
#558 = AXIS2_PLACEMENT_2D('',#559,#560);
#559 = CARTESIAN_POINT('',(6.542751253465E-14,9.458370239275E-16));
#560 = DIRECTION('',(1.,0.));
#561 = ( GEOMETRIC_REPRESENTATION_CONTEXT(2) 
PARAMETRIC_REPRESENTATION_CONTEXT() REPRESENTATION_CONTEXT('2D SPACE',''
  ) );
#562 = PCURVE('',#484,#563);
#563 = DEFINITIONAL_REPRESENTATION('',(#564),#568);
#564 = LINE('',#565,#566);
#565 = CARTESIAN_POINT('',(-0.,0.));
#566 = VECTOR('',#567,1.);
#567 = DIRECTION('',(-1.,0.));
#568 = ( GEOMETRIC_REPRESENTATION_CONTEXT(2) 
PARAMETRIC_REPRESENTATION_CONTEXT() REPRESENTATION_CONTEXT('2D SPACE',''
  ) );
#569 = ORIENTED_EDGE('',*,*,#570,.T.);
#570 = EDGE_CURVE('',#547,#74,#571,.T.);
#571 = SURFACE_CURVE('',#572,(#576,#582),.PCURVE_S1.);
#572 = LINE('',#573,#574);
#573 = CARTESIAN_POINT('',(-2.5,-2.755455298082E-16,0.));
#574 = VECTOR('',#575,1.);
#575 = DIRECTION('',(-0.,1.,0.));
#576 = PCURVE('',#90,#577);
#577 = DEFINITIONAL_REPRESENTATION('',(#578),#581);
#578 = B_SPLINE_CURVE_WITH_KNOTS('',1,(#579,#580),.UNSPECIFIED.,.F.,.F.,
  (2,2),(2.755455298082E-16,13.5),.PIECEWISE_BEZIER_KNOTS.);
#579 = CARTESIAN_POINT('',(-2.5,5.510910596163E-16));
#580 = CARTESIAN_POINT('',(-2.5,13.5));
#581 = ( GEOMETRIC_REPRESENTATION_CONTEXT(2) 
PARAMETRIC_REPRESENTATION_CONTEXT() REPRESENTATION_CONTEXT('2D SPACE',''
  ) );
#582 = PCURVE('',#117,#583);
#583 = DEFINITIONAL_REPRESENTATION('',(#584),#587);
#584 = B_SPLINE_CURVE_WITH_KNOTS('',1,(#585,#586),.UNSPECIFIED.,.F.,.F.,
  (2,2),(2.755455298082E-16,13.5),.PIECEWISE_BEZIER_KNOTS.);
#585 = CARTESIAN_POINT('',(1.,0.));
#586 = CARTESIAN_POINT('',(1.,-13.5));
#587 = ( GEOMETRIC_REPRESENTATION_CONTEXT(2) 
PARAMETRIC_REPRESENTATION_CONTEXT() REPRESENTATION_CONTEXT('2D SPACE',''
  ) );
#588 = ADVANCED_FACE('',(#589),#400,.F.);
#589 = FACE_BOUND('',#590,.F.);
#590 = EDGE_LOOP('',(#591,#612,#631,#632));
#591 = ORIENTED_EDGE('',*,*,#592,.T.);
#592 = EDGE_CURVE('',#353,#593,#595,.T.);
#593 = VERTEX_POINT('',#594);
#594 = CARTESIAN_POINT('',(2.5,12.247448713916,18.));
#595 = SURFACE_CURVE('',#596,(#600,#606),.PCURVE_S1.);
#596 = LINE('',#597,#598);
#597 = CARTESIAN_POINT('',(2.5,0.,18.));
#598 = VECTOR('',#599,1.);
#599 = DIRECTION('',(0.,-1.,0.));
#600 = PCURVE('',#400,#601);
#601 = DEFINITIONAL_REPRESENTATION('',(#602),#605);
#602 = B_SPLINE_CURVE_WITH_KNOTS('',1,(#603,#604),.UNSPECIFIED.,.F.,.F.,
  (2,2),(-13.26649916142,-12.24744871391),.PIECEWISE_BEZIER_KNOTS.);
#603 = CARTESIAN_POINT('',(19.,-13.26649916142));
#604 = CARTESIAN_POINT('',(19.,-12.24744871391));
#605 = ( GEOMETRIC_REPRESENTATION_CONTEXT(2) 
PARAMETRIC_REPRESENTATION_CONTEXT() REPRESENTATION_CONTEXT('2D SPACE',''
  ) );
#606 = PCURVE('',#369,#607);
#607 = DEFINITIONAL_REPRESENTATION('',(#608),#611);
#608 = B_SPLINE_CURVE_WITH_KNOTS('',1,(#609,#610),.UNSPECIFIED.,.F.,.F.,
  (2,2),(-13.26649916142,-12.24744871391),.PIECEWISE_BEZIER_KNOTS.);
#609 = CARTESIAN_POINT('',(7.872434282576,10.96698584236));
#610 = CARTESIAN_POINT('',(7.441764953825,10.043412486402));
#611 = ( GEOMETRIC_REPRESENTATION_CONTEXT(2) 
PARAMETRIC_REPRESENTATION_CONTEXT() REPRESENTATION_CONTEXT('2D SPACE',''
  ) );
#612 = ORIENTED_EDGE('',*,*,#613,.T.);
#613 = EDGE_CURVE('',#593,#502,#614,.T.);
#614 = SURFACE_CURVE('',#615,(#619,#625),.PCURVE_S1.);
#615 = LINE('',#616,#617);
#616 = CARTESIAN_POINT('',(2.5,12.247448713916,0.));
#617 = VECTOR('',#618,1.);
#618 = DIRECTION('',(-0.,-0.,-1.));
#619 = PCURVE('',#400,#620);
#620 = DEFINITIONAL_REPRESENTATION('',(#621),#624);
#621 = B_SPLINE_CURVE_WITH_KNOTS('',1,(#622,#623),.UNSPECIFIED.,.F.,.F.,
  (2,2),(-39.15,6.E-07),.PIECEWISE_BEZIER_KNOTS.);
#622 = CARTESIAN_POINT('',(40.15,-12.24744871391));
#623 = CARTESIAN_POINT('',(0.9999994,-12.24744871391));
#624 = ( GEOMETRIC_REPRESENTATION_CONTEXT(2) 
PARAMETRIC_REPRESENTATION_CONTEXT() REPRESENTATION_CONTEXT('2D SPACE',''
  ) );
#625 = PCURVE('',#484,#626);
#626 = DEFINITIONAL_REPRESENTATION('',(#627),#630);
#627 = B_SPLINE_CURVE_WITH_KNOTS('',1,(#628,#629),.UNSPECIFIED.,.F.,.F.,
  (2,2),(-39.15,6.E-07),.PIECEWISE_BEZIER_KNOTS.);
#628 = CARTESIAN_POINT('',(-1.369438406005,-39.15));
#629 = CARTESIAN_POINT('',(-1.369438406005,6.E-07));
#630 = ( GEOMETRIC_REPRESENTATION_CONTEXT(2) 
PARAMETRIC_REPRESENTATION_CONTEXT() REPRESENTATION_CONTEXT('2D SPACE',''
  ) );
#631 = ORIENTED_EDGE('',*,*,#501,.T.);
#632 = ORIENTED_EDGE('',*,*,#385,.F.);
#633 = ADVANCED_FACE('',(#634),#369,.T.);
#634 = FACE_BOUND('',#635,.T.);
#635 = EDGE_LOOP('',(#636,#659,#660,#661));
#636 = ORIENTED_EDGE('',*,*,#637,.T.);
#637 = EDGE_CURVE('',#638,#327,#640,.T.);
#638 = VERTEX_POINT('',#639);
#639 = CARTESIAN_POINT('',(11.328847337958,5.282728271759,18.));
#640 = SURFACE_CURVE('',#641,(#645,#652),.PCURVE_S1.);
#641 = LINE('',#642,#643);
#642 = CARTESIAN_POINT('',(0.,0.,18.));
#643 = VECTOR('',#644,1.);
#644 = DIRECTION('',(0.906307787037,0.422618261741,0.));
#645 = PCURVE('',#369,#646);
#646 = DEFINITIONAL_REPRESENTATION('',(#647),#651);
#647 = LINE('',#648,#649);
#648 = CARTESIAN_POINT('',(0.,0.));
#649 = VECTOR('',#650,1.);
#650 = DIRECTION('',(1.,0.));
#651 = ( GEOMETRIC_REPRESENTATION_CONTEXT(2) 
PARAMETRIC_REPRESENTATION_CONTEXT() REPRESENTATION_CONTEXT('2D SPACE',''
  ) );
#652 = PCURVE('',#341,#653);
#653 = DEFINITIONAL_REPRESENTATION('',(#654),#658);
#654 = LINE('',#655,#656);
#655 = CARTESIAN_POINT('',(0.,0.));
#656 = VECTOR('',#657,1.);
#657 = DIRECTION('',(1.,0.));
#658 = ( GEOMETRIC_REPRESENTATION_CONTEXT(2) 
PARAMETRIC_REPRESENTATION_CONTEXT() REPRESENTATION_CONTEXT('2D SPACE',''
  ) );
#659 = ORIENTED_EDGE('',*,*,#352,.F.);
#660 = ORIENTED_EDGE('',*,*,#592,.T.);
#661 = ORIENTED_EDGE('',*,*,#662,.T.);
#662 = EDGE_CURVE('',#593,#638,#663,.T.);
#663 = SURFACE_CURVE('',#664,(#669,#680),.PCURVE_S1.);
#664 = CIRCLE('',#665,12.5);
#665 = AXIS2_PLACEMENT_3D('',#666,#667,#668);
#666 = CARTESIAN_POINT('',(6.421201019462E-14,3.947459643112E-16,18.));
#667 = DIRECTION('',(0.,0.,-1.));
#668 = DIRECTION('',(1.,0.,0.));
#669 = PCURVE('',#369,#670);
#670 = DEFINITIONAL_REPRESENTATION('',(#671),#679);
#671 = ( BOUNDED_CURVE() B_SPLINE_CURVE(2,(#672,#673,#674,#675,#676,#677
,#678),.UNSPECIFIED.,.T.,.F.) B_SPLINE_CURVE_WITH_KNOTS((1,2,2,2,2,1),(
    -2.094395102393,0.,2.094395102393,4.188790204786,6.28318530718,
8.377580409573),.UNSPECIFIED.) CURVE() GEOMETRIC_REPRESENTATION_ITEM() 
RATIONAL_B_SPLINE_CURVE((1.,0.5,1.,0.5,1.,0.5,1.)) REPRESENTATION_ITEM(
  '') );
#672 = CARTESIAN_POINT('',(11.328847337958,-5.282728271759));
#673 = CARTESIAN_POINT('',(2.178893568692,-24.90486745229));
#674 = CARTESIAN_POINT('',(-10.23940055361,-7.169705454388));
#675 = CARTESIAN_POINT('',(-22.65769467591,10.565456543517));
#676 = CARTESIAN_POINT('',(-1.089446784346,12.452433726147));
#677 = CARTESIAN_POINT('',(20.478801107225,14.339410908776));
#678 = CARTESIAN_POINT('',(11.328847337958,-5.282728271759));
#679 = ( GEOMETRIC_REPRESENTATION_CONTEXT(2) 
PARAMETRIC_REPRESENTATION_CONTEXT() REPRESENTATION_CONTEXT('2D SPACE',''
  ) );
#680 = PCURVE('',#484,#681);
#681 = DEFINITIONAL_REPRESENTATION('',(#682),#686);
#682 = LINE('',#683,#684);
#683 = CARTESIAN_POINT('',(-6.28318530718,-18.));
#684 = VECTOR('',#685,1.);
#685 = DIRECTION('',(1.,-0.));
#686 = ( GEOMETRIC_REPRESENTATION_CONTEXT(2) 
PARAMETRIC_REPRESENTATION_CONTEXT() REPRESENTATION_CONTEXT('2D SPACE',''
  ) );
#687 = ADVANCED_FACE('',(#688),#341,.F.);
#688 = FACE_BOUND('',#689,.F.);
#689 = EDGE_LOOP('',(#690,#711,#712,#713));
#690 = ORIENTED_EDGE('',*,*,#691,.T.);
#691 = EDGE_CURVE('',#692,#638,#694,.T.);
#692 = VERTEX_POINT('',#693);
#693 = CARTESIAN_POINT('',(11.328847337958,5.282728271759,24.));
#694 = SURFACE_CURVE('',#695,(#699,#705),.PCURVE_S1.);
#695 = LINE('',#696,#697);
#696 = CARTESIAN_POINT('',(11.328847337958,5.282728271759,0.));
#697 = VECTOR('',#698,1.);
#698 = DIRECTION('',(-0.,-0.,-1.));
#699 = PCURVE('',#341,#700);
#700 = DEFINITIONAL_REPRESENTATION('',(#701),#704);
#701 = B_SPLINE_CURVE_WITH_KNOTS('',1,(#702,#703),.UNSPECIFIED.,.F.,.F.,
  (2,2),(-24.6,-17.4),.PIECEWISE_BEZIER_KNOTS.);
#702 = CARTESIAN_POINT('',(12.5,6.6));
#703 = CARTESIAN_POINT('',(12.5,-0.6));
#704 = ( GEOMETRIC_REPRESENTATION_CONTEXT(2) 
PARAMETRIC_REPRESENTATION_CONTEXT() REPRESENTATION_CONTEXT('2D SPACE',''
  ) );
#705 = PCURVE('',#484,#706);
#706 = DEFINITIONAL_REPRESENTATION('',(#707),#710);
#707 = B_SPLINE_CURVE_WITH_KNOTS('',1,(#708,#709),.UNSPECIFIED.,.F.,.F.,
  (2,2),(-24.6,-17.4),.PIECEWISE_BEZIER_KNOTS.);
#708 = CARTESIAN_POINT('',(-0.436332312999,-24.6));
#709 = CARTESIAN_POINT('',(-0.436332312999,-17.4));
#710 = ( GEOMETRIC_REPRESENTATION_CONTEXT(2) 
PARAMETRIC_REPRESENTATION_CONTEXT() REPRESENTATION_CONTEXT('2D SPACE',''
  ) );
#711 = ORIENTED_EDGE('',*,*,#637,.T.);
#712 = ORIENTED_EDGE('',*,*,#326,.F.);
#713 = ORIENTED_EDGE('',*,*,#714,.F.);
#714 = EDGE_CURVE('',#692,#294,#715,.T.);
#715 = SURFACE_CURVE('',#716,(#720,#727),.PCURVE_S1.);
#716 = LINE('',#717,#718);
#717 = CARTESIAN_POINT('',(0.,0.,24.));
#718 = VECTOR('',#719,1.);
#719 = DIRECTION('',(0.906307787037,0.422618261741,0.));
#720 = PCURVE('',#341,#721);
#721 = DEFINITIONAL_REPRESENTATION('',(#722),#726);
#722 = LINE('',#723,#724);
#723 = CARTESIAN_POINT('',(0.,6.));
#724 = VECTOR('',#725,1.);
#725 = DIRECTION('',(1.,0.));
#726 = ( GEOMETRIC_REPRESENTATION_CONTEXT(2) 
PARAMETRIC_REPRESENTATION_CONTEXT() REPRESENTATION_CONTEXT('2D SPACE',''
  ) );
#727 = PCURVE('',#310,#728);
#728 = DEFINITIONAL_REPRESENTATION('',(#729),#733);
#729 = LINE('',#730,#731);
#730 = CARTESIAN_POINT('',(0.,0.));
#731 = VECTOR('',#732,1.);
#732 = DIRECTION('',(1.,0.));
#733 = ( GEOMETRIC_REPRESENTATION_CONTEXT(2) 
PARAMETRIC_REPRESENTATION_CONTEXT() REPRESENTATION_CONTEXT('2D SPACE',''
  ) );
#734 = ADVANCED_FACE('',(#735),#310,.F.);
#735 = FACE_BOUND('',#736,.F.);
#736 = EDGE_LOOP('',(#737,#738,#739,#760));
#737 = ORIENTED_EDGE('',*,*,#714,.T.);
#738 = ORIENTED_EDGE('',*,*,#293,.F.);
#739 = ORIENTED_EDGE('',*,*,#740,.T.);
#740 = EDGE_CURVE('',#268,#741,#743,.T.);
#741 = VERTEX_POINT('',#742);
#742 = CARTESIAN_POINT('',(2.5,12.247448713916,24.));
#743 = SURFACE_CURVE('',#744,(#748,#754),.PCURVE_S1.);
#744 = LINE('',#745,#746);
#745 = CARTESIAN_POINT('',(2.5,0.,24.));
#746 = VECTOR('',#747,1.);
#747 = DIRECTION('',(0.,-1.,0.));
#748 = PCURVE('',#310,#749);
#749 = DEFINITIONAL_REPRESENTATION('',(#750),#753);
#750 = B_SPLINE_CURVE_WITH_KNOTS('',1,(#751,#752),.UNSPECIFIED.,.F.,.F.,
  (2,2),(-13.26649916142,-12.24744871391),.PIECEWISE_BEZIER_KNOTS.);
#751 = CARTESIAN_POINT('',(7.872434282576,10.96698584236));
#752 = CARTESIAN_POINT('',(7.441764953825,10.043412486402));
#753 = ( GEOMETRIC_REPRESENTATION_CONTEXT(2) 
PARAMETRIC_REPRESENTATION_CONTEXT() REPRESENTATION_CONTEXT('2D SPACE',''
  ) );
#754 = PCURVE('',#282,#755);
#755 = DEFINITIONAL_REPRESENTATION('',(#756),#759);
#756 = B_SPLINE_CURVE_WITH_KNOTS('',1,(#757,#758),.UNSPECIFIED.,.F.,.F.,
  (2,2),(-13.26649916142,-12.24744871391),.PIECEWISE_BEZIER_KNOTS.);
#757 = CARTESIAN_POINT('',(25.,-13.26649916142));
#758 = CARTESIAN_POINT('',(25.,-12.24744871391));
#759 = ( GEOMETRIC_REPRESENTATION_CONTEXT(2) 
PARAMETRIC_REPRESENTATION_CONTEXT() REPRESENTATION_CONTEXT('2D SPACE',''
  ) );
#760 = ORIENTED_EDGE('',*,*,#761,.T.);
#761 = EDGE_CURVE('',#741,#692,#762,.T.);
#762 = SURFACE_CURVE('',#763,(#768,#779),.PCURVE_S1.);
#763 = CIRCLE('',#764,12.5);
#764 = AXIS2_PLACEMENT_3D('',#765,#766,#767);
#765 = CARTESIAN_POINT('',(6.421201019462E-14,3.947459643112E-16,24.));
#766 = DIRECTION('',(0.,0.,-1.));
#767 = DIRECTION('',(1.,0.,0.));
#768 = PCURVE('',#310,#769);
#769 = DEFINITIONAL_REPRESENTATION('',(#770),#778);
#770 = ( BOUNDED_CURVE() B_SPLINE_CURVE(2,(#771,#772,#773,#774,#775,#776
,#777),.UNSPECIFIED.,.T.,.F.) B_SPLINE_CURVE_WITH_KNOTS((1,2,2,2,2,1),(
    -2.094395102393,0.,2.094395102393,4.188790204786,6.28318530718,
8.377580409573),.UNSPECIFIED.) CURVE() GEOMETRIC_REPRESENTATION_ITEM() 
RATIONAL_B_SPLINE_CURVE((1.,0.5,1.,0.5,1.,0.5,1.)) REPRESENTATION_ITEM(
  '') );
#771 = CARTESIAN_POINT('',(11.328847337958,-5.282728271759));
#772 = CARTESIAN_POINT('',(2.178893568692,-24.90486745229));
#773 = CARTESIAN_POINT('',(-10.23940055361,-7.169705454388));
#774 = CARTESIAN_POINT('',(-22.65769467591,10.565456543517));
#775 = CARTESIAN_POINT('',(-1.089446784346,12.452433726147));
#776 = CARTESIAN_POINT('',(20.478801107225,14.339410908776));
#777 = CARTESIAN_POINT('',(11.328847337958,-5.282728271759));
#778 = ( GEOMETRIC_REPRESENTATION_CONTEXT(2) 
PARAMETRIC_REPRESENTATION_CONTEXT() REPRESENTATION_CONTEXT('2D SPACE',''
  ) );
#779 = PCURVE('',#484,#780);
#780 = DEFINITIONAL_REPRESENTATION('',(#781),#785);
#781 = LINE('',#782,#783);
#782 = CARTESIAN_POINT('',(-6.28318530718,-24.));
#783 = VECTOR('',#784,1.);
#784 = DIRECTION('',(1.,-0.));
#785 = ( GEOMETRIC_REPRESENTATION_CONTEXT(2) 
PARAMETRIC_REPRESENTATION_CONTEXT() REPRESENTATION_CONTEXT('2D SPACE',''
  ) );
#786 = ADVANCED_FACE('',(#787),#282,.F.);
#787 = FACE_BOUND('',#788,.F.);
#788 = EDGE_LOOP('',(#789,#811,#830,#831));
#789 = ORIENTED_EDGE('',*,*,#790,.F.);
#790 = EDGE_CURVE('',#791,#129,#793,.T.);
#791 = VERTEX_POINT('',#792);
#792 = CARTESIAN_POINT('',(2.5,12.247448713916,35.5));
#793 = SURFACE_CURVE('',#794,(#798,#805),.PCURVE_S1.);
#794 = LINE('',#795,#796);
#795 = CARTESIAN_POINT('',(2.5,0.,35.5));
#796 = VECTOR('',#797,1.);
#797 = DIRECTION('',(-0.,1.,0.));
#798 = PCURVE('',#282,#799);
#799 = DEFINITIONAL_REPRESENTATION('',(#800),#804);
#800 = LINE('',#801,#802);
#801 = CARTESIAN_POINT('',(36.5,0.));
#802 = VECTOR('',#803,1.);
#803 = DIRECTION('',(0.,-1.));
#804 = ( GEOMETRIC_REPRESENTATION_CONTEXT(2) 
PARAMETRIC_REPRESENTATION_CONTEXT() REPRESENTATION_CONTEXT('2D SPACE',''
  ) );
#805 = PCURVE('',#211,#806);
#806 = DEFINITIONAL_REPRESENTATION('',(#807),#810);
#807 = B_SPLINE_CURVE_WITH_KNOTS('',1,(#808,#809),.UNSPECIFIED.,.F.,.F.,
  (2,2),(12.247448713916,13.266499161422),.PIECEWISE_BEZIER_KNOTS.);
#808 = CARTESIAN_POINT('',(7.853981633974,12.247448713916));
#809 = CARTESIAN_POINT('',(7.853981633974,13.266499161422));
#810 = ( GEOMETRIC_REPRESENTATION_CONTEXT(2) 
PARAMETRIC_REPRESENTATION_CONTEXT() REPRESENTATION_CONTEXT('2D SPACE',''
  ) );
#811 = ORIENTED_EDGE('',*,*,#812,.T.);
#812 = EDGE_CURVE('',#791,#741,#813,.T.);
#813 = SURFACE_CURVE('',#814,(#818,#824),.PCURVE_S1.);
#814 = LINE('',#815,#816);
#815 = CARTESIAN_POINT('',(2.5,12.247448713916,0.));
#816 = VECTOR('',#817,1.);
#817 = DIRECTION('',(-0.,-0.,-1.));
#818 = PCURVE('',#282,#819);
#819 = DEFINITIONAL_REPRESENTATION('',(#820),#823);
#820 = B_SPLINE_CURVE_WITH_KNOTS('',1,(#821,#822),.UNSPECIFIED.,.F.,.F.,
  (2,2),(-39.15,6.E-07),.PIECEWISE_BEZIER_KNOTS.);
#821 = CARTESIAN_POINT('',(40.15,-12.24744871391));
#822 = CARTESIAN_POINT('',(0.9999994,-12.24744871391));
#823 = ( GEOMETRIC_REPRESENTATION_CONTEXT(2) 
PARAMETRIC_REPRESENTATION_CONTEXT() REPRESENTATION_CONTEXT('2D SPACE',''
  ) );
#824 = PCURVE('',#484,#825);
#825 = DEFINITIONAL_REPRESENTATION('',(#826),#829);
#826 = B_SPLINE_CURVE_WITH_KNOTS('',1,(#827,#828),.UNSPECIFIED.,.F.,.F.,
  (2,2),(-39.15,6.E-07),.PIECEWISE_BEZIER_KNOTS.);
#827 = CARTESIAN_POINT('',(-1.369438406005,-39.15));
#828 = CARTESIAN_POINT('',(-1.369438406005,6.E-07));
#829 = ( GEOMETRIC_REPRESENTATION_CONTEXT(2) 
PARAMETRIC_REPRESENTATION_CONTEXT() REPRESENTATION_CONTEXT('2D SPACE',''
  ) );
#830 = ORIENTED_EDGE('',*,*,#740,.F.);
#831 = ORIENTED_EDGE('',*,*,#267,.F.);
#832 = ADVANCED_FACE('',(#833),#211,.F.);
#833 = FACE_BOUND('',#834,.F.);
#834 = EDGE_LOOP('',(#835,#836,#858,#990));
#835 = ORIENTED_EDGE('',*,*,#128,.T.);
#836 = ORIENTED_EDGE('',*,*,#837,.F.);
#837 = EDGE_CURVE('',#838,#103,#840,.T.);
#838 = VERTEX_POINT('',#839);
#839 = CARTESIAN_POINT('',(-2.5,12.247448713916,35.5));
#840 = SURFACE_CURVE('',#841,(#845,#851),.PCURVE_S1.);
#841 = LINE('',#842,#843);
#842 = CARTESIAN_POINT('',(-2.5,0.,35.5));
#843 = VECTOR('',#844,1.);
#844 = DIRECTION('',(-0.,1.,0.));
#845 = PCURVE('',#211,#846);
#846 = DEFINITIONAL_REPRESENTATION('',(#847),#850);
#847 = B_SPLINE_CURVE_WITH_KNOTS('',1,(#848,#849),.UNSPECIFIED.,.F.,.F.,
  (2,2),(12.247448713916,13.266499161422),.PIECEWISE_BEZIER_KNOTS.);
#848 = CARTESIAN_POINT('',(4.712388980385,12.247448713916));
#849 = CARTESIAN_POINT('',(4.712388980385,13.266499161422));
#850 = ( GEOMETRIC_REPRESENTATION_CONTEXT(2) 
PARAMETRIC_REPRESENTATION_CONTEXT() REPRESENTATION_CONTEXT('2D SPACE',''
  ) );
#851 = PCURVE('',#117,#852);
#852 = DEFINITIONAL_REPRESENTATION('',(#853),#857);
#853 = LINE('',#854,#855);
#854 = CARTESIAN_POINT('',(36.5,0.));
#855 = VECTOR('',#856,1.);
#856 = DIRECTION('',(0.,-1.));
#857 = ( GEOMETRIC_REPRESENTATION_CONTEXT(2) 
PARAMETRIC_REPRESENTATION_CONTEXT() REPRESENTATION_CONTEXT('2D SPACE',''
  ) );
#858 = ORIENTED_EDGE('',*,*,#859,.F.);
#859 = EDGE_CURVE('',#791,#838,#860,.T.);
#860 = SURFACE_CURVE('',#861,(#888,#939),.PCURVE_S1.);
#861 = B_SPLINE_CURVE_WITH_KNOTS('',7,(#862,#863,#864,#865,#866,#867,
    #868,#869,#870,#871,#872,#873,#874,#875,#876,#877,#878,#879,#880,
    #881,#882,#883,#884,#885,#886,#887),.UNSPECIFIED.,.F.,.F.,(8,6,6,6,8
    ),(0.,0.551087171116,1.,1.469738411111,2.001769749154),
  .UNSPECIFIED.);
#862 = CARTESIAN_POINT('',(2.5,12.247448713916,35.5));
#863 = CARTESIAN_POINT('',(2.5,12.247448713916,35.769215995677));
#864 = CARTESIAN_POINT('',(2.466178454001,12.254352423269,
    36.038040593395));
#865 = CARTESIAN_POINT('',(2.398703949301,12.268126041707,
    36.303980916918));
#866 = CARTESIAN_POINT('',(2.296779141498,12.288317290353,
    36.564268152925));
#867 = CARTESIAN_POINT('',(2.158914956278,12.314025886148,
    36.815369788279));
#868 = CARTESIAN_POINT('',(1.983184673906,12.34359471063,37.052349232027
    ));
#869 = CARTESIAN_POINT('',(1.592288764456,12.399436983409,
    37.443245141477));
#870 = CARTESIAN_POINT('',(1.386210022928,12.425914186146,
    37.608680704816));
#871 = CARTESIAN_POINT('',(1.150480629754,12.45183160498,37.754545258504
    ));
#872 = CARTESIAN_POINT('',(0.888323326425,12.474533353107,
    37.872659985656));
#873 = CARTESIAN_POINT('',(0.604757794468,12.491251395696,
    37.956258546976));
#874 = CARTESIAN_POINT('',(0.306157758585,12.5,38.));
#875 = CARTESIAN_POINT('',(-0.320360768981,12.5,38.));
#876 = CARTESIAN_POINT('',(-0.631881841711,12.490420816558,
    37.952106091448));
#877 = CARTESIAN_POINT('',(-0.926299042473,12.472216096296,
    37.86107174255));
#878 = CARTESIAN_POINT('',(-1.196751195745,12.447726594666,
    37.733104525186));
#879 = CARTESIAN_POINT('',(-1.437964082467,12.420118739314,
    37.575866838563));
#880 = CARTESIAN_POINT('',(-1.646725271354,12.392329703048,
    37.398465318085));
#881 = CARTESIAN_POINT('',(-2.021417294424,12.337111956037,
    36.999458840082));
#882 = CARTESIAN_POINT('',(-2.183911496001,12.309348389813,
    36.768813439754));
#883 = CARTESIAN_POINT('',(-2.311567378045,12.285384915142,
    36.525730547959));
#884 = CARTESIAN_POINT('',(-2.40605309278,12.266625761316,
    36.274472868324));
#885 = CARTESIAN_POINT('',(-2.468639264043,12.253850146339,
    36.018147434662));
#886 = CARTESIAN_POINT('',(-2.5,12.247448713916,35.75923627343));
#887 = CARTESIAN_POINT('',(-2.5,12.247448713916,35.5));
#888 = PCURVE('',#211,#889);
#889 = DEFINITIONAL_REPRESENTATION('',(#890),#938);
#890 = B_SPLINE_CURVE_WITH_KNOTS('',3,(#891,#892,#893,#894,#895,#896,
    #897,#898,#899,#900,#901,#902,#903,#904,#905,#906,#907,#908,#909,
    #910,#911,#912,#913,#914,#915,#916,#917,#918,#919,#920,#921,#922,
    #923,#924,#925,#926,#927,#928,#929,#930,#931,#932,#933,#934,#935,
    #936,#937),.UNSPECIFIED.,.F.,.F.,(4,1,1,1,1,1,1,1,1,1,1,1,1,1,1,1,1,
    1,1,1,1,1,1,1,1,1,1,1,1,1,1,1,1,1,1,1,1,1,1,1,1,1,1,1,4),(0.,
    4.549476702622E-02,9.098953405244E-02,0.136484301079,0.181979068105,
    0.227473835131,0.272968602157,0.318463369184,0.36395813621,
    0.409452903236,0.454947670262,0.500442437288,0.545937204315,
    0.591431971341,0.636926738367,0.682421505393,0.727916272419,
    0.773411039446,0.818905806472,0.864400573498,0.909895340524,
    0.955390107551,1.000884874577,1.046379641603,1.091874408629,
    1.137369175655,1.182863942682,1.228358709708,1.273853476734,
    1.31934824376,1.364843010787,1.410337777813,1.455832544839,
    1.501327311865,1.546822078891,1.592316845918,1.637811612944,
    1.68330637997,1.728801146996,1.774295914022,1.819790681049,
    1.865285448075,1.910780215101,1.956274982127,2.001769749154),
  .QUASI_UNIFORM_KNOTS.);
#891 = CARTESIAN_POINT('',(7.853981633974,12.247448713916));
#892 = CARTESIAN_POINT('',(7.833238564374,12.247447295456));
#893 = CARTESIAN_POINT('',(7.791766276299,12.248108535052));
#894 = CARTESIAN_POINT('',(7.72948230484,12.251061744709));
#895 = CARTESIAN_POINT('',(7.667004746403,12.255952305889));
#896 = CARTESIAN_POINT('',(7.604218895544,12.262732137946));
#897 = CARTESIAN_POINT('',(7.541010537322,12.271335883334));
#898 = CARTESIAN_POINT('',(7.477265273859,12.281677168104));
#899 = CARTESIAN_POINT('',(7.412867070799,12.29364742197));
#900 = CARTESIAN_POINT('',(7.347698208105,12.30711342778));
#901 = CARTESIAN_POINT('',(7.281634448924,12.321916091234));
#902 = CARTESIAN_POINT('',(7.214557490603,12.337864571842));
#903 = CARTESIAN_POINT('',(7.146302038204,12.354746994541));
#904 = CARTESIAN_POINT('',(7.076845392272,12.372278997479));
#905 = CARTESIAN_POINT('',(7.005589875286,12.390284148793));
#906 = CARTESIAN_POINT('',(6.93188802212,12.408544884071));
#907 = CARTESIAN_POINT('',(6.856209710435,12.426500881616));
#908 = CARTESIAN_POINT('',(6.778682866354,12.443639396631));
#909 = CARTESIAN_POINT('',(6.699481037219,12.459416499974));
#910 = CARTESIAN_POINT('',(6.61872147385,12.473301974586));
#911 = CARTESIAN_POINT('',(6.536511243935,12.484791301941));
#912 = CARTESIAN_POINT('',(6.452886632642,12.493425904965));
#913 = CARTESIAN_POINT('',(6.368027113744,12.498810927618));
#914 = CARTESIAN_POINT('',(6.281473503386,12.50062964235));
#915 = CARTESIAN_POINT('',(6.195053783794,12.498666221301));
#916 = CARTESIAN_POINT('',(6.110347657956,12.49315888747));
#917 = CARTESIAN_POINT('',(6.026935205238,12.484429817326));
#918 = CARTESIAN_POINT('',(5.944959188209,12.47287709737));
#919 = CARTESIAN_POINT('',(5.864439422678,12.458956884872));
#920 = CARTESIAN_POINT('',(5.785458436773,12.443166947359));
#921 = CARTESIAN_POINT('',(5.70811402769,12.426028871151));
#922 = CARTESIAN_POINT('',(5.632537025575,12.408070823841));
#923 = CARTESIAN_POINT('',(5.558885315332,12.389808261334));
#924 = CARTESIAN_POINT('',(5.487371409754,12.371733352744));
#925 = CARTESIAN_POINT('',(5.418183058593,12.354274859844));
#926 = CARTESIAN_POINT('',(5.350119155384,12.337453230035));
#927 = CARTESIAN_POINT('',(5.283242429214,12.321571231006));
#928 = CARTESIAN_POINT('',(5.217365221393,12.306832370461));
#929 = CARTESIAN_POINT('',(5.152376055574,12.293426923832));
#930 = CARTESIAN_POINT('',(5.088149958815,12.281511902901));
#931 = CARTESIAN_POINT('',(5.024570730174,12.271219347324));
#932 = CARTESIAN_POINT('',(4.961523470167,12.262656818587));
#933 = CARTESIAN_POINT('',(4.898895246806,12.255909954706));
#934 = CARTESIAN_POINT('',(4.836573491783,12.251043531267));
#935 = CARTESIAN_POINT('',(4.774445373747,12.248105146609));
#936 = CARTESIAN_POINT('',(4.733078557821,12.247447297328));
#937 = CARTESIAN_POINT('',(4.712388980385,12.247448713916));
#938 = ( GEOMETRIC_REPRESENTATION_CONTEXT(2) 
PARAMETRIC_REPRESENTATION_CONTEXT() REPRESENTATION_CONTEXT('2D SPACE',''
  ) );
#939 = PCURVE('',#484,#940);
#940 = DEFINITIONAL_REPRESENTATION('',(#941),#989);
#941 = B_SPLINE_CURVE_WITH_KNOTS('',3,(#942,#943,#944,#945,#946,#947,
    #948,#949,#950,#951,#952,#953,#954,#955,#956,#957,#958,#959,#960,
    #961,#962,#963,#964,#965,#966,#967,#968,#969,#970,#971,#972,#973,
    #974,#975,#976,#977,#978,#979,#980,#981,#982,#983,#984,#985,#986,
    #987,#988),.UNSPECIFIED.,.F.,.F.,(4,1,1,1,1,1,1,1,1,1,1,1,1,1,1,1,1,
    1,1,1,1,1,1,1,1,1,1,1,1,1,1,1,1,1,1,1,1,1,1,1,1,1,1,1,4),(0.,
    4.549476702622E-02,9.098953405244E-02,0.136484301079,0.181979068105,
    0.227473835131,0.272968602157,0.318463369184,0.36395813621,
    0.409452903236,0.454947670262,0.500442437288,0.545937204315,
    0.591431971341,0.636926738367,0.682421505393,0.727916272419,
    0.773411039446,0.818905806472,0.864400573498,0.909895340524,
    0.955390107551,1.000884874577,1.046379641603,1.091874408629,
    1.137369175655,1.182863942682,1.228358709708,1.273853476734,
    1.31934824376,1.364843010787,1.410337777813,1.455832544839,
    1.501327311865,1.546822078891,1.592316845918,1.637811612944,
    1.68330637997,1.728801146996,1.774295914022,1.819790681049,
    1.865285448075,1.910780215101,1.956274982127,2.001769749154),
  .QUASI_UNIFORM_KNOTS.);
#942 = CARTESIAN_POINT('',(-1.369438406005,-35.5));
#943 = CARTESIAN_POINT('',(-1.369438609287,-35.55185697455));
#944 = CARTESIAN_POINT('',(-1.369701724466,-35.65553871218));
#945 = CARTESIAN_POINT('',(-1.370886899995,-35.81064597955));
#946 = CARTESIAN_POINT('',(-1.372864047084,-35.96502691401));
#947 = CARTESIAN_POINT('',(-1.375637812953,-36.11834353381));
#948 = CARTESIAN_POINT('',(-1.379214661736,-36.2702333757));
#949 = CARTESIAN_POINT('',(-1.383602957028,-36.42030143076));
#950 = CARTESIAN_POINT('',(-1.388812695378,-36.56811497148));
#951 = CARTESIAN_POINT('',(-1.394855161377,-36.71319495661));
#952 = CARTESIAN_POINT('',(-1.401743206159,-36.85501556409));
#953 = CARTESIAN_POINT('',(-1.409489063401,-36.99297172288));
#954 = CARTESIAN_POINT('',(-1.418111336982,-37.12646336793));
#955 = CARTESIAN_POINT('',(-1.427607702126,-37.25454140924));
#956 = CARTESIAN_POINT('',(-1.438055510978,-37.37718648498));
#957 = CARTESIAN_POINT('',(-1.44955911506,-37.49402591217));
#958 = CARTESIAN_POINT('',(-1.462043744143,-37.60271785899));
#959 = CARTESIAN_POINT('',(-1.475463614745,-37.70158345702));
#960 = CARTESIAN_POINT('',(-1.489749076131,-37.78892247807));
#961 = CARTESIAN_POINT('',(-1.504822977465,-37.86319794691));
#962 = CARTESIAN_POINT('',(-1.520594789285,-37.92298798276));
#963 = CARTESIAN_POINT('',(-1.536973794902,-37.96699903281));
#964 = CARTESIAN_POINT('',(-1.553827444178,-37.99406577907));
#965 = CARTESIAN_POINT('',(-1.571139100196,-38.00314265616));
#966 = CARTESIAN_POINT('',(-1.588421501281,-37.99334218871));
#967 = CARTESIAN_POINT('',(-1.605237841625,-37.96564916429));
#968 = CARTESIAN_POINT('',(-1.621564861552,-37.92112782238));
#969 = CARTESIAN_POINT('',(-1.637278669318,-37.86095728676));
#970 = CARTESIAN_POINT('',(-1.652292978742,-37.78642183808));
#971 = CARTESIAN_POINT('',(-1.666522713025,-37.69891327278));
#972 = CARTESIAN_POINT('',(-1.679894709443,-37.59992934769));
#973 = CARTESIAN_POINT('',(-1.692345575163,-37.49107491914));
#974 = CARTESIAN_POINT('',(-1.703824669195,-37.37405519333));
#975 = CARTESIAN_POINT('',(-1.714290147135,-37.25069666528));
#976 = CARTESIAN_POINT('',(-1.72372821594,-37.1228638717));
#977 = CARTESIAN_POINT('',(-1.732307745311,-36.98956340512));
#978 = CARTESIAN_POINT('',(-1.740012772293,-36.85186635295));
#979 = CARTESIAN_POINT('',(-1.74686551328,-36.71032916439));
#980 = CARTESIAN_POINT('',(-1.752877108947,-36.56555953033));
#981 = CARTESIAN_POINT('',(-1.75806052515,-36.41807522827));
#982 = CARTESIAN_POINT('',(-1.762426812158,-36.26835172044));
#983 = CARTESIAN_POINT('',(-1.765985826198,-36.11681846922));
#984 = CARTESIAN_POINT('',(-1.768745789119,-35.96386855032));
#985 = CARTESIAN_POINT('',(-1.770713072731,-35.80986350352));
#986 = CARTESIAN_POINT('',(-1.771892279082,-35.6551413063));
#987 = CARTESIAN_POINT('',(-1.772154051464,-35.55172324533));
#988 = CARTESIAN_POINT('',(-1.772154247585,-35.5));
#989 = ( GEOMETRIC_REPRESENTATION_CONTEXT(2) 
PARAMETRIC_REPRESENTATION_CONTEXT() REPRESENTATION_CONTEXT('2D SPACE',''
  ) );
#990 = ORIENTED_EDGE('',*,*,#790,.T.);
#991 = ADVANCED_FACE('',(#992),#117,.T.);
#992 = FACE_BOUND('',#993,.T.);
#993 = EDGE_LOOP('',(#994,#995,#1014,#1015));
#994 = ORIENTED_EDGE('',*,*,#837,.F.);
#995 = ORIENTED_EDGE('',*,*,#996,.T.);
#996 = EDGE_CURVE('',#838,#547,#997,.T.);
#997 = SURFACE_CURVE('',#998,(#1002,#1008),.PCURVE_S1.);
#998 = LINE('',#999,#1000);
#999 = CARTESIAN_POINT('',(-2.5,12.247448713916,0.));
#1000 = VECTOR('',#1001,1.);
#1001 = DIRECTION('',(-0.,-0.,-1.));
#1002 = PCURVE('',#117,#1003);
#1003 = DEFINITIONAL_REPRESENTATION('',(#1004),#1007);
#1004 = B_SPLINE_CURVE_WITH_KNOTS('',1,(#1005,#1006),.UNSPECIFIED.,.F.,
  .F.,(2,2),(-39.15,6.E-07),.PIECEWISE_BEZIER_KNOTS.);
#1005 = CARTESIAN_POINT('',(40.15,-12.24744871391));
#1006 = CARTESIAN_POINT('',(0.9999994,-12.24744871391));
#1007 = ( GEOMETRIC_REPRESENTATION_CONTEXT(2) 
PARAMETRIC_REPRESENTATION_CONTEXT() REPRESENTATION_CONTEXT('2D SPACE',''
  ) );
#1008 = PCURVE('',#484,#1009);
#1009 = DEFINITIONAL_REPRESENTATION('',(#1010),#1013);
#1010 = B_SPLINE_CURVE_WITH_KNOTS('',1,(#1011,#1012),.UNSPECIFIED.,.F.,
  .F.,(2,2),(-39.15,6.E-07),.PIECEWISE_BEZIER_KNOTS.);
#1011 = CARTESIAN_POINT('',(-1.772154247585,-39.15));
#1012 = CARTESIAN_POINT('',(-1.772154247585,6.E-07));
#1013 = ( GEOMETRIC_REPRESENTATION_CONTEXT(2) 
PARAMETRIC_REPRESENTATION_CONTEXT() REPRESENTATION_CONTEXT('2D SPACE',''
  ) );
#1014 = ORIENTED_EDGE('',*,*,#570,.T.);
#1015 = ORIENTED_EDGE('',*,*,#102,.F.);
#1016 = ADVANCED_FACE('',(#1017),#484,.F.);
#1017 = FACE_BOUND('',#1018,.T.);
#1018 = EDGE_LOOP('',(#1019,#1040,#1041,#1042,#1043,#1044,#1045,#1046,
    #1047,#1048,#1049,#1050));
#1019 = ORIENTED_EDGE('',*,*,#1020,.F.);
#1020 = EDGE_CURVE('',#523,#468,#1021,.T.);
#1021 = SEAM_CURVE('',#1022,(#1026,#1033),.PCURVE_S1.);
#1022 = LINE('',#1023,#1024);
#1023 = CARTESIAN_POINT('',(12.5,3.947459643112E-16,0.));
#1024 = VECTOR('',#1025,1.);
#1025 = DIRECTION('',(0.,0.,1.));
#1026 = PCURVE('',#484,#1027);
#1027 = DEFINITIONAL_REPRESENTATION('',(#1028),#1032);
#1028 = LINE('',#1029,#1030);
#1029 = CARTESIAN_POINT('',(-6.28318530718,0.));
#1030 = VECTOR('',#1031,1.);
#1031 = DIRECTION('',(-0.,-1.));
#1032 = ( GEOMETRIC_REPRESENTATION_CONTEXT(2) 
PARAMETRIC_REPRESENTATION_CONTEXT() REPRESENTATION_CONTEXT('2D SPACE',''
  ) );
#1033 = PCURVE('',#484,#1034);
#1034 = DEFINITIONAL_REPRESENTATION('',(#1035),#1039);
#1035 = LINE('',#1036,#1037);
#1036 = CARTESIAN_POINT('',(-0.,0.));
#1037 = VECTOR('',#1038,1.);
#1038 = DIRECTION('',(-0.,-1.));
#1039 = ( GEOMETRIC_REPRESENTATION_CONTEXT(2) 
PARAMETRIC_REPRESENTATION_CONTEXT() REPRESENTATION_CONTEXT('2D SPACE',''
  ) );
#1040 = ORIENTED_EDGE('',*,*,#546,.F.);
#1041 = ORIENTED_EDGE('',*,*,#996,.F.);
#1042 = ORIENTED_EDGE('',*,*,#859,.F.);
#1043 = ORIENTED_EDGE('',*,*,#812,.T.);
#1044 = ORIENTED_EDGE('',*,*,#761,.T.);
#1045 = ORIENTED_EDGE('',*,*,#691,.T.);
#1046 = ORIENTED_EDGE('',*,*,#662,.F.);
#1047 = ORIENTED_EDGE('',*,*,#613,.T.);
#1048 = ORIENTED_EDGE('',*,*,#522,.F.);
#1049 = ORIENTED_EDGE('',*,*,#1020,.T.);
#1050 = ORIENTED_EDGE('',*,*,#467,.T.);
#1051 = ( GEOMETRIC_REPRESENTATION_CONTEXT(3) 
GLOBAL_UNCERTAINTY_ASSIGNED_CONTEXT((#1055)) 
GLOBAL_UNIT_ASSIGNED_CONTEXT((#1052,#1053,#1054)) REPRESENTATION_CONTEXT
('Context #1','3D Context with UNIT and UNCERTAINTY') );
#1052 = ( LENGTH_UNIT() NAMED_UNIT(*) SI_UNIT(.MILLI.,.METRE.) );
#1053 = ( NAMED_UNIT(*) PLANE_ANGLE_UNIT() SI_UNIT($,.RADIAN.) );
#1054 = ( NAMED_UNIT(*) SI_UNIT($,.STERADIAN.) SOLID_ANGLE_UNIT() );
#1055 = UNCERTAINTY_MEASURE_WITH_UNIT(LENGTH_MEASURE(1.E-07),#1052,
  'distance_accuracy_value','confusion accuracy');
#1056 = CONTEXT_DEPENDENT_SHAPE_REPRESENTATION(#1057,#1059);
#1057 = ( REPRESENTATION_RELATIONSHIP('','',#36,#10) 
REPRESENTATION_RELATIONSHIP_WITH_TRANSFORMATION(#1058) 
SHAPE_REPRESENTATION_RELATIONSHIP() );
#1058 = ITEM_DEFINED_TRANSFORMATION('','',#11,#15);
#1059 = PRODUCT_DEFINITION_SHAPE('Placement','Placement of an item',
  #1060);
#1060 = NEXT_ASSEMBLY_USAGE_OCCURRENCE('1','','',#5,#31,$);
#1061 = PRODUCT_RELATED_PRODUCT_CATEGORY('part',$,(#33));
#1062 = SHAPE_DEFINITION_REPRESENTATION(#1063,#1069);
#1063 = PRODUCT_DEFINITION_SHAPE('','',#1064);
#1064 = PRODUCT_DEFINITION('design','',#1065,#1068);
#1065 = PRODUCT_DEFINITION_FORMATION('','',#1066);
#1066 = PRODUCT('Open CASCADE STEP translator 7.8 3.2',
  'Open CASCADE STEP translator 7.8 3.2','',(#1067));
#1067 = PRODUCT_CONTEXT('',#2,'mechanical');
#1068 = PRODUCT_DEFINITION_CONTEXT('part definition',#2,'design');
#1069 = ADVANCED_BREP_SHAPE_REPRESENTATION('',(#11,#1070),#1536);
#1070 = MANIFOLD_SOLID_BREP('',#1071);
#1071 = CLOSED_SHELL('',(#1072,#1355,#1390,#1394,#1449,#1504,#1508));
#1072 = ADVANCED_FACE('',(#1073,#1160),#1087,.T.);
#1073 = FACE_BOUND('',#1074,.T.);
#1074 = EDGE_LOOP('',(#1075,#1105,#1132,#1133));
#1075 = ORIENTED_EDGE('',*,*,#1076,.T.);
#1076 = EDGE_CURVE('',#1077,#1079,#1081,.T.);
#1077 = VERTEX_POINT('',#1078);
#1078 = CARTESIAN_POINT('',(12.,-2.939152317954E-15,6.));
#1079 = VERTEX_POINT('',#1080);
#1080 = CARTESIAN_POINT('',(12.,-2.939152317954E-15,36.));
#1081 = SEAM_CURVE('',#1082,(#1086,#1098),.PCURVE_S1.);
#1082 = LINE('',#1083,#1084);
#1083 = CARTESIAN_POINT('',(12.,-2.939152317954E-15,6.));
#1084 = VECTOR('',#1085,1.);
#1085 = DIRECTION('',(0.,0.,1.));
#1086 = PCURVE('',#1087,#1092);
#1087 = CYLINDRICAL_SURFACE('',#1088,12.);
#1088 = AXIS2_PLACEMENT_3D('',#1089,#1090,#1091);
#1089 = CARTESIAN_POINT('',(0.,0.,6.));
#1090 = DIRECTION('',(0.,0.,1.));
#1091 = DIRECTION('',(1.,0.,-0.));
#1092 = DEFINITIONAL_REPRESENTATION('',(#1093),#1097);
#1093 = LINE('',#1094,#1095);
#1094 = CARTESIAN_POINT('',(6.28318530718,-0.));
#1095 = VECTOR('',#1096,1.);
#1096 = DIRECTION('',(0.,1.));
#1097 = ( GEOMETRIC_REPRESENTATION_CONTEXT(2) 
PARAMETRIC_REPRESENTATION_CONTEXT() REPRESENTATION_CONTEXT('2D SPACE',''
  ) );
#1098 = PCURVE('',#1087,#1099);
#1099 = DEFINITIONAL_REPRESENTATION('',(#1100),#1104);
#1100 = LINE('',#1101,#1102);
#1101 = CARTESIAN_POINT('',(0.,-0.));
#1102 = VECTOR('',#1103,1.);
#1103 = DIRECTION('',(0.,1.));
#1104 = ( GEOMETRIC_REPRESENTATION_CONTEXT(2) 
PARAMETRIC_REPRESENTATION_CONTEXT() REPRESENTATION_CONTEXT('2D SPACE',''
  ) );
#1105 = ORIENTED_EDGE('',*,*,#1106,.F.);
#1106 = EDGE_CURVE('',#1079,#1079,#1107,.T.);
#1107 = SURFACE_CURVE('',#1108,(#1113,#1120),.PCURVE_S1.);
#1108 = CIRCLE('',#1109,12.);
#1109 = AXIS2_PLACEMENT_3D('',#1110,#1111,#1112);
#1110 = CARTESIAN_POINT('',(0.,0.,36.));
#1111 = DIRECTION('',(0.,0.,1.));
#1112 = DIRECTION('',(1.,0.,-0.));
#1113 = PCURVE('',#1087,#1114);
#1114 = DEFINITIONAL_REPRESENTATION('',(#1115),#1119);
#1115 = LINE('',#1116,#1117);
#1116 = CARTESIAN_POINT('',(0.,30.));
#1117 = VECTOR('',#1118,1.);
#1118 = DIRECTION('',(1.,0.));
#1119 = ( GEOMETRIC_REPRESENTATION_CONTEXT(2) 
PARAMETRIC_REPRESENTATION_CONTEXT() REPRESENTATION_CONTEXT('2D SPACE',''
  ) );
#1120 = PCURVE('',#1121,#1126);
#1121 = PLANE('',#1122);
#1122 = AXIS2_PLACEMENT_3D('',#1123,#1124,#1125);
#1123 = CARTESIAN_POINT('',(0.,0.,36.));
#1124 = DIRECTION('',(0.,0.,1.));
#1125 = DIRECTION('',(1.,0.,-0.));
#1126 = DEFINITIONAL_REPRESENTATION('',(#1127),#1131);
#1127 = CIRCLE('',#1128,12.);
#1128 = AXIS2_PLACEMENT_2D('',#1129,#1130);
#1129 = CARTESIAN_POINT('',(0.,0.));
#1130 = DIRECTION('',(1.,0.));
#1131 = ( GEOMETRIC_REPRESENTATION_CONTEXT(2) 
PARAMETRIC_REPRESENTATION_CONTEXT() REPRESENTATION_CONTEXT('2D SPACE',''
  ) );
#1132 = ORIENTED_EDGE('',*,*,#1076,.F.);
#1133 = ORIENTED_EDGE('',*,*,#1134,.T.);
#1134 = EDGE_CURVE('',#1077,#1077,#1135,.T.);
#1135 = SURFACE_CURVE('',#1136,(#1141,#1148),.PCURVE_S1.);
#1136 = CIRCLE('',#1137,12.);
#1137 = AXIS2_PLACEMENT_3D('',#1138,#1139,#1140);
#1138 = CARTESIAN_POINT('',(0.,0.,6.));
#1139 = DIRECTION('',(0.,0.,1.));
#1140 = DIRECTION('',(1.,0.,-0.));
#1141 = PCURVE('',#1087,#1142);
#1142 = DEFINITIONAL_REPRESENTATION('',(#1143),#1147);
#1143 = LINE('',#1144,#1145);
#1144 = CARTESIAN_POINT('',(0.,0.));
#1145 = VECTOR('',#1146,1.);
#1146 = DIRECTION('',(1.,0.));
#1147 = ( GEOMETRIC_REPRESENTATION_CONTEXT(2) 
PARAMETRIC_REPRESENTATION_CONTEXT() REPRESENTATION_CONTEXT('2D SPACE',''
  ) );
#1148 = PCURVE('',#1149,#1154);
#1149 = PLANE('',#1150);
#1150 = AXIS2_PLACEMENT_3D('',#1151,#1152,#1153);
#1151 = CARTESIAN_POINT('',(0.,0.,6.));
#1152 = DIRECTION('',(0.,0.,1.));
#1153 = DIRECTION('',(1.,0.,-0.));
#1154 = DEFINITIONAL_REPRESENTATION('',(#1155),#1159);
#1155 = CIRCLE('',#1156,12.);
#1156 = AXIS2_PLACEMENT_2D('',#1157,#1158);
#1157 = CARTESIAN_POINT('',(0.,0.));
#1158 = DIRECTION('',(1.,0.));
#1159 = ( GEOMETRIC_REPRESENTATION_CONTEXT(2) 
PARAMETRIC_REPRESENTATION_CONTEXT() REPRESENTATION_CONTEXT('2D SPACE',''
  ) );
#1160 = FACE_BOUND('',#1161,.T.);
#1161 = EDGE_LOOP('',(#1162));
#1162 = ORIENTED_EDGE('',*,*,#1163,.F.);
#1163 = EDGE_CURVE('',#1164,#1164,#1166,.T.);
#1164 = VERTEX_POINT('',#1165);
#1165 = CARTESIAN_POINT('',(-4.898587196589E-16,12.,23.));
#1166 = SURFACE_CURVE('',#1167,(#1226,#1288),.PCURVE_S1.);
#1167 = B_SPLINE_CURVE_WITH_KNOTS('',8,(#1168,#1169,#1170,#1171,#1172,
    #1173,#1174,#1175,#1176,#1177,#1178,#1179,#1180,#1181,#1182,#1183,
    #1184,#1185,#1186,#1187,#1188,#1189,#1190,#1191,#1192,#1193,#1194,
    #1195,#1196,#1197,#1198,#1199,#1200,#1201,#1202,#1203,#1204,#1205,
    #1206,#1207,#1208,#1209,#1210,#1211,#1212,#1213,#1214,#1215,#1216,
    #1217,#1218,#1219,#1220,#1221,#1222,#1223,#1224,#1225),
  .UNSPECIFIED.,.T.,.F.,(9,7,7,7,7,7,7,7,9),(0.,0.137118170249,
    0.27885472831,0.448780263951,0.594995818741,0.689507989876,
    0.793466084468,0.89846409112,1.),.UNSPECIFIED.);
#1168 = CARTESIAN_POINT('',(2.22044604925E-16,12.,23.));
#1169 = CARTESIAN_POINT('',(0.232378774722,12.,23.));
#1170 = CARTESIAN_POINT('',(0.459350253791,11.994857007614,
    22.969143251645));
#1171 = CARTESIAN_POINT('',(0.67633121756,11.9849907715,22.909940824187)
  );
#1172 = CARTESIAN_POINT('',(0.879364806488,11.971359701061,
    22.825571271738));
#1173 = CARTESIAN_POINT('',(1.065187346055,11.955296410646,22.7198711668
    ));
#1174 = CARTESIAN_POINT('',(1.231361462413,11.938237304236,
    22.597319780709));
#1175 = CARTESIAN_POINT('',(1.376452110866,11.921448814579,
    22.463013270373));
#1176 = CARTESIAN_POINT('',(1.628160965924,11.889731708729,
    22.177505617473));
#1177 = CARTESIAN_POINT('',(1.736249055369,11.874515647367,
    22.022563788183));
#1178 = CARTESIAN_POINT('',(1.82513742136,11.860981031788,
    21.860425166206));
#1179 = CARTESIAN_POINT('',(1.895476164518,11.849679812142,
    21.693097875809));
#1180 = CARTESIAN_POINT('',(1.947825751021,11.840978676765,
    21.522164851578));
#1181 = CARTESIAN_POINT('',(1.982596363389,11.835101300898,
    21.348927739709));
#1182 = CARTESIAN_POINT('',(2.,11.832159566199,21.174518985312));
#1183 = CARTESIAN_POINT('',(2.,11.832159566199,20.790772172936));
#1184 = CARTESIAN_POINT('',(1.974984757949,11.83638770354,
    20.581834909171));
#1185 = CARTESIAN_POINT('',(1.925077323476,11.844824399351,
    20.374881721087));
#1186 = CARTESIAN_POINT('',(1.849776490011,11.857246818758,
    20.171783386935));
#1187 = CARTESIAN_POINT('',(1.748195082322,11.873206242515,
    19.974931450896));
#1188 = CARTESIAN_POINT('',(1.619210123301,11.891915679475,
    19.787456164135));
#1189 = CARTESIAN_POINT('',(1.461675528823,11.912128593333,
    19.613530704741));
#1190 = CARTESIAN_POINT('',(1.114088775935,11.949265447299,
    19.325981935284));
#1191 = CARTESIAN_POINT('',(0.925710560835,11.966888622493,
    19.202423936483));
#1192 = CARTESIAN_POINT('',(0.712532630061,11.98316665573,
    19.098908169789));
#1193 = CARTESIAN_POINT('',(0.479745870289,11.995956856868,
    19.023316091229));
#1194 = CARTESIAN_POINT('',(0.234389959138,12.00332252947,
    18.980840815502));
#1195 = CARTESIAN_POINT('',(-1.557656599851E-02,12.004384426686,
    18.973971048612));
#1196 = CARTESIAN_POINT('',(-0.261992593285,11.999452585733,
    19.00239652186));
#1197 = CARTESIAN_POINT('',(-0.649531531165,11.983375934464,
    19.101899609051));
#1198 = CARTESIAN_POINT('',(-0.798171746105,11.974999339247,
    19.154622615457));
#1199 = CARTESIAN_POINT('',(-0.941863742524,11.964791255207,
    19.220629586608));
#1200 = CARTESIAN_POINT('',(-1.079236187833,11.953092516753,
    19.299375963213));
#1201 = CARTESIAN_POINT('',(-1.208989520385,11.940332049457,
    19.390148879017));
#1202 = CARTESIAN_POINT('',(-1.329912223934,11.926998757452,
    19.492074318654));
#1203 = CARTESIAN_POINT('',(-1.440906949625,11.913604793028,
    19.604128291348));
#1204 = CARTESIAN_POINT('',(-1.651152367344,11.886379891552,
    19.858271343996));
#1205 = CARTESIAN_POINT('',(-1.748163346934,11.872633987355,
    20.002295600678));
#1206 = CARTESIAN_POINT('',(-1.830764402998,11.86005650966,
    20.155682256122));
#1207 = CARTESIAN_POINT('',(-1.897912513231,11.849273863003,
    20.316725925351));
#1208 = CARTESIAN_POINT('',(-1.948815914729,11.840811727984,
    20.483603203973));
#1209 = CARTESIAN_POINT('',(-1.982937164486,11.835043397831,
    20.654411291636));
#1210 = CARTESIAN_POINT('',(-2.,11.832159566199,20.827200407829));
#1211 = CARTESIAN_POINT('',(-2.,11.832159566199,21.174528138471));
#1212 = CARTESIAN_POINT('',(-1.982594567335,11.835101602089,
    21.348936835363));
#1213 = CARTESIAN_POINT('',(-1.947823450158,11.840979070091,
    21.52216982995));
#1214 = CARTESIAN_POINT('',(-1.895475050904,11.84967996822,
    21.69309848953));
#1215 = CARTESIAN_POINT('',(-1.825138021644,11.860980906551,
    21.860423437202));
#1216 = CARTESIAN_POINT('',(-1.736250317744,11.874515481647,
    22.022562177497));
#1217 = CARTESIAN_POINT('',(-1.628161257987,11.889731671927,
    22.177505286193));
#1218 = CARTESIAN_POINT('',(-1.376501555266,11.921442584233,
    22.462957186709));
#1219 = CARTESIAN_POINT('',(-1.231414913185,11.938231760348,
    22.597283368072));
#1220 = CARTESIAN_POINT('',(-1.065203245003,11.955296424046,
    22.719878537716));
#1221 = CARTESIAN_POINT('',(-0.879318550194,11.971365760275,
    22.825612526795));
#1222 = CARTESIAN_POINT('',(-0.676223874425,11.984998840307,
    22.909989174145));
#1223 = CARTESIAN_POINT('',(-0.459212809513,11.994861787781,
    22.969171944482));
#1224 = CARTESIAN_POINT('',(-0.232270719784,12.,23.));
#1225 = CARTESIAN_POINT('',(2.22044604925E-16,12.,23.));
#1226 = PCURVE('',#1087,#1227);
#1227 = DEFINITIONAL_REPRESENTATION('',(#1228),#1287);
#1228 = B_SPLINE_CURVE_WITH_KNOTS('',8,(#1229,#1230,#1231,#1232,#1233,
    #1234,#1235,#1236,#1237,#1238,#1239,#1240,#1241,#1242,#1243,#1244,
    #1245,#1246,#1247,#1248,#1249,#1250,#1251,#1252,#1253,#1254,#1255,
    #1256,#1257,#1258,#1259,#1260,#1261,#1262,#1263,#1264,#1265,#1266,
    #1267,#1268,#1269,#1270,#1271,#1272,#1273,#1274,#1275,#1276,#1277,
    #1278,#1279,#1280,#1281,#1282,#1283,#1284,#1285,#1286),
  .UNSPECIFIED.,.T.,.F.,(9,7,7,7,7,7,7,7,9),(0.,0.137118170249,
    0.27885472831,0.448780263951,0.594995818741,0.689507989876,
    0.793466084468,0.89846409112,1.),.UNSPECIFIED.);
#1229 = CARTESIAN_POINT('',(1.570796326795,17.));
#1230 = CARTESIAN_POINT('',(1.551431428901,17.));
#1231 = CARTESIAN_POINT('',(1.532517124961,16.969143251645));
#1232 = CARTESIAN_POINT('',(1.514424372623,16.909940824187));
#1233 = CARTESIAN_POINT('',(1.497473758344,16.825571271738));
#1234 = CARTESIAN_POINT('',(1.481935171419,16.7198711668));
#1235 = CARTESIAN_POINT('',(1.468016488886,16.597319780709));
#1236 = CARTESIAN_POINT('',(1.455845567334,16.463013270373));
#1237 = CARTESIAN_POINT('',(1.434703961022,16.177505617473));
#1238 = CARTESIAN_POINT('',(1.425608763667,16.022563788183));
#1239 = CARTESIAN_POINT('',(1.418116618933,15.860425166206));
#1240 = CARTESIAN_POINT('',(1.412180072092,15.693097875809));
#1241 = CARTESIAN_POINT('',(1.407757778909,15.522164851578));
#1242 = CARTESIAN_POINT('',(1.404819122626,15.348927739709));
#1243 = CARTESIAN_POINT('',(1.403348247575,15.174518985312));
#1244 = CARTESIAN_POINT('',(1.403348247575,14.790772172936));
#1245 = CARTESIAN_POINT('',(1.40546242005,14.581834909171));
#1246 = CARTESIAN_POINT('',(1.409680374702,14.374881721087));
#1247 = CARTESIAN_POINT('',(1.416040210254,14.171783386935));
#1248 = CARTESIAN_POINT('',(1.424608610704,13.974931450896));
#1249 = CARTESIAN_POINT('',(1.435468028682,13.787456164135));
#1250 = CARTESIAN_POINT('',(1.448700562608,13.613530704741));
#1251 = CARTESIAN_POINT('',(1.477830980167,13.325981935284));
#1252 = CARTESIAN_POINT('',(1.493596339001,13.202423936483));
#1253 = CARTESIAN_POINT('',(1.511408505961,13.098908169789));
#1254 = CARTESIAN_POINT('',(1.530827263374,13.023316091229));
#1255 = CARTESIAN_POINT('',(1.551269440226,12.980840815502));
#1256 = CARTESIAN_POINT('',(1.572090000197,12.973971048612));
#1257 = CARTESIAN_POINT('',(1.592624048688,13.00239652186));
#1258 = CARTESIAN_POINT('',(1.6249467367,13.101899609051));
#1259 = CARTESIAN_POINT('',(1.637351711235,13.154622615457));
#1260 = CARTESIAN_POINT('',(1.649354122326,13.220629586608));
#1261 = CARTESIAN_POINT('',(1.660841156916,13.299375963213));
#1262 = CARTESIAN_POINT('',(1.671704499489,13.390148879017));
#1263 = CARTESIAN_POINT('',(1.68184154879,13.492074318654));
#1264 = CARTESIAN_POINT('',(1.691157860236,13.604128291348));
#1265 = CARTESIAN_POINT('',(1.708824591944,13.858271343996));
#1266 = CARTESIAN_POINT('',(1.71698898941,14.002295600678));
#1267 = CARTESIAN_POINT('',(1.723951265358,14.155682256122));
#1268 = CARTESIAN_POINT('',(1.729618400498,14.316725925351));
#1269 = CARTESIAN_POINT('',(1.733918534748,14.483603203973));
#1270 = CARTESIAN_POINT('',(1.736802351116,14.654411291636));
#1271 = CARTESIAN_POINT('',(1.738244406015,14.827200407829));
#1272 = CARTESIAN_POINT('',(1.738244406015,15.174528138471));
#1273 = CARTESIAN_POINT('',(1.736773379225,15.348936835363));
#1274 = CARTESIAN_POINT('',(1.733834680143,15.52216982995));
#1275 = CARTESIAN_POINT('',(1.729412487798,15.69309848953));
#1276 = CARTESIAN_POINT('',(1.723476085723,15.860423437202));
#1277 = CARTESIAN_POINT('',(1.715983995976,16.022562177497));
#1278 = CARTESIAN_POINT('',(1.706888717099,16.177505286193));
#1279 = CARTESIAN_POINT('',(1.685751239204,16.462957186709));
#1280 = CARTESIAN_POINT('',(1.673580642132,16.597283368072));
#1281 = CARTESIAN_POINT('',(1.659658797436,16.719878537716));
#1282 = CARTESIAN_POINT('',(1.644115013959,16.825612526795));
#1283 = CARTESIAN_POINT('',(1.627159319178,16.909989174145));
#1284 = CARTESIAN_POINT('',(1.609064075191,16.969171944482));
#1285 = CARTESIAN_POINT('',(1.59015222011,17.));
#1286 = CARTESIAN_POINT('',(1.570796326795,17.));
#1287 = ( GEOMETRIC_REPRESENTATION_CONTEXT(2) 
PARAMETRIC_REPRESENTATION_CONTEXT() REPRESENTATION_CONTEXT('2D SPACE',''
  ) );
#1288 = PCURVE('',#1289,#1294);
#1289 = CYLINDRICAL_SURFACE('',#1290,2.);
#1290 = AXIS2_PLACEMENT_3D('',#1291,#1292,#1293);
#1291 = CARTESIAN_POINT('',(0.,0.,21.));
#1292 = DIRECTION('',(0.,1.,0.));
#1293 = DIRECTION('',(0.,-0.,1.));
#1294 = DEFINITIONAL_REPRESENTATION('',(#1295),#1354);
#1295 = B_SPLINE_CURVE_WITH_KNOTS('',8,(#1296,#1297,#1298,#1299,#1300,
    #1301,#1302,#1303,#1304,#1305,#1306,#1307,#1308,#1309,#1310,#1311,
    #1312,#1313,#1314,#1315,#1316,#1317,#1318,#1319,#1320,#1321,#1322,
    #1323,#1324,#1325,#1326,#1327,#1328,#1329,#1330,#1331,#1332,#1333,
    #1334,#1335,#1336,#1337,#1338,#1339,#1340,#1341,#1342,#1343,#1344,
    #1345,#1346,#1347,#1348,#1349,#1350,#1351,#1352,#1353),
  .UNSPECIFIED.,.F.,.F.,(9,7,7,7,7,7,7,7,9),(0.,0.137118170249,
    0.27885472831,0.448780263951,0.594995818741,0.689507989876,
    0.793466084468,0.89846409112,1.),.UNSPECIFIED.);
#1296 = CARTESIAN_POINT('',(0.,12.));
#1297 = CARTESIAN_POINT('',(0.116189387361,12.));
#1298 = CARTESIAN_POINT('',(0.229675062921,11.994857007614));
#1299 = CARTESIAN_POINT('',(0.340555863799,11.9849907715));
#1300 = CARTESIAN_POINT('',(0.448776266838,11.971359701061));
#1301 = CARTESIAN_POINT('',(0.55414487859,11.955296410646));
#1302 = CARTESIAN_POINT('',(0.65630332153,11.938237304236));
#1303 = CARTESIAN_POINT('',(0.75465084839,11.921448814579));
#1304 = CARTESIAN_POINT('',(0.944961100071,11.889731708729));
#1305 = CARTESIAN_POINT('',(1.03881294894,11.874515647367));
#1306 = CARTESIAN_POINT('',(1.130394134436,11.860981031788));
#1307 = CARTESIAN_POINT('',(1.220203147019,11.849679812142));
#1308 = CARTESIAN_POINT('',(1.308701178296,11.840978676765));
#1309 = CARTESIAN_POINT('',(1.396332563637,11.835101300898));
#1310 = CARTESIAN_POINT('',(1.483536834139,11.832159566199));
#1311 = CARTESIAN_POINT('',(1.675410240327,11.832159566199));
#1312 = CARTESIAN_POINT('',(1.77987854472,11.83638770354));
#1313 = CARTESIAN_POINT('',(1.885100920226,11.844824399351));
#1314 = CARTESIAN_POINT('',(1.99186222205,11.857246818758));
#1315 = CARTESIAN_POINT('',(2.100927108766,11.873206242515));
#1316 = CARTESIAN_POINT('',(2.213082502333,11.891915679475));
#1317 = CARTESIAN_POINT('',(2.329206488924,11.912128593333));
#1318 = CARTESIAN_POINT('',(2.554761828918,11.949265447299));
#1319 = CARTESIAN_POINT('',(2.66671541262,11.966888622493));
#1320 = CARTESIAN_POINT('',(2.783563825404,11.98316665573));
#1321 = CARTESIAN_POINT('',(2.903597199177,11.995956856868));
#1322 = CARTESIAN_POINT('',(3.025602080712,12.00332252947));
#1323 = CARTESIAN_POINT('',(3.148536940304,12.004384426686));
#1324 = CARTESIAN_POINT('',(3.271408981186,11.999452585733));
#1325 = CARTESIAN_POINT('',(3.471463531705,11.983375934464));
#1326 = CARTESIAN_POINT('',(3.550004533604,11.974999339247));
#1327 = CARTESIAN_POINT('',(3.62853949793,11.964791255207));
#1328 = CARTESIAN_POINT('',(3.707074113887,11.953092516753));
#1329 = CARTESIAN_POINT('',(3.785613979323,11.940332049457));
#1330 = CARTESIAN_POINT('',(3.864159366318,11.926998757452));
#1331 = CARTESIAN_POINT('',(3.942704106572,11.913604793028));
#1332 = CARTESIAN_POINT('',(4.107622136879,11.886379891552));
#1333 = CARTESIAN_POINT('',(4.194026767478,11.872633987355));
#1334 = CARTESIAN_POINT('',(4.280428793158,11.86005650966));
#1335 = CARTESIAN_POINT('',(4.36682124432,11.849273863003));
#1336 = CARTESIAN_POINT('',(4.453207438031,11.840811727984));
#1337 = CARTESIAN_POINT('',(4.539594833831,11.835043397831));
#1338 = CARTESIAN_POINT('',(4.625989184299,11.832159566199));
#1339 = CARTESIAN_POINT('',(4.79965304962,11.832159566199));
#1340 = CARTESIAN_POINT('',(4.886857281193,11.835101602089));
#1341 = CARTESIAN_POINT('',(4.974486783333,11.840979070091));
#1342 = CARTESIAN_POINT('',(5.062982674391,11.84967996822));
#1343 = CARTESIAN_POINT('',(5.15279029972,11.860980906551));
#1344 = CARTESIAN_POINT('',(5.244371342368,11.874515481647));
#1345 = CARTESIAN_POINT('',(5.338223986288,11.889731671927));
#1346 = CARTESIAN_POINT('',(5.528497075216,11.921442584233));
#1347 = CARTESIAN_POINT('',(5.626850665937,11.938231760348));
#1348 = CARTESIAN_POINT('',(5.729036402494,11.955296424046));
#1349 = CARTESIAN_POINT('',(5.834438329397,11.971365760275));
#1350 = CARTESIAN_POINT('',(5.942686409475,11.984998840307));
#1351 = CARTESIAN_POINT('',(6.053578976728,11.994861787781));
#1352 = CARTESIAN_POINT('',(6.167049947287,12.));
#1353 = CARTESIAN_POINT('',(6.28318530718,12.));
#1354 = ( GEOMETRIC_REPRESENTATION_CONTEXT(2) 
PARAMETRIC_REPRESENTATION_CONTEXT() REPRESENTATION_CONTEXT('2D SPACE',''
  ) );
#1355 = ADVANCED_FACE('',(#1356,#1359),#1149,.F.);
#1356 = FACE_BOUND('',#1357,.F.);
#1357 = EDGE_LOOP('',(#1358));
#1358 = ORIENTED_EDGE('',*,*,#1134,.T.);
#1359 = FACE_BOUND('',#1360,.F.);
#1360 = EDGE_LOOP('',(#1361));
#1361 = ORIENTED_EDGE('',*,*,#1362,.F.);
#1362 = EDGE_CURVE('',#1363,#1363,#1365,.T.);
#1363 = VERTEX_POINT('',#1364);
#1364 = CARTESIAN_POINT('',(6.,-1.469576158977E-15,6.));
#1365 = SURFACE_CURVE('',#1366,(#1371,#1378),.PCURVE_S1.);
#1366 = CIRCLE('',#1367,6.);
#1367 = AXIS2_PLACEMENT_3D('',#1368,#1369,#1370);
#1368 = CARTESIAN_POINT('',(0.,0.,6.));
#1369 = DIRECTION('',(0.,0.,1.));
#1370 = DIRECTION('',(1.,0.,-0.));
#1371 = PCURVE('',#1149,#1372);
#1372 = DEFINITIONAL_REPRESENTATION('',(#1373),#1377);
#1373 = CIRCLE('',#1374,6.);
#1374 = AXIS2_PLACEMENT_2D('',#1375,#1376);
#1375 = CARTESIAN_POINT('',(0.,0.));
#1376 = DIRECTION('',(1.,0.));
#1377 = ( GEOMETRIC_REPRESENTATION_CONTEXT(2) 
PARAMETRIC_REPRESENTATION_CONTEXT() REPRESENTATION_CONTEXT('2D SPACE',''
  ) );
#1378 = PCURVE('',#1379,#1384);
#1379 = CYLINDRICAL_SURFACE('',#1380,6.);
#1380 = AXIS2_PLACEMENT_3D('',#1381,#1382,#1383);
#1381 = CARTESIAN_POINT('',(0.,0.,-74.));
#1382 = DIRECTION('',(0.,0.,1.));
#1383 = DIRECTION('',(1.,0.,-0.));
#1384 = DEFINITIONAL_REPRESENTATION('',(#1385),#1389);
#1385 = LINE('',#1386,#1387);
#1386 = CARTESIAN_POINT('',(0.,80.));
#1387 = VECTOR('',#1388,1.);
#1388 = DIRECTION('',(1.,0.));
#1389 = ( GEOMETRIC_REPRESENTATION_CONTEXT(2) 
PARAMETRIC_REPRESENTATION_CONTEXT() REPRESENTATION_CONTEXT('2D SPACE',''
  ) );
#1390 = ADVANCED_FACE('',(#1391),#1121,.T.);
#1391 = FACE_BOUND('',#1392,.T.);
#1392 = EDGE_LOOP('',(#1393));
#1393 = ORIENTED_EDGE('',*,*,#1106,.T.);
#1394 = ADVANCED_FACE('',(#1395),#1289,.T.);
#1395 = FACE_BOUND('',#1396,.T.);
#1396 = EDGE_LOOP('',(#1397,#1420,#1447,#1448));
#1397 = ORIENTED_EDGE('',*,*,#1398,.T.);
#1398 = EDGE_CURVE('',#1164,#1399,#1401,.T.);
#1399 = VERTEX_POINT('',#1400);
#1400 = CARTESIAN_POINT('',(-4.898587196589E-16,29.,23.));
#1401 = SEAM_CURVE('',#1402,(#1406,#1413),.PCURVE_S1.);
#1402 = LINE('',#1403,#1404);
#1403 = CARTESIAN_POINT('',(-4.898587196589E-16,0.,23.));
#1404 = VECTOR('',#1405,1.);
#1405 = DIRECTION('',(0.,1.,0.));
#1406 = PCURVE('',#1289,#1407);
#1407 = DEFINITIONAL_REPRESENTATION('',(#1408),#1412);
#1408 = LINE('',#1409,#1410);
#1409 = CARTESIAN_POINT('',(6.28318530718,-0.));
#1410 = VECTOR('',#1411,1.);
#1411 = DIRECTION('',(0.,1.));
#1412 = ( GEOMETRIC_REPRESENTATION_CONTEXT(2) 
PARAMETRIC_REPRESENTATION_CONTEXT() REPRESENTATION_CONTEXT('2D SPACE',''
  ) );
#1413 = PCURVE('',#1289,#1414);
#1414 = DEFINITIONAL_REPRESENTATION('',(#1415),#1419);
#1415 = LINE('',#1416,#1417);
#1416 = CARTESIAN_POINT('',(0.,-0.));
#1417 = VECTOR('',#1418,1.);
#1418 = DIRECTION('',(0.,1.));
#1419 = ( GEOMETRIC_REPRESENTATION_CONTEXT(2) 
PARAMETRIC_REPRESENTATION_CONTEXT() REPRESENTATION_CONTEXT('2D SPACE',''
  ) );
#1420 = ORIENTED_EDGE('',*,*,#1421,.F.);
#1421 = EDGE_CURVE('',#1399,#1399,#1422,.T.);
#1422 = SURFACE_CURVE('',#1423,(#1428,#1435),.PCURVE_S1.);
#1423 = CIRCLE('',#1424,2.);
#1424 = AXIS2_PLACEMENT_3D('',#1425,#1426,#1427);
#1425 = CARTESIAN_POINT('',(0.,29.,21.));
#1426 = DIRECTION('',(0.,1.,0.));
#1427 = DIRECTION('',(0.,-0.,1.));
#1428 = PCURVE('',#1289,#1429);
#1429 = DEFINITIONAL_REPRESENTATION('',(#1430),#1434);
#1430 = LINE('',#1431,#1432);
#1431 = CARTESIAN_POINT('',(0.,29.));
#1432 = VECTOR('',#1433,1.);
#1433 = DIRECTION('',(1.,0.));
#1434 = ( GEOMETRIC_REPRESENTATION_CONTEXT(2) 
PARAMETRIC_REPRESENTATION_CONTEXT() REPRESENTATION_CONTEXT('2D SPACE',''
  ) );
#1435 = PCURVE('',#1436,#1441);
#1436 = PLANE('',#1437);
#1437 = AXIS2_PLACEMENT_3D('',#1438,#1439,#1440);
#1438 = CARTESIAN_POINT('',(0.,29.,21.));
#1439 = DIRECTION('',(0.,1.,0.));
#1440 = DIRECTION('',(0.,-0.,1.));
#1441 = DEFINITIONAL_REPRESENTATION('',(#1442),#1446);
#1442 = CIRCLE('',#1443,2.);
#1443 = AXIS2_PLACEMENT_2D('',#1444,#1445);
#1444 = CARTESIAN_POINT('',(0.,0.));
#1445 = DIRECTION('',(1.,0.));
#1446 = ( GEOMETRIC_REPRESENTATION_CONTEXT(2) 
PARAMETRIC_REPRESENTATION_CONTEXT() REPRESENTATION_CONTEXT('2D SPACE',''
  ) );
#1447 = ORIENTED_EDGE('',*,*,#1398,.F.);
#1448 = ORIENTED_EDGE('',*,*,#1163,.T.);
#1449 = ADVANCED_FACE('',(#1450),#1379,.T.);
#1450 = FACE_BOUND('',#1451,.T.);
#1451 = EDGE_LOOP('',(#1452,#1453,#1476,#1503));
#1452 = ORIENTED_EDGE('',*,*,#1362,.F.);
#1453 = ORIENTED_EDGE('',*,*,#1454,.F.);
#1454 = EDGE_CURVE('',#1455,#1363,#1457,.T.);
#1455 = VERTEX_POINT('',#1456);
#1456 = CARTESIAN_POINT('',(6.,-1.469576158977E-15,-74.));
#1457 = SEAM_CURVE('',#1458,(#1462,#1469),.PCURVE_S1.);
#1458 = LINE('',#1459,#1460);
#1459 = CARTESIAN_POINT('',(6.,-1.469576158977E-15,-74.));
#1460 = VECTOR('',#1461,1.);
#1461 = DIRECTION('',(0.,0.,1.));
#1462 = PCURVE('',#1379,#1463);
#1463 = DEFINITIONAL_REPRESENTATION('',(#1464),#1468);
#1464 = LINE('',#1465,#1466);
#1465 = CARTESIAN_POINT('',(6.28318530718,-0.));
#1466 = VECTOR('',#1467,1.);
#1467 = DIRECTION('',(0.,1.));
#1468 = ( GEOMETRIC_REPRESENTATION_CONTEXT(2) 
PARAMETRIC_REPRESENTATION_CONTEXT() REPRESENTATION_CONTEXT('2D SPACE',''
  ) );
#1469 = PCURVE('',#1379,#1470);
#1470 = DEFINITIONAL_REPRESENTATION('',(#1471),#1475);
#1471 = LINE('',#1472,#1473);
#1472 = CARTESIAN_POINT('',(0.,-0.));
#1473 = VECTOR('',#1474,1.);
#1474 = DIRECTION('',(0.,1.));
#1475 = ( GEOMETRIC_REPRESENTATION_CONTEXT(2) 
PARAMETRIC_REPRESENTATION_CONTEXT() REPRESENTATION_CONTEXT('2D SPACE',''
  ) );
#1476 = ORIENTED_EDGE('',*,*,#1477,.T.);
#1477 = EDGE_CURVE('',#1455,#1455,#1478,.T.);
#1478 = SURFACE_CURVE('',#1479,(#1484,#1491),.PCURVE_S1.);
#1479 = CIRCLE('',#1480,6.);
#1480 = AXIS2_PLACEMENT_3D('',#1481,#1482,#1483);
#1481 = CARTESIAN_POINT('',(0.,0.,-74.));
#1482 = DIRECTION('',(0.,0.,1.));
#1483 = DIRECTION('',(1.,0.,-0.));
#1484 = PCURVE('',#1379,#1485);
#1485 = DEFINITIONAL_REPRESENTATION('',(#1486),#1490);
#1486 = LINE('',#1487,#1488);
#1487 = CARTESIAN_POINT('',(0.,0.));
#1488 = VECTOR('',#1489,1.);
#1489 = DIRECTION('',(1.,0.));
#1490 = ( GEOMETRIC_REPRESENTATION_CONTEXT(2) 
PARAMETRIC_REPRESENTATION_CONTEXT() REPRESENTATION_CONTEXT('2D SPACE',''
  ) );
#1491 = PCURVE('',#1492,#1497);
#1492 = CONICAL_SURFACE('',#1493,0.,0.291456794478);
#1493 = AXIS2_PLACEMENT_3D('',#1494,#1495,#1496);
#1494 = CARTESIAN_POINT('',(0.,0.,-94.));
#1495 = DIRECTION('',(0.,0.,1.));
#1496 = DIRECTION('',(1.,0.,-0.));
#1497 = DEFINITIONAL_REPRESENTATION('',(#1498),#1502);
#1498 = LINE('',#1499,#1500);
#1499 = CARTESIAN_POINT('',(0.,20.));
#1500 = VECTOR('',#1501,1.);
#1501 = DIRECTION('',(1.,0.));
#1502 = ( GEOMETRIC_REPRESENTATION_CONTEXT(2) 
PARAMETRIC_REPRESENTATION_CONTEXT() REPRESENTATION_CONTEXT('2D SPACE',''
  ) );
#1503 = ORIENTED_EDGE('',*,*,#1454,.T.);
#1504 = ADVANCED_FACE('',(#1505),#1436,.T.);
#1505 = FACE_BOUND('',#1506,.T.);
#1506 = EDGE_LOOP('',(#1507));
#1507 = ORIENTED_EDGE('',*,*,#1421,.T.);
#1508 = ADVANCED_FACE('',(#1509),#1492,.T.);
#1509 = FACE_BOUND('',#1510,.T.);
#1510 = EDGE_LOOP('',(#1511,#1512,#1535));
#1511 = ORIENTED_EDGE('',*,*,#1477,.F.);
#1512 = ORIENTED_EDGE('',*,*,#1513,.F.);
#1513 = EDGE_CURVE('',#1514,#1455,#1516,.T.);
#1514 = VERTEX_POINT('',#1515);
#1515 = CARTESIAN_POINT('',(0.,0.,-94.));
#1516 = SEAM_CURVE('',#1517,(#1521,#1528),.PCURVE_S1.);
#1517 = LINE('',#1518,#1519);
#1518 = CARTESIAN_POINT('',(0.,0.,-94.));
#1519 = VECTOR('',#1520,1.);
#1520 = DIRECTION('',(0.287347885566,-7.037993366012E-17,0.957826285221)
  );
#1521 = PCURVE('',#1492,#1522);
#1522 = DEFINITIONAL_REPRESENTATION('',(#1523),#1527);
#1523 = LINE('',#1524,#1525);
#1524 = CARTESIAN_POINT('',(6.28318530718,-0.));
#1525 = VECTOR('',#1526,1.);
#1526 = DIRECTION('',(0.,1.));
#1527 = ( GEOMETRIC_REPRESENTATION_CONTEXT(2) 
PARAMETRIC_REPRESENTATION_CONTEXT() REPRESENTATION_CONTEXT('2D SPACE',''
  ) );
#1528 = PCURVE('',#1492,#1529);
#1529 = DEFINITIONAL_REPRESENTATION('',(#1530),#1534);
#1530 = LINE('',#1531,#1532);
#1531 = CARTESIAN_POINT('',(0.,-0.));
#1532 = VECTOR('',#1533,1.);
#1533 = DIRECTION('',(0.,1.));
#1534 = ( GEOMETRIC_REPRESENTATION_CONTEXT(2) 
PARAMETRIC_REPRESENTATION_CONTEXT() REPRESENTATION_CONTEXT('2D SPACE',''
  ) );
#1535 = ORIENTED_EDGE('',*,*,#1513,.T.);
#1536 = ( GEOMETRIC_REPRESENTATION_CONTEXT(3) 
GLOBAL_UNCERTAINTY_ASSIGNED_CONTEXT((#1540)) 
GLOBAL_UNIT_ASSIGNED_CONTEXT((#1537,#1538,#1539)) REPRESENTATION_CONTEXT
('Context #1','3D Context with UNIT and UNCERTAINTY') );
#1537 = ( LENGTH_UNIT() NAMED_UNIT(*) SI_UNIT(.MILLI.,.METRE.) );
#1538 = ( NAMED_UNIT(*) PLANE_ANGLE_UNIT() SI_UNIT($,.RADIAN.) );
#1539 = ( NAMED_UNIT(*) SI_UNIT($,.STERADIAN.) SOLID_ANGLE_UNIT() );
#1540 = UNCERTAINTY_MEASURE_WITH_UNIT(LENGTH_MEASURE(1.E-07),#1537,
  'distance_accuracy_value','confusion accuracy');
#1541 = CONTEXT_DEPENDENT_SHAPE_REPRESENTATION(#1542,#1544);
#1542 = ( REPRESENTATION_RELATIONSHIP('','',#1069,#10) 
REPRESENTATION_RELATIONSHIP_WITH_TRANSFORMATION(#1543) 
SHAPE_REPRESENTATION_RELATIONSHIP() );
#1543 = ITEM_DEFINED_TRANSFORMATION('','',#11,#19);
#1544 = PRODUCT_DEFINITION_SHAPE('Placement','Placement of an item',
  #1545);
#1545 = NEXT_ASSEMBLY_USAGE_OCCURRENCE('2','','',#5,#1064,$);
#1546 = PRODUCT_RELATED_PRODUCT_CATEGORY('part',$,(#1066));
ENDSEC;
END-ISO-10303-21;
