ISO-10303-21;
HEADER;
FILE_DESCRIPTION(('Open CASCADE Model'),'2;1');
FILE_NAME('Open CASCADE Shape Model','2026-09-28T14:31:41',('Author'),(
    'Open CASCADE'),'Open CASCADE STEP processor 7.8','Open CASCADE 7.8'
  ,'Unknown');
FILE_SCHEMA(('AUTOMOTIVE_DESIGN { 1 0 10303 214 1 1 1 1 }'));
ENDSEC;
DATA;
#1 = APPLICATION_PROTOCOL_DEFINITION('international standard',
  'automotive_design',2000,#2);
#2 = APPLICATION_CONTEXT(
  'core data for automotive mechanical design processes');
#3 = SHAPE_DEFINITION_REPRESENTATION(#4,#10);
#4 = PRODUCT_DEFINITION_SHAPE('','',#5);
#5 = PRODUCT_DEFINITION('design','',#6,#9);
#6 = PRODUCT_DEFINITION_FORMATION('','',#7);
#7 = PRODUCT('Open CASCADE STEP translator 7.8 2',
  'Open CASCADE STEP translator 7.8 2','',(#8));
#8 = PRODUCT_CONTEXT('',#2,'mechanical');
#9 = PRODUCT_DEFINITION_CONTEXT('part definition',#2,'design');
#10 = ADVANCED_BREP_SHAPE_REPRESENTATION('',(#11,#15),#481);
#11 = AXIS2_PLACEMENT_3D('',#12,#13,#14);
#12 = CARTESIAN_POINT('',(0.,0.,0.));
#13 = DIRECTION('',(0.,0.,1.));
#14 = DIRECTION('',(1.,0.,-0.));
#15 = MANIFOLD_SOLID_BREP('',#16);
#16 = CLOSED_SHELL('',(#17,#300,#335,#339,#394,#449,#453));
#17 = ADVANCED_FACE('',(#18,#105),#32,.T.);
#18 = FACE_BOUND('',#19,.T.);
#19 = EDGE_LOOP('',(#20,#50,#77,#78));
#20 = ORIENTED_EDGE('',*,*,#21,.T.);
#21 = EDGE_CURVE('',#22,#24,#26,.T.);
#22 = VERTEX_POINT('',#23);
#23 = CARTESIAN_POINT('',(12.,-2.939152317954E-15,6.));
#24 = VERTEX_POINT('',#25);
#25 = CARTESIAN_POINT('',(12.,-2.939152317954E-15,36.));
#26 = SEAM_CURVE('',#27,(#31,#43),.PCURVE_S1.);
#27 = LINE('',#28,#29);
#28 = CARTESIAN_POINT('',(12.,-2.939152317954E-15,6.));
#29 = VECTOR('',#30,1.);
#30 = DIRECTION('',(0.,0.,1.));
#31 = PCURVE('',#32,#37);
#32 = CYLINDRICAL_SURFACE('',#33,12.);
#33 = AXIS2_PLACEMENT_3D('',#34,#35,#36);
#34 = CARTESIAN_POINT('',(0.,0.,6.));
#35 = DIRECTION('',(0.,0.,1.));
#36 = DIRECTION('',(1.,0.,-0.));
#37 = DEFINITIONAL_REPRESENTATION('',(#38),#42);
#38 = LINE('',#39,#40);
#39 = CARTESIAN_POINT('',(6.28318530718,-0.));
#40 = VECTOR('',#41,1.);
#41 = DIRECTION('',(0.,1.));
#42 = ( GEOMETRIC_REPRESENTATION_CONTEXT(2) 
PARAMETRIC_REPRESENTATION_CONTEXT() REPRESENTATION_CONTEXT('2D SPACE',''
  ) );
#43 = PCURVE('',#32,#44);
#44 = DEFINITIONAL_REPRESENTATION('',(#45),#49);
#45 = LINE('',#46,#47);
#46 = CARTESIAN_POINT('',(0.,-0.));
#47 = VECTOR('',#48,1.);
#48 = DIRECTION('',(0.,1.));
#49 = ( GEOMETRIC_REPRESENTATION_CONTEXT(2) 
PARAMETRIC_REPRESENTATION_CONTEXT() REPRESENTATION_CONTEXT('2D SPACE',''
  ) );
#50 = ORIENTED_EDGE('',*,*,#51,.F.);
#51 = EDGE_CURVE('',#24,#24,#52,.T.);
#52 = SURFACE_CURVE('',#53,(#58,#65),.PCURVE_S1.);
#53 = CIRCLE('',#54,12.);
#54 = AXIS2_PLACEMENT_3D('',#55,#56,#57);
#55 = CARTESIAN_POINT('',(0.,0.,36.));
#56 = DIRECTION('',(0.,0.,1.));
#57 = DIRECTION('',(1.,0.,-0.));
#58 = PCURVE('',#32,#59);
#59 = DEFINITIONAL_REPRESENTATION('',(#60),#64);
#60 = LINE('',#61,#62);
#61 = CARTESIAN_POINT('',(0.,30.));
#62 = VECTOR('',#63,1.);
#63 = DIRECTION('',(1.,0.));
#64 = ( GEOMETRIC_REPRESENTATION_CONTEXT(2) 
PARAMETRIC_REPRESENTATION_CONTEXT() REPRESENTATION_CONTEXT('2D SPACE',''
  ) );
#65 = PCURVE('',#66,#71);
#66 = PLANE('',#67);
#67 = AXIS2_PLACEMENT_3D('',#68,#69,#70);
#68 = CARTESIAN_POINT('',(0.,0.,36.));
#69 = DIRECTION('',(0.,0.,1.));
#70 = DIRECTION('',(1.,0.,-0.));
#71 = DEFINITIONAL_REPRESENTATION('',(#72),#76);
#72 = CIRCLE('',#73,12.);
#73 = AXIS2_PLACEMENT_2D('',#74,#75);
#74 = CARTESIAN_POINT('',(0.,0.));
#75 = DIRECTION('',(1.,0.));
#76 = ( GEOMETRIC_REPRESENTATION_CONTEXT(2) 
PARAMETRIC_REPRESENTATION_CONTEXT() REPRESENTATION_CONTEXT('2D SPACE',''
  ) );
#77 = ORIENTED_EDGE('',*,*,#21,.F.);
#78 = ORIENTED_EDGE('',*,*,#79,.T.);
#79 = EDGE_CURVE('',#22,#22,#80,.T.);
#80 = SURFACE_CURVE('',#81,(#86,#93),.PCURVE_S1.);
#81 = CIRCLE('',#82,12.);
#82 = AXIS2_PLACEMENT_3D('',#83,#84,#85);
#83 = CARTESIAN_POINT('',(0.,0.,6.));
#84 = DIRECTION('',(0.,0.,1.));
#85 = DIRECTION('',(1.,0.,-0.));
#86 = PCURVE('',#32,#87);
#87 = DEFINITIONAL_REPRESENTATION('',(#88),#92);
#88 = LINE('',#89,#90);
#89 = CARTESIAN_POINT('',(0.,0.));
#90 = VECTOR('',#91,1.);
#91 = DIRECTION('',(1.,0.));
#92 = ( GEOMETRIC_REPRESENTATION_CONTEXT(2) 
PARAMETRIC_REPRESENTATION_CONTEXT() REPRESENTATION_CONTEXT('2D SPACE',''
  ) );
#93 = PCURVE('',#94,#99);
#94 = PLANE('',#95);
#95 = AXIS2_PLACEMENT_3D('',#96,#97,#98);
#96 = CARTESIAN_POINT('',(0.,0.,6.));
#97 = DIRECTION('',(0.,0.,1.));
#98 = DIRECTION('',(1.,0.,-0.));
#99 = DEFINITIONAL_REPRESENTATION('',(#100),#104);
#100 = CIRCLE('',#101,12.);
#101 = AXIS2_PLACEMENT_2D('',#102,#103);
#102 = CARTESIAN_POINT('',(0.,0.));
#103 = DIRECTION('',(1.,0.));
#104 = ( GEOMETRIC_REPRESENTATION_CONTEXT(2) 
PARAMETRIC_REPRESENTATION_CONTEXT() REPRESENTATION_CONTEXT('2D SPACE',''
  ) );
#105 = FACE_BOUND('',#106,.T.);
#106 = EDGE_LOOP('',(#107));
#107 = ORIENTED_EDGE('',*,*,#108,.F.);
#108 = EDGE_CURVE('',#109,#109,#111,.T.);
#109 = VERTEX_POINT('',#110);
#110 = CARTESIAN_POINT('',(-4.898587196589E-16,12.,23.));
#111 = SURFACE_CURVE('',#112,(#171,#233),.PCURVE_S1.);
#112 = B_SPLINE_CURVE_WITH_KNOTS('',8,(#113,#114,#115,#116,#117,#118,
    #119,#120,#121,#122,#123,#124,#125,#126,#127,#128,#129,#130,#131,
    #132,#133,#134,#135,#136,#137,#138,#139,#140,#141,#142,#143,#144,
    #145,#146,#147,#148,#149,#150,#151,#152,#153,#154,#155,#156,#157,
    #158,#159,#160,#161,#162,#163,#164,#165,#166,#167,#168,#169,#170),
  .UNSPECIFIED.,.T.,.F.,(9,7,7,7,7,7,7,7,9),(0.,0.137118170249,
    0.27885472831,0.448780263951,0.594995818741,0.689507989876,
    0.793466084468,0.89846409112,1.),.UNSPECIFIED.);
#113 = CARTESIAN_POINT('',(2.22044604925E-16,12.,23.));
#114 = CARTESIAN_POINT('',(0.232378774722,12.,23.));
#115 = CARTESIAN_POINT('',(0.459350253791,11.994857007614,
    22.969143251645));
#116 = CARTESIAN_POINT('',(0.67633121756,11.9849907715,22.909940824187)
  );
#117 = CARTESIAN_POINT('',(0.879364806488,11.971359701061,
    22.825571271738));
#118 = CARTESIAN_POINT('',(1.065187346055,11.955296410646,22.7198711668)
  );
#119 = CARTESIAN_POINT('',(1.231361462413,11.938237304236,
    22.597319780709));
#120 = CARTESIAN_POINT('',(1.376452110866,11.921448814579,
    22.463013270373));
#121 = CARTESIAN_POINT('',(1.628160965924,11.889731708729,
    22.177505617473));
#122 = CARTESIAN_POINT('',(1.736249055369,11.874515647367,
    22.022563788183));
#123 = CARTESIAN_POINT('',(1.82513742136,11.860981031788,21.860425166206
    ));
#124 = CARTESIAN_POINT('',(1.895476164518,11.849679812142,
    21.693097875809));
#125 = CARTESIAN_POINT('',(1.947825751021,11.840978676765,
    21.522164851578));
#126 = CARTESIAN_POINT('',(1.982596363389,11.835101300898,
    21.348927739709));
#127 = CARTESIAN_POINT('',(2.,11.832159566199,21.174518985312));
#128 = CARTESIAN_POINT('',(2.,11.832159566199,20.790772172936));
#129 = CARTESIAN_POINT('',(1.974984757949,11.83638770354,20.581834909171
    ));
#130 = CARTESIAN_POINT('',(1.925077323476,11.844824399351,
    20.374881721087));
#131 = CARTESIAN_POINT('',(1.849776490011,11.857246818758,
    20.171783386935));
#132 = CARTESIAN_POINT('',(1.748195082322,11.873206242515,
    19.974931450896));
#133 = CARTESIAN_POINT('',(1.619210123301,11.891915679475,
    19.787456164135));
#134 = CARTESIAN_POINT('',(1.461675528823,11.912128593333,
    19.613530704741));
#135 = CARTESIAN_POINT('',(1.114088775935,11.949265447299,
    19.325981935284));
#136 = CARTESIAN_POINT('',(0.925710560835,11.966888622493,
    19.202423936483));
#137 = CARTESIAN_POINT('',(0.712532630061,11.98316665573,19.098908169789
    ));
#138 = CARTESIAN_POINT('',(0.479745870289,11.995956856868,
    19.023316091229));
#139 = CARTESIAN_POINT('',(0.234389959138,12.00332252947,18.980840815502
    ));
#140 = CARTESIAN_POINT('',(-1.557656599851E-02,12.004384426686,
    18.973971048612));
#141 = CARTESIAN_POINT('',(-0.261992593285,11.999452585733,
    19.00239652186));
#142 = CARTESIAN_POINT('',(-0.649531531165,11.983375934464,
    19.101899609051));
#143 = CARTESIAN_POINT('',(-0.798171746105,11.974999339247,
    19.154622615457));
#144 = CARTESIAN_POINT('',(-0.941863742524,11.964791255207,
    19.220629586608));
#145 = CARTESIAN_POINT('',(-1.079236187833,11.953092516753,
    19.299375963213));
#146 = CARTESIAN_POINT('',(-1.208989520385,11.940332049457,
    19.390148879017));
#147 = CARTESIAN_POINT('',(-1.329912223934,11.926998757452,
    19.492074318654));
#148 = CARTESIAN_POINT('',(-1.440906949625,11.913604793028,
    19.604128291348));
#149 = CARTESIAN_POINT('',(-1.651152367344,11.886379891552,
    19.858271343996));
#150 = CARTESIAN_POINT('',(-1.748163346934,11.872633987355,
    20.002295600678));
#151 = CARTESIAN_POINT('',(-1.830764402998,11.86005650966,
    20.155682256122));
#152 = CARTESIAN_POINT('',(-1.897912513231,11.849273863003,
    20.316725925351));
#153 = CARTESIAN_POINT('',(-1.948815914729,11.840811727984,
    20.483603203973));
#154 = CARTESIAN_POINT('',(-1.982937164486,11.835043397831,
    20.654411291636));
#155 = CARTESIAN_POINT('',(-2.,11.832159566199,20.827200407829));
#156 = CARTESIAN_POINT('',(-2.,11.832159566199,21.174528138471));
#157 = CARTESIAN_POINT('',(-1.982594567335,11.835101602089,
    21.348936835363));
#158 = CARTESIAN_POINT('',(-1.947823450158,11.840979070091,
    21.52216982995));
#159 = CARTESIAN_POINT('',(-1.895475050904,11.84967996822,21.69309848953
    ));
#160 = CARTESIAN_POINT('',(-1.825138021644,11.860980906551,
    21.860423437202));
#161 = CARTESIAN_POINT('',(-1.736250317744,11.874515481647,
    22.022562177497));
#162 = CARTESIAN_POINT('',(-1.628161257987,11.889731671927,
    22.177505286193));
#163 = CARTESIAN_POINT('',(-1.376501555266,11.921442584233,
    22.462957186709));
#164 = CARTESIAN_POINT('',(-1.231414913185,11.938231760348,
    22.597283368072));
#165 = CARTESIAN_POINT('',(-1.065203245003,11.955296424046,
    22.719878537716));
#166 = CARTESIAN_POINT('',(-0.879318550194,11.971365760275,
    22.825612526795));
#167 = CARTESIAN_POINT('',(-0.676223874425,11.984998840307,
    22.909989174145));
#168 = CARTESIAN_POINT('',(-0.459212809513,11.994861787781,
    22.969171944482));
#169 = CARTESIAN_POINT('',(-0.232270719784,12.,23.));
#170 = CARTESIAN_POINT('',(2.22044604925E-16,12.,23.));
#171 = PCURVE('',#32,#172);
#172 = DEFINITIONAL_REPRESENTATION('',(#173),#232);
#173 = B_SPLINE_CURVE_WITH_KNOTS('',8,(#174,#175,#176,#177,#178,#179,
    #180,#181,#182,#183,#184,#185,#186,#187,#188,#189,#190,#191,#192,
    #193,#194,#195,#196,#197,#198,#199,#200,#201,#202,#203,#204,#205,
    #206,#207,#208,#209,#210,#211,#212,#213,#214,#215,#216,#217,#218,
    #219,#220,#221,#222,#223,#224,#225,#226,#227,#228,#229,#230,#231),
  .UNSPECIFIED.,.T.,.F.,(9,7,7,7,7,7,7,7,9),(0.,0.137118170249,
    0.27885472831,0.448780263951,0.594995818741,0.689507989876,
    0.793466084468,0.89846409112,1.),.UNSPECIFIED.);
#174 = CARTESIAN_POINT('',(1.570796326795,17.));
#175 = CARTESIAN_POINT('',(1.551431428901,17.));
#176 = CARTESIAN_POINT('',(1.532517124961,16.969143251645));
#177 = CARTESIAN_POINT('',(1.514424372623,16.909940824187));
#178 = CARTESIAN_POINT('',(1.497473758344,16.825571271738));
#179 = CARTESIAN_POINT('',(1.481935171419,16.7198711668));
#180 = CARTESIAN_POINT('',(1.468016488886,16.597319780709));
#181 = CARTESIAN_POINT('',(1.455845567334,16.463013270373));
#182 = CARTESIAN_POINT('',(1.434703961022,16.177505617473));
#183 = CARTESIAN_POINT('',(1.425608763667,16.022563788183));
#184 = CARTESIAN_POINT('',(1.418116618933,15.860425166206));
#185 = CARTESIAN_POINT('',(1.412180072092,15.693097875809));
#186 = CARTESIAN_POINT('',(1.407757778909,15.522164851578));
#187 = CARTESIAN_POINT('',(1.404819122626,15.348927739709));
#188 = CARTESIAN_POINT('',(1.403348247575,15.174518985312));
#189 = CARTESIAN_POINT('',(1.403348247575,14.790772172936));
#190 = CARTESIAN_POINT('',(1.40546242005,14.581834909171));
#191 = CARTESIAN_POINT('',(1.409680374702,14.374881721087));
#192 = CARTESIAN_POINT('',(1.416040210254,14.171783386935));
#193 = CARTESIAN_POINT('',(1.424608610704,13.974931450896));
#194 = CARTESIAN_POINT('',(1.435468028682,13.787456164135));
#195 = CARTESIAN_POINT('',(1.448700562608,13.613530704741));
#196 = CARTESIAN_POINT('',(1.477830980167,13.325981935284));
#197 = CARTESIAN_POINT('',(1.493596339001,13.202423936483));
#198 = CARTESIAN_POINT('',(1.511408505961,13.098908169789));
#199 = CARTESIAN_POINT('',(1.530827263374,13.023316091229));
#200 = CARTESIAN_POINT('',(1.551269440226,12.980840815502));
#201 = CARTESIAN_POINT('',(1.572090000197,12.973971048612));
#202 = CARTESIAN_POINT('',(1.592624048688,13.00239652186));
#203 = CARTESIAN_POINT('',(1.6249467367,13.101899609051));
#204 = CARTESIAN_POINT('',(1.637351711235,13.154622615457));
#205 = CARTESIAN_POINT('',(1.649354122326,13.220629586608));
#206 = CARTESIAN_POINT('',(1.660841156916,13.299375963213));
#207 = CARTESIAN_POINT('',(1.671704499489,13.390148879017));
#208 = CARTESIAN_POINT('',(1.68184154879,13.492074318654));
#209 = CARTESIAN_POINT('',(1.691157860236,13.604128291348));
#210 = CARTESIAN_POINT('',(1.708824591944,13.858271343996));
#211 = CARTESIAN_POINT('',(1.71698898941,14.002295600678));
#212 = CARTESIAN_POINT('',(1.723951265358,14.155682256122));
#213 = CARTESIAN_POINT('',(1.729618400498,14.316725925351));
#214 = CARTESIAN_POINT('',(1.733918534748,14.483603203973));
#215 = CARTESIAN_POINT('',(1.736802351116,14.654411291636));
#216 = CARTESIAN_POINT('',(1.738244406015,14.827200407829));
#217 = CARTESIAN_POINT('',(1.738244406015,15.174528138471));
#218 = CARTESIAN_POINT('',(1.736773379225,15.348936835363));
#219 = CARTESIAN_POINT('',(1.733834680143,15.52216982995));
#220 = CARTESIAN_POINT('',(1.729412487798,15.69309848953));
#221 = CARTESIAN_POINT('',(1.723476085723,15.860423437202));
#222 = CARTESIAN_POINT('',(1.715983995976,16.022562177497));
#223 = CARTESIAN_POINT('',(1.706888717099,16.177505286193));
#224 = CARTESIAN_POINT('',(1.685751239204,16.462957186709));
#225 = CARTESIAN_POINT('',(1.673580642132,16.597283368072));
#226 = CARTESIAN_POINT('',(1.659658797436,16.719878537716));
#227 = CARTESIAN_POINT('',(1.644115013959,16.825612526795));
#228 = CARTESIAN_POINT('',(1.627159319178,16.909989174145));
#229 = CARTESIAN_POINT('',(1.609064075191,16.969171944482));
#230 = CARTESIAN_POINT('',(1.59015222011,17.));
#231 = CARTESIAN_POINT('',(1.570796326795,17.));
#232 = ( GEOMETRIC_REPRESENTATION_CONTEXT(2) 
PARAMETRIC_REPRESENTATION_CONTEXT() REPRESENTATION_CONTEXT('2D SPACE',''
  ) );
#233 = PCURVE('',#234,#239);
#234 = CYLINDRICAL_SURFACE('',#235,2.);
#235 = AXIS2_PLACEMENT_3D('',#236,#237,#238);
#236 = CARTESIAN_POINT('',(0.,0.,21.));
#237 = DIRECTION('',(0.,1.,0.));
#238 = DIRECTION('',(0.,-0.,1.));
#239 = DEFINITIONAL_REPRESENTATION('',(#240),#299);
#240 = B_SPLINE_CURVE_WITH_KNOTS('',8,(#241,#242,#243,#244,#245,#246,
    #247,#248,#249,#250,#251,#252,#253,#254,#255,#256,#257,#258,#259,
    #260,#261,#262,#263,#264,#265,#266,#267,#268,#269,#270,#271,#272,
    #273,#274,#275,#276,#277,#278,#279,#280,#281,#282,#283,#284,#285,
    #286,#287,#288,#289,#290,#291,#292,#293,#294,#295,#296,#297,#298),
  .UNSPECIFIED.,.F.,.F.,(9,7,7,7,7,7,7,7,9),(0.,0.137118170249,
    0.27885472831,0.448780263951,0.594995818741,0.689507989876,
    0.793466084468,0.89846409112,1.),.UNSPECIFIED.);
#241 = CARTESIAN_POINT('',(0.,12.));
#242 = CARTESIAN_POINT('',(0.116189387361,12.));
#243 = CARTESIAN_POINT('',(0.229675062921,11.994857007614));
#244 = CARTESIAN_POINT('',(0.340555863799,11.9849907715));
#245 = CARTESIAN_POINT('',(0.448776266838,11.971359701061));
#246 = CARTESIAN_POINT('',(0.55414487859,11.955296410646));
#247 = CARTESIAN_POINT('',(0.65630332153,11.938237304236));
#248 = CARTESIAN_POINT('',(0.75465084839,11.921448814579));
#249 = CARTESIAN_POINT('',(0.944961100071,11.889731708729));
#250 = CARTESIAN_POINT('',(1.03881294894,11.874515647367));
#251 = CARTESIAN_POINT('',(1.130394134436,11.860981031788));
#252 = CARTESIAN_POINT('',(1.220203147019,11.849679812142));
#253 = CARTESIAN_POINT('',(1.308701178296,11.840978676765));
#254 = CARTESIAN_POINT('',(1.396332563637,11.835101300898));
#255 = CARTESIAN_POINT('',(1.483536834139,11.832159566199));
#256 = CARTESIAN_POINT('',(1.675410240327,11.832159566199));
#257 = CARTESIAN_POINT('',(1.77987854472,11.83638770354));
#258 = CARTESIAN_POINT('',(1.885100920226,11.844824399351));
#259 = CARTESIAN_POINT('',(1.99186222205,11.857246818758));
#260 = CARTESIAN_POINT('',(2.100927108766,11.873206242515));
#261 = CARTESIAN_POINT('',(2.213082502333,11.891915679475));
#262 = CARTESIAN_POINT('',(2.329206488924,11.912128593333));
#263 = CARTESIAN_POINT('',(2.554761828918,11.949265447299));
#264 = CARTESIAN_POINT('',(2.66671541262,11.966888622493));
#265 = CARTESIAN_POINT('',(2.783563825404,11.98316665573));
#266 = CARTESIAN_POINT('',(2.903597199177,11.995956856868));
#267 = CARTESIAN_POINT('',(3.025602080712,12.00332252947));
#268 = CARTESIAN_POINT('',(3.148536940304,12.004384426686));
#269 = CARTESIAN_POINT('',(3.271408981186,11.999452585733));
#270 = CARTESIAN_POINT('',(3.471463531705,11.983375934464));
#271 = CARTESIAN_POINT('',(3.550004533604,11.974999339247));
#272 = CARTESIAN_POINT('',(3.62853949793,11.964791255207));
#273 = CARTESIAN_POINT('',(3.707074113887,11.953092516753));
#274 = CARTESIAN_POINT('',(3.785613979323,11.940332049457));
#275 = CARTESIAN_POINT('',(3.864159366318,11.926998757452));
#276 = CARTESIAN_POINT('',(3.942704106572,11.913604793028));
#277 = CARTESIAN_POINT('',(4.107622136879,11.886379891552));
#278 = CARTESIAN_POINT('',(4.194026767478,11.872633987355));
#279 = CARTESIAN_POINT('',(4.280428793158,11.86005650966));
#280 = CARTESIAN_POINT('',(4.36682124432,11.849273863003));
#281 = CARTESIAN_POINT('',(4.453207438031,11.840811727984));
#282 = CARTESIAN_POINT('',(4.539594833831,11.835043397831));
#283 = CARTESIAN_POINT('',(4.625989184299,11.832159566199));
#284 = CARTESIAN_POINT('',(4.79965304962,11.832159566199));
#285 = CARTESIAN_POINT('',(4.886857281193,11.835101602089));
#286 = CARTESIAN_POINT('',(4.974486783333,11.840979070091));
#287 = CARTESIAN_POINT('',(5.062982674391,11.84967996822));
#288 = CARTESIAN_POINT('',(5.15279029972,11.860980906551));
#289 = CARTESIAN_POINT('',(5.244371342368,11.874515481647));
#290 = CARTESIAN_POINT('',(5.338223986288,11.889731671927));
#291 = CARTESIAN_POINT('',(5.528497075216,11.921442584233));
#292 = CARTESIAN_POINT('',(5.626850665937,11.938231760348));
#293 = CARTESIAN_POINT('',(5.729036402494,11.955296424046));
#294 = CARTESIAN_POINT('',(5.834438329397,11.971365760275));
#295 = CARTESIAN_POINT('',(5.942686409475,11.984998840307));
#296 = CARTESIAN_POINT('',(6.053578976728,11.994861787781));
#297 = CARTESIAN_POINT('',(6.167049947287,12.));
#298 = CARTESIAN_POINT('',(6.28318530718,12.));
#299 = ( GEOMETRIC_REPRESENTATION_CONTEXT(2) 
PARAMETRIC_REPRESENTATION_CONTEXT() REPRESENTATION_CONTEXT('2D SPACE',''
  ) );
#300 = ADVANCED_FACE('',(#301,#304),#94,.F.);
#301 = FACE_BOUND('',#302,.F.);
#302 = EDGE_LOOP('',(#303));
#303 = ORIENTED_EDGE('',*,*,#79,.T.);
#304 = FACE_BOUND('',#305,.F.);
#305 = EDGE_LOOP('',(#306));
#306 = ORIENTED_EDGE('',*,*,#307,.F.);
#307 = EDGE_CURVE('',#308,#308,#310,.T.);
#308 = VERTEX_POINT('',#309);
#309 = CARTESIAN_POINT('',(6.,-1.469576158977E-15,6.));
#310 = SURFACE_CURVE('',#311,(#316,#323),.PCURVE_S1.);
#311 = CIRCLE('',#312,6.);
#312 = AXIS2_PLACEMENT_3D('',#313,#314,#315);
#313 = CARTESIAN_POINT('',(0.,0.,6.));
#314 = DIRECTION('',(0.,0.,1.));
#315 = DIRECTION('',(1.,0.,-0.));
#316 = PCURVE('',#94,#317);
#317 = DEFINITIONAL_REPRESENTATION('',(#318),#322);
#318 = CIRCLE('',#319,6.);
#319 = AXIS2_PLACEMENT_2D('',#320,#321);
#320 = CARTESIAN_POINT('',(0.,0.));
#321 = DIRECTION('',(1.,0.));
#322 = ( GEOMETRIC_REPRESENTATION_CONTEXT(2) 
PARAMETRIC_REPRESENTATION_CONTEXT() REPRESENTATION_CONTEXT('2D SPACE',''
  ) );
#323 = PCURVE('',#324,#329);
#324 = CYLINDRICAL_SURFACE('',#325,6.);
#325 = AXIS2_PLACEMENT_3D('',#326,#327,#328);
#326 = CARTESIAN_POINT('',(0.,0.,-74.));
#327 = DIRECTION('',(0.,0.,1.));
#328 = DIRECTION('',(1.,0.,-0.));
#329 = DEFINITIONAL_REPRESENTATION('',(#330),#334);
#330 = LINE('',#331,#332);
#331 = CARTESIAN_POINT('',(0.,80.));
#332 = VECTOR('',#333,1.);
#333 = DIRECTION('',(1.,0.));
#334 = ( GEOMETRIC_REPRESENTATION_CONTEXT(2) 
PARAMETRIC_REPRESENTATION_CONTEXT() REPRESENTATION_CONTEXT('2D SPACE',''
  ) );
#335 = ADVANCED_FACE('',(#336),#66,.T.);
#336 = FACE_BOUND('',#337,.T.);
#337 = EDGE_LOOP('',(#338));
#338 = ORIENTED_EDGE('',*,*,#51,.T.);
#339 = ADVANCED_FACE('',(#340),#234,.T.);
#340 = FACE_BOUND('',#341,.T.);
#341 = EDGE_LOOP('',(#342,#365,#392,#393));
#342 = ORIENTED_EDGE('',*,*,#343,.T.);
#343 = EDGE_CURVE('',#109,#344,#346,.T.);
#344 = VERTEX_POINT('',#345);
#345 = CARTESIAN_POINT('',(-4.898587196589E-16,29.,23.));
#346 = SEAM_CURVE('',#347,(#351,#358),.PCURVE_S1.);
#347 = LINE('',#348,#349);
#348 = CARTESIAN_POINT('',(-4.898587196589E-16,0.,23.));
#349 = VECTOR('',#350,1.);
#350 = DIRECTION('',(0.,1.,0.));
#351 = PCURVE('',#234,#352);
#352 = DEFINITIONAL_REPRESENTATION('',(#353),#357);
#353 = LINE('',#354,#355);
#354 = CARTESIAN_POINT('',(6.28318530718,-0.));
#355 = VECTOR('',#356,1.);
#356 = DIRECTION('',(0.,1.));
#357 = ( GEOMETRIC_REPRESENTATION_CONTEXT(2) 
PARAMETRIC_REPRESENTATION_CONTEXT() REPRESENTATION_CONTEXT('2D SPACE',''
  ) );
#358 = PCURVE('',#234,#359);
#359 = DEFINITIONAL_REPRESENTATION('',(#360),#364);
#360 = LINE('',#361,#362);
#361 = CARTESIAN_POINT('',(0.,-0.));
#362 = VECTOR('',#363,1.);
#363 = DIRECTION('',(0.,1.));
#364 = ( GEOMETRIC_REPRESENTATION_CONTEXT(2) 
PARAMETRIC_REPRESENTATION_CONTEXT() REPRESENTATION_CONTEXT('2D SPACE',''
  ) );
#365 = ORIENTED_EDGE('',*,*,#366,.F.);
#366 = EDGE_CURVE('',#344,#344,#367,.T.);
#367 = SURFACE_CURVE('',#368,(#373,#380),.PCURVE_S1.);
#368 = CIRCLE('',#369,2.);
#369 = AXIS2_PLACEMENT_3D('',#370,#371,#372);
#370 = CARTESIAN_POINT('',(0.,29.,21.));
#371 = DIRECTION('',(0.,1.,0.));
#372 = DIRECTION('',(0.,-0.,1.));
#373 = PCURVE('',#234,#374);
#374 = DEFINITIONAL_REPRESENTATION('',(#375),#379);
#375 = LINE('',#376,#377);
#376 = CARTESIAN_POINT('',(0.,29.));
#377 = VECTOR('',#378,1.);
#378 = DIRECTION('',(1.,0.));
#379 = ( GEOMETRIC_REPRESENTATION_CONTEXT(2) 
PARAMETRIC_REPRESENTATION_CONTEXT() REPRESENTATION_CONTEXT('2D SPACE',''
  ) );
#380 = PCURVE('',#381,#386);
#381 = PLANE('',#382);
#382 = AXIS2_PLACEMENT_3D('',#383,#384,#385);
#383 = CARTESIAN_POINT('',(0.,29.,21.));
#384 = DIRECTION('',(0.,1.,0.));
#385 = DIRECTION('',(0.,-0.,1.));
#386 = DEFINITIONAL_REPRESENTATION('',(#387),#391);
#387 = CIRCLE('',#388,2.);
#388 = AXIS2_PLACEMENT_2D('',#389,#390);
#389 = CARTESIAN_POINT('',(0.,0.));
#390 = DIRECTION('',(1.,0.));
#391 = ( GEOMETRIC_REPRESENTATION_CONTEXT(2) 
PARAMETRIC_REPRESENTATION_CONTEXT() REPRESENTATION_CONTEXT('2D SPACE',''
  ) );
#392 = ORIENTED_EDGE('',*,*,#343,.F.);
#393 = ORIENTED_EDGE('',*,*,#108,.T.);
#394 = ADVANCED_FACE('',(#395),#324,.T.);
#395 = FACE_BOUND('',#396,.T.);
#396 = EDGE_LOOP('',(#397,#398,#421,#448));
#397 = ORIENTED_EDGE('',*,*,#307,.F.);
#398 = ORIENTED_EDGE('',*,*,#399,.F.);
#399 = EDGE_CURVE('',#400,#308,#402,.T.);
#400 = VERTEX_POINT('',#401);
#401 = CARTESIAN_POINT('',(6.,-1.469576158977E-15,-74.));
#402 = SEAM_CURVE('',#403,(#407,#414),.PCURVE_S1.);
#403 = LINE('',#404,#405);
#404 = CARTESIAN_POINT('',(6.,-1.469576158977E-15,-74.));
#405 = VECTOR('',#406,1.);
#406 = DIRECTION('',(0.,0.,1.));
#407 = PCURVE('',#324,#408);
#408 = DEFINITIONAL_REPRESENTATION('',(#409),#413);
#409 = LINE('',#410,#411);
#410 = CARTESIAN_POINT('',(6.28318530718,-0.));
#411 = VECTOR('',#412,1.);
#412 = DIRECTION('',(0.,1.));
#413 = ( GEOMETRIC_REPRESENTATION_CONTEXT(2) 
PARAMETRIC_REPRESENTATION_CONTEXT() REPRESENTATION_CONTEXT('2D SPACE',''
  ) );
#414 = PCURVE('',#324,#415);
#415 = DEFINITIONAL_REPRESENTATION('',(#416),#420);
#416 = LINE('',#417,#418);
#417 = CARTESIAN_POINT('',(0.,-0.));
#418 = VECTOR('',#419,1.);
#419 = DIRECTION('',(0.,1.));
#420 = ( GEOMETRIC_REPRESENTATION_CONTEXT(2) 
PARAMETRIC_REPRESENTATION_CONTEXT() REPRESENTATION_CONTEXT('2D SPACE',''
  ) );
#421 = ORIENTED_EDGE('',*,*,#422,.T.);
#422 = EDGE_CURVE('',#400,#400,#423,.T.);
#423 = SURFACE_CURVE('',#424,(#429,#436),.PCURVE_S1.);
#424 = CIRCLE('',#425,6.);
#425 = AXIS2_PLACEMENT_3D('',#426,#427,#428);
#426 = CARTESIAN_POINT('',(0.,0.,-74.));
#427 = DIRECTION('',(0.,0.,1.));
#428 = DIRECTION('',(1.,0.,-0.));
#429 = PCURVE('',#324,#430);
#430 = DEFINITIONAL_REPRESENTATION('',(#431),#435);
#431 = LINE('',#432,#433);
#432 = CARTESIAN_POINT('',(0.,0.));
#433 = VECTOR('',#434,1.);
#434 = DIRECTION('',(1.,0.));
#435 = ( GEOMETRIC_REPRESENTATION_CONTEXT(2) 
PARAMETRIC_REPRESENTATION_CONTEXT() REPRESENTATION_CONTEXT('2D SPACE',''
  ) );
#436 = PCURVE('',#437,#442);
#437 = CONICAL_SURFACE('',#438,0.,0.291456794478);
#438 = AXIS2_PLACEMENT_3D('',#439,#440,#441);
#439 = CARTESIAN_POINT('',(0.,0.,-94.));
#440 = DIRECTION('',(0.,0.,1.));
#441 = DIRECTION('',(1.,0.,-0.));
#442 = DEFINITIONAL_REPRESENTATION('',(#443),#447);
#443 = LINE('',#444,#445);
#444 = CARTESIAN_POINT('',(0.,20.));
#445 = VECTOR('',#446,1.);
#446 = DIRECTION('',(1.,0.));
#447 = ( GEOMETRIC_REPRESENTATION_CONTEXT(2) 
PARAMETRIC_REPRESENTATION_CONTEXT() REPRESENTATION_CONTEXT('2D SPACE',''
  ) );
#448 = ORIENTED_EDGE('',*,*,#399,.T.);
#449 = ADVANCED_FACE('',(#450),#381,.T.);
#450 = FACE_BOUND('',#451,.T.);
#451 = EDGE_LOOP('',(#452));
#452 = ORIENTED_EDGE('',*,*,#366,.T.);
#453 = ADVANCED_FACE('',(#454),#437,.T.);
#454 = FACE_BOUND('',#455,.T.);
#455 = EDGE_LOOP('',(#456,#457,#480));
#456 = ORIENTED_EDGE('',*,*,#422,.F.);
#457 = ORIENTED_EDGE('',*,*,#458,.F.);
#458 = EDGE_CURVE('',#459,#400,#461,.T.);
#459 = VERTEX_POINT('',#460);
#460 = CARTESIAN_POINT('',(0.,0.,-94.));
#461 = SEAM_CURVE('',#462,(#466,#473),.PCURVE_S1.);
#462 = LINE('',#463,#464);
#463 = CARTESIAN_POINT('',(0.,0.,-94.));
#464 = VECTOR('',#465,1.);
#465 = DIRECTION('',(0.287347885566,-7.037993366012E-17,0.957826285221)
  );
#466 = PCURVE('',#437,#467);
#467 = DEFINITIONAL_REPRESENTATION('',(#468),#472);
#468 = LINE('',#469,#470);
#469 = CARTESIAN_POINT('',(6.28318530718,-0.));
#470 = VECTOR('',#471,1.);
#471 = DIRECTION('',(0.,1.));
#472 = ( GEOMETRIC_REPRESENTATION_CONTEXT(2) 
PARAMETRIC_REPRESENTATION_CONTEXT() REPRESENTATION_CONTEXT('2D SPACE',''
  ) );
#473 = PCURVE('',#437,#474);
#474 = DEFINITIONAL_REPRESENTATION('',(#475),#479);
#475 = LINE('',#476,#477);
#476 = CARTESIAN_POINT('',(0.,-0.));
#477 = VECTOR('',#478,1.);
#478 = DIRECTION('',(0.,1.));
#479 = ( GEOMETRIC_REPRESENTATION_CONTEXT(2) 
PARAMETRIC_REPRESENTATION_CONTEXT() REPRESENTATION_CONTEXT('2D SPACE',''
  ) );
#480 = ORIENTED_EDGE('',*,*,#458,.T.);
#481 = ( GEOMETRIC_REPRESENTATION_CONTEXT(3) 
GLOBAL_UNCERTAINTY_ASSIGNED_CONTEXT((#485)) GLOBAL_UNIT_ASSIGNED_CONTEXT
((#482,#483,#484)) REPRESENTATION_CONTEXT('Context #1',
  '3D Context with UNIT and UNCERTAINTY') );
#482 = ( LENGTH_UNIT() NAMED_UNIT(*) SI_UNIT(.MILLI.,.METRE.) );
#483 = ( NAMED_UNIT(*) PLANE_ANGLE_UNIT() SI_UNIT($,.RADIAN.) );
#484 = ( NAMED_UNIT(*) SI_UNIT($,.STERADIAN.) SOLID_ANGLE_UNIT() );
#485 = UNCERTAINTY_MEASURE_WITH_UNIT(LENGTH_MEASURE(1.E-07),#482,
  'distance_accuracy_value','confusion accuracy');
#486 = PRODUCT_RELATED_PRODUCT_CATEGORY('part',$,(#7));
ENDSEC;
END-ISO-10303-21;
